<svg width="167" height="60" viewBox="0 0 167 60" fill="none" xmlns="http://www.w3.org/2000/svg">
<path d="M33 5.40583C33 4.62941 32.3706 4 31.5942 4H14.6731C14.2576 4 13.8634 4.18376 13.5963 4.50197L0.796088 19.7507C0.341032 20.2928 0.359947 21.0887 0.840243 21.6086L30.5616 53.779C31.4298 54.7187 33 54.1044 33 52.825V19.0085V9.52036V5.40583ZM33 9.52036V17.8009V10.2104V9.52036Z" fill="#4A0A77"/>
<path d="M33 42.6425V23.3213M33 9.52036V17.8009V10.2104V9.52036ZM33 9.52036V19.0085V52.825C33 54.1044 31.4298 54.7187 30.5616 53.779L0.840243 21.6086C0.359947 21.0887 0.341032 20.2928 0.796088 19.7507L13.5963 4.50197C13.8634 4.18376 14.2576 4 14.6731 4H31.5942C32.3706 4 33 4.62941 33 5.40583V9.52036Z" stroke="black" stroke-width="0.000649806"/>
<path d="M44.8949 8.86747V5.67273H59.9469V8.86747H54.3359V24H50.5058V8.86747H44.8949ZM69.2984 18.1474V10.2545H73.1107V24H69.4506V21.5033H69.3074C68.9972 22.3087 68.4811 22.956 67.7592 23.4452C67.0433 23.9344 66.1693 24.179 65.1372 24.179C64.2185 24.179 63.4101 23.9702 62.7121 23.5526C62.0141 23.1349 61.4682 22.5413 61.0744 21.7717C60.6866 21.0021 60.4898 20.0804 60.4838 19.0065V10.2545H64.296V18.3264C64.302 19.1378 64.5197 19.7791 64.9493 20.2504C65.3788 20.7217 65.9545 20.9574 66.6764 20.9574C67.1358 20.9574 67.5653 20.853 67.9651 20.6442C68.3648 20.4294 68.6869 20.1132 68.9315 19.6956C69.1821 19.278 69.3044 18.7619 69.2984 18.1474ZM76.16 24V10.2545H79.8559V12.6528H79.999C80.2496 11.7997 80.6702 11.1554 81.2608 10.7199C81.8515 10.2784 82.5316 10.0577 83.3012 10.0577C83.4921 10.0577 83.6979 10.0696 83.9186 10.0935C84.1394 10.1173 84.3333 10.1501 84.5003 10.1919V13.5746C84.3213 13.5209 84.0738 13.4732 83.7576 13.4314C83.4414 13.3896 83.152 13.3687 82.8895 13.3687C82.3287 13.3687 81.8276 13.4911 81.3861 13.7357C80.9506 13.9743 80.6046 14.3084 80.348 14.7379C80.0975 15.1675 79.9722 15.6626 79.9722 16.2234V24H76.16ZM86.4713 24V10.2545H90.2835V24H86.4713ZM88.3864 8.48267C87.8196 8.48267 87.3334 8.29474 86.9277 7.91889C86.528 7.53707 86.3281 7.08068 86.3281 6.54971C86.3281 6.02471 86.528 5.57429 86.9277 5.19844C87.3334 4.81662 87.8196 4.62571 88.3864 4.62571C88.9531 4.62571 89.4364 4.81662 89.8361 5.19844C90.2418 5.57429 90.4446 6.02471 90.4446 6.54971C90.4446 7.08068 90.2418 7.53707 89.8361 7.91889C89.4364 8.29474 88.9531 8.48267 88.3864 8.48267ZM97.1495 16.0534V24H93.3373V10.2545H96.9706V12.6797H97.1316C97.4359 11.8803 97.946 11.2479 98.6619 10.7825C99.3778 10.3112 100.246 10.0756 101.266 10.0756C102.221 10.0756 103.053 10.2844 103.763 10.702C104.473 11.1196 105.025 11.7162 105.418 12.4918C105.812 13.2614 106.009 14.1801 106.009 15.248V24H102.197V15.9281C102.203 15.0869 101.988 14.4307 101.552 13.9594C101.117 13.4821 100.517 13.2435 99.7537 13.2435C99.2406 13.2435 98.7872 13.3538 98.3934 13.5746C98.0056 13.7953 97.7014 14.1175 97.4806 14.5411C97.2659 14.9587 97.1555 15.4628 97.1495 16.0534ZM115.206 29.4409C113.971 29.4409 112.912 29.2709 112.029 28.9308C111.152 28.5967 110.454 28.1403 109.935 27.5616C109.416 26.983 109.079 26.3327 108.924 25.6108L112.45 25.1365C112.557 25.4109 112.727 25.6675 112.96 25.9061C113.193 26.1447 113.5 26.3357 113.882 26.4788C114.269 26.628 114.741 26.7026 115.296 26.7026C116.125 26.7026 116.808 26.4997 117.345 26.094C117.888 25.6943 118.159 25.0232 118.159 24.0805V21.5659H117.998C117.831 21.9477 117.581 22.3087 117.246 22.6487C116.912 22.9888 116.483 23.2662 115.958 23.481C115.433 23.6957 114.806 23.8031 114.079 23.8031C113.046 23.8031 112.107 23.5645 111.26 23.0872C110.418 22.604 109.747 21.8672 109.246 20.8768C108.751 19.8805 108.503 18.6217 108.503 17.1004C108.503 15.5433 108.757 14.2428 109.264 13.1987C109.771 12.1547 110.445 11.3732 111.287 10.8541C112.134 10.3351 113.061 10.0756 114.07 10.0756C114.839 10.0756 115.484 10.2068 116.003 10.4693C116.522 10.7259 116.939 11.048 117.255 11.4358C117.578 11.8176 117.825 12.1935 117.998 12.5634H118.141V10.2545H121.927V24.1342C121.927 25.3036 121.64 26.282 121.068 27.0695C120.495 27.857 119.701 28.4476 118.687 28.8413C117.679 29.2411 116.519 29.4409 115.206 29.4409ZM115.287 20.9395C115.901 20.9395 116.42 20.7874 116.844 20.4831C117.273 20.1729 117.601 19.7314 117.828 19.1587C118.061 18.58 118.177 17.8879 118.177 17.0825C118.177 16.2771 118.064 15.5791 117.837 14.9885C117.61 14.3919 117.282 13.9295 116.853 13.6014C116.423 13.2733 115.901 13.1092 115.287 13.1092C114.66 13.1092 114.132 13.2793 113.703 13.6193C113.273 13.9534 112.948 14.4187 112.727 15.0153C112.507 15.6119 112.396 16.301 112.396 17.0825C112.396 17.876 112.507 18.5621 112.727 19.1408C112.954 19.7135 113.279 20.158 113.703 20.4741C114.132 20.7844 114.66 20.9395 115.287 20.9395ZM45.5929 54V35.6727H57.9423V38.8675H49.4678V43.2345H57.307V46.4293H49.4678V50.8053H57.9781V54H45.5929ZM64.7636 46.0534V54H60.9514V40.2545H64.5846V42.6797H64.7457C65.05 41.8803 65.5601 41.2479 66.276 40.7825C66.9919 40.3112 67.8599 40.0756 68.8801 40.0756C69.8346 40.0756 70.6669 40.2844 71.3768 40.702C72.0868 41.1196 72.6386 41.7162 73.0324 42.4918C73.4261 43.2614 73.623 44.1801 73.623 45.248V54H69.8108V45.9281C69.8167 45.0869 69.602 44.4307 69.1664 43.9594C68.7309 43.4821 68.1314 43.2435 67.3677 43.2435C66.8547 43.2435 66.4012 43.3538 66.0075 43.5746C65.6197 43.7953 65.3154 44.1175 65.0947 44.5411C64.8799 44.9587 64.7696 45.4628 64.7636 46.0534ZM82.8381 54.2685C81.4301 54.2685 80.219 53.9702 79.2048 53.3736C78.1966 52.771 77.421 51.9358 76.8781 50.8679C76.3412 49.8 76.0727 48.571 76.0727 47.181C76.0727 45.773 76.3442 44.5381 76.8871 43.4761C77.4359 42.4082 78.2145 41.576 79.2227 40.9794C80.231 40.3768 81.4301 40.0756 82.8202 40.0756C84.0193 40.0756 85.0693 40.2933 85.9702 40.7288C86.871 41.1643 87.584 41.7759 88.109 42.5634C88.634 43.3509 88.9233 44.2756 88.977 45.3375H85.3795C85.2781 44.6514 85.0097 44.0996 84.5741 43.682C84.1446 43.2584 83.5808 43.0466 82.8828 43.0466C82.2922 43.0466 81.7761 43.2077 81.3347 43.5298C80.8991 43.846 80.5591 44.3084 80.3145 44.9169C80.0699 45.5254 79.9476 46.2622 79.9476 47.1273C79.9476 48.0043 80.0669 48.75 80.3055 49.3645C80.5501 49.979 80.8932 50.4473 81.3347 50.7695C81.7761 51.0916 82.2922 51.2527 82.8828 51.2527C83.3183 51.2527 83.7091 51.1632 84.0551 50.9842C84.4071 50.8053 84.6964 50.5457 84.9232 50.2057C85.1558 49.8597 85.308 49.445 85.3795 48.9618H88.977C88.9173 50.0118 88.631 50.9365 88.1179 51.7359C87.6108 52.5294 86.9098 53.1499 86.0149 53.5973C85.12 54.0447 84.0611 54.2685 82.8381 54.2685ZM91.4178 54V40.2545H95.1137V42.6528H95.2569C95.5074 41.7997 95.928 41.1554 96.5186 40.7199C97.1093 40.2784 97.7894 40.0577 98.559 40.0577C98.7499 40.0577 98.9557 40.0696 99.1765 40.0935C99.3972 40.1173 99.5911 40.1501 99.7581 40.1919V43.5746C99.5792 43.5209 99.3316 43.4732 99.0154 43.4314C98.6992 43.3896 98.4098 43.3687 98.1473 43.3687C97.5865 43.3687 97.0854 43.4911 96.6439 43.7357C96.2084 43.9743 95.8624 44.3084 95.6059 44.7379C95.3553 45.1675 95.23 45.6626 95.23 46.2234V54H91.4178ZM104.501 59.1545C104.018 59.1545 103.564 59.1158 103.141 59.0382C102.723 58.9666 102.377 58.8741 102.103 58.7608L102.962 55.9151C103.409 56.0523 103.812 56.1268 104.17 56.1388C104.534 56.1507 104.847 56.0672 105.11 55.8882C105.378 55.7092 105.596 55.405 105.763 54.9754L105.987 54.3938L101.056 40.2545H105.065L107.911 50.3489H108.054L110.926 40.2545H114.962L109.62 55.4855C109.363 56.2253 109.014 56.8696 108.573 57.4185C108.137 57.9733 107.585 58.3999 106.917 58.6982C106.249 59.0024 105.444 59.1545 104.501 59.1545ZM116.913 59.1545V40.2545H120.672V42.5634H120.842C121.009 42.1935 121.25 41.8176 121.567 41.4358C121.889 41.048 122.306 40.7259 122.819 40.4693C123.338 40.2068 123.983 40.0756 124.752 40.0756C125.755 40.0756 126.679 40.3381 127.526 40.8631C128.374 41.3821 129.051 42.1666 129.558 43.2166C130.065 44.2607 130.319 45.5702 130.319 47.1452C130.319 48.6784 130.071 49.973 129.576 51.029C129.087 52.079 128.418 52.8754 127.571 53.4183C126.73 53.9553 125.787 54.2237 124.743 54.2237C124.004 54.2237 123.374 54.1014 122.855 53.8568C122.342 53.6122 121.921 53.305 121.593 52.9351C121.265 52.5592 121.015 52.1804 120.842 51.7986H120.725V59.1545H116.913ZM120.645 47.1273C120.645 47.9446 120.758 48.6575 120.985 49.2661C121.212 49.8746 121.54 50.3489 121.969 50.6889C122.399 51.023 122.921 51.1901 123.535 51.1901C124.156 51.1901 124.681 51.02 125.11 50.68C125.54 50.3339 125.865 49.8567 126.086 49.2482C126.312 48.6337 126.426 47.9267 126.426 47.1273C126.426 46.3338 126.315 45.6358 126.095 45.0332C125.874 44.4307 125.549 43.9594 125.119 43.6193C124.69 43.2793 124.162 43.1092 123.535 43.1092C122.915 43.1092 122.39 43.2733 121.96 43.6014C121.537 43.9295 121.212 44.3949 120.985 44.9974C120.758 45.6 120.645 46.3099 120.645 47.1273ZM140.171 40.2545V43.1182H131.894V40.2545H140.171ZM133.773 36.9614H137.585V49.7761C137.585 50.1281 137.639 50.4026 137.746 50.5994C137.853 50.7903 138.003 50.9246 138.194 51.0021C138.39 51.0797 138.617 51.1185 138.874 51.1185C139.053 51.1185 139.232 51.1036 139.411 51.0737C139.59 51.0379 139.727 51.0111 139.822 50.9932L140.422 53.83C140.231 53.8896 139.962 53.9582 139.616 54.0358C139.27 54.1193 138.85 54.17 138.355 54.1879C137.436 54.2237 136.63 54.1014 135.938 53.821C135.252 53.5406 134.718 53.1051 134.337 52.5145C133.955 51.9239 133.767 51.1781 133.773 50.2773V36.9614ZM148.771 54.2685C147.357 54.2685 146.14 53.9821 145.12 53.4094C144.106 52.8307 143.324 52.0134 142.775 50.9574C142.226 49.8955 141.952 48.6396 141.952 47.1899C141.952 45.776 142.226 44.5351 142.775 43.4672C143.324 42.3993 144.097 41.567 145.093 40.9705C146.095 40.3739 147.271 40.0756 148.619 40.0756C149.526 40.0756 150.37 40.2217 151.151 40.5141C151.939 40.8004 152.625 41.233 153.21 41.8116C153.8 42.3903 154.26 43.1182 154.588 43.9952C154.916 44.8662 155.08 45.8864 155.08 47.0557V48.1027H143.473V45.7402H151.492C151.492 45.1913 151.372 44.7051 151.134 44.2815C150.895 43.858 150.564 43.5268 150.14 43.2882C149.723 43.0436 149.236 42.9213 148.682 42.9213C148.103 42.9213 147.59 43.0555 147.142 43.324C146.701 43.5865 146.355 43.9415 146.104 44.3889C145.854 44.8304 145.725 45.3226 145.719 45.8655V48.1116C145.719 48.7918 145.845 49.3794 146.095 49.8746C146.352 50.3697 146.713 50.7516 147.178 51.02C147.644 51.2885 148.195 51.4227 148.834 51.4227C149.257 51.4227 149.645 51.3631 149.997 51.2437C150.349 51.1244 150.65 50.9455 150.901 50.7068C151.151 50.4682 151.342 50.1759 151.474 49.8298L154.999 50.0625C154.82 50.9097 154.454 51.6494 153.899 52.2818C153.35 52.9082 152.64 53.3974 151.769 53.7494C150.904 54.0955 149.905 54.2685 148.771 54.2685ZM157.568 54V40.2545H161.264V42.6528H161.407C161.657 41.7997 162.078 41.1554 162.669 40.7199C163.259 40.2784 163.939 40.0577 164.709 40.0577C164.9 40.0577 165.106 40.0696 165.326 40.0935C165.547 40.1173 165.741 40.1501 165.908 40.1919V43.5746C165.729 43.5209 165.482 43.4732 165.165 43.4314C164.849 43.3896 164.56 43.3687 164.297 43.3687C163.737 43.3687 163.235 43.4911 162.794 43.7357C162.358 43.9743 162.012 44.3084 161.756 44.7379C161.505 45.1675 161.38 45.6626 161.38 46.2234V54H157.568Z" fill="#4A0A77"/>
</svg>
