<svg width="189" height="62" viewBox="0 0 189 62" fill="none" xmlns="http://www.w3.org/2000/svg">
<path d="M34.141 6.41318C34.141 5.6327 33.5083 5 32.7278 5H15.7183C15.3007 5 14.9044 5.18472 14.6359 5.5046L1.76875 20.8331C1.31132 21.378 1.33033 22.178 1.81314 22.7006L31.6898 55.0392C32.5626 55.9838 34.141 55.3663 34.141 54.0802V20.0869V10.5492V6.41318ZM34.141 10.5492V18.873V11.2429V10.5492Z" fill="#4A0A77"/>
<path d="M34.141 43.8445V24.4223M34.141 10.5492V18.873V11.2429V10.5492ZM34.141 10.5492V20.0869V54.0802C34.141 55.3663 32.5626 55.9838 31.6898 55.0392L1.81314 22.7006C1.33033 22.178 1.31132 21.378 1.76875 20.8331L14.6359 5.5046C14.9044 5.18472 15.3007 5 15.7183 5H32.7278C33.5083 5 34.141 5.6327 34.141 6.41318V10.5492Z" stroke="black" stroke-width="0.000653203"/>
<path d="M47.8661 8.53939V4.85315H65.2337V8.53939H58.7596V26H54.3402V8.53939H47.8661ZM76.024 19.247V10.1399H80.4227V26H76.1995V23.1192H76.0343C75.6764 24.0485 75.0809 24.7953 74.248 25.3598C73.4219 25.9243 72.4135 26.2065 71.2226 26.2065C70.1625 26.2065 69.2297 25.9656 68.4244 25.4837C67.619 25.0019 66.9891 24.3169 66.5348 23.4289C66.0873 22.5409 65.8602 21.4774 65.8533 20.2383V10.1399H70.252V19.4536C70.2589 20.3898 70.5101 21.1298 71.0058 21.6736C71.5014 22.2174 72.1657 22.4893 72.9986 22.4893C73.5286 22.4893 74.0243 22.3688 74.4855 22.1279C74.9467 21.8801 75.3184 21.5152 75.6007 21.0334C75.8898 20.5515 76.0309 19.9561 76.024 19.247ZM83.9412 26V10.1399H88.2056V12.9071H88.3709C88.66 11.9227 89.1453 11.1793 89.8268 10.6768C90.5083 10.1674 91.293 9.9127 92.181 9.9127C92.4013 9.9127 92.6388 9.92646 92.8935 9.954C93.1482 9.98153 93.3719 10.0194 93.5646 10.0676V13.9707C93.3581 13.9087 93.0724 13.8536 92.7076 13.8055C92.3428 13.7573 92.0089 13.7332 91.706 13.7332C91.059 13.7332 90.4807 13.8743 89.9713 14.1565C89.4688 14.4319 89.0696 14.8174 88.7736 15.313C88.4844 15.8086 88.3399 16.38 88.3399 17.027V26H83.9412ZM95.8389 26V10.1399H100.238V26H95.8389ZM98.0485 8.09539C97.3946 8.09539 96.8336 7.87855 96.3655 7.44487C95.9042 7.00431 95.6736 6.47771 95.6736 5.86506C95.6736 5.25929 95.9042 4.73956 96.3655 4.30589C96.8336 3.86533 97.3946 3.64505 98.0485 3.64505C98.7025 3.64505 99.2601 3.86533 99.7213 4.30589C100.189 4.73956 100.423 5.25929 100.423 5.86506C100.423 6.47771 100.189 7.00431 99.7213 7.44487C99.2601 7.87855 98.7025 8.09539 98.0485 8.09539ZM108.16 16.8309V26H103.761V10.1399H107.953V12.9381H108.139C108.49 12.0157 109.079 11.286 109.905 10.7491C110.731 10.2053 111.733 9.93335 112.91 9.93335C114.011 9.93335 114.971 10.1743 115.791 10.6561C116.61 11.138 117.246 11.8264 117.701 12.7213C118.155 13.6093 118.382 14.6694 118.382 15.9016V26H113.984V16.6863C113.99 15.7157 113.743 14.9585 113.24 14.4147C112.738 13.864 112.046 13.5886 111.165 13.5886C110.573 13.5886 110.049 13.716 109.595 13.9707C109.148 14.2254 108.797 14.5971 108.542 15.0858C108.294 15.5677 108.167 16.1494 108.16 16.8309ZM128.994 32.278C127.569 32.278 126.348 32.0818 125.329 31.6894C124.317 31.3039 123.511 30.7773 122.913 30.1096C122.314 29.4419 121.925 28.6915 121.746 27.8586L125.814 27.3114C125.938 27.628 126.134 27.924 126.403 28.1994C126.671 28.4747 127.026 28.695 127.466 28.8602C127.914 29.0323 128.457 29.1183 129.098 29.1183C130.054 29.1183 130.843 28.8843 131.462 28.4162C132.089 27.955 132.402 27.1806 132.402 26.0929V23.1914H132.216C132.023 23.632 131.734 24.0485 131.349 24.4408C130.963 24.8332 130.468 25.1533 129.862 25.4011C129.256 25.6489 128.533 25.7728 127.693 25.7728C126.502 25.7728 125.418 25.4975 124.441 24.9468C123.47 24.3892 122.696 23.5391 122.118 22.3964C121.546 21.2468 121.261 19.7943 121.261 18.039C121.261 16.2423 121.553 14.7416 122.138 13.537C122.723 12.3323 123.501 11.4306 124.472 10.8317C125.449 10.2328 126.52 9.93335 127.683 9.93335C128.571 9.93335 129.314 10.0848 129.913 10.3877C130.512 10.6837 130.994 11.0554 131.359 11.5028C131.731 11.9434 132.016 12.3771 132.216 12.8039H132.381V10.1399H136.749V26.1549C136.749 27.5041 136.419 28.633 135.758 29.5417C135.097 30.4503 134.181 31.1318 133.011 31.5862C131.848 32.0474 130.509 32.278 128.994 32.278ZM129.087 22.4686C129.796 22.4686 130.395 22.2931 130.884 21.942C131.38 21.5841 131.758 21.0747 132.02 20.4138C132.288 19.7461 132.422 18.9476 132.422 18.0183C132.422 17.089 132.292 16.2836 132.03 15.6021C131.769 14.9137 131.39 14.3802 130.894 14.0016C130.399 13.623 129.796 13.4337 129.087 13.4337C128.365 13.4337 127.755 13.6299 127.26 14.0223C126.764 14.4078 126.389 14.9447 126.134 15.6331C125.879 16.3215 125.752 17.1165 125.752 18.0183C125.752 18.9338 125.879 19.7255 126.134 20.3932C126.396 21.054 126.771 21.5669 127.26 21.9317C127.755 22.2897 128.365 22.4686 129.087 22.4686ZM48.6715 56V34.8531H62.9208V38.5394H53.1424V43.5783H62.1877V47.2645H53.1424V52.3138H62.9621V56H48.6715ZM70.7915 46.8309V56H66.3928V40.1399H70.585V42.9381H70.7708C71.1219 42.0157 71.7105 41.286 72.5365 40.7491C73.3626 40.2053 74.3642 39.9333 75.5413 39.9333C76.6427 39.9333 77.603 40.1743 78.4221 40.6561C79.2413 41.138 79.878 41.8264 80.3324 42.7213C80.7867 43.6093 81.0139 44.6694 81.0139 45.9016V56H76.6151V46.6863C76.622 45.7157 76.3742 44.9585 75.8717 44.4147C75.3692 43.864 74.6774 43.5886 73.7963 43.5886C73.2042 43.5886 72.6811 43.716 72.2268 43.9707C71.7793 44.2254 71.4282 44.5971 71.1735 45.0858C70.9257 45.5677 70.7984 46.1494 70.7915 46.8309ZM91.6467 56.3098C90.0221 56.3098 88.6247 55.9656 87.4545 55.2772C86.2911 54.5819 85.3962 53.6182 84.7698 52.386C84.1503 51.1538 83.8405 49.7358 83.8405 48.1319C83.8405 46.5073 84.1537 45.0824 84.7801 43.8571C85.4134 42.6249 86.3118 41.6646 87.4751 40.9762C88.6385 40.281 90.0221 39.9333 91.626 39.9333C93.0096 39.9333 94.2212 40.1846 95.2606 40.6871C96.3001 41.1896 97.1227 41.8952 97.7284 42.8039C98.3342 43.7125 98.6681 44.7795 98.73 46.0048H94.5791C94.4621 45.2132 94.1523 44.5764 93.6498 44.0946C93.1542 43.6058 92.5037 43.3615 91.6983 43.3615C91.0168 43.3615 90.4213 43.5473 89.9119 43.919C89.4094 44.2839 89.0171 44.8174 88.7348 45.5195C88.4526 46.2216 88.3115 47.0718 88.3115 48.0699C88.3115 49.0818 88.4492 49.9423 88.7245 50.6513C89.0067 51.3604 89.4026 51.9007 89.9119 52.2725C90.4213 52.6442 91.0168 52.83 91.6983 52.83C92.2008 52.83 92.6517 52.7268 93.0509 52.5203C93.4571 52.3138 93.7909 52.0143 94.0525 51.6219C94.321 51.2227 94.4965 50.7443 94.5791 50.1867H98.73C98.6612 51.3982 98.3308 52.4652 97.7388 53.3876C97.1536 54.3032 96.3448 55.0191 95.3122 55.5353C94.2797 56.0516 93.0578 56.3098 91.6467 56.3098ZM101.546 56V40.1399H105.811V42.9071H105.976C106.265 41.9227 106.75 41.1793 107.432 40.6768C108.113 40.1674 108.898 39.9127 109.786 39.9127C110.006 39.9127 110.244 39.9265 110.499 39.954C110.753 39.9815 110.977 40.0194 111.17 40.0676V43.9707C110.963 43.9087 110.678 43.8536 110.313 43.8055C109.948 43.7573 109.614 43.7332 109.311 43.7332C108.664 43.7332 108.086 43.8743 107.576 44.1565C107.074 44.4319 106.675 44.8174 106.379 45.313C106.09 45.8086 105.945 46.38 105.945 47.027V56H101.546ZM116.642 61.9476C116.085 61.9476 115.562 61.9028 115.073 61.8133C114.591 61.7307 114.192 61.624 113.875 61.4932L114.866 58.2097C115.383 58.368 115.847 58.4541 116.26 58.4678C116.68 58.4816 117.042 58.3852 117.345 58.1787C117.654 57.9722 117.906 57.6211 118.098 57.1255L118.356 56.4543L112.667 40.1399H117.293L120.576 51.7871H120.742L124.056 40.1399H128.713L122.549 57.7141C122.253 58.5676 121.85 59.3111 121.341 59.9444C120.838 60.5846 120.201 61.0768 119.43 61.4209C118.659 61.772 117.73 61.9476 116.642 61.9476ZM130.964 61.9476V40.1399H135.301V42.8039H135.497C135.69 42.3771 135.968 41.9434 136.333 41.5028C136.705 41.0554 137.187 40.6837 137.779 40.3877C138.378 40.0848 139.121 39.9333 140.009 39.9333C141.166 39.9333 142.233 40.2362 143.21 40.842C144.188 41.4409 144.969 42.3461 145.554 43.5576C146.139 44.7623 146.432 46.2733 146.432 48.0906C146.432 49.8597 146.146 51.3535 145.575 52.5719C145.01 53.7834 144.239 54.7024 143.262 55.3288C142.291 55.9484 141.204 56.2581 139.999 56.2581C139.145 56.2581 138.419 56.117 137.82 55.8348C137.228 55.5526 136.743 55.198 136.364 54.7713C135.986 54.3376 135.697 53.9005 135.497 53.4599H135.363V61.9476H130.964ZM135.27 48.0699C135.27 49.013 135.401 49.8356 135.662 50.5378C135.924 51.2399 136.302 51.7872 136.798 52.1795C137.294 52.565 137.896 52.7578 138.605 52.7578C139.321 52.7578 139.927 52.5616 140.422 52.1692C140.918 51.7699 141.293 51.2192 141.548 50.5171C141.809 49.8081 141.94 48.9924 141.94 48.0699C141.94 47.1544 141.813 46.349 141.558 45.6537C141.303 44.9585 140.928 44.4147 140.433 44.0223C139.937 43.6299 139.328 43.4337 138.605 43.4337C137.889 43.4337 137.283 43.623 136.788 44.0016C136.299 44.3802 135.924 44.9172 135.662 45.6124C135.401 46.3077 135.27 47.1269 135.27 48.0699ZM157.8 40.1399V43.4441H148.249V40.1399H157.8ZM150.417 36.34H154.816V51.1263C154.816 51.5325 154.878 51.8491 155.002 52.0763C155.126 52.2965 155.298 52.4514 155.518 52.5409C155.745 52.6304 156.007 52.6752 156.303 52.6752C156.51 52.6752 156.716 52.6579 156.923 52.6235C157.129 52.5822 157.287 52.5512 157.398 52.5306L158.089 55.8038C157.869 55.8727 157.559 55.9518 157.16 56.0413C156.761 56.1377 156.276 56.1962 155.704 56.2168C154.644 56.2581 153.715 56.117 152.916 55.7935C152.125 55.47 151.509 54.9674 151.068 54.2859C150.627 53.6045 150.411 52.744 150.417 51.7045V36.34ZM167.723 56.3098C166.092 56.3098 164.687 55.9793 163.51 55.3185C162.34 54.6508 161.438 53.7077 160.805 52.4893C160.172 51.264 159.855 49.815 159.855 48.1422C159.855 46.5108 160.172 45.0789 160.805 43.8468C161.438 42.6146 162.33 41.6543 163.479 40.9659C164.636 40.2775 165.992 39.9333 167.548 39.9333C168.594 39.9333 169.568 40.102 170.47 40.4393C171.378 40.7697 172.17 41.2688 172.845 41.9365C173.526 42.6042 174.056 43.4441 174.435 44.456C174.813 45.461 175.003 46.6381 175.003 47.9873V49.1954H161.61V46.4695H170.862C170.862 45.8362 170.724 45.2751 170.449 44.7864C170.174 44.2976 169.792 43.9156 169.303 43.6402C168.821 43.358 168.26 43.2169 167.62 43.2169C166.952 43.2169 166.36 43.3718 165.844 43.6815C165.335 43.9844 164.935 44.394 164.646 44.9103C164.357 45.4197 164.209 45.9876 164.202 46.614V49.2057C164.202 49.9905 164.347 50.6685 164.636 51.2399C164.932 51.8112 165.348 52.2518 165.885 52.5616C166.422 52.8713 167.059 53.0262 167.795 53.0262C168.284 53.0262 168.732 52.9574 169.138 52.8197C169.544 52.682 169.892 52.4755 170.181 52.2002C170.47 51.9248 170.69 51.5875 170.842 51.1883L174.91 51.4567C174.703 52.4342 174.28 53.2878 173.64 54.0175C173.006 54.7403 172.187 55.3047 171.182 55.7109C170.184 56.1101 169.031 56.3098 167.723 56.3098ZM177.873 56V40.1399H182.138V42.9071H182.303C182.592 41.9227 183.077 41.1793 183.759 40.6768C184.44 40.1674 185.225 39.9127 186.113 39.9127C186.333 39.9127 186.571 39.9265 186.826 39.954C187.08 39.9815 187.304 40.0194 187.497 40.0676V43.9707C187.29 43.9087 187.005 43.8536 186.64 43.8055C186.275 43.7573 185.941 43.7332 185.638 43.7332C184.991 43.7332 184.413 43.8743 183.903 44.1565C183.401 44.4319 183.002 44.8174 182.706 45.313C182.417 45.8086 182.272 46.38 182.272 47.027V56H177.873Z" fill="#4A0A77"/>
</svg>
