<svg width="340" height="200" viewBox="0 0 340 200" fill="none" xmlns="http://www.w3.org/2000/svg">
<path d="M0 18C0 8.05887 8.05888 0 18 0H322C331.941 0 340 8.05888 340 18V182C340 191.941 331.941 200 322 200H18C8.05888 200 0 191.941 0 182V18Z" fill="white"/>
<path d="M90.4419 56.139V69H88.0933L82.498 60.9053H82.4038V69H79.6846V56.139H82.071L87.6223 64.2273H87.7353V56.139H90.4419ZM97.0342 69.1884C96.042 69.1884 95.1879 68.9874 94.472 68.5855C93.7603 68.1794 93.2119 67.6059 92.8267 66.8649C92.4415 66.1197 92.249 65.2384 92.249 64.2211C92.249 63.2289 92.4415 62.3581 92.8267 61.6087C93.2119 60.8593 93.754 60.2753 94.4532 59.8566C95.1565 59.4379 95.9812 59.2286 96.9274 59.2286C97.5638 59.2286 98.1562 59.3312 98.7046 59.5363C99.2572 59.7373 99.7387 60.0408 100.149 60.4469C100.563 60.853 100.886 61.3638 101.116 61.9792C101.346 62.5904 101.461 63.3063 101.461 64.1269V64.8616H93.3165V63.2037H98.9432C98.9432 62.8186 98.8595 62.4774 98.692 62.1801C98.5246 61.8829 98.2922 61.6505 97.995 61.4831C97.7019 61.3114 97.3607 61.2256 96.9714 61.2256C96.5653 61.2256 96.2052 61.3198 95.8912 61.5082C95.5814 61.6924 95.3386 61.9415 95.1628 62.2555C94.9869 62.5653 94.8969 62.9107 94.8927 63.2917V64.8679C94.8927 65.3452 94.9807 65.7575 95.1565 66.105C95.3365 66.4525 95.5898 66.7204 95.9164 66.9088C96.2429 67.0972 96.6302 67.1914 97.0781 67.1914C97.3754 67.1914 97.6475 67.1496 97.8945 67.0658C98.1415 66.9821 98.3529 66.8565 98.5288 66.689C98.7046 66.5216 98.8386 66.3164 98.9307 66.0736L101.405 66.2369C101.279 66.8314 101.022 67.3505 100.632 67.7943C100.247 68.2339 99.7491 68.5772 99.1379 68.8242C98.5308 69.067 97.8296 69.1884 97.0342 69.1884ZM105.882 63.4235V69H103.207V59.3542H105.757V61.056H105.87C106.083 60.4951 106.441 60.0513 106.944 59.7247C107.446 59.394 108.055 59.2286 108.771 59.2286C109.441 59.2286 110.025 59.3752 110.523 59.6682C111.021 59.9613 111.409 60.3799 111.685 60.9242C111.961 61.4642 112.099 62.109 112.099 62.8584V69H109.424V63.3356C109.428 62.7453 109.278 62.2848 108.972 61.9541C108.666 61.6191 108.246 61.4517 107.71 61.4517C107.35 61.4517 107.032 61.5291 106.755 61.684C106.483 61.8389 106.27 62.065 106.115 62.3622C105.964 62.6553 105.887 63.0091 105.882 63.4235ZM116.883 63.4235V69H114.208V56.139H116.808V61.056H116.921C117.138 60.4867 117.49 60.0408 117.976 59.7184C118.461 59.3919 119.071 59.2286 119.803 59.2286C120.473 59.2286 121.057 59.3752 121.555 59.6682C122.058 59.9571 122.447 60.3736 122.723 60.9179C123.004 61.458 123.142 62.1048 123.138 62.8584V69H120.463V63.3356C120.467 62.7411 120.316 62.2785 120.01 61.9478C119.709 61.617 119.286 61.4517 118.742 61.4517C118.378 61.4517 118.055 61.5291 117.775 61.684C117.498 61.8389 117.281 62.065 117.122 62.3622C116.967 62.6553 116.887 63.0091 116.883 63.4235ZM131.429 64.893V59.3542H134.104V69H131.535V67.2479H131.435C131.217 67.8131 130.855 68.2674 130.349 68.6107C129.846 68.9539 129.233 69.1256 128.509 69.1256C127.864 69.1256 127.297 68.9791 126.807 68.686C126.317 68.393 125.934 67.9764 125.658 67.4363C125.385 66.8963 125.247 66.2494 125.243 65.4959V59.3542H127.918V65.0186C127.922 65.588 128.075 66.038 128.377 66.3688C128.678 66.6995 129.082 66.8649 129.589 66.8649C129.911 66.8649 130.212 66.7916 130.493 66.6451C130.773 66.4944 131 66.2725 131.171 65.9794C131.347 65.6864 131.433 65.3242 131.429 64.893ZM136.244 69V59.3542H138.793V61.056H138.906C139.107 60.4909 139.442 60.045 139.911 59.7184C140.38 59.3919 140.941 59.2286 141.594 59.2286C142.256 59.2286 142.819 59.394 143.283 59.7247C143.748 60.0513 144.058 60.4951 144.213 61.056H144.313C144.51 60.5034 144.866 60.0617 145.381 59.731C145.9 59.3961 146.513 59.2286 147.221 59.2286C148.121 59.2286 148.851 59.5154 149.412 60.089C149.978 60.6583 150.26 61.4663 150.26 62.513V69H147.591V63.0405C147.591 62.5046 147.449 62.1027 147.164 61.8347C146.88 61.5668 146.524 61.4328 146.097 61.4328C145.611 61.4328 145.232 61.5877 144.96 61.8975C144.688 62.2032 144.552 62.6072 144.552 63.1095V69H141.958V62.9839C141.958 62.5109 141.822 62.1341 141.55 61.8536C141.282 61.5731 140.928 61.4328 140.489 61.4328C140.192 61.4328 139.924 61.5082 139.685 61.6589C139.451 61.8054 139.264 62.0127 139.126 62.2806C138.988 62.5444 138.919 62.8542 138.919 63.21V69H136.244ZM155.124 69.1821C154.509 69.1821 153.96 69.0754 153.479 68.8618C152.997 68.6441 152.616 68.3239 152.336 67.901C152.059 67.474 151.921 66.9423 151.921 66.306C151.921 65.7701 152.02 65.32 152.216 64.9558C152.413 64.5916 152.681 64.2985 153.02 64.0766C153.359 63.8547 153.744 63.6873 154.176 63.5742C154.611 63.4612 155.067 63.3817 155.545 63.3356C156.106 63.277 156.558 63.2226 156.901 63.1723C157.244 63.1179 157.494 63.0384 157.648 62.9337C157.803 62.829 157.881 62.6741 157.881 62.469V62.4313C157.881 62.0336 157.755 61.7259 157.504 61.5082C157.257 61.2905 156.905 61.1816 156.449 61.1816C155.968 61.1816 155.584 61.2884 155.3 61.5019C155.015 61.7112 154.827 61.975 154.735 62.2932L152.26 62.0922C152.386 61.5061 152.633 60.9995 153.001 60.5725C153.37 60.1413 153.845 59.8106 154.427 59.5803C155.013 59.3458 155.691 59.2286 156.462 59.2286C156.997 59.2286 157.51 59.2914 158 59.417C158.494 59.5426 158.932 59.7373 159.313 60.001C159.698 60.2648 160.001 60.6039 160.223 61.0184C160.445 61.4286 160.556 61.9206 160.556 62.4941V69H158.019V67.6624H157.944C157.789 67.9638 157.581 68.2297 157.322 68.4599C157.062 68.686 156.75 68.8639 156.386 68.9937C156.022 69.1193 155.601 69.1821 155.124 69.1821ZM155.89 67.3359C156.284 67.3359 156.631 67.2584 156.933 67.1035C157.234 66.9444 157.47 66.7309 157.642 66.463C157.814 66.195 157.9 65.8915 157.9 65.5524V64.5288C157.816 64.5832 157.701 64.6334 157.554 64.6795C157.412 64.7214 157.251 64.7611 157.071 64.7988C156.891 64.8323 156.711 64.8637 156.531 64.893C156.351 64.9181 156.187 64.9412 156.041 64.9621C155.727 65.0081 155.453 65.0814 155.218 65.1819C154.984 65.2824 154.802 65.4184 154.672 65.5901C154.542 65.7575 154.477 65.9669 154.477 66.218C154.477 66.5823 154.609 66.8607 154.873 67.0533C155.141 67.2417 155.48 67.3359 155.89 67.3359ZM166.724 69V59.3542H169.274V61.056H169.387C169.588 60.4909 169.923 60.045 170.392 59.7184C170.861 59.3919 171.422 59.2286 172.075 59.2286C172.736 59.2286 173.299 59.394 173.764 59.7247C174.229 60.0513 174.538 60.4951 174.693 61.056H174.794C174.991 60.5034 175.346 60.0617 175.861 59.731C176.381 59.3961 176.994 59.2286 177.701 59.2286C178.602 59.2286 179.332 59.5154 179.893 60.089C180.458 60.6583 180.741 61.4663 180.741 62.513V69H178.072V63.0405C178.072 62.5046 177.93 62.1027 177.645 61.8347C177.36 61.5668 177.004 61.4328 176.577 61.4328C176.092 61.4328 175.713 61.5877 175.441 61.8975C175.169 62.2032 175.032 62.6072 175.032 63.1095V69H172.439V62.9839C172.439 62.5109 172.303 62.1341 172.031 61.8536C171.763 61.5731 171.409 61.4328 170.969 61.4328C170.672 61.4328 170.404 61.5082 170.166 61.6589C169.931 61.8054 169.745 62.0127 169.607 62.2806C169.469 62.5444 169.4 62.8542 169.4 63.21V69H166.724ZM187.25 69.1884C186.258 69.1884 185.404 68.9874 184.688 68.5855C183.976 68.1794 183.428 67.6059 183.042 66.8649C182.657 66.1197 182.465 65.2384 182.465 64.2211C182.465 63.2289 182.657 62.3581 183.042 61.6087C183.428 60.8593 183.97 60.2753 184.669 59.8566C185.372 59.4379 186.197 59.2286 187.143 59.2286C187.779 59.2286 188.372 59.3312 188.92 59.5363C189.473 59.7373 189.954 60.0408 190.365 60.4469C190.779 60.853 191.101 61.3638 191.332 61.9792C191.562 62.5904 191.677 63.3063 191.677 64.1269V64.8616H183.532V63.2037H189.159C189.159 62.8186 189.075 62.4774 188.908 62.1801C188.74 61.8829 188.508 61.6505 188.211 61.4831C187.918 61.3114 187.576 61.2256 187.187 61.2256C186.781 61.2256 186.421 61.3198 186.107 61.5082C185.797 61.6924 185.554 61.9415 185.378 62.2555C185.203 62.5653 185.113 62.9107 185.108 63.2917V64.8679C185.108 65.3452 185.196 65.7575 185.372 66.105C185.552 66.4525 185.805 66.7204 186.132 66.9088C186.459 67.0972 186.846 67.1914 187.294 67.1914C187.591 67.1914 187.863 67.1496 188.11 67.0658C188.357 66.9821 188.569 66.8565 188.744 66.689C188.92 66.5216 189.054 66.3164 189.146 66.0736L191.621 66.2369C191.495 66.8314 191.238 67.3505 190.848 67.7943C190.463 68.2339 189.965 68.5772 189.354 68.8242C188.747 69.067 188.045 69.1884 187.25 69.1884ZM196.098 63.4235V69H193.423V59.3542H195.972V61.056H196.086C196.299 60.4951 196.657 60.0513 197.159 59.7247C197.662 59.394 198.271 59.2286 198.987 59.2286C199.657 59.2286 200.241 59.3752 200.739 59.6682C201.237 59.9613 201.624 60.3799 201.901 60.9242C202.177 61.4642 202.315 62.109 202.315 62.8584V69H199.64V63.3356C199.644 62.7453 199.493 62.2848 199.188 61.9541C198.882 61.6191 198.461 61.4517 197.926 61.4517C197.565 61.4517 197.247 61.5291 196.971 61.684C196.699 61.8389 196.485 62.065 196.33 62.3622C196.18 62.6553 196.102 63.0091 196.098 63.4235ZM212.449 62.1048L210 62.2555C209.958 62.0462 209.868 61.8578 209.73 61.6903C209.592 61.5187 209.41 61.3826 209.184 61.2821C208.962 61.1775 208.696 61.1251 208.386 61.1251C207.972 61.1251 207.622 61.213 207.337 61.3889C207.053 61.5605 206.91 61.7908 206.91 62.0797C206.91 62.3099 207.002 62.5046 207.187 62.6637C207.371 62.8228 207.687 62.9505 208.135 63.0467L209.881 63.3984C210.818 63.591 211.518 63.9008 211.978 64.3278C212.439 64.7549 212.669 65.3158 212.669 66.0108C212.669 66.643 212.483 67.1977 212.11 67.675C211.742 68.1522 211.235 68.5248 210.59 68.7928C209.95 69.0565 209.211 69.1884 208.374 69.1884C207.097 69.1884 206.079 68.9225 205.322 68.3909C204.568 67.855 204.126 67.1265 203.997 66.2055L206.628 66.0673C206.707 66.4567 206.9 66.7539 207.205 66.9591C207.511 67.16 207.903 67.2605 208.38 67.2605C208.849 67.2605 209.225 67.1705 209.51 66.9905C209.799 66.8063 209.946 66.5697 209.95 66.2808C209.946 66.038 209.843 65.8392 209.642 65.6843C209.441 65.5252 209.131 65.4038 208.713 65.32L207.042 64.9872C206.1 64.7988 205.399 64.4723 204.938 64.0076C204.482 63.5428 204.254 62.9505 204.254 62.2304C204.254 61.6108 204.421 61.077 204.756 60.629C205.095 60.1811 205.571 59.8357 206.182 59.5929C206.797 59.35 207.517 59.2286 208.342 59.2286C209.56 59.2286 210.519 59.4861 211.218 60.001C211.922 60.516 212.332 61.2172 212.449 62.1048ZM217.104 69.1821C216.489 69.1821 215.94 69.0754 215.459 68.8618C214.977 68.6441 214.596 68.3239 214.316 67.901C214.039 67.474 213.901 66.9423 213.901 66.306C213.901 65.7701 214 65.32 214.196 64.9558C214.393 64.5916 214.661 64.2985 215 64.0766C215.339 63.8547 215.725 63.6873 216.156 63.5742C216.591 63.4612 217.048 63.3817 217.525 63.3356C218.086 63.277 218.538 63.2226 218.881 63.1723C219.225 63.1179 219.474 63.0384 219.629 62.9337C219.783 62.829 219.861 62.6741 219.861 62.469V62.4313C219.861 62.0336 219.735 61.7259 219.484 61.5082C219.237 61.2905 218.885 61.1816 218.429 61.1816C217.948 61.1816 217.565 61.2884 217.28 61.5019C216.995 61.7112 216.807 61.975 216.715 62.2932L214.24 62.0922C214.366 61.5061 214.613 60.9995 214.981 60.5725C215.35 60.1413 215.825 59.8106 216.407 59.5803C216.993 59.3458 217.671 59.2286 218.442 59.2286C218.978 59.2286 219.49 59.2914 219.98 59.417C220.474 59.5426 220.912 59.7373 221.293 60.001C221.678 60.2648 221.981 60.6039 222.203 61.0184C222.425 61.4286 222.536 61.9206 222.536 62.4941V69H219.999V67.6624H219.924C219.769 67.9638 219.562 68.2297 219.302 68.4599C219.042 68.686 218.731 68.8639 218.366 68.9937C218.002 69.1193 217.581 69.1821 217.104 69.1821ZM217.87 67.3359C218.264 67.3359 218.611 67.2584 218.913 67.1035C219.214 66.9444 219.451 66.7309 219.622 66.463C219.794 66.195 219.88 65.8915 219.88 65.5524V64.5288C219.796 64.5832 219.681 64.6334 219.534 64.6795C219.392 64.7214 219.231 64.7611 219.051 64.7988C218.871 64.8323 218.691 64.8637 218.511 64.893C218.331 64.9181 218.167 64.9412 218.021 64.9621C217.707 65.0081 217.433 65.0814 217.198 65.1819C216.964 65.2824 216.782 65.4184 216.652 65.5901C216.522 65.7575 216.457 65.9669 216.457 66.218C216.457 66.5823 216.589 66.8607 216.853 67.0533C217.121 67.2417 217.46 67.3359 217.87 67.3359ZM228.957 72.8181C228.091 72.8181 227.347 72.6988 226.728 72.4602C226.112 72.2257 225.623 71.9055 225.258 71.4994C224.894 71.0933 224.658 70.6369 224.549 70.1304L227.023 69.7975C227.098 69.9901 227.218 70.1701 227.381 70.3376C227.544 70.5051 227.76 70.639 228.028 70.7395C228.3 70.8442 228.631 70.8965 229.02 70.8965C229.602 70.8965 230.081 70.7542 230.458 70.4695C230.839 70.189 231.03 69.718 231.03 69.0565V67.2919H230.916C230.799 67.5598 230.623 67.8131 230.389 68.0517C230.155 68.2904 229.853 68.4851 229.485 68.6358C229.116 68.7865 228.677 68.8618 228.166 68.8618C227.442 68.8618 226.782 68.6944 226.188 68.3595C225.597 68.0204 225.126 67.5033 224.775 66.8083C224.427 66.1092 224.254 65.2258 224.254 64.1583C224.254 63.0656 224.432 62.1529 224.787 61.4203C225.143 60.6876 225.616 60.1392 226.207 59.775C226.801 59.4107 227.452 59.2286 228.16 59.2286C228.7 59.2286 229.152 59.3207 229.516 59.5049C229.88 59.685 230.173 59.911 230.395 60.1832C230.621 60.4511 230.795 60.7148 230.916 60.9744H231.017V59.3542H233.673V69.0942C233.673 69.9148 233.472 70.6014 233.07 71.154C232.669 71.7066 232.112 72.1211 231.4 72.3974C230.692 72.6779 229.878 72.8181 228.957 72.8181ZM229.014 66.8523C229.445 66.8523 229.809 66.7455 230.106 66.532C230.408 66.3143 230.638 66.0045 230.797 65.6026C230.96 65.1965 231.042 64.7109 231.042 64.1457C231.042 63.5805 230.963 63.0907 230.803 62.6762C230.644 62.2576 230.414 61.9331 230.113 61.7029C229.811 61.4726 229.445 61.3575 229.014 61.3575C228.574 61.3575 228.204 61.4768 227.902 61.7154C227.601 61.9499 227.373 62.2764 227.218 62.6951C227.063 63.1137 226.985 63.5973 226.985 64.1457C226.985 64.7025 227.063 65.184 227.218 65.5901C227.377 65.992 227.605 66.3039 227.902 66.5258C228.204 66.7435 228.574 66.8523 229.014 66.8523ZM240.198 69.1884C239.206 69.1884 238.352 68.9874 237.636 68.5855C236.924 68.1794 236.376 67.6059 235.991 66.8649C235.605 66.1197 235.413 65.2384 235.413 64.2211C235.413 63.2289 235.605 62.3581 235.991 61.6087C236.376 60.8593 236.918 60.2753 237.617 59.8566C238.32 59.4379 239.145 59.2286 240.091 59.2286C240.728 59.2286 241.32 59.3312 241.868 59.5363C242.421 59.7373 242.903 60.0408 243.313 60.4469C243.727 60.853 244.05 61.3638 244.28 61.9792C244.51 62.5904 244.625 63.3063 244.625 64.1269V64.8616H236.48V63.2037H242.107C242.107 62.8186 242.023 62.4774 241.856 62.1801C241.688 61.8829 241.456 61.6505 241.159 61.4831C240.866 61.3114 240.525 61.2256 240.135 61.2256C239.729 61.2256 239.369 61.3198 239.055 61.5082C238.745 61.6924 238.502 61.9415 238.327 62.2555C238.151 62.5653 238.061 62.9107 238.057 63.2917V64.8679C238.057 65.3452 238.145 65.7575 238.32 66.105C238.5 66.4525 238.754 66.7204 239.08 66.9088C239.407 67.0972 239.794 67.1914 240.242 67.1914C240.539 67.1914 240.811 67.1496 241.058 67.0658C241.305 66.9821 241.517 66.8565 241.693 66.689C241.868 66.5216 242.002 66.3164 242.095 66.0736L244.569 66.2369C244.443 66.8314 244.186 67.3505 243.796 67.7943C243.411 68.2339 242.913 68.5772 242.302 68.8242C241.695 69.067 240.993 69.1884 240.198 69.1884ZM246.371 69V59.3542H248.921V61.056H249.034C249.235 60.4909 249.57 60.045 250.038 59.7184C250.507 59.3919 251.068 59.2286 251.721 59.2286C252.383 59.2286 252.946 59.394 253.411 59.7247C253.875 60.0513 254.185 60.4951 254.34 61.056H254.441C254.637 60.5034 254.993 60.0617 255.508 59.731C256.027 59.3961 256.641 59.2286 257.348 59.2286C258.248 59.2286 258.979 59.5154 259.54 60.089C260.105 60.6583 260.388 61.4663 260.388 62.513V69H257.719V63.0405C257.719 62.5046 257.576 62.1027 257.292 61.8347C257.007 61.5668 256.651 61.4328 256.224 61.4328C255.738 61.4328 255.36 61.5877 255.087 61.8975C254.815 62.2032 254.679 62.6072 254.679 63.1095V69H252.086V62.9839C252.086 62.5109 251.95 62.1341 251.677 61.8536C251.41 61.5731 251.056 61.4328 250.616 61.4328C250.319 61.4328 250.051 61.5082 249.812 61.6589C249.578 61.8054 249.392 62.0127 249.253 62.2806C249.115 62.5444 249.046 62.8542 249.046 63.21V69H246.371ZM125.771 90.1884C124.778 90.1884 123.924 89.9874 123.208 89.5855C122.497 89.1794 121.948 88.6059 121.563 87.8649C121.178 87.1197 120.985 86.2384 120.985 85.2211C120.985 84.2289 121.178 83.3581 121.563 82.6087C121.948 81.8593 122.49 81.2753 123.19 80.8566C123.893 80.4379 124.718 80.2286 125.664 80.2286C126.3 80.2286 126.893 80.3312 127.441 80.5363C127.994 80.7373 128.475 81.0408 128.885 81.4469C129.3 81.853 129.622 82.3638 129.852 82.9792C130.083 83.5904 130.198 84.3063 130.198 85.1269V85.8616H122.053V84.2037H127.68C127.68 83.8186 127.596 83.4774 127.428 83.1801C127.261 82.8829 127.029 82.6505 126.731 82.4831C126.438 82.3114 126.097 82.2256 125.708 82.2256C125.302 82.2256 124.942 82.3198 124.628 82.5082C124.318 82.6924 124.075 82.9415 123.899 83.2555C123.723 83.5653 123.633 83.9107 123.629 84.2917V85.8679C123.629 86.3452 123.717 86.7575 123.893 87.105C124.073 87.4525 124.326 87.7204 124.653 87.9088C124.979 88.0972 125.367 88.1914 125.815 88.1914C126.112 88.1914 126.384 88.1496 126.631 88.0658C126.878 87.9821 127.089 87.8565 127.265 87.689C127.441 87.5216 127.575 87.3164 127.667 87.0736L130.141 87.2369C130.016 87.8314 129.758 88.3505 129.369 88.7943C128.984 89.2339 128.486 89.5772 127.874 89.8242C127.267 90.067 126.566 90.1884 125.771 90.1884ZM134.619 84.4235V90H131.944V80.3542H134.493V82.056H134.606C134.82 81.4951 135.178 81.0513 135.68 80.7247C136.182 80.394 136.792 80.2286 137.507 80.2286C138.177 80.2286 138.761 80.3752 139.26 80.6682C139.758 80.9613 140.145 81.3799 140.421 81.9242C140.698 82.4642 140.836 83.109 140.836 83.8584V90H138.161V84.3356C138.165 83.7453 138.014 83.2848 137.708 82.9541C137.403 82.6191 136.982 82.4517 136.446 82.4517C136.086 82.4517 135.768 82.5291 135.492 82.684C135.22 82.8389 135.006 83.065 134.851 83.3622C134.7 83.6553 134.623 84.0091 134.619 84.4235ZM147.302 90.1884C146.314 90.1884 145.465 89.9791 144.753 89.5604C144.045 89.1376 143.501 88.5515 143.12 87.8021C142.743 87.0527 142.555 86.1903 142.555 85.2148C142.555 84.2268 142.745 83.3602 143.126 82.6149C143.512 81.8656 144.058 81.2815 144.765 80.8629C145.473 80.44 146.314 80.2286 147.29 80.2286C148.131 80.2286 148.868 80.3814 149.5 80.687C150.133 80.9927 150.633 81.4218 151.001 81.9744C151.37 82.527 151.573 83.1759 151.61 83.9211H149.086C149.015 83.4397 148.826 83.0524 148.521 82.7594C148.219 82.4621 147.824 82.3135 147.334 82.3135C146.919 82.3135 146.557 82.4266 146.247 82.6526C145.942 82.8745 145.703 83.199 145.532 83.626C145.36 84.053 145.274 84.5701 145.274 85.1771C145.274 85.7925 145.358 86.3158 145.525 86.7471C145.697 87.1783 145.938 87.5069 146.247 87.733C146.557 87.9591 146.919 88.0721 147.334 88.0721C147.639 88.0721 147.914 88.0093 148.156 87.8837C148.403 87.7581 148.607 87.576 148.766 87.3374C148.929 87.0945 149.036 86.8036 149.086 86.4645H151.61C151.569 87.2013 151.368 87.8502 151.008 88.4112C150.652 88.968 150.16 89.4034 149.532 89.7174C148.904 90.0314 148.161 90.1884 147.302 90.1884ZM157.681 90.1884C156.706 90.1884 155.862 89.9812 155.151 89.5667C154.443 89.148 153.897 88.5661 153.512 87.8209C153.126 87.0715 152.934 86.2028 152.934 85.2148C152.934 84.2184 153.126 83.3476 153.512 82.6024C153.897 81.853 154.443 81.2711 155.151 80.8566C155.862 80.4379 156.706 80.2286 157.681 80.2286C158.657 80.2286 159.498 80.4379 160.206 80.8566C160.918 81.2711 161.466 81.853 161.851 82.6024C162.236 83.3476 162.429 84.2184 162.429 85.2148C162.429 86.2028 162.236 87.0715 161.851 87.8209C161.466 88.5661 160.918 89.148 160.206 89.5667C159.498 89.9812 158.657 90.1884 157.681 90.1884ZM157.694 88.1161C158.138 88.1161 158.508 87.9905 158.805 87.7393C159.103 87.4839 159.327 87.1364 159.477 86.6968C159.632 86.2572 159.71 85.7569 159.71 85.1959C159.71 84.635 159.632 84.1347 159.477 83.6951C159.327 83.2555 159.103 82.908 158.805 82.6526C158.508 82.3972 158.138 82.2696 157.694 82.2696C157.246 82.2696 156.869 82.3972 156.564 82.6526C156.262 82.908 156.034 83.2555 155.879 83.6951C155.728 84.1347 155.653 84.635 155.653 85.1959C155.653 85.7569 155.728 86.2572 155.879 86.6968C156.034 87.1364 156.262 87.4839 156.564 87.7393C156.869 87.9905 157.246 88.1161 157.694 88.1161ZM166.844 84.4235V90H164.168V80.3542H166.718V82.056H166.831C167.045 81.4951 167.403 81.0513 167.905 80.7247C168.407 80.394 169.016 80.2286 169.732 80.2286C170.402 80.2286 170.986 80.3752 171.484 80.6682C171.983 80.9613 172.37 81.3799 172.646 81.9242C172.922 82.4642 173.061 83.109 173.061 83.8584V90H170.385V84.3356C170.39 83.7453 170.239 83.2848 169.933 82.9541C169.628 82.6191 169.207 82.4517 168.671 82.4517C168.311 82.4517 167.993 82.5291 167.717 82.684C167.444 82.8389 167.231 83.065 167.076 83.3622C166.925 83.6553 166.848 84.0091 166.844 84.4235ZM180.3 80.3542V82.3638H174.491V80.3542H180.3ZM175.81 78.0433H178.485V87.0359C178.485 87.2829 178.522 87.4755 178.598 87.6137C178.673 87.7476 178.778 87.8418 178.912 87.8963C179.05 87.9507 179.209 87.9779 179.389 87.9779C179.515 87.9779 179.64 87.9674 179.766 87.9465C179.891 87.9214 179.988 87.9025 180.055 87.89L180.476 89.8807C180.342 89.9225 180.153 89.9707 179.91 90.0251C179.668 90.0837 179.372 90.1193 179.025 90.1319C178.38 90.157 177.815 90.0712 177.329 89.8744C176.848 89.6776 176.473 89.372 176.205 88.9576C175.937 88.5431 175.805 88.0198 175.81 87.3876V78.0433ZM182.042 90V80.3542H184.636V82.0372H184.736C184.912 81.4385 185.207 80.9864 185.622 80.6808C186.036 80.371 186.514 80.2161 187.054 80.2161C187.188 80.2161 187.332 80.2244 187.487 80.2412C187.642 80.2579 187.778 80.281 187.895 80.3103V82.684C187.769 82.6463 187.596 82.6129 187.374 82.5835C187.152 82.5542 186.949 82.5396 186.765 82.5396C186.371 82.5396 186.02 82.6254 185.71 82.7971C185.404 82.9645 185.161 83.199 184.981 83.5004C184.805 83.8018 184.718 84.1493 184.718 84.5428V90H182.042ZM191.752 90.1821C191.137 90.1821 190.589 90.0754 190.107 89.8618C189.626 89.6441 189.245 89.3239 188.964 88.901C188.688 88.474 188.55 87.9423 188.55 87.306C188.55 86.7701 188.648 86.32 188.845 85.9558C189.042 85.5916 189.31 85.2985 189.649 85.0766C189.988 84.8547 190.373 84.6873 190.804 84.5742C191.24 84.4612 191.696 84.3817 192.173 84.3356C192.734 84.277 193.186 84.2226 193.53 84.1723C193.873 84.1179 194.122 84.0384 194.277 83.9337C194.432 83.829 194.509 83.6741 194.509 83.469V83.4313C194.509 83.0336 194.384 82.7259 194.132 82.5082C193.885 82.2905 193.534 82.1816 193.077 82.1816C192.596 82.1816 192.213 82.2884 191.928 82.5019C191.644 82.7112 191.455 82.975 191.363 83.2932L188.889 83.0922C189.014 82.5061 189.261 81.9995 189.63 81.5725C189.998 81.1413 190.473 80.8106 191.055 80.5803C191.642 80.3458 192.32 80.2286 193.09 80.2286C193.626 80.2286 194.139 80.2914 194.629 80.417C195.123 80.5426 195.56 80.7373 195.941 81.001C196.326 81.2648 196.63 81.6039 196.852 82.0184C197.074 82.4286 197.184 82.9206 197.184 83.4941V90H194.647V88.6624H194.572C194.417 88.9638 194.21 89.2297 193.95 89.4599C193.691 89.686 193.379 89.8639 193.015 89.9937C192.65 90.1193 192.23 90.1821 191.752 90.1821ZM192.519 88.3359C192.912 88.3359 193.26 88.2584 193.561 88.1035C193.862 87.9444 194.099 87.7309 194.271 87.463C194.442 87.195 194.528 86.8915 194.528 86.5524V85.5288C194.444 85.5832 194.329 85.6334 194.183 85.6795C194.04 85.7214 193.879 85.7611 193.699 85.7988C193.519 85.8323 193.339 85.8637 193.159 85.893C192.979 85.9181 192.816 85.9412 192.669 85.9621C192.355 86.0081 192.081 86.0814 191.847 86.1819C191.612 86.2824 191.43 86.4184 191.3 86.5901C191.171 86.7575 191.106 86.9669 191.106 87.218C191.106 87.5823 191.238 87.8607 191.501 88.0533C191.769 88.2417 192.108 88.3359 192.519 88.3359ZM202.814 90.157C202.082 90.157 201.418 89.9686 200.824 89.5918C200.233 89.2108 199.764 88.6519 199.417 87.9151C199.074 87.1741 198.902 86.2656 198.902 85.1897C198.902 84.0844 199.08 83.1655 199.436 82.4328C199.792 81.696 200.265 81.1455 200.855 80.7812C201.45 80.4128 202.101 80.2286 202.808 80.2286C203.348 80.2286 203.798 80.3207 204.158 80.5049C204.522 80.685 204.815 80.911 205.037 81.1832C205.263 81.4511 205.435 81.7148 205.552 81.9744H205.634V77.139H208.303V90H205.665V88.4552H205.552C205.427 88.7231 205.249 88.989 205.019 89.2527C204.792 89.5123 204.497 89.7279 204.133 89.8995C203.773 90.0712 203.333 90.157 202.814 90.157ZM203.662 88.0281C204.093 88.0281 204.458 87.9109 204.755 87.6765C205.056 87.4378 205.286 87.105 205.446 86.678C205.609 86.251 205.69 85.7507 205.69 85.1771C205.69 84.6036 205.611 84.1054 205.452 83.6825C205.293 83.2597 205.063 82.9331 204.761 82.7029C204.46 82.4726 204.093 82.3575 203.662 82.3575C203.223 82.3575 202.852 82.4768 202.551 82.7154C202.249 82.9541 202.021 83.2848 201.866 83.7076C201.711 84.1305 201.634 84.6203 201.634 85.1771C201.634 85.7381 201.711 86.2342 201.866 86.6654C202.025 87.0925 202.253 87.4274 202.551 87.6702C202.852 87.9088 203.223 88.0281 203.662 88.0281ZM213.253 90.1821C212.638 90.1821 212.089 90.0754 211.608 89.8618C211.126 89.6441 210.745 89.3239 210.465 88.901C210.188 88.474 210.05 87.9423 210.05 87.306C210.05 86.7701 210.149 86.32 210.345 85.9558C210.542 85.5916 210.81 85.2985 211.149 85.0766C211.488 84.8547 211.873 84.6873 212.305 84.5742C212.74 84.4612 213.196 84.3817 213.674 84.3356C214.235 84.277 214.687 84.2226 215.03 84.1723C215.373 84.1179 215.623 84.0384 215.777 83.9337C215.932 83.829 216.01 83.6741 216.01 83.469V83.4313C216.01 83.0336 215.884 82.7259 215.633 82.5082C215.386 82.2905 215.034 82.1816 214.578 82.1816C214.097 82.1816 213.713 82.2884 213.429 82.5019C213.144 82.7112 212.956 82.975 212.864 83.2932L210.389 83.0922C210.515 82.5061 210.762 81.9995 211.13 81.5725C211.499 81.1413 211.974 80.8106 212.556 80.5803C213.142 80.3458 213.82 80.2286 214.591 80.2286C215.126 80.2286 215.639 80.2914 216.129 80.417C216.623 80.5426 217.061 80.7373 217.442 81.001C217.827 81.2648 218.13 81.6039 218.352 82.0184C218.574 82.4286 218.685 82.9206 218.685 83.4941V90H216.148V88.6624H216.073C215.918 88.9638 215.71 89.2297 215.451 89.4599C215.191 89.686 214.879 89.8639 214.515 89.9937C214.151 90.1193 213.73 90.1821 213.253 90.1821ZM214.019 88.3359C214.413 88.3359 214.76 88.2584 215.062 88.1035C215.363 87.9444 215.599 87.7309 215.771 87.463C215.943 87.195 216.029 86.8915 216.029 86.5524V85.5288C215.945 85.5832 215.83 85.6334 215.683 85.6795C215.541 85.7214 215.38 85.7611 215.2 85.7988C215.02 85.8323 214.84 85.8637 214.66 85.893C214.48 85.9181 214.316 85.9412 214.17 85.9621C213.856 86.0081 213.582 86.0814 213.347 86.1819C213.113 86.2824 212.931 86.4184 212.801 86.5901C212.671 86.7575 212.606 86.9669 212.606 87.218C212.606 87.5823 212.738 87.8607 213.002 88.0533C213.27 88.2417 213.609 88.3359 214.019 88.3359Z" fill="#310055"/>
<path d="M80.2966 124H77.403V115.062H80.3883C81.2641 115.062 82.0162 115.241 82.6447 115.598C83.2732 115.953 83.7547 116.464 84.0893 117.13C84.4268 117.794 84.5956 118.59 84.5956 119.518C84.5956 120.449 84.4254 121.249 84.0849 121.918C83.7474 122.587 83.2586 123.102 82.6185 123.463C81.9784 123.821 81.2044 124 80.2966 124ZM78.7516 122.822H80.2224C80.9033 122.822 81.4692 122.694 81.9202 122.438C82.3712 122.179 82.7087 121.805 82.9327 121.316C83.1568 120.824 83.2688 120.225 83.2688 119.518C83.2688 118.817 83.1568 118.222 82.9327 117.733C82.7116 117.244 82.3814 116.873 81.942 116.62C81.5027 116.367 80.9571 116.24 80.3053 116.24H78.7516V122.822ZM86.1679 124V117.296H87.4728V124H86.1679ZM86.8269 116.262C86.5999 116.262 86.405 116.186 86.2421 116.035C86.082 115.881 86.002 115.697 86.002 115.485C86.002 115.27 86.082 115.086 86.2421 114.935C86.405 114.781 86.5999 114.704 86.8269 114.704C87.0538 114.704 87.2473 114.781 87.4074 114.935C87.5703 115.086 87.6518 115.27 87.6518 115.485C87.6518 115.697 87.5703 115.881 87.4074 116.035C87.2473 116.186 87.0538 116.262 86.8269 116.262ZM92.0391 126.654C91.5066 126.654 91.0484 126.584 90.6643 126.444C90.2831 126.304 89.9718 126.12 89.7303 125.89C89.4888 125.66 89.3084 125.408 89.1891 125.135L90.3108 124.672C90.3893 124.8 90.4941 124.935 90.625 125.078C90.7589 125.223 90.9393 125.347 91.1662 125.449C91.3961 125.551 91.6914 125.602 92.0522 125.602C92.5468 125.602 92.9556 125.481 93.2786 125.239C93.6016 125.001 93.763 124.62 93.763 124.096V122.778H93.6801C93.6016 122.921 93.4881 123.079 93.3397 123.254C93.1942 123.428 92.9935 123.58 92.7374 123.708C92.4814 123.836 92.1482 123.9 91.738 123.9C91.2084 123.9 90.7312 123.776 90.3064 123.529C89.8845 123.278 89.5499 122.91 89.3026 122.424C89.0582 121.936 88.936 121.335 88.936 120.622C88.936 119.909 89.0567 119.298 89.2982 118.789C89.5426 118.28 89.8773 117.89 90.3021 117.619C90.7269 117.346 91.2084 117.209 91.7467 117.209C92.1628 117.209 92.4988 117.279 92.7549 117.418C93.0109 117.555 93.2102 117.715 93.3528 117.899C93.4983 118.082 93.6103 118.243 93.6888 118.383H93.7849V117.296H95.0636V124.148C95.0636 124.724 94.9298 125.197 94.6621 125.567C94.3944 125.936 94.0322 126.21 93.5754 126.387C93.1215 126.565 92.6094 126.654 92.0391 126.654ZM92.026 122.817C92.4013 122.817 92.7185 122.73 92.9774 122.555C93.2393 122.378 93.4372 122.125 93.571 121.796C93.7078 121.464 93.7761 121.067 93.7761 120.604C93.7761 120.153 93.7092 119.756 93.5754 119.413C93.4415 119.07 93.2451 118.802 92.9862 118.61C92.7272 118.415 92.4072 118.318 92.026 118.318C91.6332 118.318 91.3059 118.419 91.044 118.623C90.7821 118.824 90.5843 119.097 90.4504 119.444C90.3195 119.79 90.254 120.177 90.254 120.604C90.254 121.044 90.321 121.429 90.4548 121.761C90.5887 122.093 90.7865 122.352 91.0484 122.538C91.3131 122.724 91.639 122.817 92.026 122.817ZM96.8138 124V117.296H98.1187V124H96.8138ZM97.4728 116.262C97.2459 116.262 97.0509 116.186 96.888 116.035C96.7279 115.881 96.6479 115.697 96.6479 115.485C96.6479 115.27 96.7279 115.086 96.888 114.935C97.0509 114.781 97.2459 114.704 97.4728 114.704C97.6998 114.704 97.8932 114.781 98.0533 114.935C98.2162 115.086 98.2977 115.27 98.2977 115.485C98.2977 115.697 98.2162 115.881 98.0533 116.035C97.8932 116.186 97.6998 116.262 97.4728 116.262ZM103.004 117.296V118.344H99.3419V117.296H103.004ZM100.324 115.69H101.629V122.032C101.629 122.285 101.667 122.475 101.742 122.603C101.818 122.728 101.915 122.814 102.035 122.861C102.157 122.905 102.289 122.926 102.432 122.926C102.537 122.926 102.628 122.919 102.707 122.905C102.785 122.89 102.847 122.878 102.89 122.87L103.126 123.948C103.05 123.977 102.943 124.006 102.803 124.035C102.663 124.067 102.489 124.084 102.279 124.087C101.936 124.093 101.616 124.032 101.319 123.904C101.022 123.776 100.782 123.578 100.599 123.31C100.416 123.043 100.324 122.707 100.324 122.302V115.69ZM107.264 124.135C106.604 124.135 106.035 123.994 105.558 123.712C105.084 123.427 104.717 123.027 104.458 122.512C104.202 121.994 104.074 121.387 104.074 120.692C104.074 120.005 104.202 119.4 104.458 118.876C104.717 118.352 105.078 117.944 105.54 117.65C106.006 117.356 106.55 117.209 107.173 117.209C107.551 117.209 107.918 117.272 108.273 117.397C108.628 117.522 108.946 117.718 109.228 117.986C109.511 118.254 109.733 118.601 109.896 119.029C110.059 119.454 110.141 119.97 110.141 120.578V121.041H104.812V120.063H108.862C108.862 119.72 108.792 119.416 108.652 119.151C108.513 118.883 108.316 118.672 108.063 118.518C107.813 118.364 107.519 118.287 107.181 118.287C106.815 118.287 106.495 118.377 106.221 118.558C105.951 118.735 105.741 118.968 105.593 119.256C105.447 119.541 105.375 119.851 105.375 120.185V120.949C105.375 121.397 105.453 121.779 105.61 122.093C105.77 122.407 105.993 122.647 106.278 122.813C106.563 122.976 106.896 123.057 107.277 123.057C107.525 123.057 107.75 123.022 107.954 122.953C108.158 122.88 108.334 122.772 108.482 122.63C108.63 122.487 108.744 122.311 108.822 122.101L110.058 122.324C109.959 122.688 109.781 123.006 109.525 123.28C109.272 123.55 108.953 123.761 108.569 123.913C108.188 124.061 107.753 124.135 107.264 124.135ZM119.088 121.22V117.296H120.397V124H119.114V122.839H119.044C118.89 123.197 118.642 123.495 118.302 123.734C117.965 123.969 117.544 124.087 117.041 124.087C116.61 124.087 116.229 123.993 115.897 123.804C115.568 123.612 115.309 123.328 115.12 122.953C114.934 122.577 114.841 122.113 114.841 121.56V117.296H116.146V121.403C116.146 121.86 116.273 122.224 116.526 122.494C116.779 122.765 117.108 122.9 117.512 122.9C117.756 122.9 117.999 122.839 118.241 122.717C118.485 122.595 118.688 122.41 118.848 122.163C119.011 121.915 119.091 121.601 119.088 121.22ZM122.15 124V117.296H123.403V118.387H123.486C123.626 118.018 123.854 117.73 124.171 117.523C124.488 117.314 124.868 117.209 125.31 117.209C125.758 117.209 126.134 117.314 126.436 117.523C126.742 117.733 126.967 118.021 127.113 118.387H127.183C127.343 118.029 127.597 117.744 127.946 117.532C128.295 117.317 128.712 117.209 129.195 117.209C129.803 117.209 130.299 117.4 130.683 117.781C131.07 118.162 131.263 118.737 131.263 119.505V124H129.958V119.627C129.958 119.173 129.835 118.844 129.587 118.64C129.34 118.437 129.045 118.335 128.701 118.335C128.277 118.335 127.946 118.466 127.711 118.728C127.475 118.987 127.357 119.32 127.357 119.727V124H126.057V119.544C126.057 119.18 125.943 118.888 125.716 118.667C125.489 118.446 125.194 118.335 124.83 118.335C124.583 118.335 124.354 118.4 124.145 118.531C123.938 118.659 123.771 118.838 123.643 119.068C123.518 119.298 123.455 119.564 123.455 119.867V124H122.15ZM139.394 117.296V118.344H135.732V117.296H139.394ZM136.714 115.69H138.019V122.032C138.019 122.285 138.057 122.475 138.133 122.603C138.209 122.728 138.306 122.814 138.425 122.861C138.548 122.905 138.68 122.926 138.822 122.926C138.927 122.926 139.019 122.919 139.097 122.905C139.176 122.89 139.237 122.878 139.281 122.87L139.516 123.948C139.441 123.977 139.333 124.006 139.193 124.035C139.054 124.067 138.879 124.084 138.67 124.087C138.326 124.093 138.006 124.032 137.71 123.904C137.413 123.776 137.173 123.578 136.989 123.31C136.806 123.043 136.714 122.707 136.714 122.302V115.69ZM143.655 124.135C142.994 124.135 142.426 123.994 141.948 123.712C141.474 123.427 141.108 123.027 140.849 122.512C140.593 121.994 140.465 121.387 140.465 120.692C140.465 120.005 140.593 119.4 140.849 118.876C141.108 118.352 141.468 117.944 141.931 117.65C142.397 117.356 142.941 117.209 143.563 117.209C143.942 117.209 144.308 117.272 144.663 117.397C145.018 117.522 145.337 117.718 145.619 117.986C145.901 118.254 146.124 118.601 146.287 119.029C146.45 119.454 146.531 119.97 146.531 120.578V121.041H141.202V120.063H145.252C145.252 119.72 145.183 119.416 145.043 119.151C144.903 118.883 144.707 118.672 144.454 118.518C144.203 118.364 143.91 118.287 143.572 118.287C143.205 118.287 142.885 118.377 142.612 118.558C142.341 118.735 142.132 118.968 141.983 119.256C141.838 119.541 141.765 119.851 141.765 120.185V120.949C141.765 121.397 141.844 121.779 142.001 122.093C142.161 122.407 142.383 122.647 142.669 122.813C142.954 122.976 143.287 123.057 143.668 123.057C143.915 123.057 144.141 123.022 144.345 122.953C144.548 122.88 144.724 122.772 144.873 122.63C145.021 122.487 145.135 122.311 145.213 122.101L146.448 122.324C146.349 122.688 146.172 123.006 145.916 123.28C145.663 123.55 145.344 123.761 144.96 123.913C144.579 124.061 144.144 124.135 143.655 124.135ZM148.853 117.296L150.333 119.906L151.825 117.296H153.252L151.162 120.648L153.27 124H151.843L150.333 121.495L148.827 124H147.395L149.481 120.648L147.421 117.296H148.853ZM157.722 117.296V118.344H154.06V117.296H157.722ZM155.042 115.69H156.347V122.032C156.347 122.285 156.385 122.475 156.46 122.603C156.536 122.728 156.633 122.814 156.753 122.861C156.875 122.905 157.007 122.926 157.15 122.926C157.255 122.926 157.346 122.919 157.425 122.905C157.503 122.89 157.564 122.878 157.608 122.87L157.844 123.948C157.768 123.977 157.66 124.006 157.521 124.035C157.381 124.067 157.207 124.084 156.997 124.087C156.654 124.093 156.334 124.032 156.037 123.904C155.74 123.776 155.5 123.578 155.317 123.31C155.133 123.043 155.042 122.707 155.042 122.302V115.69ZM161.917 124.135C161.288 124.135 160.74 123.991 160.271 123.703C159.803 123.415 159.439 123.012 159.18 122.494C158.921 121.976 158.792 121.371 158.792 120.679C158.792 119.983 158.921 119.375 159.18 118.854C159.439 118.334 159.803 117.929 160.271 117.641C160.74 117.353 161.288 117.209 161.917 117.209C162.545 117.209 163.094 117.353 163.562 117.641C164.031 117.929 164.394 118.334 164.653 118.854C164.912 119.375 165.042 119.983 165.042 120.679C165.042 121.371 164.912 121.976 164.653 122.494C164.394 123.012 164.031 123.415 163.562 123.703C163.094 123.991 162.545 124.135 161.917 124.135ZM161.921 123.04C162.329 123.04 162.666 122.932 162.934 122.717C163.201 122.502 163.399 122.215 163.527 121.857C163.658 121.499 163.724 121.105 163.724 120.674C163.724 120.247 163.658 119.854 163.527 119.496C163.399 119.135 163.201 118.846 162.934 118.627C162.666 118.409 162.329 118.3 161.921 118.3C161.511 118.3 161.17 118.409 160.9 118.627C160.632 118.846 160.433 119.135 160.302 119.496C160.174 119.854 160.11 120.247 160.11 120.674C160.11 121.105 160.174 121.499 160.302 121.857C160.433 122.215 160.632 122.502 160.9 122.717C161.17 122.932 161.511 123.04 161.921 123.04ZM174.277 126.514V122.957H174.198C174.12 123.099 174.006 123.262 173.858 123.446C173.712 123.629 173.512 123.789 173.256 123.926C173 124.063 172.668 124.131 172.26 124.131C171.719 124.131 171.236 123.993 170.812 123.716C170.39 123.437 170.058 123.04 169.816 122.525C169.578 122.007 169.459 121.386 169.459 120.661C169.459 119.937 169.579 119.317 169.821 118.802C170.065 118.287 170.4 117.893 170.825 117.619C171.249 117.346 171.731 117.209 172.269 117.209C172.685 117.209 173.02 117.279 173.273 117.418C173.529 117.555 173.727 117.715 173.867 117.899C174.009 118.082 174.12 118.243 174.198 118.383H174.307V117.296H175.582V126.514H174.277ZM172.549 123.018C172.924 123.018 173.241 122.919 173.5 122.721C173.762 122.52 173.96 122.243 174.094 121.888C174.23 121.533 174.299 121.119 174.299 120.648C174.299 120.183 174.232 119.775 174.098 119.426C173.964 119.077 173.768 118.805 173.509 118.61C173.25 118.415 172.93 118.318 172.549 118.318C172.156 118.318 171.828 118.419 171.567 118.623C171.305 118.827 171.107 119.105 170.973 119.457C170.842 119.809 170.777 120.206 170.777 120.648C170.777 121.096 170.844 121.499 170.977 121.857C171.111 122.215 171.309 122.499 171.571 122.708C171.836 122.915 172.162 123.018 172.549 123.018ZM181.583 121.22V117.296H182.892V124H181.609V122.839H181.539C181.385 123.197 181.138 123.495 180.797 123.734C180.46 123.969 180.039 124.087 179.536 124.087C179.105 124.087 178.724 123.993 178.393 123.804C178.064 123.612 177.805 123.328 177.616 122.953C177.429 122.577 177.336 122.113 177.336 121.56V117.296H178.641V121.403C178.641 121.86 178.768 122.224 179.021 122.494C179.274 122.765 179.603 122.9 180.007 122.9C180.252 122.9 180.495 122.839 180.736 122.717C180.981 122.595 181.183 122.41 181.343 122.163C181.506 121.915 181.586 121.601 181.583 121.22ZM187.535 124.135C186.874 124.135 186.306 123.994 185.828 123.712C185.354 123.427 184.988 123.027 184.729 122.512C184.473 121.994 184.345 121.387 184.345 120.692C184.345 120.005 184.473 119.4 184.729 118.876C184.988 118.352 185.348 117.944 185.811 117.65C186.276 117.356 186.821 117.209 187.443 117.209C187.821 117.209 188.188 117.272 188.543 117.397C188.898 117.522 189.217 117.718 189.499 117.986C189.781 118.254 190.004 118.601 190.167 119.029C190.33 119.454 190.411 119.97 190.411 120.578V121.041H185.082V120.063H189.132C189.132 119.72 189.062 119.416 188.923 119.151C188.783 118.883 188.587 118.672 188.334 118.518C188.083 118.364 187.789 118.287 187.452 118.287C187.085 118.287 186.765 118.377 186.492 118.558C186.221 118.735 186.012 118.968 185.863 119.256C185.718 119.541 185.645 119.851 185.645 120.185V120.949C185.645 121.397 185.724 121.779 185.881 122.093C186.041 122.407 186.263 122.647 186.549 122.813C186.834 122.976 187.167 123.057 187.548 123.057C187.795 123.057 188.021 123.022 188.224 122.953C188.428 122.88 188.604 122.772 188.753 122.63C188.901 122.487 189.014 122.311 189.093 122.101L190.328 122.324C190.229 122.688 190.052 123.006 189.796 123.28C189.543 123.55 189.224 123.761 188.84 123.913C188.459 124.061 188.024 124.135 187.535 124.135ZM200.846 117.296L198.415 124H197.019L194.583 117.296H195.984L197.682 122.455H197.752L199.445 117.296H200.846ZM204.669 124.135C204.04 124.135 203.492 123.991 203.023 123.703C202.555 123.415 202.191 123.012 201.932 122.494C201.673 121.976 201.544 121.371 201.544 120.679C201.544 119.983 201.673 119.375 201.932 118.854C202.191 118.334 202.555 117.929 203.023 117.641C203.492 117.353 204.04 117.209 204.669 117.209C205.297 117.209 205.845 117.353 206.314 117.641C206.782 117.929 207.146 118.334 207.405 118.854C207.664 119.375 207.793 119.983 207.793 120.679C207.793 121.371 207.664 121.976 207.405 122.494C207.146 123.012 206.782 123.415 206.314 123.703C205.845 123.991 205.297 124.135 204.669 124.135ZM204.673 123.04C205.08 123.04 205.418 122.932 205.685 122.717C205.953 122.502 206.151 122.215 206.279 121.857C206.41 121.499 206.475 121.105 206.475 120.674C206.475 120.247 206.41 119.854 206.279 119.496C206.151 119.135 205.953 118.846 205.685 118.627C205.418 118.409 205.08 118.3 204.673 118.3C204.263 118.3 203.922 118.409 203.652 118.627C203.384 118.846 203.185 119.135 203.054 119.496C202.926 119.854 202.862 120.247 202.862 120.674C202.862 121.105 202.926 121.499 203.054 121.857C203.185 122.215 203.384 122.502 203.652 122.717C203.922 122.932 204.263 123.04 204.673 123.04ZM212.074 124.135C211.425 124.135 210.866 123.988 210.398 123.694C209.932 123.398 209.575 122.989 209.324 122.468C209.074 121.947 208.949 121.351 208.949 120.679C208.949 119.998 209.077 119.397 209.333 118.876C209.589 118.352 209.95 117.944 210.415 117.65C210.881 117.356 211.429 117.209 212.061 117.209C212.57 117.209 213.024 117.304 213.422 117.493C213.821 117.679 214.143 117.941 214.387 118.278C214.634 118.616 214.781 119.01 214.828 119.461H213.558C213.488 119.147 213.328 118.876 213.078 118.649C212.83 118.422 212.499 118.309 212.083 118.309C211.719 118.309 211.4 118.405 211.127 118.597C210.856 118.786 210.645 119.057 210.494 119.409C210.343 119.758 210.267 120.171 210.267 120.648C210.267 121.137 210.341 121.559 210.49 121.914C210.638 122.269 210.847 122.544 211.118 122.739C211.392 122.934 211.713 123.031 212.083 123.031C212.33 123.031 212.554 122.986 212.755 122.896C212.958 122.803 213.129 122.67 213.265 122.499C213.405 122.327 213.503 122.12 213.558 121.879H214.828C214.781 122.312 214.64 122.699 214.404 123.04C214.169 123.38 213.853 123.648 213.457 123.843C213.065 124.038 212.603 124.135 212.074 124.135ZM219.113 124.135C218.452 124.135 217.883 123.994 217.406 123.712C216.932 123.427 216.565 123.027 216.306 122.512C216.05 121.994 215.922 121.387 215.922 120.692C215.922 120.005 216.05 119.4 216.306 118.876C216.565 118.352 216.926 117.944 217.389 117.65C217.854 117.356 218.398 117.209 219.021 117.209C219.399 117.209 219.766 117.272 220.121 117.397C220.476 117.522 220.794 117.718 221.077 117.986C221.359 118.254 221.581 118.601 221.744 119.029C221.907 119.454 221.989 119.97 221.989 120.578V121.041H216.66V120.063H220.71C220.71 119.72 220.64 119.416 220.5 119.151C220.361 118.883 220.164 118.672 219.911 118.518C219.661 118.364 219.367 118.287 219.03 118.287C218.663 118.287 218.343 118.377 218.07 118.558C217.799 118.735 217.589 118.968 217.441 119.256C217.296 119.541 217.223 119.851 217.223 120.185V120.949C217.223 121.397 217.301 121.779 217.458 122.093C217.619 122.407 217.841 122.647 218.126 122.813C218.411 122.976 218.745 123.057 219.126 123.057C219.373 123.057 219.599 123.022 219.802 122.953C220.006 122.88 220.182 122.772 220.33 122.63C220.479 122.487 220.592 122.311 220.671 122.101L221.906 122.324C221.807 122.688 221.629 123.006 221.373 123.28C221.12 123.55 220.802 123.761 220.418 123.913C220.036 124.061 219.601 124.135 219.113 124.135ZM219.868 116.493L218.973 115.324L218.074 116.493H216.895V116.428L218.427 114.577H219.514L221.05 116.428V116.493H219.868ZM229.199 124.131C228.658 124.131 228.175 123.993 227.75 123.716C227.328 123.437 226.996 123.04 226.755 122.525C226.516 122.007 226.397 121.386 226.397 120.661C226.397 119.937 226.518 119.317 226.759 118.802C227.003 118.287 227.338 117.893 227.763 117.619C228.188 117.346 228.669 117.209 229.208 117.209C229.624 117.209 229.958 117.279 230.211 117.418C230.467 117.555 230.665 117.715 230.805 117.899C230.947 118.082 231.058 118.243 231.137 118.383H231.215V115.062H232.52V124H231.246V122.957H231.137C231.058 123.099 230.945 123.262 230.796 123.446C230.651 123.629 230.45 123.789 230.194 123.926C229.938 124.063 229.606 124.131 229.199 124.131ZM229.487 123.018C229.862 123.018 230.179 122.919 230.438 122.721C230.7 122.52 230.898 122.243 231.032 121.888C231.169 121.533 231.237 121.119 231.237 120.648C231.237 120.183 231.17 119.775 231.036 119.426C230.902 119.077 230.706 118.805 230.447 118.61C230.188 118.415 229.868 118.318 229.487 118.318C229.094 118.318 228.767 118.419 228.505 118.623C228.243 118.827 228.045 119.105 227.911 119.457C227.78 119.809 227.715 120.206 227.715 120.648C227.715 121.096 227.782 121.499 227.916 121.857C228.049 122.215 228.247 122.499 228.509 122.708C228.774 122.915 229.1 123.018 229.487 123.018ZM237.272 124.135C236.611 124.135 236.043 123.994 235.565 123.712C235.091 123.427 234.725 123.027 234.466 122.512C234.21 121.994 234.081 121.387 234.081 120.692C234.081 120.005 234.21 119.4 234.466 118.876C234.725 118.352 235.085 117.944 235.548 117.65C236.013 117.356 236.558 117.209 237.18 117.209C237.558 117.209 237.925 117.272 238.28 117.397C238.635 117.522 238.954 117.718 239.236 117.986C239.518 118.254 239.741 118.601 239.904 119.029C240.067 119.454 240.148 119.97 240.148 120.578V121.041H234.819V120.063H238.869C238.869 119.72 238.799 119.416 238.66 119.151C238.52 118.883 238.324 118.672 238.071 118.518C237.82 118.364 237.526 118.287 237.189 118.287C236.822 118.287 236.502 118.377 236.229 118.558C235.958 118.735 235.749 118.968 235.6 119.256C235.455 119.541 235.382 119.851 235.382 120.185V120.949C235.382 121.397 235.461 121.779 235.618 122.093C235.778 122.407 236 122.647 236.286 122.813C236.571 122.976 236.904 123.057 237.285 123.057C237.532 123.057 237.758 123.022 237.961 122.953C238.165 122.88 238.341 122.772 238.49 122.63C238.638 122.487 238.751 122.311 238.83 122.101L240.065 122.324C239.966 122.688 239.789 123.006 239.533 123.28C239.28 123.55 238.961 123.761 238.577 123.913C238.196 124.061 237.761 124.135 237.272 124.135ZM246.619 118.933L245.437 119.142C245.387 118.991 245.309 118.847 245.201 118.71C245.096 118.574 244.954 118.462 244.773 118.374C244.593 118.287 244.367 118.243 244.097 118.243C243.727 118.243 243.419 118.326 243.171 118.492C242.924 118.655 242.801 118.866 242.801 119.125C242.801 119.349 242.883 119.529 243.049 119.666C243.215 119.803 243.483 119.915 243.852 120.002L244.917 120.247C245.534 120.389 245.994 120.609 246.296 120.906C246.599 121.202 246.75 121.588 246.75 122.062C246.75 122.464 246.634 122.822 246.401 123.136C246.171 123.447 245.85 123.692 245.437 123.869C245.026 124.047 244.551 124.135 244.009 124.135C243.259 124.135 242.646 123.975 242.172 123.655C241.698 123.332 241.407 122.874 241.299 122.28L242.56 122.088C242.639 122.417 242.801 122.666 243.045 122.835C243.289 123.001 243.608 123.083 244.001 123.083C244.428 123.083 244.77 122.995 245.026 122.817C245.282 122.637 245.41 122.417 245.41 122.158C245.41 121.949 245.332 121.773 245.175 121.63C245.021 121.488 244.783 121.38 244.463 121.307L243.329 121.058C242.703 120.916 242.24 120.689 241.941 120.378C241.644 120.066 241.496 119.672 241.496 119.195C241.496 118.799 241.606 118.453 241.827 118.156C242.048 117.859 242.354 117.628 242.744 117.462C243.134 117.293 243.58 117.209 244.084 117.209C244.808 117.209 245.378 117.366 245.795 117.68C246.211 117.992 246.486 118.409 246.619 118.933ZM251.074 124.135C250.414 124.135 249.845 123.994 249.368 123.712C248.894 123.427 248.527 123.027 248.268 122.512C248.012 121.994 247.884 121.387 247.884 120.692C247.884 120.005 248.012 119.4 248.268 118.876C248.527 118.352 248.888 117.944 249.35 117.65C249.816 117.356 250.36 117.209 250.983 117.209C251.361 117.209 251.728 117.272 252.083 117.397C252.438 117.522 252.756 117.718 253.038 117.986C253.321 118.254 253.543 118.601 253.706 119.029C253.869 119.454 253.951 119.97 253.951 120.578V121.041H248.622V120.063H252.672C252.672 119.72 252.602 119.416 252.462 119.151C252.323 118.883 252.126 118.672 251.873 118.518C251.623 118.364 251.329 118.287 250.991 118.287C250.625 118.287 250.305 118.377 250.031 118.558C249.761 118.735 249.551 118.968 249.403 119.256C249.257 119.541 249.185 119.851 249.185 120.185V120.949C249.185 121.397 249.263 121.779 249.42 122.093C249.58 122.407 249.803 122.647 250.088 122.813C250.373 122.976 250.706 123.057 251.087 123.057C251.335 123.057 251.56 123.022 251.764 122.953C251.968 122.88 252.144 122.772 252.292 122.63C252.44 122.487 252.554 122.311 252.632 122.101L253.868 122.324C253.769 122.688 253.591 123.006 253.335 123.28C253.082 123.55 252.763 123.761 252.379 123.913C251.998 124.061 251.563 124.135 251.074 124.135ZM255.398 117.296H256.703V124.436C256.703 124.885 256.622 125.263 256.459 125.571C256.299 125.88 256.06 126.114 255.743 126.274C255.429 126.434 255.041 126.514 254.578 126.514C254.531 126.514 254.488 126.514 254.447 126.514C254.403 126.514 254.358 126.512 254.312 126.51V125.388C254.352 125.388 254.389 125.388 254.421 125.388C254.45 125.388 254.483 125.388 254.521 125.388C254.83 125.388 255.052 125.305 255.189 125.139C255.329 124.976 255.398 124.739 255.398 124.428V117.296ZM256.044 116.262C255.817 116.262 255.622 116.186 255.46 116.035C255.3 115.881 255.219 115.697 255.219 115.485C255.219 115.27 255.3 115.086 255.46 114.935C255.622 114.781 255.817 114.704 256.044 114.704C256.271 114.704 256.465 114.781 256.625 114.935C256.788 115.086 256.869 115.27 256.869 115.485C256.869 115.697 256.788 115.881 256.625 116.035C256.465 116.186 256.271 116.262 256.044 116.262ZM260.41 124.148C259.985 124.148 259.601 124.07 259.258 123.913C258.914 123.753 258.642 123.521 258.442 123.219C258.244 122.916 258.145 122.545 258.145 122.106C258.145 121.728 258.217 121.416 258.363 121.172C258.508 120.927 258.705 120.734 258.952 120.591C259.199 120.449 259.476 120.341 259.781 120.268C260.087 120.196 260.398 120.14 260.715 120.103C261.117 120.056 261.443 120.018 261.693 119.989C261.943 119.957 262.125 119.906 262.239 119.836C262.352 119.767 262.409 119.653 262.409 119.496V119.465C262.409 119.084 262.301 118.789 262.086 118.579C261.873 118.37 261.556 118.265 261.134 118.265C260.695 118.265 260.349 118.363 260.096 118.558C259.845 118.75 259.672 118.963 259.576 119.199L258.35 118.92C258.495 118.512 258.708 118.184 258.987 117.933C259.269 117.68 259.594 117.497 259.96 117.384C260.327 117.267 260.712 117.209 261.117 117.209C261.385 117.209 261.668 117.241 261.968 117.305C262.271 117.366 262.553 117.48 262.815 117.645C263.079 117.811 263.296 118.048 263.465 118.357C263.634 118.662 263.718 119.059 263.718 119.548V124H262.444V123.083H262.391C262.307 123.252 262.18 123.418 262.012 123.581C261.843 123.744 261.626 123.879 261.361 123.987C261.097 124.095 260.779 124.148 260.41 124.148ZM260.694 123.101C261.054 123.101 261.363 123.03 261.619 122.887C261.878 122.745 262.074 122.558 262.208 122.328C262.345 122.096 262.413 121.847 262.413 121.582V120.718C262.367 120.765 262.276 120.808 262.143 120.849C262.012 120.887 261.862 120.92 261.693 120.949C261.524 120.975 261.36 121 261.2 121.023C261.04 121.044 260.906 121.061 260.798 121.076C260.545 121.108 260.314 121.162 260.104 121.237C259.898 121.313 259.732 121.422 259.607 121.565C259.485 121.704 259.424 121.891 259.424 122.123C259.424 122.446 259.543 122.691 259.781 122.857C260.02 123.019 260.324 123.101 260.694 123.101ZM81.9584 139.135C81.3095 139.135 80.7509 138.988 80.2824 138.694C79.8169 138.398 79.459 137.989 79.2088 137.468C78.9586 136.947 78.8334 136.351 78.8334 135.679C78.8334 134.998 78.9615 134.397 79.2175 133.876C79.4736 133.352 79.8344 132.944 80.2999 132.65C80.7654 132.356 81.3139 132.209 81.9453 132.209C82.4545 132.209 82.9084 132.304 83.307 132.493C83.7056 132.679 84.0271 132.941 84.2715 133.278C84.5188 133.616 84.6658 134.01 84.7123 134.461H83.4423C83.3724 134.147 83.2124 133.876 82.9622 133.649C82.7149 133.422 82.3832 133.309 81.9671 133.309C81.6034 133.309 81.2848 133.405 81.0113 133.597C80.7407 133.786 80.5298 134.057 80.3785 134.409C80.2271 134.758 80.1515 135.171 80.1515 135.648C80.1515 136.137 80.2257 136.559 80.3741 136.914C80.5225 137.269 80.732 137.544 81.0026 137.739C81.2761 137.934 81.5976 138.031 81.9671 138.031C82.2144 138.031 82.4385 137.986 82.6392 137.896C82.8429 137.803 83.0131 137.67 83.1499 137.499C83.2895 137.327 83.387 137.12 83.4423 136.879H84.7123C84.6658 137.312 84.5247 137.699 84.289 138.04C84.0533 138.38 83.7376 138.648 83.3419 138.843C82.9491 139.038 82.4879 139.135 81.9584 139.135ZM86.1078 139V132.296H87.3692V133.361H87.439C87.5612 133 87.7765 132.717 88.0849 132.51C88.3963 132.301 88.7483 132.196 89.1411 132.196C89.2226 132.196 89.3186 132.199 89.4292 132.205C89.5427 132.21 89.6314 132.218 89.6954 132.226V133.475C89.643 133.46 89.5499 133.444 89.4161 133.427C89.2822 133.406 89.1484 133.396 89.0146 133.396C88.7061 133.396 88.4312 133.462 88.1897 133.592C87.9511 133.721 87.762 133.899 87.6223 134.129C87.4826 134.356 87.4128 134.615 87.4128 134.906V139H86.1078ZM90.8247 139V132.296H92.1297V139H90.8247ZM91.4837 131.262C91.2568 131.262 91.0618 131.186 90.8989 131.035C90.7389 130.881 90.6589 130.697 90.6589 130.485C90.6589 130.27 90.7389 130.086 90.8989 129.935C91.0618 129.781 91.2568 129.704 91.4837 129.704C91.7107 129.704 91.9042 129.781 92.0642 129.935C92.2271 130.086 92.3086 130.27 92.3086 130.485C92.3086 130.697 92.2271 130.881 92.0642 131.035C91.9042 131.186 91.7107 131.262 91.4837 131.262ZM93.8853 141.514V132.296H95.1597V133.383H95.2688C95.3444 133.243 95.4535 133.082 95.5961 132.899C95.7387 132.715 95.9365 132.555 96.1897 132.418C96.4428 132.279 96.7774 132.209 97.1935 132.209C97.7347 132.209 98.2177 132.346 98.6425 132.619C99.0673 132.893 99.4004 133.287 99.6419 133.802C99.8863 134.317 100.009 134.937 100.009 135.661C100.009 136.386 99.8878 137.007 99.6463 137.525C99.4048 138.04 99.0731 138.437 98.6512 138.716C98.2293 138.993 97.7478 139.131 97.2066 139.131C96.7992 139.131 96.4661 139.063 96.2071 138.926C95.9511 138.789 95.7503 138.629 95.6048 138.446C95.4594 138.262 95.3473 138.099 95.2688 137.957H95.1902V141.514H93.8853ZM95.164 135.648C95.164 136.119 95.2324 136.533 95.3692 136.888C95.5059 137.243 95.7038 137.52 95.9627 137.721C96.2217 137.919 96.5388 138.018 96.9142 138.018C97.3041 138.018 97.6299 137.915 97.8918 137.708C98.1537 137.499 98.3515 137.215 98.4854 136.857C98.6221 136.499 98.6905 136.096 98.6905 135.648C98.6905 135.206 98.6236 134.809 98.4897 134.457C98.3588 134.105 98.1609 133.827 97.8962 133.623C97.6343 133.419 97.307 133.318 96.9142 133.318C96.5359 133.318 96.2159 133.415 95.954 133.61C95.695 133.805 95.4986 134.077 95.3648 134.426C95.231 134.775 95.164 135.183 95.164 135.648ZM104.6 132.296V133.344H100.938V132.296H104.6ZM101.92 130.69H103.225V137.032C103.225 137.285 103.263 137.475 103.339 137.603C103.414 137.728 103.512 137.814 103.631 137.861C103.753 137.905 103.886 137.926 104.028 137.926C104.133 137.926 104.225 137.919 104.303 137.905C104.382 137.89 104.443 137.878 104.486 137.87L104.722 138.948C104.646 138.977 104.539 139.006 104.399 139.035C104.259 139.067 104.085 139.084 103.875 139.087C103.532 139.093 103.212 139.032 102.915 138.904C102.618 138.776 102.378 138.578 102.195 138.31C102.012 138.043 101.92 137.707 101.92 137.302V130.69ZM108.795 139.135C108.167 139.135 107.618 138.991 107.15 138.703C106.681 138.415 106.318 138.012 106.059 137.494C105.8 136.976 105.67 136.371 105.67 135.679C105.67 134.983 105.8 134.375 106.059 133.854C106.318 133.334 106.681 132.929 107.15 132.641C107.618 132.353 108.167 132.209 108.795 132.209C109.424 132.209 109.972 132.353 110.441 132.641C110.909 132.929 111.273 133.334 111.532 133.854C111.791 134.375 111.92 134.983 111.92 135.679C111.92 136.371 111.791 136.976 111.532 137.494C111.273 138.012 110.909 138.415 110.441 138.703C109.972 138.991 109.424 139.135 108.795 139.135ZM108.8 138.04C109.207 138.04 109.544 137.932 109.812 137.717C110.08 137.502 110.278 137.215 110.406 136.857C110.537 136.499 110.602 136.105 110.602 135.674C110.602 135.247 110.537 134.854 110.406 134.496C110.278 134.135 110.08 133.846 109.812 133.627C109.544 133.409 109.207 133.3 108.8 133.3C108.389 133.3 108.049 133.409 107.778 133.627C107.511 133.846 107.311 134.135 107.18 134.496C107.052 134.854 106.988 135.247 106.988 135.674C106.988 136.105 107.052 136.499 107.18 136.857C107.311 137.215 107.511 137.502 107.778 137.717C108.049 137.932 108.389 138.04 108.8 138.04ZM116.187 141.654C115.655 141.654 115.197 141.584 114.813 141.444C114.432 141.304 114.12 141.12 113.879 140.89C113.637 140.66 113.457 140.408 113.337 140.135L114.459 139.672C114.538 139.8 114.642 139.935 114.773 140.078C114.907 140.223 115.088 140.347 115.315 140.449C115.544 140.551 115.84 140.602 116.201 140.602C116.695 140.602 117.104 140.481 117.427 140.239C117.75 140.001 117.911 139.62 117.911 139.096V137.778H117.828C117.75 137.921 117.636 138.079 117.488 138.254C117.343 138.428 117.142 138.58 116.886 138.708C116.63 138.836 116.297 138.9 115.886 138.9C115.357 138.9 114.88 138.776 114.455 138.529C114.033 138.278 113.698 137.91 113.451 137.424C113.207 136.936 113.084 136.335 113.084 135.622C113.084 134.909 113.205 134.298 113.447 133.789C113.691 133.28 114.026 132.89 114.45 132.619C114.875 132.346 115.357 132.209 115.895 132.209C116.311 132.209 116.647 132.279 116.903 132.418C117.159 132.555 117.359 132.715 117.501 132.899C117.647 133.082 117.759 133.243 117.837 133.383H117.933V132.296H119.212V139.148C119.212 139.724 119.078 140.197 118.81 140.567C118.543 140.936 118.181 141.21 117.724 141.387C117.27 141.565 116.758 141.654 116.187 141.654ZM116.174 137.817C116.55 137.817 116.867 137.73 117.126 137.555C117.388 137.378 117.586 137.125 117.719 136.796C117.856 136.464 117.925 136.067 117.925 135.604C117.925 135.153 117.858 134.756 117.724 134.413C117.59 134.07 117.394 133.802 117.135 133.61C116.876 133.415 116.556 133.318 116.174 133.318C115.782 133.318 115.454 133.419 115.192 133.623C114.931 133.824 114.733 134.097 114.599 134.444C114.468 134.79 114.402 135.177 114.402 135.604C114.402 136.044 114.469 136.429 114.603 136.761C114.737 137.093 114.935 137.352 115.197 137.538C115.462 137.724 115.787 137.817 116.174 137.817ZM120.962 139V132.296H122.223V133.361H122.293C122.416 133 122.631 132.717 122.939 132.51C123.251 132.301 123.603 132.196 123.995 132.196C124.077 132.196 124.173 132.199 124.283 132.205C124.397 132.21 124.486 132.218 124.55 132.226V133.475C124.497 133.46 124.404 133.444 124.27 133.427C124.137 133.406 124.003 133.396 123.869 133.396C123.56 133.396 123.285 133.462 123.044 133.592C122.805 133.721 122.616 133.899 122.477 134.129C122.337 134.356 122.267 134.615 122.267 134.906V139H120.962ZM127.57 139.148C127.145 139.148 126.761 139.07 126.418 138.913C126.074 138.753 125.802 138.521 125.602 138.219C125.404 137.916 125.305 137.545 125.305 137.106C125.305 136.728 125.377 136.416 125.523 136.172C125.668 135.927 125.865 135.734 126.112 135.591C126.359 135.449 126.636 135.341 126.941 135.268C127.247 135.196 127.558 135.14 127.875 135.103C128.277 135.056 128.603 135.018 128.853 134.989C129.103 134.957 129.285 134.906 129.399 134.836C129.512 134.767 129.569 134.653 129.569 134.496V134.465C129.569 134.084 129.461 133.789 129.246 133.579C129.033 133.37 128.716 133.265 128.294 133.265C127.855 133.265 127.509 133.363 127.256 133.558C127.005 133.75 126.832 133.963 126.736 134.199L125.51 133.92C125.655 133.512 125.868 133.184 126.147 132.933C126.429 132.68 126.754 132.497 127.12 132.384C127.487 132.267 127.872 132.209 128.277 132.209C128.545 132.209 128.828 132.241 129.128 132.305C129.431 132.366 129.713 132.48 129.975 132.645C130.239 132.811 130.456 133.048 130.625 133.357C130.794 133.662 130.878 134.059 130.878 134.548V139H129.604V138.083H129.551C129.467 138.252 129.34 138.418 129.172 138.581C129.003 138.744 128.786 138.879 128.521 138.987C128.257 139.095 127.939 139.148 127.57 139.148ZM127.854 138.101C128.214 138.101 128.523 138.03 128.779 137.887C129.038 137.745 129.234 137.558 129.368 137.328C129.505 137.096 129.573 136.847 129.573 136.582V135.718C129.527 135.765 129.436 135.808 129.303 135.849C129.172 135.887 129.022 135.92 128.853 135.949C128.684 135.975 128.52 136 128.36 136.023C128.2 136.044 128.066 136.061 127.958 136.076C127.705 136.108 127.474 136.162 127.264 136.237C127.058 136.313 126.892 136.422 126.767 136.565C126.645 136.704 126.584 136.891 126.584 137.123C126.584 137.446 126.703 137.691 126.941 137.857C127.18 138.019 127.484 138.101 127.854 138.101ZM135.807 132.296V133.344H132.018V132.296H135.807ZM133.057 139V131.519C133.057 131.1 133.149 130.753 133.332 130.476C133.515 130.197 133.758 129.989 134.061 129.852C134.363 129.713 134.692 129.643 135.047 129.643C135.309 129.643 135.533 129.664 135.719 129.708C135.906 129.749 136.044 129.787 136.134 129.822L135.828 130.878C135.767 130.86 135.689 130.84 135.593 130.817C135.497 130.791 135.38 130.777 135.244 130.777C134.926 130.777 134.7 130.856 134.563 131.013C134.429 131.17 134.362 131.397 134.362 131.694V139H133.057ZM138.9 139.148C138.475 139.148 138.091 139.07 137.748 138.913C137.404 138.753 137.132 138.521 136.932 138.219C136.734 137.916 136.635 137.545 136.635 137.106C136.635 136.728 136.708 136.416 136.853 136.172C136.998 135.927 137.195 135.734 137.442 135.591C137.69 135.449 137.966 135.341 138.271 135.268C138.577 135.196 138.888 135.14 139.205 135.103C139.607 135.056 139.933 135.018 140.183 134.989C140.433 134.957 140.615 134.906 140.729 134.836C140.842 134.767 140.899 134.653 140.899 134.496V134.465C140.899 134.084 140.791 133.789 140.576 133.579C140.363 133.37 140.046 133.265 139.624 133.265C139.185 133.265 138.839 133.363 138.586 133.558C138.335 133.75 138.162 133.963 138.066 134.199L136.84 133.92C136.985 133.512 137.198 133.184 137.477 132.933C137.759 132.68 138.084 132.497 138.45 132.384C138.817 132.267 139.203 132.209 139.607 132.209C139.875 132.209 140.158 132.241 140.458 132.305C140.761 132.366 141.043 132.48 141.305 132.645C141.57 132.811 141.786 133.048 141.955 133.357C142.124 133.662 142.208 134.059 142.208 134.548V139H140.934V138.083H140.881C140.797 138.252 140.67 138.418 140.502 138.581C140.333 138.744 140.116 138.879 139.851 138.987C139.587 139.095 139.269 139.148 138.9 139.148ZM139.184 138.101C139.544 138.101 139.853 138.03 140.109 137.887C140.368 137.745 140.564 137.558 140.698 137.328C140.835 137.096 140.903 136.847 140.903 136.582V135.718C140.857 135.765 140.766 135.808 140.633 135.849C140.502 135.887 140.352 135.92 140.183 135.949C140.014 135.975 139.85 136 139.69 136.023C139.53 136.044 139.396 136.061 139.288 136.076C139.035 136.108 138.804 136.162 138.594 136.237C138.388 136.313 138.222 136.422 138.097 136.565C137.975 136.704 137.914 136.891 137.914 137.123C137.914 137.446 138.033 137.691 138.271 137.857C138.51 138.019 138.814 138.101 139.184 138.101ZM143.946 139V132.296H145.208V133.361H145.277C145.4 133 145.615 132.717 145.923 132.51C146.235 132.301 146.587 132.196 146.98 132.196C147.061 132.196 147.157 132.199 147.268 132.205C147.381 132.21 147.47 132.218 147.534 132.226V133.475C147.481 133.46 147.388 133.444 147.255 133.427C147.121 133.406 146.987 133.396 146.853 133.396C146.545 133.396 146.27 133.462 146.028 133.592C145.79 133.721 145.6 133.899 145.461 134.129C145.321 134.356 145.251 134.615 145.251 134.906V139H143.946ZM154.74 139.135C154.111 139.135 153.563 138.991 153.094 138.703C152.626 138.415 152.262 138.012 152.003 137.494C151.744 136.976 151.615 136.371 151.615 135.679C151.615 134.983 151.744 134.375 152.003 133.854C152.262 133.334 152.626 132.929 153.094 132.641C153.563 132.353 154.111 132.209 154.74 132.209C155.368 132.209 155.916 132.353 156.385 132.641C156.853 132.929 157.217 133.334 157.476 133.854C157.735 134.375 157.864 134.983 157.864 135.679C157.864 136.371 157.735 136.976 157.476 137.494C157.217 138.012 156.853 138.415 156.385 138.703C155.916 138.991 155.368 139.135 154.74 139.135ZM154.744 138.04C155.151 138.04 155.489 137.932 155.756 137.717C156.024 137.502 156.222 137.215 156.35 136.857C156.481 136.499 156.546 136.105 156.546 135.674C156.546 135.247 156.481 134.854 156.35 134.496C156.222 134.135 156.024 133.846 155.756 133.627C155.489 133.409 155.151 133.3 154.744 133.3C154.334 133.3 153.993 133.409 153.723 133.627C153.455 133.846 153.256 134.135 153.125 134.496C152.997 134.854 152.933 135.247 152.933 135.674C152.933 136.105 152.997 136.499 153.125 136.857C153.256 137.215 153.455 137.502 153.723 137.717C153.993 137.932 154.334 138.04 154.744 138.04ZM163.568 136.22V132.296H164.877V139H163.594V137.839H163.524C163.37 138.197 163.122 138.495 162.782 138.734C162.445 138.969 162.024 139.087 161.521 139.087C161.09 139.087 160.709 138.993 160.377 138.804C160.048 138.612 159.79 138.328 159.6 137.953C159.414 137.577 159.321 137.113 159.321 136.56V132.296H160.626V136.403C160.626 136.86 160.753 137.224 161.006 137.494C161.259 137.765 161.588 137.9 161.992 137.9C162.237 137.9 162.479 137.839 162.721 137.717C162.965 137.595 163.168 137.41 163.328 137.163C163.491 136.915 163.571 136.601 163.568 136.22ZM172.393 139.131C171.851 139.131 171.368 138.993 170.944 138.716C170.522 138.437 170.19 138.04 169.948 137.525C169.71 137.007 169.591 136.386 169.591 135.661C169.591 134.937 169.711 134.317 169.953 133.802C170.197 133.287 170.532 132.893 170.957 132.619C171.381 132.346 171.863 132.209 172.401 132.209C172.817 132.209 173.152 132.279 173.405 132.418C173.661 132.555 173.859 132.715 173.999 132.899C174.141 133.082 174.252 133.243 174.33 133.383H174.409V130.062H175.714V139H174.439V137.957H174.33C174.252 138.099 174.138 138.262 173.99 138.446C173.844 138.629 173.644 138.789 173.388 138.926C173.132 139.063 172.8 139.131 172.393 139.131ZM172.681 138.018C173.056 138.018 173.373 137.919 173.632 137.721C173.894 137.52 174.092 137.243 174.226 136.888C174.362 136.533 174.431 136.119 174.431 135.648C174.431 135.183 174.364 134.775 174.23 134.426C174.096 134.077 173.9 133.805 173.641 133.61C173.382 133.415 173.062 133.318 172.681 133.318C172.288 133.318 171.96 133.419 171.699 133.623C171.437 133.827 171.239 134.105 171.105 134.457C170.974 134.809 170.909 135.206 170.909 135.648C170.909 136.096 170.976 136.499 171.109 136.857C171.243 137.215 171.441 137.499 171.703 137.708C171.968 137.915 172.294 138.018 172.681 138.018ZM180.466 139.135C179.805 139.135 179.236 138.994 178.759 138.712C178.285 138.427 177.918 138.027 177.659 137.512C177.403 136.994 177.275 136.387 177.275 135.692C177.275 135.005 177.403 134.4 177.659 133.876C177.918 133.352 178.279 132.944 178.742 132.65C179.207 132.356 179.751 132.209 180.374 132.209C180.752 132.209 181.119 132.272 181.474 132.397C181.829 132.522 182.147 132.718 182.43 132.986C182.712 133.254 182.934 133.601 183.097 134.029C183.26 134.454 183.342 134.97 183.342 135.578V136.041H178.013V135.063H182.063C182.063 134.72 181.993 134.416 181.854 134.151C181.714 133.883 181.517 133.672 181.264 133.518C181.014 133.364 180.72 133.287 180.383 133.287C180.016 133.287 179.696 133.377 179.423 133.558C179.152 133.735 178.942 133.968 178.794 134.256C178.649 134.541 178.576 134.851 178.576 135.185V135.949C178.576 136.397 178.654 136.779 178.812 137.093C178.972 137.407 179.194 137.647 179.479 137.813C179.764 137.976 180.098 138.057 180.479 138.057C180.726 138.057 180.952 138.022 181.155 137.953C181.359 137.88 181.535 137.772 181.683 137.63C181.832 137.487 181.945 137.311 182.024 137.101L183.259 137.324C183.16 137.688 182.982 138.006 182.726 138.28C182.473 138.55 182.155 138.761 181.771 138.913C181.389 139.061 180.954 139.135 180.466 139.135ZM189.813 133.933L188.63 134.142C188.581 133.991 188.502 133.847 188.395 133.71C188.29 133.574 188.147 133.462 187.967 133.374C187.787 133.287 187.561 133.243 187.29 133.243C186.921 133.243 186.613 133.326 186.365 133.492C186.118 133.655 185.994 133.866 185.994 134.125C185.994 134.349 186.077 134.529 186.243 134.666C186.409 134.803 186.677 134.915 187.046 135.002L188.111 135.247C188.728 135.389 189.188 135.609 189.49 135.906C189.793 136.202 189.944 136.588 189.944 137.062C189.944 137.464 189.828 137.822 189.595 138.136C189.365 138.447 189.044 138.692 188.63 138.869C188.22 139.047 187.744 139.135 187.203 139.135C186.453 139.135 185.84 138.975 185.366 138.655C184.892 138.332 184.601 137.874 184.493 137.28L185.754 137.088C185.833 137.417 185.994 137.666 186.239 137.835C186.483 138.001 186.802 138.083 187.194 138.083C187.622 138.083 187.964 137.995 188.22 137.817C188.476 137.637 188.604 137.417 188.604 137.158C188.604 136.949 188.526 136.773 188.369 136.63C188.214 136.488 187.977 136.38 187.657 136.307L186.522 136.058C185.897 135.916 185.434 135.689 185.134 135.378C184.838 135.066 184.689 134.672 184.689 134.195C184.689 133.799 184.8 133.453 185.021 133.156C185.242 132.859 185.548 132.628 185.938 132.462C186.327 132.293 186.774 132.209 187.277 132.209C188.002 132.209 188.572 132.366 188.988 132.68C189.404 132.992 189.679 133.409 189.813 133.933ZM194.203 139.135C193.554 139.135 192.995 138.988 192.527 138.694C192.061 138.398 191.703 137.989 191.453 137.468C191.203 136.947 191.078 136.351 191.078 135.679C191.078 134.998 191.206 134.397 191.462 133.876C191.718 133.352 192.079 132.944 192.544 132.65C193.01 132.356 193.558 132.209 194.19 132.209C194.699 132.209 195.153 132.304 195.551 132.493C195.95 132.679 196.271 132.941 196.516 133.278C196.763 133.616 196.91 134.01 196.957 134.461H195.687C195.617 134.147 195.457 133.876 195.206 133.649C194.959 133.422 194.627 133.309 194.211 133.309C193.848 133.309 193.529 133.405 193.256 133.597C192.985 133.786 192.774 134.057 192.623 134.409C192.471 134.758 192.396 135.171 192.396 135.648C192.396 136.137 192.47 136.559 192.618 136.914C192.767 137.269 192.976 137.544 193.247 137.739C193.52 137.934 193.842 138.031 194.211 138.031C194.459 138.031 194.683 137.986 194.883 137.896C195.087 137.803 195.257 137.67 195.394 137.499C195.534 137.327 195.631 137.12 195.687 136.879H196.957C196.91 137.312 196.769 137.699 196.533 138.04C196.298 138.38 195.982 138.648 195.586 138.843C195.193 139.038 194.732 139.135 194.203 139.135ZM198.352 139V132.296H199.613V133.361H199.683C199.805 133 200.021 132.717 200.329 132.51C200.641 132.301 200.993 132.196 201.385 132.196C201.467 132.196 201.563 132.199 201.673 132.205C201.787 132.21 201.876 132.218 201.94 132.226V133.475C201.887 133.46 201.794 133.444 201.66 133.427C201.527 133.406 201.393 133.396 201.259 133.396C200.95 133.396 200.675 133.462 200.434 133.592C200.195 133.721 200.006 133.899 199.867 134.129C199.727 134.356 199.657 134.615 199.657 134.906V139H198.352ZM203.069 139V132.296H204.374V139H203.069ZM203.728 131.262C203.501 131.262 203.306 131.186 203.143 131.035C202.983 130.881 202.903 130.697 202.903 130.485C202.903 130.27 202.983 130.086 203.143 129.935C203.306 129.781 203.501 129.704 203.728 129.704C203.955 129.704 204.148 129.781 204.308 129.935C204.471 130.086 204.553 130.27 204.553 130.485C204.553 130.697 204.471 130.881 204.308 131.035C204.148 131.186 203.955 131.262 203.728 131.262ZM206.13 141.514V132.296H207.404V133.383H207.513C207.589 133.243 207.698 133.082 207.84 132.899C207.983 132.715 208.181 132.555 208.434 132.418C208.687 132.279 209.022 132.209 209.438 132.209C209.979 132.209 210.462 132.346 210.887 132.619C211.312 132.893 211.645 133.287 211.886 133.802C212.131 134.317 212.253 134.937 212.253 135.661C212.253 136.386 212.132 137.007 211.891 137.525C211.649 138.04 211.317 138.437 210.895 138.716C210.474 138.993 209.992 139.131 209.451 139.131C209.044 139.131 208.71 139.063 208.451 138.926C208.195 138.789 207.995 138.629 207.849 138.446C207.704 138.262 207.592 138.099 207.513 137.957H207.435V141.514H206.13ZM207.408 135.648C207.408 136.119 207.477 136.533 207.613 136.888C207.75 137.243 207.948 137.52 208.207 137.721C208.466 137.919 208.783 138.018 209.158 138.018C209.548 138.018 209.874 137.915 210.136 137.708C210.398 137.499 210.596 137.215 210.73 136.857C210.866 136.499 210.935 136.096 210.935 135.648C210.935 135.206 210.868 134.809 210.734 134.457C210.603 134.105 210.405 133.827 210.14 133.623C209.879 133.419 209.551 133.318 209.158 133.318C208.78 133.318 208.46 133.415 208.198 133.61C207.939 133.805 207.743 134.077 207.609 134.426C207.475 134.775 207.408 135.183 207.408 135.648ZM216.844 132.296V133.344H213.182V132.296H216.844ZM214.164 130.69H215.469V137.032C215.469 137.285 215.507 137.475 215.583 137.603C215.659 137.728 215.756 137.814 215.875 137.861C215.997 137.905 216.13 137.926 216.272 137.926C216.377 137.926 216.469 137.919 216.547 137.905C216.626 137.89 216.687 137.878 216.731 137.87L216.966 138.948C216.891 138.977 216.783 139.006 216.643 139.035C216.504 139.067 216.329 139.084 216.12 139.087C215.776 139.093 215.456 139.032 215.16 138.904C214.863 138.776 214.623 138.578 214.439 138.31C214.256 138.043 214.164 137.707 214.164 137.302V130.69ZM221.04 139.135C220.411 139.135 219.863 138.991 219.394 138.703C218.926 138.415 218.562 138.012 218.303 137.494C218.044 136.976 217.915 136.371 217.915 135.679C217.915 134.983 218.044 134.375 218.303 133.854C218.562 133.334 218.926 132.929 219.394 132.641C219.863 132.353 220.411 132.209 221.04 132.209C221.668 132.209 222.216 132.353 222.685 132.641C223.153 132.929 223.517 133.334 223.776 133.854C224.035 134.375 224.164 134.983 224.164 135.679C224.164 136.371 224.035 136.976 223.776 137.494C223.517 138.012 223.153 138.415 222.685 138.703C222.216 138.991 221.668 139.135 221.04 139.135ZM221.044 138.04C221.451 138.04 221.789 137.932 222.056 137.717C222.324 137.502 222.522 137.215 222.65 136.857C222.781 136.499 222.846 136.105 222.846 135.674C222.846 135.247 222.781 134.854 222.65 134.496C222.522 134.135 222.324 133.846 222.056 133.627C221.789 133.409 221.451 133.3 221.044 133.3C220.634 133.3 220.293 133.409 220.023 133.627C219.755 133.846 219.556 134.135 219.425 134.496C219.297 134.854 219.233 135.247 219.233 135.674C219.233 136.105 219.297 136.499 219.425 136.857C219.556 137.215 219.755 137.502 220.023 137.717C220.293 137.932 220.634 138.04 221.044 138.04ZM228.432 141.654C227.899 141.654 227.441 141.584 227.057 141.444C226.676 141.304 226.364 141.12 226.123 140.89C225.881 140.66 225.701 140.408 225.582 140.135L226.703 139.672C226.782 139.8 226.887 139.935 227.018 140.078C227.152 140.223 227.332 140.347 227.559 140.449C227.789 140.551 228.084 140.602 228.445 140.602C228.939 140.602 229.348 140.481 229.671 140.239C229.994 140.001 230.156 139.62 230.156 139.096V137.778H230.073C229.994 137.921 229.881 138.079 229.732 138.254C229.587 138.428 229.386 138.58 229.13 138.708C228.874 138.836 228.541 138.9 228.131 138.9C227.601 138.9 227.124 138.776 226.699 138.529C226.277 138.278 225.943 137.91 225.695 137.424C225.451 136.936 225.329 136.335 225.329 135.622C225.329 134.909 225.449 134.298 225.691 133.789C225.935 133.28 226.27 132.89 226.695 132.619C227.12 132.346 227.601 132.209 228.139 132.209C228.555 132.209 228.891 132.279 229.148 132.418C229.404 132.555 229.603 132.715 229.745 132.899C229.891 133.082 230.003 133.243 230.081 133.383H230.178V132.296H231.456V139.148C231.456 139.724 231.322 140.197 231.055 140.567C230.787 140.936 230.425 141.21 229.968 141.387C229.514 141.565 229.002 141.654 228.432 141.654ZM228.419 137.817C228.794 137.817 229.111 137.73 229.37 137.555C229.632 137.378 229.83 137.125 229.964 136.796C230.1 136.464 230.169 136.067 230.169 135.604C230.169 135.153 230.102 134.756 229.968 134.413C229.834 134.07 229.638 133.802 229.379 133.61C229.12 133.415 228.8 133.318 228.419 133.318C228.026 133.318 227.699 133.419 227.437 133.623C227.175 133.824 226.977 134.097 226.843 134.444C226.712 134.79 226.647 135.177 226.647 135.604C226.647 136.044 226.714 136.429 226.847 136.761C226.981 137.093 227.179 137.352 227.441 137.538C227.706 137.724 228.032 137.817 228.419 137.817ZM233.206 139V132.296H234.468V133.361H234.538C234.66 133 234.875 132.717 235.184 132.51C235.495 132.301 235.847 132.196 236.24 132.196C236.321 132.196 236.417 132.199 236.528 132.205C236.641 132.21 236.73 132.218 236.794 132.226V133.475C236.742 133.46 236.649 133.444 236.515 133.427C236.381 133.406 236.247 133.396 236.113 133.396C235.805 133.396 235.53 133.462 235.288 133.592C235.05 133.721 234.861 133.899 234.721 134.129C234.581 134.356 234.511 134.615 234.511 134.906V139H233.206ZM239.814 139.148C239.389 139.148 239.005 139.07 238.662 138.913C238.319 138.753 238.047 138.521 237.846 138.219C237.648 137.916 237.549 137.545 237.549 137.106C237.549 136.728 237.622 136.416 237.767 136.172C237.913 135.927 238.109 135.734 238.356 135.591C238.604 135.449 238.88 135.341 239.186 135.268C239.491 135.196 239.803 135.14 240.12 135.103C240.521 135.056 240.847 135.018 241.097 134.989C241.348 134.957 241.529 134.906 241.643 134.836C241.756 134.767 241.813 134.653 241.813 134.496V134.465C241.813 134.084 241.705 133.789 241.49 133.579C241.278 133.37 240.961 133.265 240.539 133.265C240.099 133.265 239.753 133.363 239.5 133.558C239.25 133.75 239.077 133.963 238.981 134.199L237.754 133.92C237.9 133.512 238.112 133.184 238.391 132.933C238.674 132.68 238.998 132.497 239.365 132.384C239.731 132.267 240.117 132.209 240.521 132.209C240.789 132.209 241.073 132.241 241.372 132.305C241.675 132.366 241.957 132.48 242.219 132.645C242.484 132.811 242.7 133.048 242.869 133.357C243.038 133.662 243.122 134.059 243.122 134.548V139H241.848V138.083H241.796C241.711 138.252 241.585 138.418 241.416 138.581C241.247 138.744 241.03 138.879 240.766 138.987C240.501 139.095 240.184 139.148 239.814 139.148ZM240.098 138.101C240.459 138.101 240.767 138.03 241.023 137.887C241.282 137.745 241.478 137.558 241.612 137.328C241.749 137.096 241.817 136.847 241.817 136.582V135.718C241.771 135.765 241.681 135.808 241.547 135.849C241.416 135.887 241.266 135.92 241.097 135.949C240.929 135.975 240.764 136 240.604 136.023C240.444 136.044 240.31 136.061 240.203 136.076C239.949 136.108 239.718 136.162 239.509 136.237C239.302 136.313 239.136 136.422 239.011 136.565C238.889 136.704 238.828 136.891 238.828 137.123C238.828 137.446 238.947 137.691 239.186 137.857C239.424 138.019 239.728 138.101 240.098 138.101ZM248.051 132.296V133.344H244.263V132.296H248.051ZM245.301 139V131.519C245.301 131.1 245.393 130.753 245.576 130.476C245.76 130.197 246.003 129.989 246.305 129.852C246.608 129.713 246.937 129.643 247.292 129.643C247.553 129.643 247.777 129.664 247.964 129.708C248.15 129.749 248.288 129.787 248.378 129.822L248.073 130.878C248.012 130.86 247.933 130.84 247.837 130.817C247.741 130.791 247.625 130.777 247.488 130.777C247.171 130.777 246.944 130.856 246.807 131.013C246.673 131.17 246.606 131.397 246.606 131.694V139H245.301ZM251.144 139.148C250.719 139.148 250.335 139.07 249.992 138.913C249.649 138.753 249.377 138.521 249.176 138.219C248.978 137.916 248.879 137.545 248.879 137.106C248.879 136.728 248.952 136.416 249.097 136.172C249.243 135.927 249.439 135.734 249.686 135.591C249.934 135.449 250.21 135.341 250.516 135.268C250.821 135.196 251.133 135.14 251.45 135.103C251.851 135.056 252.177 135.018 252.427 134.989C252.678 134.957 252.859 134.906 252.973 134.836C253.086 134.767 253.143 134.653 253.143 134.496V134.465C253.143 134.084 253.035 133.789 252.82 133.579C252.608 133.37 252.291 133.265 251.869 133.265C251.429 133.265 251.083 133.363 250.83 133.558C250.58 133.75 250.407 133.963 250.311 134.199L249.084 133.92C249.23 133.512 249.442 133.184 249.721 132.933C250.004 132.68 250.328 132.497 250.695 132.384C251.061 132.267 251.447 132.209 251.851 132.209C252.119 132.209 252.403 132.241 252.702 132.305C253.005 132.366 253.287 132.48 253.549 132.645C253.814 132.811 254.031 133.048 254.199 133.357C254.368 133.662 254.452 134.059 254.452 134.548V139H253.178V138.083H253.126C253.041 138.252 252.915 138.418 252.746 138.581C252.577 138.744 252.36 138.879 252.096 138.987C251.831 139.095 251.514 139.148 251.144 139.148ZM251.428 138.101C251.789 138.101 252.097 138.03 252.353 137.887C252.612 137.745 252.809 137.558 252.942 137.328C253.079 137.096 253.147 136.847 253.147 136.582V135.718C253.101 135.765 253.011 135.808 252.877 135.849C252.746 135.887 252.596 135.92 252.427 135.949C252.259 135.975 252.094 136 251.934 136.023C251.774 136.044 251.64 136.061 251.533 136.076C251.279 136.108 251.048 136.162 250.839 136.237C250.632 136.313 250.466 136.422 250.341 136.565C250.219 136.704 250.158 136.891 250.158 137.123C250.158 137.446 250.277 137.691 250.516 137.857C250.754 138.019 251.058 138.101 251.428 138.101ZM256.191 139V132.296H257.452V133.361H257.522C257.644 133 257.859 132.717 258.168 132.51C258.479 132.301 258.831 132.196 259.224 132.196C259.305 132.196 259.401 132.199 259.512 132.205C259.625 132.21 259.714 132.218 259.778 132.226V133.475C259.726 133.46 259.633 133.444 259.499 133.427C259.365 133.406 259.231 133.396 259.097 133.396C258.789 133.396 258.514 133.462 258.272 133.592C258.034 133.721 257.845 133.899 257.705 134.129C257.565 134.356 257.496 134.615 257.496 134.906V139H256.191ZM260.999 139.083C260.76 139.083 260.555 138.999 260.384 138.83C260.212 138.658 260.126 138.452 260.126 138.21C260.126 137.971 260.212 137.768 260.384 137.599C260.555 137.427 260.76 137.342 260.999 137.342C261.238 137.342 261.443 137.427 261.614 137.599C261.786 137.768 261.872 137.971 261.872 138.21C261.872 138.37 261.831 138.517 261.75 138.651C261.671 138.782 261.566 138.887 261.436 138.965C261.305 139.044 261.159 139.083 260.999 139.083Z" fill="#310055"/>
</svg>
