<svg width="340" height="200" viewBox="0 0 340 200" fill="none" xmlns="http://www.w3.org/2000/svg">
<rect width="340" height="200" rx="18" fill="white"/>
<path d="M57.3111 80H54.9687V86.8607H54.8705L50.0657 80H48V90.9089H50.3539V84.0429H50.4356L55.278 90.9089H57.3111V80ZM63.017 91.0687C65.0821 91.0687 66.4736 90.0833 66.7995 88.5652L64.658 88.4267C64.4245 89.0499 63.827 89.3749 63.0547 89.3749C61.8971 89.3749 61.1631 88.6238 61.1631 87.404V87.3987H66.8486V86.7755C66.8486 83.9949 65.1312 82.6207 62.9246 82.6207C60.4673 82.6207 58.8749 84.3305 58.8749 86.8553C58.8749 89.4494 60.4456 91.0687 63.017 91.0687ZM61.1631 85.9924C61.2122 85.0602 61.9354 84.3146 62.9622 84.3146C63.9679 84.3146 64.6637 85.0177 64.6694 85.9924H61.1631ZM70.6751 86.1789C70.6808 85.1242 71.3218 84.5063 72.2567 84.5063C73.1865 84.5063 73.7459 85.1029 73.7407 86.1043V90.9089H76.0564V85.6995C76.0564 83.7925 74.9148 82.6207 73.1757 82.6207C71.9359 82.6207 71.0392 83.2173 70.6643 84.1708H70.5667V82.7272H68.3594V90.9089H70.6751V86.1789ZM80.1967 86.1789C80.2018 85.1242 80.8599 84.5063 81.8057 84.5063C82.7457 84.5063 83.2999 85.0976 83.2948 86.1043V90.9089H85.6099V85.6995C85.6156 83.7819 84.4632 82.6207 82.7241 82.6207C81.4575 82.6207 80.6099 83.2066 80.2292 84.1708H80.1316V80H77.881V90.9089H80.1967V86.1789ZM92.7864 87.4253C92.7915 88.5226 92.025 89.0979 91.1933 89.0979C90.3183 89.0979 89.7533 88.496 89.7476 87.5318V82.7272H87.4325V87.9366C87.4376 89.8489 88.5792 91.0155 90.259 91.0155C91.5141 91.0155 92.4165 90.3816 92.7915 89.4228H92.8783V90.9089H95.1014V82.7272H92.7864V87.4253ZM96.9535 90.9089H99.2691V85.9977C99.2691 85.0922 99.8565 84.4903 100.628 84.4903C101.389 84.4903 101.9 85.0017 101.9 85.806V90.9089H104.145V85.9125C104.145 85.0656 104.64 84.4903 105.482 84.4903C106.221 84.4903 106.775 84.9431 106.775 85.8539V90.9089H109.085V85.4065C109.085 83.6328 108.009 82.6207 106.455 82.6207C105.232 82.6207 104.281 83.2333 103.938 84.1708H103.851C103.585 83.2226 102.731 82.6207 101.585 82.6207C100.46 82.6207 99.6058 83.2066 99.2583 84.1708H99.1607V82.7272H96.9535V90.9089ZM113.295 91.0634C114.529 91.0634 115.328 90.5361 115.736 89.7744H115.801V90.9089H117.997V85.3906C117.997 83.441 116.312 82.6207 114.453 82.6207C112.453 82.6207 111.137 83.5581 110.817 85.0496L112.958 85.2201C113.116 84.6768 113.61 84.2773 114.442 84.2773C115.23 84.2773 115.681 84.6661 115.681 85.3372V85.3692C115.681 85.8965 115.111 85.9658 113.659 86.1043C112.007 86.2534 110.523 86.7968 110.523 88.6238C110.523 90.2431 111.703 91.0634 113.295 91.0634ZM113.958 89.4974C113.246 89.4974 112.735 89.1724 112.735 88.5492C112.735 87.91 113.273 87.5958 114.088 87.4839C114.594 87.4147 115.42 87.2975 115.697 87.1163V87.9846C115.697 88.8422 114.974 89.4974 113.958 89.4974ZM123.336 90.9089H125.651V85.9977C125.651 85.0922 126.238 84.4903 127.01 84.4903C127.771 84.4903 128.281 85.0017 128.281 85.806V90.9089H130.526V85.9125C130.526 85.0656 131.021 84.4903 131.864 84.4903C132.603 84.4903 133.157 84.9431 133.157 85.8539V90.9089H135.467V85.4065C135.467 83.6328 134.391 82.6207 132.836 82.6207C131.614 82.6207 130.662 83.2333 130.32 84.1708H130.233C129.966 83.2226 129.113 82.6207 127.966 82.6207C126.841 82.6207 125.988 83.2066 125.64 84.1708H125.542V82.7272H123.336V90.9089ZM141.101 91.0687C143.166 91.0687 144.558 90.0833 144.884 88.5652L142.742 88.4267C142.509 89.0499 141.911 89.3749 141.139 89.3749C139.981 89.3749 139.248 88.6238 139.248 87.404V87.3987H144.933V86.7755C144.933 83.9949 143.215 82.6207 141.008 82.6207C138.552 82.6207 136.959 84.3305 136.959 86.8553C136.959 89.4494 138.53 91.0687 141.101 91.0687ZM139.248 85.9924C139.297 85.0602 140.019 84.3146 141.047 84.3146C142.052 84.3146 142.748 85.0177 142.753 85.9924H139.248ZM148.76 86.1789C148.765 85.1242 149.406 84.5063 150.341 84.5063C151.27 84.5063 151.83 85.1029 151.825 86.1043V90.9089H154.14V85.6995C154.14 83.7925 152.999 82.6207 151.26 82.6207C150.02 82.6207 149.124 83.2173 148.749 84.1708H148.65V82.7272H146.444V90.9089H148.76V86.1789ZM162.912 85.0602C162.705 83.5528 161.466 82.6207 159.357 82.6207C157.221 82.6207 155.813 83.5901 155.819 85.1668C155.813 86.3919 156.601 87.1856 158.232 87.5052L159.678 87.7875C160.406 87.9313 160.738 88.1923 160.749 88.6025C160.738 89.0872 160.199 89.4334 159.39 89.4334C158.564 89.4334 158.015 89.0872 157.873 88.4214L155.596 88.5386C155.813 90.1046 157.172 91.0687 159.384 91.0687C161.547 91.0687 163.096 89.9874 163.102 88.3735C163.096 87.1909 162.308 86.4825 160.689 86.1575L159.178 85.8593C158.4 85.6941 158.112 85.4331 158.118 85.039C158.112 84.5489 158.677 84.2293 159.395 84.2293C160.199 84.2293 160.678 84.6608 160.792 85.1881L162.912 85.0602ZM166.94 91.0634C168.174 91.0634 168.974 90.5361 169.381 89.7744H169.446V90.9089H171.642V85.3906C171.642 83.441 169.957 82.6207 168.099 82.6207C166.098 82.6207 164.783 83.5581 164.462 85.0496L166.604 85.2201C166.761 84.6768 167.255 84.2773 168.087 84.2773C168.875 84.2773 169.327 84.6661 169.327 85.3372V85.3692C169.327 85.8965 168.756 85.9658 167.305 86.1043C165.652 86.2534 164.169 86.7968 164.169 88.6238C164.169 90.2431 165.348 91.0634 166.94 91.0634ZM167.604 89.4974C166.891 89.4974 166.38 89.1724 166.38 88.5492C166.38 87.91 166.919 87.5958 167.734 87.4839C168.24 87.4147 169.066 87.2975 169.343 87.1163V87.9846C169.343 88.8422 168.62 89.4974 167.604 89.4974ZM177.2 94.1475C179.586 94.1475 181.281 93.0822 181.281 90.9888V82.7272H178.982V84.1015H178.896C178.586 83.4356 177.906 82.6207 176.509 82.6207C174.678 82.6207 173.128 84.0163 173.128 86.8021C173.128 89.524 174.634 90.7917 176.515 90.7917C177.847 90.7917 178.591 90.1366 178.896 89.4601H178.993V90.9569C178.993 92.0808 178.26 92.5176 177.254 92.5176C176.232 92.5176 175.716 92.0808 175.526 91.5854L173.384 91.8677C173.662 93.1568 174.949 94.1475 177.2 94.1475ZM177.249 89.0872C176.112 89.0872 175.493 88.203 175.493 86.7914C175.493 85.4012 176.102 84.4264 177.249 84.4264C178.374 84.4264 179.004 85.3586 179.004 86.7914C179.004 88.235 178.363 89.0872 177.249 89.0872ZM186.929 91.0687C188.994 91.0687 190.386 90.0833 190.712 88.5652L188.57 88.4267C188.337 89.0499 187.739 89.3749 186.967 89.3749C185.809 89.3749 185.075 88.6238 185.075 87.404V87.3987H190.761V86.7755C190.761 83.9949 189.043 82.6207 186.837 82.6207C184.38 82.6207 182.787 84.3305 182.787 86.8553C182.787 89.4494 184.358 91.0687 186.929 91.0687ZM185.075 85.9924C185.125 85.0602 185.847 84.3146 186.874 84.3146C187.88 84.3146 188.576 85.0177 188.581 85.9924H185.075ZM192.272 90.9089H194.587V85.9977C194.587 85.0922 195.174 84.4903 195.946 84.4903C196.707 84.4903 197.218 85.0017 197.218 85.806V90.9089H199.463V85.9125C199.463 85.0656 199.957 84.4903 200.8 84.4903C201.539 84.4903 202.094 84.9431 202.094 85.8539V90.9089H204.404V85.4065C204.404 83.6328 203.328 82.6207 201.773 82.6207C200.55 82.6207 199.599 83.2333 199.256 84.1708H199.17C198.903 83.2226 198.05 82.6207 196.903 82.6207C195.777 82.6207 194.924 83.2066 194.577 84.1708H194.479V82.7272H192.272V90.9089ZM213.58 91.0687C215.645 91.0687 217.037 90.0833 217.363 88.5652L215.221 88.4267C214.988 89.0499 214.389 89.3749 213.618 89.3749C212.46 89.3749 211.726 88.6238 211.726 87.404V87.3987H217.412V86.7755C217.412 83.9949 215.694 82.6207 213.488 82.6207C211.03 82.6207 209.438 84.3305 209.438 86.8553C209.438 89.4494 211.009 91.0687 213.58 91.0687ZM211.726 85.9924C211.775 85.0602 212.499 84.3146 213.525 84.3146C214.531 84.3146 215.227 85.0177 215.232 85.9924H211.726ZM221.238 86.1789C221.244 85.1242 221.885 84.5063 222.82 84.5063C223.75 84.5063 224.309 85.1029 224.304 86.1043V90.9089H226.62V85.6995C226.62 83.7925 225.478 82.6207 223.739 82.6207C222.499 82.6207 221.602 83.2173 221.227 84.1708H221.13V82.7272H218.923V90.9089H221.238V86.1789ZM232.216 91.0687C234.44 91.0687 235.836 89.7903 235.945 87.91H233.76C233.624 88.7836 233.037 89.2736 232.243 89.2736C231.162 89.2736 230.461 88.3841 230.461 86.818C230.461 85.2734 231.167 84.3891 232.243 84.3891C233.091 84.3891 233.635 84.9377 233.76 85.7527H235.945C235.847 83.8618 234.385 82.6207 232.206 82.6207C229.672 82.6207 228.107 84.3412 228.107 86.85C228.107 89.3376 229.646 91.0687 232.216 91.0687ZM241.2 91.0687C243.732 91.0687 245.309 89.3695 245.309 86.85C245.309 84.3146 243.732 82.6207 241.2 82.6207C238.667 82.6207 237.091 84.3146 237.091 86.85C237.091 89.3695 238.667 91.0687 241.2 91.0687ZM241.211 89.3109C240.042 89.3109 239.444 88.2616 239.444 86.834C239.444 85.4065 240.042 84.3518 241.211 84.3518C242.357 84.3518 242.955 85.4065 242.955 86.834C242.955 88.2616 242.357 89.3109 241.211 89.3109ZM249.129 86.1789C249.135 85.1242 249.777 84.5063 250.712 84.5063C251.641 84.5063 252.201 85.1029 252.195 86.1043V90.9089H254.511V85.6995C254.511 83.7925 253.369 82.6207 251.63 82.6207C250.391 82.6207 249.494 83.2173 249.119 84.1708H249.021V82.7272H246.814V90.9089H249.129V86.1789ZM260.777 82.7272H259.205V80.767H256.89V82.7272H255.749V84.4318H256.89V88.693C256.879 90.2964 257.993 91.09 259.673 91.0208C260.271 90.9995 260.695 90.8823 260.928 90.8077L260.564 89.1192C260.45 89.1405 260.206 89.1938 259.988 89.1938C259.526 89.1938 259.205 89.0233 259.205 88.3948V84.4318H260.777V82.7272ZM262.285 90.9089H264.6V86.2801C264.6 85.2734 265.35 84.5809 266.372 84.5809C266.693 84.5809 267.133 84.6341 267.35 84.7034V82.6899C267.144 82.642 266.856 82.61 266.622 82.61C265.687 82.61 264.921 83.1427 264.616 84.1548H264.529V82.7272H262.285V90.9089ZM270.689 91.0634C271.923 91.0634 272.722 90.5361 273.13 89.7744H273.195V90.9089H275.391V85.3906C275.391 83.441 273.706 82.6207 271.847 82.6207C269.847 82.6207 268.531 83.5581 268.21 85.0496L270.352 85.2201C270.51 84.6768 271.004 84.2773 271.836 84.2773C272.624 84.2773 273.075 84.6661 273.075 85.3372V85.3692C273.075 85.8965 272.504 85.9658 271.053 86.1043C269.401 86.2534 267.917 86.7968 267.917 88.6238C267.917 90.2431 269.097 91.0634 270.689 91.0634ZM271.352 89.4974C270.64 89.4974 270.129 89.1724 270.129 88.5492C270.129 87.91 270.667 87.5958 271.482 87.4839C271.988 87.4147 272.814 87.2975 273.091 87.1163V87.9846C273.091 88.8422 272.368 89.4974 271.352 89.4974ZM280.264 91.0421C281.611 91.0421 282.313 90.2804 282.633 89.5986H282.731V90.9089H285.014V80H282.704V84.1015H282.633C282.323 83.4356 281.654 82.6207 280.258 82.6207C278.426 82.6207 276.877 84.0163 276.877 86.8287C276.877 89.5666 278.361 91.0421 280.264 91.0421ZM280.997 89.2364C279.861 89.2364 279.241 88.2456 279.241 86.818C279.241 85.4012 279.85 84.4264 280.997 84.4264C282.122 84.4264 282.753 85.3586 282.753 86.818C282.753 88.2776 282.111 89.2364 280.997 89.2364ZM289.299 91.0634C290.532 91.0634 291.331 90.5361 291.739 89.7744H291.804V90.9089H294V85.3906C294 83.441 292.315 82.6207 290.456 82.6207C288.456 82.6207 287.14 83.5581 286.82 85.0496L288.961 85.2201C289.119 84.6768 289.614 84.2773 290.445 84.2773C291.233 84.2773 291.684 84.6661 291.684 85.3372V85.3692C291.684 85.8965 291.114 85.9658 289.663 86.1043C288.01 86.2534 286.526 86.7968 286.526 88.6238C286.526 90.2431 287.705 91.0634 289.299 91.0634ZM289.961 89.4974C289.249 89.4974 288.739 89.1724 288.739 88.5492C288.739 87.91 289.276 87.5958 290.092 87.4839C290.597 87.4147 291.424 87.2975 291.701 87.1163V87.9846C291.701 88.8422 290.978 89.4974 289.961 89.4974Z" fill="#343A40"/>
<path d="M14.3724 119.916C16.715 119.916 18.0363 118.489 18.0363 116.135C18.0363 113.795 16.715 112.383 14.4774 112.383H12V119.916H14.3724ZM12.9308 119.107V113.192H14.4173C16.2195 113.192 17.1352 114.31 17.1352 116.135C17.1352 117.974 16.2195 119.107 14.3122 119.107H12.9308ZM19.4778 119.916H20.3631V114.266H19.4778V119.916ZM19.9277 113.324C20.2732 113.324 20.5586 113.059 20.5586 112.736C20.5586 112.412 20.2732 112.147 19.9277 112.147C19.5828 112.147 19.2974 112.412 19.2974 112.736C19.2974 113.059 19.5828 113.324 19.9277 113.324ZM24.313 122.153C25.6944 122.153 26.8056 121.535 26.8056 120.078V114.266H25.9494V115.164H25.8596C25.6647 114.869 25.304 114.192 24.1783 114.192C22.7216 114.192 21.7154 115.325 21.7154 117.062C21.7154 118.827 22.7665 119.828 24.1631 119.828C25.2888 119.828 25.6495 119.181 25.8444 118.872H25.9197V120.019C25.9197 120.961 25.2439 121.388 24.313 121.388C23.2659 121.388 22.898 120.847 22.6614 120.534L21.9559 121.02C22.3159 121.612 23.0255 122.153 24.313 122.153ZM24.2833 119.048C23.1721 119.048 22.6013 118.224 22.6013 117.047C22.6013 115.899 23.1569 114.972 24.2833 114.972C25.3641 114.972 25.9349 115.826 25.9349 117.047C25.9349 118.298 25.3489 119.048 24.2833 119.048ZM28.4269 119.916H29.3128V114.266H28.4269V119.916ZM28.8774 113.324C29.2229 113.324 29.5083 113.059 29.5083 112.736C29.5083 112.412 29.2229 112.147 28.8774 112.147C28.5319 112.147 28.2472 112.412 28.2472 112.736C28.2472 113.059 28.5319 113.324 28.8774 113.324ZM33.4431 114.266H32.2117V112.912H31.3258V114.266H30.455V115.002H31.3258V118.533C31.3258 119.519 32.1364 119.99 32.8875 119.99C33.2178 119.99 33.4279 119.931 33.5482 119.887L33.3678 119.107C33.2925 119.122 33.1729 119.151 32.9774 119.151C32.5869 119.151 32.2117 119.033 32.2117 118.298V115.002H33.4431V114.266ZM37.1308 120.034C38.3021 120.034 39.1577 119.46 39.4279 118.607L38.5723 118.371C38.3471 118.96 37.8252 119.254 37.1308 119.254C36.091 119.254 35.3742 118.596 35.3332 117.385H39.5184V117.018C39.5184 114.913 38.242 114.192 37.041 114.192C35.4792 114.192 34.4433 115.399 34.4433 117.135C34.4433 118.872 35.464 120.034 37.1308 120.034ZM35.3332 116.635C35.3927 115.756 36.0275 114.972 37.041 114.972C38.0015 114.972 38.6173 115.679 38.6173 116.635H35.3332ZM47.4725 117.606C47.4725 118.666 46.6467 119.151 45.9861 119.151C45.2501 119.151 44.7242 118.621 44.7242 117.797V114.266H43.839V117.856C43.839 119.298 44.6192 119.99 45.7007 119.99C46.5714 119.99 47.1422 119.534 47.4124 118.96H47.4725V119.916H48.3578V114.266H47.4725V117.606ZM49.9803 119.916H50.8662V116.385C50.8662 115.557 51.4819 114.972 52.173 114.972C52.8448 114.972 53.3139 115.403 53.3139 116.046V119.916H54.2144V116.238C54.2144 115.509 54.6801 114.972 55.4907 114.972C56.1216 114.972 56.662 115.3 56.662 116.135V119.916H57.548V116.135C57.548 114.807 56.8199 114.192 55.7913 114.192C54.9655 114.192 54.361 114.564 54.0644 115.149H54.0043C53.7189 114.546 53.2161 114.192 52.4577 114.192C51.7072 114.192 51.1516 114.546 50.9112 115.149H50.8365V114.266H49.9803V119.916ZM64.6479 114.266H63.4164V112.912H62.5312V114.266H61.6598V115.002H62.5312V118.533C62.5312 119.519 63.3418 119.99 64.0923 119.99C64.4226 119.99 64.6327 119.931 64.7529 119.887L64.5726 119.107C64.4979 119.122 64.3777 119.151 64.1828 119.151C63.7923 119.151 63.4164 119.033 63.4164 118.298V115.002H64.6479V114.266ZM68.3356 120.034C69.5069 120.034 70.3631 119.46 70.6333 118.607L69.7771 118.371C69.5518 118.96 69.0306 119.254 68.3356 119.254C67.2964 119.254 66.5789 118.596 66.538 117.385H70.7231V117.018C70.7231 114.913 69.4468 114.192 68.2457 114.192C66.684 114.192 65.6481 115.399 65.6481 117.135C65.6481 118.872 66.6694 120.034 68.3356 120.034ZM66.538 116.635C66.5981 115.756 67.2323 114.972 68.2457 114.972C69.207 114.972 69.822 115.679 69.822 116.635H66.538ZM72.5769 114.266H71.5555L73.3875 117.091L71.5555 119.916H72.5769L73.9576 117.724L75.339 119.916H76.3604L74.4987 117.091L76.3604 114.266H75.339L73.9576 116.576L72.5769 114.266ZM80.132 114.266H78.9006V112.912H78.0147V114.266H77.1439V115.002H78.0147V118.533C78.0147 119.519 78.8253 119.99 79.5764 119.99C79.9067 119.99 80.1168 119.931 80.237 119.887L80.0567 119.107C79.9814 119.122 79.8618 119.151 79.6663 119.151C79.2758 119.151 78.9006 119.033 78.9006 118.298V115.002H80.132V114.266ZM83.7444 120.034C85.3061 120.034 86.3572 118.872 86.3572 117.121C86.3572 115.355 85.3061 114.192 83.7444 114.192C82.1833 114.192 81.1322 115.355 81.1322 117.121C81.1322 118.872 82.1833 120.034 83.7444 120.034ZM83.7444 119.254C82.5585 119.254 82.0181 118.254 82.0181 117.121C82.0181 115.988 82.5585 114.972 83.7444 114.972C84.9309 114.972 85.4713 115.988 85.4713 117.121C85.4713 118.254 84.9309 119.254 83.7444 119.254ZM95.5018 122.035V114.266H94.6463V115.164H94.5413C94.3457 114.869 94.0002 114.192 92.8745 114.192C91.4178 114.192 90.4123 115.325 90.4123 117.106C90.4123 118.901 91.4178 120.034 92.8593 120.034C93.9705 120.034 94.3457 119.357 94.5413 119.048H94.6159V122.035H95.5018ZM94.6311 117.091C94.6311 118.371 94.0458 119.254 92.9795 119.254C91.8683 119.254 91.2982 118.298 91.2982 117.091C91.2982 115.899 91.8531 114.972 92.9795 114.972C94.0603 114.972 94.6311 115.826 94.6311 117.091ZM100.757 117.606C100.757 118.666 99.9315 119.151 99.2708 119.151C98.5349 119.151 98.0096 118.621 98.0096 117.797V114.266H97.1237V117.856C97.1237 119.298 97.9046 119.99 98.9854 119.99C99.8561 119.99 100.427 119.534 100.697 118.96H100.757V119.916H101.643V114.266H100.757V117.606ZM105.683 120.034C106.854 120.034 107.71 119.46 107.98 118.607L107.125 118.371C106.899 118.96 106.377 119.254 105.683 119.254C104.643 119.254 103.926 118.596 103.885 117.385H108.07V117.018C108.07 114.913 106.794 114.192 105.592 114.192C104.031 114.192 102.996 115.399 102.996 117.135C102.996 118.872 104.016 120.034 105.683 120.034ZM103.885 116.635C103.945 115.756 104.579 114.972 105.592 114.972C106.554 114.972 107.169 115.679 107.169 116.635H103.885ZM117.106 114.266H116.144L114.553 118.769H114.493L112.901 114.266H111.94L114.072 119.916H114.973L117.106 114.266ZM120.41 120.034C121.972 120.034 123.023 118.872 123.023 117.121C123.023 115.355 121.972 114.192 120.41 114.192C118.849 114.192 117.798 115.355 117.798 117.121C117.798 118.872 118.849 120.034 120.41 120.034ZM120.41 119.254C119.224 119.254 118.684 118.254 118.684 117.121C118.684 115.988 119.224 114.972 120.41 114.972C121.597 114.972 122.137 115.988 122.137 117.121C122.137 118.254 121.597 119.254 120.41 119.254ZM126.717 120.034C127.994 120.034 128.835 119.269 128.984 118.268H128.099C127.933 118.886 127.408 119.254 126.717 119.254C125.666 119.254 124.991 118.401 124.991 117.091C124.991 115.811 125.681 114.972 126.717 114.972C127.498 114.972 127.964 115.443 128.099 115.958H128.984C128.835 114.899 127.918 114.192 126.702 114.192C125.141 114.192 124.105 115.399 124.105 117.121C124.105 118.813 125.096 120.034 126.717 120.034ZM132.697 120.034C133.868 120.034 134.724 119.46 134.994 118.607L134.138 118.371C133.913 118.96 133.392 119.254 132.697 119.254C131.657 119.254 130.94 118.596 130.899 117.385H135.084V117.018C135.084 114.913 133.808 114.192 132.607 114.192C131.045 114.192 130.009 115.399 130.009 117.135C130.009 118.872 131.03 120.034 132.697 120.034ZM130.899 116.635C130.959 115.756 131.593 114.972 132.607 114.972C133.568 114.972 134.183 115.679 134.183 116.635H130.899ZM131.781 113.589L132.562 112.559L133.343 113.589H134.183V113.53L132.967 112H132.156L130.94 113.53V113.589H131.781ZM141.582 120.034C142.693 120.034 143.068 119.357 143.264 119.048H143.369V119.916H144.224V112.383H143.338V115.164H143.264C143.068 114.869 142.723 114.192 141.597 114.192C140.14 114.192 139.135 115.325 139.135 117.106C139.135 118.901 140.14 120.034 141.582 120.034ZM141.702 119.254C140.591 119.254 140.021 118.298 140.021 117.091C140.021 115.899 140.575 114.972 141.702 114.972C142.783 114.972 143.353 115.826 143.353 117.091C143.353 118.371 142.768 119.254 141.702 119.254ZM148.387 120.034C149.558 120.034 150.414 119.46 150.685 118.607L149.828 118.371C149.603 118.96 149.082 119.254 148.387 119.254C147.347 119.254 146.63 118.596 146.589 117.385H150.774V117.018C150.774 114.913 149.498 114.192 148.297 114.192C146.735 114.192 145.699 115.399 145.699 117.135C145.699 118.872 146.721 120.034 148.387 120.034ZM146.589 116.635C146.649 115.756 147.284 114.972 148.297 114.972C149.258 114.972 149.873 115.679 149.873 116.635H146.589ZM156.206 115.531C155.928 114.729 155.305 114.192 154.164 114.192C152.948 114.192 152.047 114.869 152.047 115.826C152.047 116.606 152.52 117.128 153.578 117.371L154.539 117.591C155.121 117.724 155.395 117.996 155.395 118.386C155.395 118.872 154.87 119.269 154.044 119.269C153.319 119.269 152.865 118.964 152.707 118.357L151.867 118.563C152.073 119.523 152.881 120.034 154.059 120.034C155.399 120.034 156.311 119.317 156.311 118.342C156.311 117.555 155.808 117.058 154.779 116.812L153.924 116.606C153.241 116.44 152.933 116.216 152.933 115.782C152.933 115.296 153.458 114.943 154.164 114.943C154.937 114.943 155.256 115.362 155.41 115.752L156.206 115.531ZM160.062 120.034C161.233 120.034 162.089 119.46 162.359 118.607L161.503 118.371C161.278 118.96 160.756 119.254 160.062 119.254C159.022 119.254 158.305 118.596 158.264 117.385H162.449V117.018C162.449 114.913 161.173 114.192 159.972 114.192C158.41 114.192 157.374 115.399 157.374 117.135C157.374 118.872 158.396 120.034 160.062 120.034ZM158.264 116.635C158.324 115.756 158.958 114.972 159.972 114.972C160.932 114.972 161.548 115.679 161.548 116.635H158.264ZM163.797 114.266V120.328C163.797 120.902 163.557 121.226 163.016 121.226H162.851V122.035H163.031C164.142 122.035 164.683 121.373 164.683 120.328V114.266H163.797ZM164.232 113.324C164.577 113.324 164.863 113.059 164.863 112.736C164.863 112.412 164.577 112.147 164.232 112.147C163.887 112.147 163.601 112.412 163.601 112.736C163.601 113.059 163.887 113.324 164.232 113.324ZM168.002 120.049C169.008 120.049 169.533 119.519 169.714 119.151H169.759V119.916H170.645V116.194C170.645 114.398 169.248 114.192 168.512 114.192C167.641 114.192 166.65 114.487 166.2 115.517L167.041 115.811C167.236 115.399 167.697 114.958 168.542 114.958C169.357 114.958 169.759 115.381 169.759 116.105V116.135C169.759 116.554 169.323 116.517 168.272 116.65C167.202 116.786 166.035 117.018 166.035 118.312C166.035 119.416 166.906 120.049 168.002 120.049ZM168.137 119.269C167.431 119.269 166.921 118.96 166.921 118.357C166.921 117.694 167.536 117.488 168.227 117.4C168.603 117.356 169.609 117.253 169.759 117.076V117.871C169.759 118.577 169.188 119.269 168.137 119.269ZM177.577 120.034C178.852 120.034 179.693 119.269 179.843 118.268H178.958C178.793 118.886 178.267 119.254 177.577 119.254C176.526 119.254 175.85 118.401 175.85 117.091C175.85 115.811 176.54 114.972 177.577 114.972C178.357 114.972 178.823 115.443 178.958 115.958H179.843C179.693 114.899 178.778 114.192 177.561 114.192C176 114.192 174.964 115.399 174.964 117.121C174.964 118.813 175.955 120.034 177.577 120.034ZM181.139 119.916H182.025V116.341C182.025 115.576 182.64 115.016 183.481 115.016C183.717 115.016 183.961 115.061 184.021 115.075V114.192C183.92 114.185 183.688 114.178 183.556 114.178C182.865 114.178 182.265 114.56 182.055 115.119H181.994V114.266H181.139V119.916ZM185.072 119.916H185.958V114.266H185.072V119.916ZM185.522 113.324C185.867 113.324 186.152 113.059 186.152 112.736C186.152 112.412 185.867 112.147 185.522 112.147C185.177 112.147 184.891 112.412 184.891 112.736C184.891 113.059 185.177 113.324 185.522 113.324ZM187.58 122.035H188.466V119.048H188.541C188.736 119.357 189.112 120.034 190.223 120.034C191.664 120.034 192.67 118.901 192.67 117.106C192.67 115.325 191.664 114.192 190.208 114.192C189.081 114.192 188.736 114.869 188.541 115.164H188.436V114.266H187.58V122.035ZM188.451 117.091C188.451 115.826 189.021 114.972 190.102 114.972C191.228 114.972 191.784 115.899 191.784 117.091C191.784 118.298 191.214 119.254 190.102 119.254C189.036 119.254 188.451 118.371 188.451 117.091ZM196.529 114.266H195.297V112.912H194.412V114.266H193.54V115.002H194.412V118.533C194.412 119.519 195.222 119.99 195.973 119.99C196.303 119.99 196.513 119.931 196.634 119.887L196.453 119.107C196.379 119.122 196.258 119.151 196.063 119.151C195.673 119.151 195.297 119.033 195.297 118.298V115.002H196.529V114.266ZM200.142 120.034C201.703 120.034 202.754 118.872 202.754 117.121C202.754 115.355 201.703 114.192 200.142 114.192C198.58 114.192 197.529 115.355 197.529 117.121C197.529 118.872 198.58 120.034 200.142 120.034ZM200.142 119.254C198.955 119.254 198.415 118.254 198.415 117.121C198.415 115.988 198.955 114.972 200.142 114.972C201.327 114.972 201.868 115.988 201.868 117.121C201.868 118.254 201.327 119.254 200.142 119.254ZM206.434 122.153C207.815 122.153 208.926 121.535 208.926 120.078V114.266H208.07V115.164H207.98C207.785 114.869 207.425 114.192 206.298 114.192C204.842 114.192 203.836 115.325 203.836 117.062C203.836 118.827 204.887 119.828 206.284 119.828C207.409 119.828 207.77 119.181 207.965 118.872H208.04V120.019C208.04 120.961 207.364 121.388 206.434 121.388C205.386 121.388 205.018 120.847 204.782 120.534L204.076 121.02C204.436 121.612 205.146 122.153 206.434 122.153ZM206.404 119.048C205.293 119.048 204.722 118.224 204.722 117.047C204.722 115.899 205.277 114.972 206.404 114.972C207.485 114.972 208.055 115.826 208.055 117.047C208.055 118.298 207.469 119.048 206.404 119.048ZM210.547 119.916H211.433V116.341C211.433 115.576 212.049 115.016 212.89 115.016C213.127 115.016 213.37 115.061 213.43 115.075V114.192C213.329 114.185 213.096 114.178 212.965 114.178C212.274 114.178 211.674 114.56 211.464 115.119H211.404V114.266H210.547V119.916ZM216.177 120.049C217.183 120.049 217.709 119.519 217.888 119.151H217.934V119.916H218.82V116.194C218.82 114.398 217.423 114.192 216.687 114.192C215.817 114.192 214.826 114.487 214.375 115.517L215.216 115.811C215.411 115.399 215.873 114.958 216.718 114.958C217.532 114.958 217.934 115.381 217.934 116.105V116.135C217.934 116.554 217.499 116.517 216.448 116.65C215.377 116.786 214.21 117.018 214.21 118.312C214.21 119.416 215.081 120.049 216.177 120.049ZM216.312 119.269C215.607 119.269 215.096 118.96 215.096 118.357C215.096 117.694 215.712 117.488 216.402 117.4C216.778 117.356 217.783 117.253 217.934 117.076V117.871C217.934 118.577 217.363 119.269 216.312 119.269ZM223.004 114.266H221.713V113.692C221.713 113.133 221.953 112.839 222.539 112.839C222.794 112.839 222.944 112.898 223.034 112.927L223.289 112.177C223.154 112.118 222.884 112.029 222.448 112.029C221.622 112.029 220.827 112.515 220.827 113.486V114.266H219.896V115.002H220.827V119.916H221.713V115.002H223.004V114.266ZM225.777 120.049C226.783 120.049 227.309 119.519 227.489 119.151H227.534V119.916H228.42V116.194C228.42 114.398 227.023 114.192 226.288 114.192C225.416 114.192 224.425 114.487 223.976 115.517L224.816 115.811C225.011 115.399 225.473 114.958 226.318 114.958C227.132 114.958 227.534 115.381 227.534 116.105V116.135C227.534 116.554 227.098 116.517 226.047 116.65C224.978 116.786 223.81 117.018 223.81 118.312C223.81 119.416 224.681 120.049 225.777 120.049ZM225.912 119.269C225.206 119.269 224.696 118.96 224.696 118.357C224.696 117.694 225.311 117.488 226.002 117.4C226.378 117.356 227.384 117.253 227.534 117.076V117.871C227.534 118.577 226.963 119.269 225.912 119.269ZM230.036 119.916H230.922V116.341C230.922 115.576 231.538 115.016 232.379 115.016C232.615 115.016 232.859 115.061 232.919 115.075V114.192C232.818 114.185 232.585 114.178 232.454 114.178C231.763 114.178 231.163 114.56 230.953 115.119H230.892V114.266H230.036V119.916ZM239.285 120.034C240.846 120.034 241.897 118.872 241.897 117.121C241.897 115.355 240.846 114.192 239.285 114.192C237.723 114.192 236.672 115.355 236.672 117.121C236.672 118.872 237.723 120.034 239.285 120.034ZM239.285 119.254C238.098 119.254 237.558 118.254 237.558 117.121C237.558 115.988 238.098 114.972 239.285 114.972C240.47 114.972 241.011 115.988 241.011 117.121C241.011 118.254 240.47 119.254 239.285 119.254ZM246.883 117.606C246.883 118.666 246.057 119.151 245.396 119.151C244.661 119.151 244.135 118.621 244.135 117.797V114.266H243.249V117.856C243.249 119.298 244.03 119.99 245.111 119.99C245.982 119.99 246.552 119.534 246.823 118.96H246.883V119.916H247.769V114.266H246.883V117.606ZM254.541 120.034C255.652 120.034 256.028 119.357 256.223 119.048H256.328V119.916H257.184V112.383H256.298V115.164H256.223C256.028 114.869 255.682 114.192 254.556 114.192C253.1 114.192 252.094 115.325 252.094 117.106C252.094 118.901 253.1 120.034 254.541 120.034ZM254.661 119.254C253.551 119.254 252.98 118.298 252.98 117.091C252.98 115.899 253.535 114.972 254.661 114.972C255.743 114.972 256.313 115.826 256.313 117.091C256.313 118.371 255.727 119.254 254.661 119.254ZM261.347 120.034C262.517 120.034 263.374 119.46 263.644 118.607L262.788 118.371C262.563 118.96 262.041 119.254 261.347 119.254C260.307 119.254 259.59 118.596 259.548 117.385H263.734V117.018C263.734 114.913 262.458 114.192 261.256 114.192C259.695 114.192 258.659 115.399 258.659 117.135C258.659 118.872 259.68 120.034 261.347 120.034ZM259.548 116.635C259.609 115.756 260.243 114.972 261.256 114.972C262.217 114.972 262.833 115.679 262.833 116.635H259.548ZM269.165 115.531C268.888 114.729 268.264 114.192 267.123 114.192C265.907 114.192 265.007 114.869 265.007 115.826C265.007 116.606 265.479 117.128 266.538 117.371L267.499 117.591C268.081 117.724 268.355 117.996 268.355 118.386C268.355 118.872 267.829 119.269 267.003 119.269C266.279 119.269 265.825 118.964 265.667 118.357L264.826 118.563C265.032 119.523 265.84 120.034 267.018 120.034C268.358 120.034 269.27 119.317 269.27 118.342C269.27 117.555 268.768 117.058 267.739 116.812L266.883 116.606C266.2 116.44 265.892 116.216 265.892 115.782C265.892 115.296 266.418 114.943 267.123 114.943C267.897 114.943 268.215 115.362 268.369 115.752L269.165 115.531ZM272.946 120.034C274.223 120.034 275.064 119.269 275.214 118.268H274.328C274.163 118.886 273.637 119.254 272.946 119.254C271.895 119.254 271.219 118.401 271.219 117.091C271.219 115.811 271.91 114.972 272.946 114.972C273.727 114.972 274.192 115.443 274.328 115.958H275.214C275.064 114.899 274.147 114.192 272.931 114.192C271.37 114.192 270.333 115.399 270.333 117.121C270.333 118.813 271.324 120.034 272.946 120.034ZM276.508 119.916H277.394V116.341C277.394 115.576 278.01 115.016 278.85 115.016C279.087 115.016 279.331 115.061 279.392 115.075V114.192C279.29 114.185 279.057 114.178 278.926 114.178C278.235 114.178 277.635 114.56 277.424 115.119H277.364V114.266H276.508V119.916ZM280.441 119.916H281.327V114.266H280.441V119.916ZM280.892 113.324C281.237 113.324 281.523 113.059 281.523 112.736C281.523 112.412 281.237 112.147 280.892 112.147C280.546 112.147 280.261 112.412 280.261 112.736C280.261 113.059 280.546 113.324 280.892 113.324ZM282.95 122.035H283.836V119.048H283.911C284.106 119.357 284.481 120.034 285.592 120.034C287.034 120.034 288.04 118.901 288.04 117.106C288.04 115.325 287.034 114.192 285.577 114.192C284.451 114.192 284.106 114.869 283.911 115.164H283.805V114.266H282.95V122.035ZM283.82 117.091C283.82 115.826 284.391 114.972 285.472 114.972C286.598 114.972 287.154 115.899 287.154 117.091C287.154 118.298 286.583 119.254 285.472 119.254C284.406 119.254 283.82 118.371 283.82 117.091ZM291.898 114.266H290.667V112.912H289.781V114.266H288.911V115.002H289.781V118.533C289.781 119.519 290.592 119.99 291.343 119.99C291.674 119.99 291.884 119.931 292.004 119.887L291.823 119.107C291.748 119.122 291.628 119.151 291.433 119.151C291.043 119.151 290.667 119.033 290.667 118.298V115.002H291.898V114.266ZM295.511 120.034C297.073 120.034 298.124 118.872 298.124 117.121C298.124 115.355 297.073 114.192 295.511 114.192C293.95 114.192 292.899 115.355 292.899 117.121C292.899 118.872 293.95 120.034 295.511 120.034ZM295.511 119.254C294.325 119.254 293.785 118.254 293.785 117.121C293.785 115.988 294.325 114.972 295.511 114.972C296.698 114.972 297.238 115.988 297.238 117.121C297.238 118.254 296.698 119.254 295.511 119.254ZM301.803 122.153C303.185 122.153 304.296 121.535 304.296 120.078V114.266H303.44V115.164H303.35C303.155 114.869 302.794 114.192 301.668 114.192C300.212 114.192 299.206 115.325 299.206 117.062C299.206 118.827 300.257 119.828 301.653 119.828C302.78 119.828 303.14 119.181 303.335 118.872H303.41V120.019C303.41 120.961 302.734 121.388 301.803 121.388C300.756 121.388 300.388 120.847 300.152 120.534L299.446 121.02C299.807 121.612 300.516 122.153 301.803 122.153ZM301.773 119.048C300.662 119.048 300.091 118.224 300.091 117.047C300.091 115.899 300.647 114.972 301.773 114.972C302.854 114.972 303.425 115.826 303.425 117.047C303.425 118.298 302.84 119.048 301.773 119.048ZM305.918 119.916H306.804V116.341C306.804 115.576 307.419 115.016 308.26 115.016C308.496 115.016 308.74 115.061 308.8 115.075V114.192C308.699 114.185 308.466 114.178 308.335 114.178C307.644 114.178 307.043 114.56 306.833 115.119H306.773V114.266H305.918V119.916ZM311.547 120.049C312.553 120.049 313.078 119.519 313.259 119.151H313.304V119.916H314.19V116.194C314.19 114.398 312.793 114.192 312.058 114.192C311.186 114.192 310.195 114.487 309.745 115.517L310.586 115.811C310.781 115.399 311.243 114.958 312.087 114.958C312.902 114.958 313.304 115.381 313.304 116.105V116.135C313.304 116.554 312.868 116.517 311.817 116.65C310.748 116.786 309.58 117.018 309.58 118.312C309.58 119.416 310.451 120.049 311.547 120.049ZM311.682 119.269C310.976 119.269 310.466 118.96 310.466 118.357C310.466 117.694 311.081 117.488 311.772 117.4C312.147 117.356 313.154 117.253 313.304 117.076V117.871C313.304 118.577 312.733 119.269 311.682 119.269ZM318.374 114.266H317.082V113.692C317.082 113.133 317.323 112.839 317.908 112.839C318.164 112.839 318.314 112.898 318.404 112.927L318.659 112.177C318.524 112.118 318.254 112.029 317.818 112.029C316.993 112.029 316.197 112.515 316.197 113.486V114.266H315.266V115.002H316.197V119.916H317.082V115.002H318.374V114.266ZM321.147 120.049C322.153 120.049 322.678 119.519 322.858 119.151H322.903V119.916H323.789V116.194C323.789 114.398 322.393 114.192 321.657 114.192C320.787 114.192 319.796 114.487 319.345 115.517L320.186 115.811C320.381 115.399 320.843 114.958 321.687 114.958C322.502 114.958 322.903 115.381 322.903 116.105V116.135C322.903 116.554 322.468 116.517 321.417 116.65C320.347 116.786 319.18 117.018 319.18 118.312C319.18 119.416 320.051 120.049 321.147 120.049ZM321.282 119.269C320.577 119.269 320.066 118.96 320.066 118.357C320.066 117.694 320.682 117.488 321.372 117.4C321.747 117.356 322.753 117.253 322.903 117.076V117.871C322.903 118.577 322.333 119.269 321.282 119.269ZM325.407 119.916H326.292V116.341C326.292 115.576 326.908 115.016 327.749 115.016C327.985 115.016 328.229 115.061 328.289 115.075V114.192C328.188 114.185 327.955 114.178 327.824 114.178C327.133 114.178 326.532 114.56 326.322 115.119H326.262V114.266H325.407V119.916ZM329.324 119.975C329.696 119.975 330 119.677 330 119.313C330 118.949 329.696 118.651 329.324 118.651C328.953 118.651 328.648 118.949 328.648 119.313C328.648 119.677 328.953 119.975 329.324 119.975Z" fill="#495057"/>
</svg>
