<svg width="350" height="259" viewBox="0 0 350 259" fill="none" xmlns="http://www.w3.org/2000/svg">
<path d="M315.749 0H34.2508C15.3346 0 0 19.8844 0 44.413V213.737C0 238.266 15.3346 258.15 34.2508 258.15H315.749C334.665 258.15 350 238.266 350 213.737V44.413C350 19.8844 334.665 0 315.749 0Z" fill="white"/>
<path d="M70.4477 73.7547H66.9044V84.3433H66.7564L59.4891 73.7547H56.3651V90.5913H59.9248V79.9944H60.0481L67.373 90.5913H70.4477V73.7547ZM79.0778 90.838C82.2017 90.838 84.3063 89.3171 84.7996 86.9741L81.5604 86.7603C81.207 87.7222 80.3027 88.2237 79.1352 88.2237C77.3842 88.2237 76.2743 87.0646 76.2743 85.1818V85.1736H84.8736V84.2118C84.8736 79.9204 82.2757 77.7994 78.938 77.7994C75.2221 77.7994 72.8133 80.4383 72.8133 84.3351C72.8133 88.3388 75.1892 90.838 79.0778 90.838ZM76.2743 83.0033C76.3483 81.5646 77.4417 80.4137 78.9955 80.4137C80.5164 80.4137 81.5687 81.4989 81.5769 83.0033H76.2743ZM90.6612 83.291C90.669 81.6633 91.6393 80.7097 93.0534 80.7097C94.4589 80.7097 95.3058 81.6304 95.2981 83.176V90.5913H98.7996V82.5512C98.7996 79.608 97.0739 77.7994 94.4425 77.7994C92.5683 77.7994 91.212 78.7202 90.6448 80.1918H90.4963V77.9638H87.159V90.5913H90.6612V83.291ZM105.063 83.291C105.07 81.6633 106.065 80.7097 107.495 80.7097C108.918 80.7097 109.756 81.6222 109.749 83.176V90.5913H113.25V82.5512C113.259 79.5916 111.516 77.7994 108.885 77.7994C106.97 77.7994 105.687 78.7037 105.112 80.1918H104.963V73.7547H101.56V90.5913H105.063V83.291ZM124.104 85.2147C124.113 86.9083 122.953 87.7962 121.695 87.7962C120.372 87.7962 119.517 86.8672 119.509 85.3792V77.9638H116.006V86.004C116.015 88.9554 117.741 90.7558 120.281 90.7558C122.18 90.7558 123.545 89.7774 124.113 88.2977H124.244V90.5913H127.606V77.9638H124.104V85.2147ZM130.408 90.5913H133.91V83.0115C133.91 81.614 134.797 80.685 135.966 80.685C137.116 80.685 137.889 81.4742 137.889 82.7156V90.5913H141.284V82.88C141.284 81.5729 142.032 80.685 143.306 80.685C144.424 80.685 145.263 81.3837 145.263 82.7895V90.5913H148.757V82.099C148.757 79.3614 147.129 77.7994 144.778 77.7994C142.928 77.7994 141.49 78.7449 140.972 80.1918H140.84C140.437 78.7284 139.147 77.7994 137.412 77.7994C135.71 77.7994 134.419 78.7037 133.894 80.1918H133.745V77.9638H130.408V90.5913ZM155.124 90.8298C156.99 90.8298 158.199 90.0159 158.815 88.8403H158.914V90.5913H162.235V82.0744C162.235 79.0654 159.687 77.7994 156.875 77.7994C153.85 77.7994 151.86 79.2463 151.375 81.5482L154.614 81.8112C154.852 80.9727 155.601 80.3561 156.859 80.3561C158.051 80.3561 158.733 80.9563 158.733 81.9921V82.0415C158.733 82.8553 157.87 82.9622 155.675 83.176C153.176 83.4061 150.931 84.2447 150.931 87.0646C150.931 89.5637 152.716 90.8298 155.124 90.8298ZM156.127 88.4128C155.05 88.4128 154.278 87.9113 154.278 86.9494C154.278 85.9629 155.092 85.4779 156.324 85.3052C157.089 85.1983 158.338 85.0175 158.758 84.7379V86.078C158.758 87.4016 157.664 88.4128 156.127 88.4128ZM170.31 90.5913H173.813V83.0115C173.813 81.614 174.7 80.685 175.868 80.685C177.019 80.685 177.792 81.4742 177.792 82.7156V90.5913H181.187V82.88C181.187 81.5729 181.935 80.685 183.209 80.685C184.328 80.685 185.166 81.3837 185.166 82.7895V90.5913H188.66V82.099C188.66 79.3614 187.032 77.7994 184.681 77.7994C182.831 77.7994 181.392 78.7449 180.874 80.1918H180.743C180.34 78.7284 179.049 77.7994 177.315 77.7994C175.613 77.7994 174.322 78.7037 173.796 80.1918H173.649V77.9638H170.31V90.5913ZM197.181 90.838C200.305 90.838 202.409 89.3171 202.903 86.9741L199.664 86.7603C199.31 87.7222 198.406 88.2237 197.239 88.2237C195.487 88.2237 194.378 87.0646 194.378 85.1818V85.1736H202.976V84.2118C202.976 79.9204 200.379 77.7994 197.041 77.7994C193.325 77.7994 190.917 80.4383 190.917 84.3351C190.917 88.3388 193.293 90.838 197.181 90.838ZM194.378 83.0033C194.451 81.5646 195.545 80.4137 197.099 80.4137C198.619 80.4137 199.672 81.4989 199.68 83.0033H194.378ZM208.764 83.291C208.773 81.6633 209.743 80.7097 211.157 80.7097C212.562 80.7097 213.409 81.6304 213.401 83.176V90.5913H216.903V82.5512C216.903 79.608 215.177 77.7994 212.546 77.7994C210.672 77.7994 209.315 78.7202 208.747 80.1918H208.6V77.9638H205.262V90.5913H208.764V83.291ZM230.169 81.5646C229.858 79.2381 227.983 77.7994 224.794 77.7994C221.562 77.7994 219.433 79.2957 219.441 81.7291C219.433 83.6199 220.626 84.8448 223.091 85.3381L225.278 85.7738C226.379 85.9958 226.881 86.3986 226.897 87.0317C226.881 87.7797 226.068 88.3141 224.843 88.3141C223.593 88.3141 222.762 87.7797 222.549 86.7521L219.104 86.933C219.433 89.35 221.488 90.838 224.834 90.838C228.106 90.838 230.449 89.1691 230.458 86.6781C230.449 84.853 229.257 83.7596 226.808 83.2581L224.522 82.7978C223.347 82.5429 222.911 82.1401 222.918 81.5318C222.911 80.7755 223.765 80.2822 224.85 80.2822C226.068 80.2822 226.791 80.948 226.964 81.7619L230.169 81.5646ZM236.264 90.8298C238.13 90.8298 239.338 90.0159 239.955 88.8403H240.054V90.5913H243.375V82.0744C243.375 79.0654 240.826 77.7994 238.014 77.7994C234.989 77.7994 232.999 79.2463 232.515 81.5482L235.754 81.8112C235.993 80.9727 236.74 80.3561 237.998 80.3561C239.19 80.3561 239.872 80.9563 239.872 81.9921V82.0415C239.872 82.8553 239.01 82.9622 236.814 83.176C234.315 83.4061 232.071 84.2447 232.071 87.0646C232.071 89.5637 233.855 90.8298 236.264 90.8298ZM237.267 88.4128C236.189 88.4128 235.417 87.9113 235.417 86.9494C235.417 85.9629 236.231 85.4779 237.464 85.3052C238.229 85.1983 239.478 85.0175 239.897 84.7379V86.078C239.897 87.4016 238.803 88.4128 237.267 88.4128ZM251.781 95.5897C255.39 95.5897 257.955 93.9455 257.955 90.7146V77.9638H254.477V80.0849H254.346C253.877 79.0572 252.85 77.7994 250.736 77.7994C247.966 77.7994 245.623 79.9533 245.623 84.2529C245.623 88.4539 247.901 90.4105 250.745 90.4105C252.759 90.4105 253.885 89.3993 254.346 88.3552H254.494V90.6653C254.494 92.4 253.383 93.0741 251.863 93.0741C250.318 93.0741 249.537 92.4 249.249 91.6354L246.01 92.0711C246.429 94.0606 248.377 95.5897 251.781 95.5897ZM251.854 87.7797C250.137 87.7797 249.199 86.4151 249.199 84.2364C249.199 82.0908 250.12 80.5863 251.854 80.5863C253.556 80.5863 254.51 82.025 254.51 84.2364C254.51 86.4644 253.54 87.7797 251.854 87.7797ZM266.496 90.838C269.62 90.838 271.725 89.3171 272.218 86.9741L268.979 86.7603C268.626 87.7222 267.721 88.2237 266.554 88.2237C264.803 88.2237 263.693 87.0646 263.693 85.1818V85.1736H272.292V84.2118C272.292 79.9204 269.695 77.7994 266.356 77.7994C262.641 77.7994 260.232 80.4383 260.232 84.3351C260.232 88.3388 262.608 90.838 266.496 90.838ZM263.693 83.0033C263.767 81.5646 264.86 80.4137 266.414 80.4137C267.935 80.4137 268.988 81.4989 268.995 83.0033H263.693ZM274.578 90.5913H278.08V83.0115C278.08 81.614 278.967 80.685 280.135 80.685C281.286 80.685 282.059 81.4742 282.059 82.7156V90.5913H285.454V82.88C285.454 81.5729 286.202 80.685 287.476 80.685C288.594 80.685 289.433 81.3837 289.433 82.7895V90.5913H292.927V82.099C292.927 79.3614 291.299 77.7994 288.948 77.7994C287.098 77.7994 285.66 78.7449 285.142 80.1918H285.01C284.607 78.7284 283.317 77.7994 281.581 77.7994C279.88 77.7994 278.589 78.7037 278.064 80.1918H277.915V77.9638H274.578V90.5913ZM116.697 118.811C119.821 118.811 121.926 117.291 122.419 114.948L119.18 114.734C118.827 115.696 117.922 116.197 116.755 116.197C115.004 116.197 113.894 115.038 113.894 113.155V113.147H122.493V112.185C122.493 107.894 119.895 105.773 116.557 105.773C112.841 105.773 110.433 108.412 110.433 112.309C110.433 116.312 112.808 118.811 116.697 118.811ZM113.894 110.977C113.968 109.538 115.061 108.387 116.615 108.387C118.136 108.387 119.188 109.472 119.196 110.977H113.894ZM128.281 111.264C128.288 109.637 129.259 108.683 130.673 108.683C132.078 108.683 132.925 109.604 132.917 111.149V118.565H136.419V110.525C136.419 107.581 134.693 105.773 132.062 105.773C130.188 105.773 128.831 106.694 128.264 108.165H128.116V105.937H124.778V118.565H128.281V111.264ZM144.885 118.811C148.247 118.811 150.36 116.838 150.524 113.936H147.22C147.014 115.285 146.127 116.041 144.926 116.041C143.29 116.041 142.23 114.668 142.23 112.251C142.23 109.867 143.298 108.502 144.926 108.502C146.209 108.502 147.03 109.349 147.22 110.607H150.524C150.377 107.688 148.165 105.773 144.869 105.773C141.037 105.773 138.669 108.428 138.669 112.3C138.669 116.14 140.996 118.811 144.885 118.811ZM158.473 118.811C162.303 118.811 164.687 116.189 164.687 112.3C164.687 108.387 162.303 105.773 158.473 105.773C154.641 105.773 152.257 108.387 152.257 112.3C152.257 116.189 154.641 118.811 158.473 118.811ZM158.489 116.098C156.721 116.098 155.817 114.479 155.817 112.276C155.817 110.072 156.721 108.445 158.489 108.445C160.223 108.445 161.127 110.072 161.127 112.276C161.127 114.479 160.223 116.098 158.489 116.098ZM170.466 111.264C170.475 109.637 171.444 108.683 172.859 108.683C174.265 108.683 175.112 109.604 175.103 111.149V118.565H178.606V110.525C178.606 107.581 176.879 105.773 174.249 105.773C172.374 105.773 171.017 106.694 170.45 108.165H170.302V105.937H166.965V118.565H170.466V111.264ZM188.082 105.937H185.706V102.912H182.205V105.937H180.478V108.568H182.205V115.145C182.188 117.619 183.873 118.844 186.413 118.737C187.318 118.705 187.958 118.524 188.312 118.409L187.762 115.803C187.589 115.835 187.219 115.918 186.891 115.918C186.191 115.918 185.706 115.655 185.706 114.684V108.568H188.082V105.937ZM190.363 118.565H193.866V111.421C193.866 109.867 195 108.798 196.545 108.798C197.03 108.798 197.697 108.88 198.026 108.987V105.88C197.713 105.806 197.277 105.756 196.924 105.756C195.51 105.756 194.351 106.579 193.891 108.141H193.759V105.937H190.363V118.565ZM203.076 118.803C204.941 118.803 206.15 117.989 206.766 116.814H206.866V118.565H210.187V110.048C210.187 107.039 207.638 105.773 204.826 105.773C201.801 105.773 199.811 107.22 199.326 109.522L202.565 109.785C202.804 108.946 203.552 108.33 204.81 108.33C206.002 108.33 206.684 108.93 206.684 109.966V110.015C206.684 110.829 205.821 110.936 203.626 111.149C201.127 111.38 198.883 112.218 198.883 115.038C198.883 117.537 200.667 118.803 203.076 118.803ZM204.078 116.386C203.001 116.386 202.229 115.885 202.229 114.923C202.229 113.936 203.043 113.451 204.276 113.279C205.041 113.172 206.29 112.991 206.709 112.711V114.051C206.709 115.375 205.615 116.386 204.078 116.386ZM217.556 118.77C219.595 118.77 220.656 117.595 221.141 116.542H221.289V118.565H224.741V101.728H221.248V108.058H221.141C220.673 107.031 219.661 105.773 217.548 105.773C214.778 105.773 212.435 107.927 212.435 112.267C212.435 116.493 214.679 118.77 217.556 118.77ZM218.666 115.983C216.948 115.983 216.011 114.454 216.011 112.251C216.011 110.064 216.932 108.56 218.666 108.56C220.368 108.56 221.322 109.998 221.322 112.251C221.322 114.504 220.352 115.983 218.666 115.983ZM231.222 118.803C233.088 118.803 234.297 117.989 234.913 116.814H235.012V118.565H238.334V110.048C238.334 107.039 235.784 105.773 232.973 105.773C229.947 105.773 227.958 107.22 227.473 109.522L230.712 109.785C230.951 108.946 231.699 108.33 232.957 108.33C234.148 108.33 234.831 108.93 234.831 109.966V110.015C234.831 110.829 233.968 110.936 231.772 111.149C229.273 111.38 227.03 112.218 227.03 115.038C227.03 117.537 228.813 118.803 231.222 118.803ZM232.225 116.386C231.148 116.386 230.376 115.885 230.376 114.923C230.376 113.936 231.189 113.451 232.423 113.279C233.187 113.172 234.437 112.991 234.855 112.711V114.051C234.855 115.375 233.762 116.386 232.225 116.386Z" fill="#343A40"/>
<path d="M62.3304 157.155C65.7503 157.155 67.6795 155.028 67.6795 151.521C67.6795 148.035 65.7503 145.931 62.4839 145.931H58.8666V157.155H62.3304ZM60.2259 155.95V147.137H62.3962C65.0269 147.137 66.3642 148.803 66.3642 151.521C66.3642 154.262 65.0269 155.95 62.2428 155.95H60.2259ZM69.7842 157.155H71.0777V148.737H69.7842V157.155ZM70.4419 147.334C70.9461 147.334 71.3626 146.939 71.3626 146.457C71.3626 145.975 70.9461 145.58 70.4419 145.58C69.9377 145.58 69.5211 145.975 69.5211 146.457C69.5211 146.939 69.9377 147.334 70.4419 147.334ZM76.8447 160.488C78.8616 160.488 80.4839 159.567 80.4839 157.397V148.737H79.2343V150.074H79.1028C78.8177 149.636 78.2916 148.627 76.6474 148.627C74.5209 148.627 73.052 150.315 73.052 152.902C73.052 155.533 74.5867 157.024 76.6255 157.024C78.2696 157.024 78.7958 156.06 79.0808 155.598H79.1905V157.309C79.1905 158.712 78.204 159.348 76.8447 159.348C75.3156 159.348 74.7785 158.542 74.4332 158.077L73.4028 158.8C73.9289 159.682 74.9648 160.488 76.8447 160.488ZM76.8008 155.862C75.1786 155.862 74.3455 154.634 74.3455 152.88C74.3455 151.17 75.1567 149.79 76.8008 149.79C78.3793 149.79 79.2124 151.061 79.2124 152.88C79.2124 154.744 78.3573 155.862 76.8008 155.862ZM82.8515 157.155H84.145V148.737H82.8515V157.155ZM83.5093 147.334C84.0135 147.334 84.43 146.939 84.43 146.457C84.43 145.975 84.0135 145.58 83.5093 145.58C83.005 145.58 82.5885 145.975 82.5885 146.457C82.5885 146.939 83.005 147.334 83.5093 147.334ZM90.1752 148.737H88.3775V146.72H87.084V148.737H85.8125V149.833H87.084V155.095C87.084 156.563 88.2679 157.265 89.364 157.265C89.8463 157.265 90.1532 157.178 90.3288 157.112L90.0655 155.95C89.9559 155.972 89.7806 156.015 89.4955 156.015C88.9255 156.015 88.3775 155.84 88.3775 154.744V149.833H90.1752V148.737ZM95.5599 157.331C97.2701 157.331 98.5193 156.475 98.9138 155.204L97.6647 154.854C97.3357 155.731 96.5737 156.169 95.5599 156.169C94.0416 156.169 92.995 155.188 92.9342 153.385H99.046V152.837C99.046 149.702 97.1824 148.627 95.4287 148.627C93.1484 148.627 91.6359 150.425 91.6359 153.012C91.6359 155.598 93.1262 157.331 95.5599 157.331ZM92.9342 152.267C93.022 150.957 93.949 149.79 95.4287 149.79C96.8312 149.79 97.7303 150.842 97.7303 152.267H92.9342ZM110.659 153.714C110.659 155.292 109.453 156.015 108.488 156.015C107.415 156.015 106.647 155.226 106.647 153.998V148.737H105.354V154.086C105.354 156.234 106.494 157.265 108.073 157.265C109.344 157.265 110.177 156.585 110.572 155.731H110.659V157.155H111.952V148.737H110.659V153.714ZM114.321 157.155H115.615V151.893C115.615 150.661 116.514 149.79 117.523 149.79C118.504 149.79 119.189 150.43 119.189 151.39V157.155H120.504V151.674C120.504 150.589 121.184 149.79 122.367 149.79C123.288 149.79 124.077 150.277 124.077 151.521V157.155H125.371V151.521C125.371 149.543 124.308 148.627 122.806 148.627C121.6 148.627 120.718 149.181 120.285 150.052H120.197C119.78 149.154 119.046 148.627 117.939 148.627C116.843 148.627 116.032 149.154 115.681 150.052H115.572V148.737H114.321V157.155ZM135.738 148.737H133.94V146.72H132.646V148.737H131.375V149.833H132.646V155.095C132.646 156.563 133.831 157.265 134.926 157.265C135.409 157.265 135.715 157.178 135.891 157.112L135.628 155.95C135.519 155.972 135.343 156.015 135.058 156.015C134.488 156.015 133.94 155.84 133.94 154.744V149.833H135.738V148.737ZM141.122 157.331C142.832 157.331 144.082 156.475 144.477 155.204L143.227 154.854C142.898 155.731 142.137 156.169 141.122 156.169C139.605 156.169 138.557 155.188 138.497 153.385H144.608V152.837C144.608 149.702 142.744 148.627 140.991 148.627C138.71 148.627 137.198 150.425 137.198 153.012C137.198 155.598 138.689 157.331 141.122 157.331ZM138.497 152.267C138.585 150.957 139.511 149.79 140.991 149.79C142.394 149.79 143.292 150.842 143.292 152.267H138.497ZM147.314 148.737H145.823L148.498 152.946L145.823 157.155H147.314L149.331 153.889L151.348 157.155H152.839L150.121 152.946L152.839 148.737H151.348L149.331 152.179L147.314 148.737ZM158.346 148.737H156.548V146.72H155.254V148.737H153.983V149.833H155.254V155.095C155.254 156.563 156.438 157.265 157.535 157.265C158.017 157.265 158.324 157.178 158.499 157.112L158.236 155.95C158.126 155.972 157.95 156.015 157.666 156.015C157.096 156.015 156.548 155.84 156.548 154.744V149.833H158.346V148.737ZM163.62 157.331C165.901 157.331 167.435 155.598 167.435 152.99C167.435 150.36 165.901 148.627 163.62 148.627C161.341 148.627 159.806 150.36 159.806 152.99C159.806 155.598 161.341 157.331 163.62 157.331ZM163.62 156.169C161.889 156.169 161.1 154.678 161.1 152.99C161.1 151.302 161.889 149.79 163.62 149.79C165.353 149.79 166.142 151.302 166.142 152.99C166.142 154.678 165.353 156.169 163.62 156.169ZM180.787 160.313V148.737H179.538V150.074H179.385C179.099 149.636 178.595 148.627 176.951 148.627C174.824 148.627 173.356 150.315 173.356 152.968C173.356 155.643 174.824 157.331 176.929 157.331C178.552 157.331 179.099 156.322 179.385 155.862H179.494V160.313H180.787ZM179.516 152.946C179.516 154.854 178.661 156.169 177.105 156.169C175.482 156.169 174.65 154.744 174.65 152.946C174.65 151.17 175.46 149.79 177.105 149.79C178.683 149.79 179.516 151.061 179.516 152.946ZM188.461 153.714C188.461 155.292 187.255 156.015 186.291 156.015C185.216 156.015 184.449 155.226 184.449 153.998V148.737H183.156V154.086C183.156 156.234 184.296 157.265 185.874 157.265C187.145 157.265 187.979 156.585 188.373 155.731H188.461V157.155H189.754V148.737H188.461V153.714ZM195.653 157.331C197.362 157.331 198.612 156.475 199.007 155.204L197.757 154.854C197.429 155.731 196.667 156.169 195.653 156.169C194.135 156.169 193.088 155.188 193.027 153.385H199.138V152.837C199.138 149.702 197.274 148.627 195.521 148.627C193.241 148.627 191.728 150.425 191.728 153.012C191.728 155.598 193.219 157.331 195.653 157.331ZM193.027 152.267C193.115 150.957 194.041 149.79 195.521 149.79C196.924 149.79 197.823 150.842 197.823 152.267H193.027ZM212.33 148.737H210.928L208.604 155.445H208.516L206.192 148.737H204.789L207.903 157.155H209.217L212.33 148.737ZM217.156 157.331C219.436 157.331 220.971 155.598 220.971 152.99C220.971 150.36 219.436 148.627 217.156 148.627C214.877 148.627 213.342 150.36 213.342 152.99C213.342 155.598 214.877 157.331 217.156 157.331ZM217.156 156.169C215.424 156.169 214.635 154.678 214.635 152.99C214.635 151.302 215.424 149.79 217.156 149.79C218.888 149.79 219.677 151.302 219.677 152.99C219.677 154.678 218.888 156.169 217.156 156.169ZM226.365 157.331C228.229 157.331 229.457 156.191 229.676 154.7H228.382C228.141 155.621 227.374 156.169 226.365 156.169C224.83 156.169 223.845 154.897 223.845 152.946C223.845 151.039 224.853 149.79 226.365 149.79C227.505 149.79 228.185 150.491 228.382 151.258H229.676C229.457 149.68 228.119 148.627 226.343 148.627C224.063 148.627 222.551 150.425 222.551 152.99C222.551 155.511 223.998 157.331 226.365 157.331ZM235.096 157.331C236.806 157.331 238.055 156.475 238.451 155.204L237.2 154.854C236.872 155.731 236.109 156.169 235.096 156.169C233.577 156.169 232.531 155.188 232.471 153.385H238.582V152.837C238.582 149.702 236.718 148.627 234.964 148.627C232.684 148.627 231.172 150.425 231.172 153.012C231.172 155.598 232.663 157.331 235.096 157.331ZM232.471 152.267C232.559 150.957 233.485 149.79 234.964 149.79C236.367 149.79 237.266 150.842 237.266 152.267H232.471ZM233.759 147.728L234.899 146.194L236.039 147.728H237.266V147.641L235.49 145.361H234.307L232.531 147.641V147.728H233.759ZM248.069 157.331C249.691 157.331 250.239 156.322 250.525 155.862H250.678V157.155H251.927V145.931H250.633V150.074H250.525C250.239 149.636 249.734 148.627 248.091 148.627C245.964 148.627 244.496 150.315 244.496 152.968C244.496 155.643 245.964 157.331 248.069 157.331ZM248.244 156.169C246.622 156.169 245.789 154.744 245.789 152.946C245.789 151.17 246.6 149.79 248.244 149.79C249.822 149.79 250.656 151.061 250.656 152.946C250.656 154.854 249.801 156.169 248.244 156.169ZM258.005 157.331C259.715 157.331 260.964 156.475 261.36 155.204L260.11 154.854C259.781 155.731 259.019 156.169 258.005 156.169C256.487 156.169 255.44 155.188 255.38 153.385H261.491V152.837C261.491 149.702 259.627 148.627 257.874 148.627C255.593 148.627 254.081 150.425 254.081 153.012C254.081 155.598 255.572 157.331 258.005 157.331ZM255.38 152.267C255.468 150.957 256.394 149.79 257.874 149.79C259.276 149.79 260.175 150.842 260.175 152.267H255.38ZM269.422 150.622C269.016 149.428 268.106 148.627 266.44 148.627C264.665 148.627 263.349 149.636 263.349 151.061C263.349 152.222 264.04 153.001 265.585 153.363L266.988 153.691C267.837 153.889 268.238 154.294 268.238 154.875C268.238 155.598 267.471 156.191 266.265 156.191C265.207 156.191 264.544 155.735 264.314 154.832L263.086 155.138C263.388 156.569 264.565 157.331 266.287 157.331C268.243 157.331 269.575 156.262 269.575 154.809C269.575 153.636 268.84 152.897 267.339 152.53L266.089 152.222C265.092 151.976 264.642 151.642 264.642 150.995C264.642 150.272 265.409 149.745 266.44 149.745C267.569 149.745 268.035 150.37 268.26 150.951L269.422 150.622ZM275.051 157.331C276.762 157.331 278.011 156.475 278.405 155.204L277.156 154.854C276.827 155.731 276.065 156.169 275.051 156.169C273.533 156.169 272.487 155.188 272.427 153.385H278.538V152.837C278.538 149.702 276.674 148.627 274.92 148.627C272.64 148.627 271.127 150.425 271.127 153.012C271.127 155.598 272.618 157.331 275.051 157.331ZM272.427 152.267C272.514 150.957 273.441 149.79 274.92 149.79C276.323 149.79 277.222 150.842 277.222 152.267H272.427ZM280.505 148.737V157.769C280.505 158.624 280.154 159.107 279.365 159.107H279.124V160.313H279.386C281.009 160.313 281.798 159.326 281.798 157.769V148.737H280.505ZM281.141 147.334C281.645 147.334 282.061 146.939 282.061 146.457C282.061 145.975 281.645 145.58 281.141 145.58C280.637 145.58 280.22 145.975 280.22 146.457C280.22 146.939 280.637 147.334 281.141 147.334ZM286.645 157.353C288.113 157.353 288.881 156.563 289.144 156.015H289.21V157.155H290.503V151.609C290.503 148.934 288.464 148.627 287.39 148.627C286.118 148.627 284.671 149.066 284.014 150.601L285.242 151.039C285.527 150.425 286.2 149.767 287.434 149.767C288.623 149.767 289.21 150.397 289.21 151.478V151.521C289.21 152.146 288.574 152.091 287.04 152.289C285.477 152.492 283.772 152.837 283.772 154.766C283.772 156.41 285.045 157.353 286.645 157.353ZM286.842 156.191C285.812 156.191 285.066 155.731 285.066 154.832C285.066 153.845 285.965 153.538 286.974 153.407C287.522 153.34 288.99 153.187 289.21 152.925V154.108C289.21 155.161 288.377 156.191 286.842 156.191ZM65.0502 180.481C66.9137 180.481 68.1413 179.341 68.3606 177.851H67.0671C66.826 178.771 66.0586 179.319 65.0502 179.319C63.5156 179.319 62.5291 178.048 62.5291 176.096C62.5291 174.189 63.5375 172.94 65.0502 172.94C66.1902 172.94 66.8699 173.641 67.0671 174.408H68.3606C68.1413 172.83 66.8041 171.778 65.0283 171.778C62.7483 171.778 61.2356 173.576 61.2356 176.141C61.2356 178.661 62.6825 180.481 65.0502 180.481ZM70.2514 180.306H71.5448V174.978C71.5448 173.838 72.4437 173.006 73.6714 173.006C74.0166 173.006 74.3729 173.071 74.4606 173.094V171.778C74.3126 171.767 73.9728 171.756 73.781 171.756C72.7726 171.756 71.8956 172.326 71.5887 173.159H71.501V171.888H70.2514V180.306ZM75.9939 180.306H77.2873V171.888H75.9939V180.306ZM76.6515 170.484C77.1557 170.484 77.5722 170.09 77.5722 169.607C77.5722 169.125 77.1557 168.731 76.6515 168.731C76.1473 168.731 75.7307 169.125 75.7307 169.607C75.7307 170.09 76.1473 170.484 76.6515 170.484ZM79.6563 183.463H80.9497V179.012H81.0594C81.3443 179.472 81.8924 180.481 83.5147 180.481C85.6194 180.481 87.0882 178.793 87.0882 176.119C87.0882 173.466 85.6194 171.778 83.4928 171.778C81.8486 171.778 81.3443 172.787 81.0594 173.225H80.9059V171.888H79.6563V183.463ZM80.9278 176.096C80.9278 174.212 81.7609 172.94 83.3393 172.94C84.9836 172.94 85.7947 174.321 85.7947 176.096C85.7947 177.894 84.9616 179.319 83.3393 179.319C81.7828 179.319 80.9278 178.004 80.9278 176.096ZM92.722 171.888H90.925V169.871H89.6311V171.888H88.3597V172.984H89.6311V178.245C89.6311 179.714 90.815 180.416 91.9108 180.416C92.3931 180.416 92.7008 180.328 92.8754 180.262L92.613 179.1C92.5031 179.122 92.3275 179.166 92.0429 179.166C91.4729 179.166 90.925 178.99 90.925 177.894V172.984H92.722V171.888ZM97.9974 180.481C100.278 180.481 101.812 178.749 101.812 176.141C101.812 173.51 100.278 171.778 97.9974 171.778C95.7171 171.778 94.1824 173.51 94.1824 176.141C94.1824 178.749 95.7171 180.481 97.9974 180.481ZM97.9974 179.319C96.266 179.319 95.476 177.829 95.476 176.141C95.476 174.453 96.266 172.94 97.9974 172.94C99.7289 172.94 100.519 174.453 100.519 176.141C100.519 177.829 99.7289 179.319 97.9974 179.319ZM107.184 183.639C109.201 183.639 110.824 182.717 110.824 180.547V171.888H109.574V173.225H109.442C109.158 172.787 108.631 171.778 106.988 171.778C104.861 171.778 103.392 173.466 103.392 176.053C103.392 178.683 104.926 180.175 106.965 180.175C108.609 180.175 109.136 179.21 109.42 178.749H109.53V180.459C109.53 181.863 108.543 182.498 107.184 182.498C105.655 182.498 105.118 181.693 104.773 181.227L103.743 181.951C104.268 182.832 105.304 183.639 107.184 183.639ZM107.141 179.012C105.518 179.012 104.685 177.784 104.685 176.031C104.685 174.321 105.496 172.94 107.141 172.94C108.719 172.94 109.552 174.212 109.552 176.031C109.552 177.894 108.697 179.012 107.141 179.012ZM113.191 180.306H114.484V174.978C114.484 173.838 115.383 173.006 116.611 173.006C116.957 173.006 117.313 173.071 117.4 173.094V171.778C117.253 171.767 116.912 171.756 116.721 171.756C115.712 171.756 114.836 172.326 114.529 173.159H114.441V171.888H113.191V180.306ZM121.411 180.504C122.879 180.504 123.647 179.714 123.911 179.166H123.976V180.306H125.27V174.759C125.27 172.085 123.231 171.778 122.156 171.778C120.885 171.778 119.438 172.217 118.78 173.751L120.008 174.189C120.293 173.576 120.968 172.918 122.2 172.918C123.39 172.918 123.976 173.548 123.976 174.628V174.672C123.976 175.297 123.34 175.242 121.806 175.439C120.244 175.642 118.539 175.987 118.539 177.917C118.539 179.56 119.811 180.504 121.411 180.504ZM121.608 179.341C120.578 179.341 119.832 178.881 119.832 177.982C119.832 176.995 120.731 176.689 121.74 176.557C122.288 176.491 123.757 176.338 123.976 176.075V177.259C123.976 178.311 123.143 179.341 121.608 179.341ZM131.379 171.888H129.494V171.032C129.494 170.2 129.845 169.761 130.699 169.761C131.072 169.761 131.292 169.849 131.423 169.893L131.795 168.774C131.598 168.687 131.204 168.555 130.568 168.555C129.363 168.555 128.2 169.279 128.2 170.725V171.888H126.841V172.984H128.2V180.306H129.494V172.984H131.379V171.888ZM135.428 180.504C136.897 180.504 137.664 179.714 137.927 179.166H137.993V180.306H139.286V174.759C139.286 172.085 137.247 171.778 136.174 171.778C134.902 171.778 133.455 172.217 132.797 173.751L134.024 174.189C134.31 173.576 134.984 172.918 136.217 172.918C137.406 172.918 137.993 173.548 137.993 174.628V174.672C137.993 175.297 137.357 175.242 135.822 175.439C134.261 175.642 132.556 175.987 132.556 177.917C132.556 179.56 133.828 180.504 135.428 180.504ZM135.626 179.341C134.595 179.341 133.85 178.881 133.85 177.982C133.85 176.995 134.748 176.689 135.757 176.557C136.305 176.491 137.774 176.338 137.993 176.075V177.259C137.993 178.311 137.159 179.341 135.626 179.341ZM141.647 180.306H142.94V174.978C142.94 173.838 143.839 173.006 145.067 173.006C145.413 173.006 145.768 173.071 145.856 173.094V171.778C145.709 171.767 145.368 171.756 145.177 171.756C144.168 171.756 143.291 172.326 142.985 173.159H142.897V171.888H141.647V180.306ZM155.15 180.481C157.431 180.481 158.965 178.749 158.965 176.141C158.965 173.51 157.431 171.778 155.15 171.778C152.87 171.778 151.335 173.51 151.335 176.141C151.335 178.749 152.87 180.481 155.15 180.481ZM155.15 179.319C153.419 179.319 152.629 177.829 152.629 176.141C152.629 174.453 153.419 172.94 155.15 172.94C156.882 172.94 157.672 174.453 157.672 176.141C157.672 177.829 156.882 179.319 155.15 179.319ZM166.244 176.864C166.244 178.442 165.038 179.166 164.074 179.166C163 179.166 162.232 178.377 162.232 177.149V171.888H160.939V177.237C160.939 179.385 162.079 180.416 163.658 180.416C164.929 180.416 165.762 179.736 166.157 178.881H166.244V180.306H167.538V171.888H166.244V176.864ZM177.427 180.481C179.049 180.481 179.597 179.472 179.882 179.012H180.035V180.306H181.285V169.082H179.992V173.225H179.882C179.597 172.787 179.093 171.778 177.449 171.778C175.322 171.778 173.853 173.466 173.853 176.119C173.853 178.793 175.322 180.481 177.427 180.481ZM177.602 179.319C175.98 179.319 175.146 177.894 175.146 176.096C175.146 174.321 175.958 172.94 177.602 172.94C179.18 172.94 180.014 174.212 180.014 176.096C180.014 178.004 179.158 179.319 177.602 179.319ZM187.363 180.481C189.073 180.481 190.323 179.626 190.717 178.354L189.468 178.004C189.139 178.881 188.377 179.319 187.363 179.319C185.845 179.319 184.798 178.338 184.738 176.535H190.849V175.987C190.849 172.852 188.986 171.778 187.232 171.778C184.952 171.778 183.439 173.576 183.439 176.163C183.439 178.749 184.929 180.481 187.363 180.481ZM184.738 175.417C184.825 174.107 185.751 172.94 187.232 172.94C188.635 172.94 189.534 173.993 189.534 175.417H184.738ZM198.779 173.773C198.374 172.578 197.465 171.778 195.798 171.778C194.022 171.778 192.707 172.787 192.707 174.212C192.707 175.373 193.398 176.151 194.943 176.513L196.346 176.842C197.195 177.04 197.596 177.445 197.596 178.026C197.596 178.749 196.828 179.341 195.622 179.341C194.565 179.341 193.901 178.886 193.672 177.982L192.444 178.289C192.745 179.719 193.923 180.481 195.644 180.481C197.601 180.481 198.933 179.413 198.933 177.96C198.933 176.787 198.199 176.047 196.697 175.681L195.448 175.373C194.45 175.127 194.001 174.792 194.001 174.146C194.001 173.422 194.767 172.896 195.798 172.896C196.927 172.896 197.393 173.521 197.618 174.102L198.779 173.773ZM204.3 180.481C206.163 180.481 207.391 179.341 207.61 177.851H206.317C206.076 178.771 205.309 179.319 204.3 179.319C202.765 179.319 201.779 178.048 201.779 176.096C201.779 174.189 202.787 172.94 204.3 172.94C205.44 172.94 206.12 173.641 206.317 174.408H207.61C207.391 172.83 206.053 171.778 204.278 171.778C201.998 171.778 200.486 173.576 200.486 176.141C200.486 178.661 201.933 180.481 204.3 180.481ZM209.501 180.306H210.794V174.978C210.794 173.838 211.693 173.006 212.921 173.006C213.267 173.006 213.623 173.071 213.71 173.094V171.778C213.562 171.767 213.222 171.756 213.03 171.756C212.022 171.756 211.146 172.326 210.839 173.159H210.751V171.888H209.501V180.306ZM215.243 180.306H216.537V171.888H215.243V180.306ZM215.901 170.484C216.405 170.484 216.822 170.09 216.822 169.607C216.822 169.125 216.405 168.731 215.901 168.731C215.397 168.731 214.981 169.125 214.981 169.607C214.981 170.09 215.397 170.484 215.901 170.484ZM218.906 183.463H220.199V179.012H220.309C220.594 179.472 221.142 180.481 222.764 180.481C224.869 180.481 226.338 178.793 226.338 176.119C226.338 173.466 224.869 171.778 222.742 171.778C221.098 171.778 220.594 172.787 220.309 173.225H220.156V171.888H218.906V183.463ZM220.177 176.096C220.177 174.212 221.011 172.94 222.589 172.94C224.233 172.94 225.044 174.321 225.044 176.096C225.044 177.894 224.211 179.319 222.589 179.319C221.033 179.319 220.177 178.004 220.177 176.096ZM231.972 171.888H230.174V169.871H228.881V171.888H227.609V172.984H228.881V178.245C228.881 179.714 230.064 180.416 231.161 180.416C231.643 180.416 231.95 180.328 232.126 180.262L231.862 179.1C231.752 179.122 231.578 179.166 231.292 179.166C230.722 179.166 230.174 178.99 230.174 177.894V172.984H231.972V171.888ZM237.247 180.481C239.527 180.481 241.062 178.749 241.062 176.141C241.062 173.51 239.527 171.778 237.247 171.778C234.967 171.778 233.433 173.51 233.433 176.141C233.433 178.749 234.967 180.481 237.247 180.481ZM237.247 179.319C235.515 179.319 234.726 177.829 234.726 176.141C234.726 174.453 235.515 172.94 237.247 172.94C238.979 172.94 239.768 174.453 239.768 176.141C239.768 177.829 238.979 179.319 237.247 179.319ZM246.435 183.639C248.451 183.639 250.073 182.717 250.073 180.547V171.888H248.824V173.225H248.692C248.407 172.787 247.881 171.778 246.237 171.778C244.11 171.778 242.642 173.466 242.642 176.053C242.642 178.683 244.176 180.175 246.215 180.175C247.859 180.175 248.385 179.21 248.671 178.749H248.78V180.459C248.78 181.863 247.794 182.498 246.435 182.498C244.905 182.498 244.368 181.693 244.023 181.227L242.992 181.951C243.519 182.832 244.555 183.639 246.435 183.639ZM246.39 179.012C244.768 179.012 243.935 177.784 243.935 176.031C243.935 174.321 244.747 172.94 246.39 172.94C247.968 172.94 248.802 174.212 248.802 176.031C248.802 177.894 247.947 179.012 246.39 179.012ZM252.441 180.306H253.735V174.978C253.735 173.838 254.634 173.006 255.861 173.006C256.206 173.006 256.563 173.071 256.65 173.094V171.778C256.502 171.767 256.163 171.756 255.971 171.756C254.962 171.756 254.085 172.326 253.778 173.159H253.69V171.888H252.441V180.306ZM260.661 180.504C262.13 180.504 262.897 179.714 263.16 179.166H263.225V180.306H264.519V174.759C264.519 172.085 262.481 171.778 261.406 171.778C260.135 171.778 258.688 172.217 258.03 173.751L259.258 174.189C259.543 173.576 260.217 172.918 261.45 172.918C262.639 172.918 263.225 173.548 263.225 174.628V174.672C263.225 175.297 262.59 175.242 261.055 175.439C259.493 175.642 257.789 175.987 257.789 177.917C257.789 179.56 259.06 180.504 260.661 180.504ZM260.858 179.341C259.828 179.341 259.082 178.881 259.082 177.982C259.082 176.995 259.981 176.689 260.989 176.557C261.537 176.491 263.006 176.338 263.225 176.075V177.259C263.225 178.311 262.393 179.341 260.858 179.341ZM270.629 171.888H268.743V171.032C268.743 170.2 269.094 169.761 269.949 169.761C270.322 169.761 270.541 169.849 270.672 169.893L271.045 168.774C270.848 168.687 270.453 168.555 269.818 168.555C268.612 168.555 267.449 169.279 267.449 170.725V171.888H266.09V172.984H267.449V180.306H268.743V172.984H270.629V171.888ZM274.677 180.504C276.146 180.504 276.914 179.714 277.176 179.166H277.242V180.306H278.536V174.759C278.536 172.085 276.497 171.778 275.423 171.778C274.151 171.778 272.705 172.217 272.047 173.751L273.275 174.189C273.559 173.576 274.234 172.918 275.467 172.918C276.657 172.918 277.242 173.548 277.242 174.628V174.672C277.242 175.297 276.606 175.242 275.072 175.439C273.51 175.642 271.806 175.987 271.806 177.917C271.806 179.56 273.077 180.504 274.677 180.504ZM274.875 179.341C273.845 179.341 273.099 178.881 273.099 177.982C273.099 176.995 273.998 176.689 275.006 176.557C275.554 176.491 277.023 176.338 277.242 176.075V177.259C277.242 178.311 276.41 179.341 274.875 179.341ZM280.897 180.306H282.191V174.978C282.191 173.838 283.09 173.006 284.316 173.006C284.662 173.006 285.019 173.071 285.106 173.094V171.778C284.958 171.767 284.618 171.756 284.426 171.756C283.417 171.756 282.541 172.326 282.234 173.159H282.146V171.888H280.897V180.306ZM286.617 180.394C287.16 180.394 287.604 179.95 287.604 179.407C287.604 178.865 287.16 178.42 286.617 178.42C286.075 178.42 285.631 178.865 285.631 179.407C285.631 179.95 286.075 180.394 286.617 180.394Z" fill="#495057"/>
</svg>
