<svg width="393" height="660" viewBox="0 0 393 660" fill="none" xmlns="http://www.w3.org/2000/svg">
<rect width="393" height="660" fill="white"/>
<path d="M72.4279 421.392V440.946H68.8569L60.3498 428.639H60.2066V440.946H56.0724V421.392H59.7005L68.1409 433.69H68.3127V421.392H72.4279ZM82.4507 441.233C80.9422 441.233 79.6437 440.927 78.5552 440.316C77.4731 439.699 76.6393 438.827 76.0537 437.7C75.4681 436.567 75.1752 435.227 75.1752 433.68C75.1752 432.172 75.4681 430.848 76.0537 429.708C76.6393 428.569 77.4636 427.681 78.5266 427.045C79.5959 426.408 80.8499 426.09 82.2884 426.09C83.2559 426.09 84.1566 426.246 84.9905 426.558C85.8307 426.863 86.5627 427.325 87.1865 427.942C87.8166 428.56 88.3068 429.336 88.6568 430.272C89.0069 431.201 89.182 432.29 89.182 433.537V434.654H76.7984V432.134H85.3533C85.3533 431.548 85.226 431.029 84.9714 430.577C84.7168 430.125 84.3635 429.772 83.9115 429.517C83.466 429.257 82.9472 429.126 82.3552 429.126C81.7378 429.126 81.1904 429.269 80.713 429.556C80.242 429.836 79.8728 430.214 79.6055 430.692C79.3381 431.163 79.2013 431.688 79.1949 432.267V434.664C79.1949 435.389 79.3286 436.016 79.5959 436.545C79.8696 437.073 80.2547 437.48 80.7512 437.767C81.2477 438.053 81.8365 438.197 82.5176 438.197C82.9695 438.197 83.3832 438.133 83.7588 438.006C84.1343 437.878 84.4558 437.687 84.7231 437.433C84.9905 437.178 85.1941 436.866 85.3342 436.497L89.096 436.745C88.9051 437.649 88.5136 438.438 87.9217 439.113C87.336 439.781 86.5786 440.303 85.6493 440.679C84.7263 441.048 83.6601 441.233 82.4507 441.233ZM95.9037 432.468V440.946H91.8363V426.281H95.7127V428.868H95.8846C96.2092 428.015 96.7534 427.341 97.5173 426.844C98.2811 426.341 99.2072 426.09 100.296 426.09C101.314 426.09 102.202 426.313 102.96 426.758C103.717 427.204 104.306 427.84 104.726 428.668C105.146 429.489 105.356 430.469 105.356 431.608V440.946H101.289V432.334C101.295 431.437 101.066 430.736 100.601 430.234C100.137 429.724 99.4969 429.47 98.6821 429.47C98.1347 429.47 97.6509 429.588 97.2308 429.823C96.8171 430.059 96.4925 430.402 96.2569 430.854C96.0278 431.3 95.91 431.838 95.9037 432.468ZM112.629 432.468V440.946H108.562V421.392H112.515V428.868H112.686C113.017 428.003 113.552 427.325 114.29 426.835C115.029 426.338 115.955 426.09 117.069 426.09C118.087 426.09 118.975 426.313 119.733 426.758C120.497 427.197 121.089 427.831 121.509 428.658C121.935 429.479 122.145 430.463 122.139 431.608V440.946H118.071V432.334C118.078 431.43 117.849 430.727 117.384 430.224C116.926 429.721 116.283 429.47 115.455 429.47C114.902 429.47 114.411 429.588 113.985 429.823C113.565 430.059 113.234 430.402 112.992 430.854C112.756 431.3 112.636 431.838 112.629 432.468ZM134.744 434.702V426.281H138.812V440.946H134.907V438.282H134.754C134.423 439.142 133.872 439.832 133.102 440.354C132.338 440.876 131.406 441.137 130.305 441.137C129.324 441.137 128.462 440.914 127.717 440.469C126.972 440.023 126.39 439.39 125.97 438.569C125.556 437.748 125.346 436.764 125.34 435.619V426.281H129.407V434.893C129.414 435.759 129.646 436.443 130.104 436.946C130.562 437.449 131.177 437.7 131.947 437.7C132.437 437.7 132.895 437.589 133.322 437.366C133.748 437.137 134.092 436.799 134.353 436.354C134.62 435.908 134.751 435.358 134.744 434.702ZM142.065 440.946V426.281H145.942V428.868H146.114C146.419 428.009 146.928 427.331 147.641 426.835C148.354 426.338 149.207 426.09 150.2 426.09C151.206 426.09 152.062 426.341 152.768 426.844C153.475 427.341 153.946 428.015 154.181 428.868H154.334C154.633 428.028 155.174 427.356 155.957 426.854C156.747 426.344 157.679 426.09 158.755 426.09C160.123 426.09 161.234 426.526 162.087 427.398C162.946 428.264 163.376 429.492 163.376 431.083V440.946H159.318V431.885C159.318 431.071 159.102 430.46 158.669 430.052C158.236 429.645 157.695 429.441 157.046 429.441C156.307 429.441 155.731 429.677 155.318 430.148C154.904 430.612 154.697 431.227 154.697 431.99V440.946H150.754V431.799C150.754 431.08 150.547 430.507 150.133 430.081C149.726 429.654 149.188 429.441 148.52 429.441C148.068 429.441 147.66 429.556 147.297 429.785C146.941 430.008 146.658 430.323 146.448 430.73C146.238 431.131 146.133 431.602 146.133 432.143V440.946H142.065ZM170.771 441.223C169.835 441.223 169.001 441.061 168.269 440.736C167.537 440.405 166.958 439.918 166.532 439.275C166.112 438.626 165.901 437.818 165.901 436.85C165.901 436.036 166.051 435.351 166.35 434.797C166.649 434.244 167.057 433.798 167.572 433.461C168.088 433.123 168.674 432.869 169.329 432.697C169.991 432.525 170.685 432.404 171.411 432.334C172.264 432.245 172.951 432.162 173.473 432.086C173.995 432.003 174.374 431.882 174.609 431.723C174.845 431.564 174.962 431.328 174.962 431.017V430.959C174.962 430.355 174.771 429.887 174.39 429.556C174.014 429.225 173.479 429.059 172.785 429.059C172.053 429.059 171.471 429.222 171.038 429.546C170.605 429.864 170.319 430.265 170.179 430.749L166.417 430.444C166.608 429.552 166.984 428.782 167.544 428.133C168.104 427.477 168.826 426.975 169.711 426.624C170.602 426.268 171.633 426.09 172.805 426.09C173.619 426.09 174.399 426.185 175.144 426.376C175.895 426.567 176.56 426.863 177.139 427.264C177.725 427.665 178.186 428.181 178.524 428.811C178.861 429.435 179.03 430.183 179.03 431.055V440.946H175.172V438.913H175.058C174.822 439.371 174.507 439.775 174.113 440.125C173.718 440.469 173.244 440.739 172.69 440.937C172.136 441.128 171.497 441.223 170.771 441.223ZM171.936 438.416C172.534 438.416 173.062 438.298 173.521 438.063C173.979 437.821 174.339 437.496 174.6 437.089C174.861 436.682 174.991 436.22 174.991 435.705V434.148C174.864 434.231 174.689 434.307 174.466 434.377C174.249 434.441 174.004 434.501 173.731 434.559C173.457 434.61 173.183 434.657 172.91 434.702C172.636 434.74 172.388 434.775 172.165 434.807C171.687 434.877 171.271 434.988 170.914 435.141C170.558 435.294 170.281 435.501 170.083 435.762C169.886 436.016 169.787 436.335 169.787 436.717C169.787 437.27 169.988 437.694 170.389 437.986C170.796 438.273 171.312 438.416 171.936 438.416ZM188.408 440.946V426.281H192.285V428.868H192.456C192.762 428.009 193.271 427.331 193.984 426.835C194.697 426.338 195.55 426.09 196.543 426.09C197.549 426.09 198.405 426.341 199.111 426.844C199.818 427.341 200.289 428.015 200.524 428.868H200.677C200.976 428.028 201.517 427.356 202.3 426.854C203.09 426.344 204.022 426.09 205.098 426.09C206.466 426.09 207.577 426.526 208.43 427.398C209.289 428.264 209.719 429.492 209.719 431.083V440.946H205.661V431.885C205.661 431.071 205.445 430.46 205.012 430.052C204.579 429.645 204.038 429.441 203.389 429.441C202.65 429.441 202.074 429.677 201.661 430.148C201.247 430.612 201.04 431.227 201.04 431.99V440.946H197.097V431.799C197.097 431.08 196.89 430.507 196.476 430.081C196.069 429.654 195.531 429.441 194.863 429.441C194.411 429.441 194.003 429.556 193.64 429.785C193.284 430.008 193.001 430.323 192.791 430.73C192.581 431.131 192.476 431.602 192.476 432.143V440.946H188.408ZM219.615 441.233C218.107 441.233 216.808 440.927 215.72 440.316C214.638 439.699 213.804 438.827 213.218 437.7C212.633 436.567 212.34 435.227 212.34 433.68C212.34 432.172 212.633 430.848 213.218 429.708C213.804 428.569 214.628 427.681 215.691 427.045C216.761 426.408 218.015 426.09 219.453 426.09C220.421 426.09 221.321 426.246 222.155 426.558C222.995 426.863 223.727 427.325 224.351 427.942C224.981 428.56 225.471 429.336 225.822 430.272C226.172 431.201 226.347 432.29 226.347 433.537V434.654H213.963V432.134H222.518C222.518 431.548 222.391 431.029 222.136 430.577C221.881 430.125 221.528 429.772 221.076 429.517C220.631 429.257 220.112 429.126 219.52 429.126C218.902 429.126 218.355 429.269 217.878 429.556C217.407 429.836 217.037 430.214 216.77 430.692C216.503 431.163 216.366 431.688 216.36 432.267V434.664C216.36 435.389 216.493 436.016 216.761 436.545C217.034 437.073 217.419 437.48 217.916 437.767C218.412 438.053 219.001 438.197 219.682 438.197C220.134 438.197 220.548 438.133 220.923 438.006C221.299 437.878 221.62 437.687 221.888 437.433C222.155 437.178 222.359 436.866 222.499 436.497L226.261 436.745C226.07 437.649 225.678 438.438 225.086 439.113C224.501 439.781 223.743 440.303 222.814 440.679C221.891 441.048 220.825 441.233 219.615 441.233ZM233.068 432.468V440.946H229.001V426.281H232.877V428.868H233.049C233.374 428.015 233.918 427.341 234.682 426.844C235.446 426.341 236.372 426.09 237.46 426.09C238.479 426.09 239.367 426.313 240.124 426.758C240.882 427.204 241.47 427.84 241.891 428.668C242.311 429.489 242.521 430.469 242.521 431.608V440.946H238.453V432.334C238.46 431.437 238.231 430.736 237.766 430.234C237.301 429.724 236.662 429.47 235.847 429.47C235.299 429.47 234.816 429.588 234.395 429.823C233.982 430.059 233.657 430.402 233.422 430.854C233.192 431.3 233.075 431.838 233.068 432.468ZM257.929 430.463L254.205 430.692C254.141 430.374 254.004 430.087 253.794 429.833C253.584 429.572 253.307 429.365 252.964 429.212C252.626 429.053 252.222 428.973 251.751 428.973C251.121 428.973 250.589 429.107 250.157 429.374C249.724 429.635 249.507 429.985 249.507 430.425C249.507 430.775 249.647 431.071 249.927 431.312C250.208 431.554 250.688 431.749 251.369 431.895L254.024 432.43C255.449 432.722 256.512 433.193 257.213 433.843C257.913 434.492 258.263 435.345 258.263 436.402C258.263 437.363 257.98 438.206 257.413 438.932C256.853 439.657 256.083 440.224 255.102 440.631C254.129 441.032 253.005 441.233 251.732 441.233C249.791 441.233 248.244 440.829 247.092 440.02C245.946 439.205 245.274 438.098 245.077 436.697L249.078 436.487C249.199 437.079 249.491 437.531 249.956 437.843C250.421 438.149 251.016 438.302 251.742 438.302C252.454 438.302 253.027 438.165 253.46 437.891C253.899 437.611 254.122 437.251 254.129 436.812C254.122 436.443 253.966 436.141 253.661 435.905C253.355 435.663 252.884 435.479 252.248 435.351L249.708 434.845C248.276 434.559 247.21 434.062 246.509 433.356C245.816 432.649 245.469 431.749 245.469 430.654C245.469 429.712 245.723 428.9 246.232 428.219C246.748 427.538 247.471 427.013 248.4 426.644C249.336 426.274 250.43 426.09 251.684 426.09C253.537 426.09 254.994 426.481 256.057 427.264C257.127 428.047 257.75 429.113 257.929 430.463ZM265.006 441.223C264.07 441.223 263.236 441.061 262.504 440.736C261.772 440.405 261.193 439.918 260.767 439.275C260.347 438.626 260.137 437.818 260.137 436.85C260.137 436.036 260.286 435.351 260.585 434.797C260.884 434.244 261.292 433.798 261.807 433.461C262.323 433.123 262.909 432.869 263.564 432.697C264.226 432.525 264.92 432.404 265.646 432.334C266.499 432.245 267.186 432.162 267.708 432.086C268.23 432.003 268.609 431.882 268.844 431.723C269.08 431.564 269.197 431.328 269.197 431.017V430.959C269.197 430.355 269.007 429.887 268.625 429.556C268.249 429.225 267.714 429.059 267.021 429.059C266.289 429.059 265.706 429.222 265.273 429.546C264.84 429.864 264.554 430.265 264.414 430.749L260.652 430.444C260.843 429.552 261.219 428.782 261.779 428.133C262.339 427.477 263.061 426.975 263.946 426.624C264.837 426.268 265.868 426.09 267.04 426.09C267.854 426.09 268.634 426.185 269.379 426.376C270.13 426.567 270.795 426.863 271.374 427.264C271.96 427.665 272.421 428.181 272.759 428.811C273.096 429.435 273.265 430.183 273.265 431.055V440.946H269.408V438.913H269.293C269.057 439.371 268.742 439.775 268.348 440.125C267.953 440.469 267.479 440.739 266.925 440.937C266.371 441.128 265.732 441.223 265.006 441.223ZM266.171 438.416C266.769 438.416 267.297 438.298 267.756 438.063C268.214 437.821 268.574 437.496 268.835 437.089C269.096 436.682 269.226 436.22 269.226 435.705V434.148C269.099 434.231 268.924 434.307 268.701 434.377C268.485 434.441 268.239 434.501 267.966 434.559C267.692 434.61 267.418 434.657 267.145 434.702C266.871 434.74 266.623 434.775 266.4 434.807C265.923 434.877 265.506 434.988 265.149 435.141C264.793 435.294 264.516 435.501 264.319 435.762C264.121 436.016 264.023 436.335 264.023 436.717C264.023 437.27 264.223 437.694 264.624 437.986C265.031 438.273 265.547 438.416 266.171 438.416ZM283.028 446.751C281.71 446.751 280.58 446.57 279.638 446.207C278.702 445.851 277.958 445.364 277.404 444.746C276.85 444.129 276.49 443.435 276.325 442.665L280.087 442.159C280.201 442.452 280.383 442.725 280.631 442.98C280.879 443.235 281.207 443.438 281.614 443.591C282.028 443.75 282.531 443.83 283.123 443.83C284.008 443.83 284.737 443.613 285.309 443.18C285.889 442.754 286.178 442.038 286.178 441.032V438.349H286.006C285.828 438.757 285.561 439.142 285.204 439.505C284.848 439.867 284.39 440.163 283.83 440.393C283.269 440.622 282.601 440.736 281.825 440.736C280.723 440.736 279.721 440.482 278.817 439.972C277.919 439.457 277.203 438.671 276.669 437.614C276.14 436.551 275.876 435.208 275.876 433.585C275.876 431.924 276.147 430.536 276.688 429.422C277.229 428.308 277.948 427.474 278.846 426.92C279.749 426.367 280.739 426.09 281.815 426.09C282.636 426.09 283.324 426.23 283.877 426.51C284.431 426.784 284.877 427.127 285.214 427.541C285.558 427.948 285.822 428.349 286.006 428.744H286.159V426.281H290.198V441.09C290.198 442.337 289.892 443.381 289.281 444.221C288.67 445.061 287.824 445.692 286.742 446.112C285.666 446.538 284.428 446.751 283.028 446.751ZM283.113 437.681C283.769 437.681 284.323 437.519 284.775 437.194C285.233 436.863 285.583 436.392 285.825 435.781C286.073 435.163 286.197 434.425 286.197 433.566C286.197 432.706 286.077 431.962 285.835 431.332C285.593 430.695 285.243 430.202 284.784 429.852C284.326 429.502 283.769 429.327 283.113 429.327C282.445 429.327 281.882 429.508 281.424 429.871C280.965 430.227 280.618 430.724 280.383 431.36C280.147 431.997 280.03 432.732 280.03 433.566C280.03 434.412 280.147 435.144 280.383 435.762C280.625 436.373 280.972 436.847 281.424 437.184C281.882 437.515 282.445 437.681 283.113 437.681ZM300.118 441.233C298.61 441.233 297.311 440.927 296.223 440.316C295.141 439.699 294.307 438.827 293.721 437.7C293.136 436.567 292.843 435.227 292.843 433.68C292.843 432.172 293.136 430.848 293.721 429.708C294.307 428.569 295.131 427.681 296.194 427.045C297.263 426.408 298.517 426.09 299.956 426.09C300.923 426.09 301.824 426.246 302.658 426.558C303.498 426.863 304.23 427.325 304.854 427.942C305.484 428.56 305.974 429.336 306.324 430.272C306.674 431.201 306.849 432.29 306.849 433.537V434.654H294.466V432.134H303.021C303.021 431.548 302.893 431.029 302.639 430.577C302.384 430.125 302.031 429.772 301.579 429.517C301.133 429.257 300.615 429.126 300.023 429.126C299.405 429.126 298.858 429.269 298.381 429.556C297.909 429.836 297.54 430.214 297.273 430.692C297.006 431.163 296.869 431.688 296.862 432.267V434.664C296.862 435.389 296.996 436.016 297.263 436.545C297.537 437.073 297.922 437.48 298.419 437.767C298.915 438.053 299.504 438.197 300.185 438.197C300.637 438.197 301.051 438.133 301.426 438.006C301.802 437.878 302.123 437.687 302.391 437.433C302.658 437.178 302.862 436.866 303.002 436.497L306.764 436.745C306.573 437.649 306.181 438.438 305.589 439.113C305.004 439.781 304.246 440.303 303.317 440.679C302.394 441.048 301.328 441.233 300.118 441.233ZM309.504 440.946V426.281H313.38V428.868H313.552C313.858 428.009 314.367 427.331 315.08 426.835C315.793 426.338 316.646 426.09 317.639 426.09C318.644 426.09 319.5 426.341 320.207 426.844C320.913 427.341 321.385 428.015 321.62 428.868H321.773C322.072 428.028 322.613 427.356 323.396 426.854C324.185 426.344 325.118 426.09 326.193 426.09C327.562 426.09 328.673 426.526 329.526 427.398C330.385 428.264 330.815 429.492 330.815 431.083V440.946H326.757V431.885C326.757 431.071 326.54 430.46 326.108 430.052C325.675 429.645 325.134 429.441 324.484 429.441C323.746 429.441 323.17 429.677 322.756 430.148C322.342 430.612 322.136 431.227 322.136 431.99V440.946H318.192V431.799C318.192 431.08 317.985 430.507 317.572 430.081C317.164 429.654 316.626 429.441 315.958 429.441C315.506 429.441 315.099 429.556 314.736 429.785C314.38 430.008 314.096 430.323 313.886 430.73C313.676 431.131 313.571 431.602 313.571 432.143V440.946H309.504ZM129.253 474.233C127.745 474.233 126.446 473.927 125.358 473.316C124.276 472.699 123.442 471.827 122.856 470.7C122.271 469.567 121.978 468.227 121.978 466.68C121.978 465.172 122.271 463.848 122.856 462.708C123.442 461.569 124.266 460.681 125.329 460.045C126.398 459.408 127.652 459.09 129.091 459.09C130.058 459.09 130.959 459.246 131.793 459.558C132.633 459.863 133.365 460.325 133.989 460.942C134.619 461.56 135.109 462.336 135.459 463.272C135.809 464.201 135.984 465.29 135.984 466.537V467.654H123.601V465.134H132.156C132.156 464.548 132.028 464.029 131.774 463.577C131.519 463.125 131.166 462.772 130.714 462.517C130.268 462.257 129.75 462.126 129.158 462.126C128.54 462.126 127.993 462.269 127.515 462.556C127.044 462.836 126.675 463.214 126.408 463.692C126.141 464.163 126.004 464.688 125.997 465.267V467.664C125.997 468.389 126.131 469.016 126.398 469.545C126.672 470.073 127.057 470.48 127.554 470.767C128.05 471.053 128.639 471.197 129.32 471.197C129.772 471.197 130.186 471.133 130.561 471.006C130.937 470.878 131.258 470.687 131.526 470.433C131.793 470.178 131.997 469.866 132.137 469.497L135.898 469.745C135.708 470.649 135.316 471.438 134.724 472.113C134.139 472.781 133.381 473.303 132.452 473.679C131.529 474.048 130.463 474.233 129.253 474.233ZM142.706 465.468V473.946H138.639V459.281H142.515V461.868H142.687C143.012 461.015 143.556 460.341 144.32 459.844C145.084 459.341 146.01 459.09 147.098 459.09C148.117 459.09 149.005 459.313 149.762 459.758C150.519 460.204 151.108 460.84 151.528 461.668C151.948 462.489 152.159 463.469 152.159 464.608V473.946H148.091V465.334C148.097 464.437 147.868 463.736 147.404 463.234C146.939 462.724 146.299 462.47 145.485 462.47C144.937 462.47 144.453 462.588 144.033 462.823C143.62 463.059 143.295 463.402 143.059 463.854C142.83 464.3 142.712 464.838 142.706 465.468ZM161.99 474.233C160.488 474.233 159.196 473.914 158.114 473.278C157.038 472.635 156.211 471.744 155.632 470.605C155.059 469.465 154.772 468.154 154.772 466.671C154.772 465.169 155.062 463.851 155.641 462.718C156.227 461.579 157.057 460.691 158.133 460.054C159.209 459.411 160.488 459.09 161.971 459.09C163.251 459.09 164.371 459.322 165.332 459.787C166.293 460.251 167.054 460.904 167.614 461.744C168.174 462.584 168.483 463.571 168.54 464.704H164.702C164.594 463.972 164.307 463.383 163.843 462.938C163.384 462.486 162.783 462.26 162.038 462.26C161.408 462.26 160.857 462.432 160.386 462.775C159.922 463.113 159.559 463.606 159.298 464.255C159.037 464.904 158.906 465.691 158.906 466.614C158.906 467.549 159.034 468.345 159.288 469C159.549 469.656 159.915 470.156 160.386 470.5C160.857 470.843 161.408 471.015 162.038 471.015C162.503 471.015 162.92 470.92 163.289 470.729C163.664 470.538 163.973 470.261 164.215 469.898C164.463 469.529 164.626 469.086 164.702 468.571H168.54C168.477 469.691 168.171 470.678 167.624 471.531C167.083 472.377 166.335 473.039 165.38 473.517C164.425 473.994 163.295 474.233 161.99 474.233ZM177.771 474.233C176.288 474.233 175.005 473.918 173.923 473.287C172.847 472.651 172.016 471.766 171.431 470.633C170.845 469.494 170.552 468.173 170.552 466.671C170.552 465.156 170.845 463.832 171.431 462.699C172.016 461.56 172.847 460.675 173.923 460.045C175.005 459.408 176.288 459.09 177.771 459.09C179.254 459.09 180.533 459.408 181.609 460.045C182.691 460.675 183.525 461.56 184.11 462.699C184.696 463.832 184.989 465.156 184.989 466.671C184.989 468.173 184.696 469.494 184.11 470.633C183.525 471.766 182.691 472.651 181.609 473.287C180.533 473.918 179.254 474.233 177.771 474.233ZM177.79 471.082C178.464 471.082 179.028 470.891 179.48 470.509C179.932 470.121 180.272 469.592 180.501 468.924C180.737 468.256 180.855 467.495 180.855 466.642C180.855 465.789 180.737 465.029 180.501 464.36C180.272 463.692 179.932 463.164 179.48 462.775C179.028 462.387 178.464 462.193 177.79 462.193C177.109 462.193 176.536 462.387 176.071 462.775C175.613 463.164 175.266 463.692 175.03 464.36C174.801 465.029 174.687 465.789 174.687 466.642C174.687 467.495 174.801 468.256 175.03 468.924C175.266 469.592 175.613 470.121 176.071 470.509C176.536 470.891 177.109 471.082 177.79 471.082ZM191.701 465.468V473.946H187.634V459.281H191.51V461.868H191.682C192.007 461.015 192.551 460.341 193.315 459.844C194.078 459.341 195.005 459.09 196.093 459.09C197.111 459.09 197.999 459.313 198.757 459.758C199.514 460.204 200.103 460.84 200.523 461.668C200.943 462.489 201.153 463.469 201.153 464.608V473.946H197.086V465.334C197.092 464.437 196.863 463.736 196.399 463.234C195.934 462.724 195.294 462.47 194.479 462.47C193.932 462.47 193.448 462.588 193.028 462.823C192.614 463.059 192.29 463.402 192.054 463.854C191.825 464.3 191.707 464.838 191.701 465.468ZM212.16 459.281V462.336H203.328V459.281H212.16ZM205.333 455.767H209.4V469.44C209.4 469.815 209.458 470.108 209.572 470.318C209.687 470.522 209.846 470.665 210.05 470.748C210.26 470.831 210.502 470.872 210.775 470.872C210.966 470.872 211.157 470.856 211.348 470.824C211.539 470.786 211.685 470.757 211.787 470.738L212.427 473.765C212.223 473.829 211.937 473.902 211.568 473.984C211.199 474.074 210.75 474.128 210.221 474.147C209.241 474.185 208.382 474.054 207.644 473.755C206.912 473.456 206.342 472.992 205.934 472.361C205.527 471.731 205.327 470.936 205.333 469.974V455.767ZM214.809 473.946V459.281H218.753V461.84H218.905C219.173 460.929 219.621 460.242 220.252 459.777C220.882 459.306 221.607 459.071 222.428 459.071C222.632 459.071 222.852 459.083 223.087 459.109C223.323 459.134 223.53 459.169 223.708 459.214V462.823C223.517 462.766 223.253 462.715 222.915 462.67C222.578 462.626 222.269 462.603 221.989 462.603C221.391 462.603 220.856 462.734 220.385 462.995C219.921 463.249 219.551 463.606 219.278 464.064C219.01 464.523 218.877 465.051 218.877 465.649V473.946H214.809ZM229.573 474.223C228.637 474.223 227.803 474.061 227.071 473.736C226.339 473.405 225.76 472.918 225.333 472.275C224.913 471.626 224.703 470.818 224.703 469.85C224.703 469.036 224.853 468.351 225.152 467.797C225.451 467.244 225.859 466.798 226.374 466.461C226.89 466.123 227.475 465.869 228.131 465.697C228.793 465.525 229.487 465.404 230.212 465.334C231.065 465.245 231.753 465.162 232.275 465.086C232.797 465.003 233.175 464.882 233.411 464.723C233.646 464.564 233.764 464.328 233.764 464.017V463.959C233.764 463.355 233.573 462.887 233.191 462.556C232.816 462.225 232.281 462.059 231.587 462.059C230.855 462.059 230.273 462.222 229.84 462.546C229.407 462.864 229.121 463.265 228.981 463.749L225.219 463.444C225.41 462.552 225.785 461.782 226.345 461.133C226.906 460.477 227.628 459.975 228.513 459.624C229.404 459.268 230.435 459.09 231.606 459.09C232.421 459.09 233.201 459.185 233.946 459.376C234.697 459.567 235.362 459.863 235.941 460.264C236.527 460.665 236.988 461.181 237.325 461.811C237.663 462.435 237.832 463.183 237.832 464.055V473.946H233.974V471.913H233.86C233.624 472.371 233.309 472.775 232.914 473.125C232.52 473.469 232.046 473.739 231.492 473.937C230.938 474.128 230.298 474.223 229.573 474.223ZM230.737 471.416C231.336 471.416 231.864 471.298 232.322 471.063C232.781 470.821 233.14 470.496 233.401 470.089C233.662 469.682 233.793 469.22 233.793 468.705V467.148C233.665 467.231 233.49 467.307 233.268 467.377C233.051 467.441 232.806 467.501 232.532 467.559C232.259 467.61 231.985 467.657 231.711 467.702C231.438 467.74 231.189 467.775 230.967 467.807C230.489 467.877 230.072 467.988 229.716 468.141C229.359 468.294 229.082 468.501 228.885 468.762C228.688 469.016 228.589 469.335 228.589 469.717C228.589 470.27 228.79 470.694 229.191 470.986C229.598 471.273 230.114 471.416 230.737 471.416ZM246.391 474.185C245.277 474.185 244.268 473.899 243.365 473.326C242.467 472.746 241.754 471.897 241.226 470.776C240.704 469.65 240.443 468.268 240.443 466.633C240.443 464.952 240.713 463.555 241.254 462.441C241.795 461.321 242.515 460.484 243.412 459.93C244.316 459.37 245.306 459.09 246.382 459.09C247.203 459.09 247.887 459.23 248.434 459.51C248.988 459.784 249.434 460.127 249.771 460.541C250.115 460.948 250.376 461.349 250.554 461.744H250.678V454.392H254.736V473.946H250.726V471.598H250.554C250.363 472.005 250.093 472.409 249.742 472.81C249.399 473.205 248.95 473.533 248.396 473.794C247.849 474.054 247.18 474.185 246.391 474.185ZM247.68 470.948C248.336 470.948 248.89 470.77 249.341 470.414C249.8 470.051 250.15 469.545 250.392 468.895C250.64 468.246 250.764 467.486 250.764 466.614C250.764 465.741 250.643 464.984 250.401 464.341C250.159 463.698 249.809 463.202 249.351 462.852C248.893 462.502 248.336 462.327 247.68 462.327C247.012 462.327 246.448 462.508 245.99 462.871C245.532 463.234 245.185 463.736 244.949 464.379C244.714 465.022 244.596 465.767 244.596 466.614C244.596 467.466 244.714 468.221 244.949 468.876C245.191 469.526 245.538 470.035 245.99 470.404C246.448 470.767 247.012 470.948 247.68 470.948ZM262.262 474.223C261.326 474.223 260.493 474.061 259.761 473.736C259.029 473.405 258.449 472.918 258.023 472.275C257.603 471.626 257.393 470.818 257.393 469.85C257.393 469.036 257.542 468.351 257.841 467.797C258.141 467.244 258.548 466.798 259.064 466.461C259.579 466.123 260.165 465.869 260.82 465.697C261.482 465.525 262.176 465.404 262.902 465.334C263.755 465.245 264.442 465.162 264.964 465.086C265.486 465.003 265.865 464.882 266.1 464.723C266.336 464.564 266.454 464.328 266.454 464.017V463.959C266.454 463.355 266.263 462.887 265.881 462.556C265.505 462.225 264.971 462.059 264.277 462.059C263.545 462.059 262.962 462.222 262.529 462.546C262.097 462.864 261.81 463.265 261.67 463.749L257.908 463.444C258.099 462.552 258.475 461.782 259.035 461.133C259.595 460.477 260.318 459.975 261.202 459.624C262.093 459.268 263.125 459.09 264.296 459.09C265.111 459.09 265.89 459.185 266.635 459.376C267.386 459.567 268.051 459.863 268.631 460.264C269.216 460.665 269.678 461.181 270.015 461.811C270.352 462.435 270.521 463.183 270.521 464.055V473.946H266.664V471.913H266.549C266.314 472.371 265.999 472.775 265.604 473.125C265.209 473.469 264.735 473.739 264.181 473.937C263.627 474.128 262.988 474.223 262.262 474.223ZM263.427 471.416C264.025 471.416 264.554 471.298 265.012 471.063C265.47 470.821 265.83 470.496 266.091 470.089C266.352 469.682 266.482 469.22 266.482 468.705V467.148C266.355 467.231 266.18 467.307 265.957 467.377C265.741 467.441 265.496 467.501 265.222 467.559C264.948 467.61 264.675 467.657 264.401 467.702C264.127 467.74 263.879 467.775 263.656 467.807C263.179 467.877 262.762 467.988 262.405 468.141C262.049 468.294 261.772 468.501 261.575 468.762C261.377 469.016 261.279 469.335 261.279 469.717C261.279 470.27 261.479 470.694 261.88 470.986C262.288 471.273 262.803 471.416 263.427 471.416Z" fill="#310055"/>
<path d="M64.4251 526.154H60.2049V513.118H64.5587C65.836 513.118 66.933 513.379 67.8496 513.901C68.7662 514.418 69.4685 515.163 69.9565 516.135C70.4487 517.102 70.6948 518.263 70.6948 519.617C70.6948 520.975 70.4466 522.142 69.9501 523.118C69.4578 524.094 68.7449 524.845 67.8114 525.371C66.8778 525.893 65.749 526.154 64.4251 526.154ZM62.1718 524.435H64.3168C65.3098 524.435 66.1352 524.248 66.7929 523.875C67.4507 523.497 67.9429 522.952 68.2697 522.239C68.5964 521.522 68.7598 520.648 68.7598 519.617C68.7598 518.594 68.5964 517.726 68.2697 517.013C67.9472 516.3 67.4655 515.759 66.8248 515.39C66.184 515.021 65.3883 514.836 64.4378 514.836H62.1718V524.435ZM72.9879 526.154V516.377H74.8911V526.154H72.9879ZM73.9491 514.868C73.6181 514.868 73.3337 514.758 73.0961 514.537C72.8627 514.312 72.746 514.045 72.746 513.735C72.746 513.421 72.8627 513.154 73.0961 512.933C73.3337 512.708 73.6181 512.596 73.9491 512.596C74.28 512.596 74.5622 512.708 74.7956 512.933C75.0333 513.154 75.1521 513.421 75.1521 513.735C75.1521 514.045 75.0333 514.312 74.7956 514.537C74.5622 514.758 74.28 514.868 73.9491 514.868ZM81.5507 530.024C80.7742 530.024 80.1058 529.922 79.5457 529.718C78.9898 529.515 78.5357 529.245 78.1835 528.91C77.8313 528.575 77.5682 528.208 77.3942 527.809L79.0301 527.134C79.1447 527.321 79.2975 527.518 79.4884 527.726C79.6836 527.938 79.9467 528.119 80.2777 528.267C80.6129 528.416 81.0436 528.49 81.5698 528.49C82.2912 528.49 82.8874 528.314 83.3585 527.962C83.8295 527.614 84.065 527.058 84.065 526.294V524.372H83.9441C83.8295 524.579 83.664 524.811 83.4476 525.065C83.2354 525.32 82.9426 525.541 82.5692 525.727C82.1958 525.914 81.7099 526.007 81.1115 526.007C80.3392 526.007 79.6433 525.827 79.0237 525.466C78.4084 525.101 77.9204 524.565 77.5597 523.856C77.2033 523.143 77.0251 522.267 77.0251 521.227C77.0251 520.187 77.2012 519.296 77.5534 518.554C77.9098 517.811 78.3978 517.242 79.0174 516.848C79.6369 516.449 80.3392 516.249 81.1243 516.249C81.7311 516.249 82.2212 516.351 82.5946 516.555C82.9681 516.754 83.2588 516.988 83.4667 517.255C83.6789 517.523 83.8422 517.758 83.9568 517.962H84.0968V516.377H85.9619V526.37C85.9619 527.21 85.7667 527.9 85.3763 528.439C84.9859 528.978 84.4575 529.377 83.7913 529.636C83.1293 529.894 82.3825 530.024 81.5507 530.024ZM81.5317 524.429C82.0791 524.429 82.5416 524.302 82.9193 524.047C83.3012 523.788 83.5897 523.419 83.7849 522.939C83.9844 522.456 84.0841 521.876 84.0841 521.202C84.0841 520.544 83.9865 519.965 83.7913 519.464C83.5961 518.963 83.3097 518.573 82.932 518.293C82.5543 518.008 82.0875 517.866 81.5317 517.866C80.9588 517.866 80.4814 518.015 80.0995 518.312C79.7176 518.605 79.429 519.004 79.2338 519.508C79.0428 520.013 78.9474 520.578 78.9474 521.202C78.9474 521.842 79.045 522.405 79.2402 522.888C79.4354 523.372 79.7239 523.75 80.1058 524.021C80.492 524.293 80.9673 524.429 81.5317 524.429ZM88.5143 526.154V516.377H90.4175V526.154H88.5143ZM89.4755 514.868C89.1445 514.868 88.8602 514.758 88.6225 514.537C88.3891 514.312 88.2724 514.045 88.2724 513.735C88.2724 513.421 88.3891 513.154 88.6225 512.933C88.8602 512.708 89.1445 512.596 89.4755 512.596C89.8065 512.596 90.0887 512.708 90.3221 512.933C90.5597 513.154 90.6785 513.421 90.6785 513.735C90.6785 514.045 90.5597 514.312 90.3221 514.537C90.0887 514.758 89.8065 514.868 89.4755 514.868ZM97.5418 516.377V517.904H92.2014V516.377H97.5418ZM93.6336 514.034H95.5368V523.283C95.5368 523.652 95.5919 523.93 95.7023 524.117C95.8126 524.299 95.9548 524.425 96.1287 524.492C96.307 524.556 96.5001 524.588 96.708 524.588C96.8608 524.588 96.9944 524.577 97.109 524.556C97.2236 524.535 97.3127 524.518 97.3763 524.505L97.7201 526.077C97.6097 526.12 97.4527 526.162 97.249 526.205C97.0453 526.251 96.7907 526.277 96.4852 526.281C95.9845 526.29 95.5177 526.2 95.0848 526.014C94.652 525.827 94.3019 525.539 94.0346 525.148C93.7672 524.758 93.6336 524.268 93.6336 523.678V514.034ZM103.756 526.351C102.793 526.351 101.963 526.145 101.267 525.734C100.575 525.318 100.041 524.734 99.663 523.983C99.2896 523.228 99.1029 522.343 99.1029 521.329C99.1029 520.327 99.2896 519.445 99.663 518.681C100.041 517.917 100.567 517.321 101.242 516.892C101.921 516.464 102.714 516.249 103.622 516.249C104.174 516.249 104.709 516.341 105.226 516.523C105.744 516.706 106.209 516.992 106.62 517.383C107.032 517.773 107.357 518.28 107.594 518.904C107.832 519.523 107.951 520.277 107.951 521.163V521.838H100.179V520.412H106.086C106.086 519.912 105.984 519.468 105.78 519.082C105.576 518.692 105.29 518.384 104.921 518.159C104.556 517.934 104.127 517.822 103.635 517.822C103.1 517.822 102.633 517.953 102.235 518.216C101.84 518.475 101.534 518.815 101.318 519.235C101.106 519.651 101 520.103 101 520.591V521.705C101 522.358 101.114 522.914 101.343 523.372C101.577 523.83 101.901 524.181 102.317 524.422C102.733 524.66 103.219 524.779 103.775 524.779C104.136 524.779 104.465 524.728 104.762 524.626C105.059 524.52 105.315 524.363 105.532 524.155C105.748 523.947 105.914 523.69 106.028 523.385L107.83 523.71C107.685 524.24 107.427 524.705 107.053 525.104C106.684 525.498 106.219 525.806 105.659 526.027C105.103 526.243 104.469 526.351 103.756 526.351ZM120.999 522.099V516.377H122.909V526.154H121.038V524.461H120.936C120.711 524.983 120.35 525.418 119.854 525.766C119.361 526.109 118.748 526.281 118.014 526.281C117.386 526.281 116.83 526.143 116.346 525.867C115.867 525.587 115.489 525.174 115.213 524.626C114.942 524.079 114.806 523.402 114.806 522.596V516.377H116.709V522.366C116.709 523.033 116.894 523.563 117.263 523.958C117.632 524.352 118.112 524.55 118.701 524.55C119.058 524.55 119.412 524.461 119.764 524.282C120.121 524.104 120.416 523.835 120.649 523.474C120.887 523.113 121.004 522.655 120.999 522.099ZM125.466 526.154V516.377H127.293V517.968H127.414C127.618 517.429 127.951 517.009 128.413 516.708C128.876 516.402 129.43 516.249 130.075 516.249C130.728 516.249 131.276 516.402 131.717 516.708C132.162 517.013 132.491 517.433 132.703 517.968H132.805C133.039 517.446 133.41 517.03 133.919 516.721C134.428 516.406 135.035 516.249 135.74 516.249C136.627 516.249 137.35 516.527 137.91 517.083C138.475 517.639 138.757 518.477 138.757 519.598V526.154H136.854V519.776C136.854 519.114 136.673 518.634 136.313 518.337C135.952 518.04 135.521 517.892 135.02 517.892C134.401 517.892 133.919 518.083 133.575 518.465C133.232 518.842 133.06 519.328 133.06 519.922V526.154H131.163V519.655C131.163 519.124 130.998 518.698 130.667 518.375C130.336 518.053 129.905 517.892 129.374 517.892C129.014 517.892 128.681 517.987 128.375 518.178C128.074 518.365 127.83 518.626 127.643 518.961C127.461 519.296 127.369 519.685 127.369 520.126V526.154H125.466ZM150.615 516.377V517.904H145.275V516.377H150.615ZM146.707 514.034H148.61V523.283C148.61 523.652 148.665 523.93 148.776 524.117C148.886 524.299 149.028 524.425 149.202 524.492C149.38 524.556 149.573 524.588 149.781 524.588C149.934 524.588 150.068 524.577 150.182 524.556C150.297 524.535 150.386 524.518 150.45 524.505L150.793 526.077C150.683 526.12 150.526 526.162 150.322 526.205C150.119 526.251 149.864 526.277 149.559 526.281C149.058 526.29 148.591 526.2 148.158 526.014C147.725 525.827 147.375 525.539 147.108 525.148C146.841 524.758 146.707 524.268 146.707 523.678V514.034ZM156.829 526.351C155.866 526.351 155.036 526.145 154.341 525.734C153.649 525.318 153.114 524.734 152.736 523.983C152.363 523.228 152.176 522.343 152.176 521.329C152.176 520.327 152.363 519.445 152.736 518.681C153.114 517.917 153.64 517.321 154.315 516.892C154.994 516.464 155.788 516.249 156.696 516.249C157.247 516.249 157.782 516.341 158.3 516.523C158.817 516.706 159.282 516.992 159.694 517.383C160.105 517.773 160.43 518.28 160.668 518.904C160.905 519.523 161.024 520.277 161.024 521.163V521.838H153.252V520.412H159.159C159.159 519.912 159.057 519.468 158.853 519.082C158.65 518.692 158.363 518.384 157.994 518.159C157.629 517.934 157.201 517.822 156.708 517.822C156.174 517.822 155.707 517.953 155.308 518.216C154.913 518.475 154.608 518.815 154.391 519.235C154.179 519.651 154.073 520.103 154.073 520.591V521.705C154.073 522.358 154.188 522.914 154.417 523.372C154.65 523.83 154.975 524.181 155.391 524.422C155.807 524.66 156.293 524.779 156.848 524.779C157.209 524.779 157.538 524.728 157.835 524.626C158.132 524.52 158.389 524.363 158.605 524.155C158.822 523.947 158.987 523.69 159.102 523.385L160.903 523.71C160.759 524.24 160.5 524.705 160.127 525.104C159.757 525.498 159.293 525.806 158.733 526.027C158.177 526.243 157.542 526.351 156.829 526.351ZM164.41 516.377L166.568 520.183L168.745 516.377H170.826L167.778 521.265L170.852 526.154H168.771L166.568 522.5L164.372 526.154H162.284L165.327 521.265L162.323 516.377H164.41ZM177.344 516.377V517.904H172.004V516.377H177.344ZM173.436 514.034H175.339V523.283C175.339 523.652 175.395 523.93 175.505 524.117C175.615 524.299 175.757 524.425 175.931 524.492C176.11 524.556 176.303 524.588 176.511 524.588C176.663 524.588 176.797 524.577 176.912 524.556C177.026 524.535 177.115 524.518 177.179 524.505L177.523 526.077C177.412 526.12 177.255 526.162 177.052 526.205C176.848 526.251 176.593 526.277 176.288 526.281C175.787 526.29 175.32 526.2 174.888 526.014C174.455 525.827 174.105 525.539 173.837 525.148C173.57 524.758 173.436 524.268 173.436 523.678V514.034ZM183.463 526.351C182.546 526.351 181.747 526.141 181.063 525.721C180.38 525.301 179.85 524.713 179.472 523.958C179.094 523.202 178.906 522.32 178.906 521.31C178.906 520.296 179.094 519.409 179.472 518.649C179.85 517.89 180.38 517.3 181.063 516.88C181.747 516.46 182.546 516.249 183.463 516.249C184.38 516.249 185.18 516.46 185.863 516.88C186.546 517.3 187.076 517.89 187.454 518.649C187.832 519.409 188.021 520.296 188.021 521.31C188.021 522.32 187.832 523.202 187.454 523.958C187.076 524.713 186.546 525.301 185.863 525.721C185.18 526.141 184.38 526.351 183.463 526.351ZM183.469 524.753C184.064 524.753 184.556 524.596 184.946 524.282C185.337 523.968 185.625 523.55 185.812 523.028C186.003 522.507 186.098 521.932 186.098 521.303C186.098 520.68 186.003 520.107 185.812 519.585C185.625 519.059 185.337 518.636 184.946 518.318C184.556 518 184.064 517.841 183.469 517.841C182.871 517.841 182.375 518 181.98 518.318C181.59 518.636 181.299 519.059 181.108 519.585C180.921 520.107 180.828 520.68 180.828 521.303C180.828 521.932 180.921 522.507 181.108 523.028C181.299 523.55 181.59 523.968 181.98 524.282C182.375 524.596 182.871 524.753 183.469 524.753ZM201.489 529.82V524.633H201.375C201.26 524.84 201.095 525.078 200.878 525.345C200.666 525.613 200.373 525.846 200 526.046C199.627 526.245 199.143 526.345 198.549 526.345C197.759 526.345 197.055 526.143 196.435 525.74C195.82 525.333 195.336 524.753 194.984 524.002C194.636 523.247 194.462 522.341 194.462 521.284C194.462 520.228 194.638 519.324 194.991 518.573C195.347 517.822 195.835 517.247 196.455 516.848C197.074 516.449 197.776 516.249 198.561 516.249C199.168 516.249 199.656 516.351 200.025 516.555C200.399 516.754 200.687 516.988 200.891 517.255C201.099 517.523 201.26 517.758 201.375 517.962H201.534V516.377H203.393V529.82H201.489ZM198.969 524.722C199.516 524.722 199.979 524.577 200.356 524.289C200.738 523.996 201.027 523.591 201.222 523.073C201.422 522.555 201.521 521.953 201.521 521.265C201.521 520.586 201.424 519.992 201.228 519.483C201.033 518.974 200.747 518.577 200.369 518.293C199.992 518.008 199.525 517.866 198.969 517.866C198.396 517.866 197.919 518.015 197.537 518.312C197.155 518.609 196.866 519.014 196.671 519.528C196.48 520.041 196.385 520.62 196.385 521.265C196.385 521.919 196.482 522.507 196.677 523.028C196.873 523.55 197.161 523.964 197.543 524.27C197.929 524.571 198.404 524.722 198.969 524.722ZM212.145 522.099V516.377H214.054V526.154H212.183V524.461H212.081C211.856 524.983 211.496 525.418 210.999 525.766C210.507 526.109 209.894 526.281 209.16 526.281C208.532 526.281 207.976 526.143 207.492 525.867C207.012 525.587 206.635 525.174 206.359 524.626C206.087 524.079 205.951 523.402 205.951 522.596V516.377H207.855V522.366C207.855 523.033 208.039 523.563 208.408 523.958C208.778 524.352 209.257 524.55 209.847 524.55C210.203 524.55 210.558 524.461 210.91 524.282C211.266 524.104 211.561 523.835 211.795 523.474C212.032 523.113 212.149 522.655 212.145 522.099ZM220.825 526.351C219.862 526.351 219.033 526.145 218.337 525.734C217.645 525.318 217.11 524.734 216.733 523.983C216.359 523.228 216.172 522.343 216.172 521.329C216.172 520.327 216.359 519.445 216.733 518.681C217.11 517.917 217.636 517.321 218.311 516.892C218.99 516.464 219.784 516.249 220.692 516.249C221.243 516.249 221.778 516.341 222.296 516.523C222.814 516.706 223.278 516.992 223.69 517.383C224.101 517.773 224.426 518.28 224.664 518.904C224.901 519.523 225.02 520.277 225.02 521.163V521.838H217.248V520.412H223.155C223.155 519.912 223.053 519.468 222.85 519.082C222.646 518.692 222.36 518.384 221.99 518.159C221.625 517.934 221.197 517.822 220.705 517.822C220.17 517.822 219.703 517.953 219.304 518.216C218.91 518.475 218.604 518.815 218.388 519.235C218.175 519.651 218.069 520.103 218.069 520.591V521.705C218.069 522.358 218.184 522.914 218.413 523.372C218.646 523.83 218.971 524.181 219.387 524.422C219.803 524.66 220.289 524.779 220.845 524.779C221.205 524.779 221.534 524.728 221.831 524.626C222.128 524.52 222.385 524.363 222.601 524.155C222.818 523.947 222.983 523.69 223.098 523.385L224.899 523.71C224.755 524.24 224.496 524.705 224.123 525.104C223.753 525.498 223.289 525.806 222.729 526.027C222.173 526.243 221.538 526.351 220.825 526.351ZM240.239 516.377L236.694 526.154H234.657L231.105 516.377H233.149L235.625 523.901H235.727L238.196 516.377H240.239ZM245.814 526.351C244.897 526.351 244.097 526.141 243.414 525.721C242.731 525.301 242.2 524.713 241.823 523.958C241.445 523.202 241.256 522.32 241.256 521.31C241.256 520.296 241.445 519.409 241.823 518.649C242.2 517.89 242.731 517.3 243.414 516.88C244.097 516.46 244.897 516.249 245.814 516.249C246.73 516.249 247.53 516.46 248.214 516.88C248.897 517.3 249.427 517.89 249.805 518.649C250.183 519.409 250.371 520.296 250.371 521.31C250.371 522.32 250.183 523.202 249.805 523.958C249.427 524.713 248.897 525.301 248.214 525.721C247.53 526.141 246.73 526.351 245.814 526.351ZM245.82 524.753C246.414 524.753 246.907 524.596 247.297 524.282C247.687 523.968 247.976 523.55 248.163 523.028C248.354 522.507 248.449 521.932 248.449 521.303C248.449 520.68 248.354 520.107 248.163 519.585C247.976 519.059 247.687 518.636 247.297 518.318C246.907 518 246.414 517.841 245.82 517.841C245.222 517.841 244.725 518 244.331 518.318C243.94 518.636 243.65 519.059 243.459 519.585C243.272 520.107 243.179 520.68 243.179 521.303C243.179 521.932 243.272 522.507 243.459 523.028C243.65 523.55 243.94 523.968 244.331 524.282C244.725 524.596 245.222 524.753 245.82 524.753ZM256.614 526.351C255.668 526.351 254.853 526.137 254.17 525.708C253.491 525.275 252.969 524.679 252.604 523.92C252.239 523.16 252.057 522.29 252.057 521.31C252.057 520.317 252.243 519.441 252.617 518.681C252.99 517.917 253.516 517.321 254.195 516.892C254.874 516.464 255.674 516.249 256.595 516.249C257.338 516.249 258 516.387 258.581 516.663C259.162 516.935 259.631 517.317 259.988 517.809C260.348 518.301 260.563 518.876 260.631 519.534H258.778C258.676 519.076 258.443 518.681 258.078 518.35C257.717 518.019 257.234 517.854 256.627 517.854C256.096 517.854 255.632 517.994 255.233 518.274C254.838 518.549 254.531 518.944 254.31 519.458C254.089 519.967 253.979 520.569 253.979 521.265C253.979 521.978 254.087 522.594 254.303 523.111C254.52 523.629 254.825 524.03 255.22 524.314C255.619 524.599 256.088 524.741 256.627 524.741C256.987 524.741 257.314 524.675 257.607 524.543C257.904 524.408 258.152 524.215 258.352 523.964C258.555 523.714 258.698 523.413 258.778 523.06H260.631C260.563 523.693 260.357 524.257 260.013 524.753C259.669 525.25 259.209 525.64 258.632 525.925C258.059 526.209 257.386 526.351 256.614 526.351ZM266.88 526.351C265.916 526.351 265.087 526.145 264.391 525.734C263.699 525.318 263.164 524.734 262.787 523.983C262.413 523.228 262.227 522.343 262.227 521.329C262.227 520.327 262.413 519.445 262.787 518.681C263.164 517.917 263.691 517.321 264.365 516.892C265.044 516.464 265.838 516.249 266.746 516.249C267.298 516.249 267.832 516.341 268.35 516.523C268.868 516.706 269.332 516.992 269.744 517.383C270.156 517.773 270.48 518.28 270.718 518.904C270.955 519.523 271.074 520.277 271.074 521.163V521.838H263.302V520.412H269.209C269.209 519.912 269.107 519.468 268.904 519.082C268.7 518.692 268.414 518.384 268.044 518.159C267.68 517.934 267.251 517.822 266.759 517.822C266.224 517.822 265.757 517.953 265.358 518.216C264.964 518.475 264.658 518.815 264.442 519.235C264.23 519.651 264.123 520.103 264.123 520.591V521.705C264.123 522.358 264.238 522.914 264.467 523.372C264.701 523.83 265.025 524.181 265.441 524.422C265.857 524.66 266.343 524.779 266.899 524.779C267.259 524.779 267.588 524.728 267.885 524.626C268.182 524.52 268.439 524.363 268.656 524.155C268.872 523.947 269.037 523.69 269.152 523.385L270.953 523.71C270.809 524.24 270.55 524.705 270.177 525.104C269.808 525.498 269.343 525.806 268.783 526.027C268.227 526.243 267.593 526.351 266.88 526.351ZM267.981 515.206L266.676 513.5L265.365 515.206H263.646V515.11L265.88 512.411H267.465L269.706 515.11V515.206H267.981ZM281.59 526.345C280.8 526.345 280.096 526.143 279.476 525.74C278.861 525.333 278.377 524.753 278.025 524.002C277.677 523.247 277.503 522.341 277.503 521.284C277.503 520.228 277.679 519.324 278.032 518.573C278.388 517.822 278.876 517.247 279.496 516.848C280.115 516.449 280.817 516.249 281.602 516.249C282.209 516.249 282.697 516.351 283.066 516.555C283.44 516.754 283.728 516.988 283.932 517.255C284.14 517.523 284.301 517.758 284.416 517.962H284.53V513.118H286.434V526.154H284.575V524.633H284.416C284.301 524.84 284.136 525.078 283.919 525.345C283.707 525.613 283.414 525.846 283.041 526.046C282.668 526.245 282.184 526.345 281.59 526.345ZM282.01 524.722C282.557 524.722 283.02 524.577 283.397 524.289C283.779 523.996 284.068 523.591 284.263 523.073C284.463 522.555 284.562 521.953 284.562 521.265C284.562 520.586 284.465 519.992 284.269 519.483C284.074 518.974 283.788 518.577 283.41 518.293C283.032 518.008 282.566 517.866 282.01 517.866C281.437 517.866 280.96 518.015 280.578 518.312C280.196 518.609 279.907 519.014 279.712 519.528C279.521 520.041 279.426 520.62 279.426 521.265C279.426 521.919 279.523 522.507 279.718 523.028C279.914 523.55 280.202 523.964 280.584 524.27C280.97 524.571 281.445 524.722 282.01 524.722ZM293.364 526.351C292.401 526.351 291.571 526.145 290.875 525.734C290.183 525.318 289.649 524.734 289.271 523.983C288.898 523.228 288.711 522.343 288.711 521.329C288.711 520.327 288.898 519.445 289.271 518.681C289.649 517.917 290.175 517.321 290.85 516.892C291.528 516.464 292.322 516.249 293.23 516.249C293.782 516.249 294.316 516.341 294.834 516.523C295.352 516.706 295.817 516.992 296.228 517.383C296.64 517.773 296.964 518.28 297.202 518.904C297.44 519.523 297.558 520.277 297.558 521.163V521.838H289.787V520.412H295.693C295.693 519.912 295.592 519.468 295.388 519.082C295.184 518.692 294.898 518.384 294.529 518.159C294.164 517.934 293.735 517.822 293.243 517.822C292.708 517.822 292.241 517.953 291.843 518.216C291.448 518.475 291.142 518.815 290.926 519.235C290.714 519.651 290.608 520.103 290.608 520.591V521.705C290.608 522.358 290.722 522.914 290.951 523.372C291.185 523.83 291.509 524.181 291.925 524.422C292.341 524.66 292.827 524.779 293.383 524.779C293.744 524.779 294.072 524.728 294.37 524.626C294.667 524.52 294.923 524.363 295.14 524.155C295.356 523.947 295.522 523.69 295.636 523.385L297.438 523.71C297.293 524.24 297.034 524.705 296.661 525.104C296.292 525.498 295.827 525.806 295.267 526.027C294.711 526.243 294.077 526.351 293.364 526.351ZM306.997 518.764L305.272 519.069C305.199 518.849 305.085 518.639 304.928 518.439C304.775 518.24 304.567 518.076 304.304 517.949C304.041 517.822 303.712 517.758 303.317 517.758C302.779 517.758 302.329 517.879 301.968 518.121C301.607 518.359 301.427 518.666 301.427 519.044C301.427 519.371 301.548 519.634 301.79 519.833C302.032 520.033 302.422 520.196 302.961 520.323L304.514 520.68C305.414 520.888 306.084 521.208 306.526 521.641C306.967 522.074 307.188 522.636 307.188 523.328C307.188 523.913 307.018 524.435 306.678 524.893C306.343 525.348 305.874 525.704 305.272 525.963C304.673 526.222 303.979 526.351 303.19 526.351C302.095 526.351 301.202 526.118 300.51 525.651C299.819 525.18 299.394 524.512 299.237 523.646L301.077 523.366C301.191 523.845 301.427 524.208 301.783 524.454C302.14 524.696 302.605 524.817 303.177 524.817C303.801 524.817 304.3 524.688 304.673 524.429C305.047 524.166 305.233 523.845 305.233 523.468C305.233 523.162 305.119 522.905 304.89 522.697C304.665 522.49 304.319 522.333 303.852 522.226L302.197 521.864C301.285 521.656 300.61 521.325 300.173 520.871C299.74 520.417 299.524 519.842 299.524 519.146C299.524 518.569 299.685 518.064 300.008 517.631C300.33 517.198 300.776 516.861 301.344 516.619C301.913 516.373 302.564 516.249 303.298 516.249C304.355 516.249 305.187 516.479 305.794 516.937C306.4 517.391 306.801 518 306.997 518.764ZM313.494 526.351C312.531 526.351 311.701 526.145 311.005 525.734C310.313 525.318 309.779 524.734 309.401 523.983C309.028 523.228 308.841 522.343 308.841 521.329C308.841 520.327 309.028 519.445 309.401 518.681C309.779 517.917 310.305 517.321 310.98 516.892C311.659 516.464 312.452 516.249 313.36 516.249C313.912 516.249 314.447 516.341 314.964 516.523C315.482 516.706 315.947 516.992 316.358 517.383C316.77 517.773 317.094 518.28 317.332 518.904C317.57 519.523 317.689 520.277 317.689 521.163V521.838H309.917V520.412H315.824C315.824 519.912 315.722 519.468 315.518 519.082C315.314 518.692 315.028 518.384 314.659 518.159C314.294 517.934 313.865 517.822 313.373 517.822C312.838 517.822 312.371 517.953 311.973 518.216C311.578 518.475 311.272 518.815 311.056 519.235C310.844 519.651 310.738 520.103 310.738 520.591V521.705C310.738 522.358 310.852 522.914 311.081 523.372C311.315 523.83 311.639 524.181 312.055 524.422C312.471 524.66 312.957 524.779 313.513 524.779C313.874 524.779 314.203 524.728 314.5 524.626C314.797 524.52 315.053 524.363 315.27 524.155C315.486 523.947 315.652 523.69 315.766 523.385L317.568 523.71C317.423 524.24 317.165 524.705 316.791 525.104C316.422 525.498 315.957 525.806 315.397 526.027C314.841 526.243 314.207 526.351 313.494 526.351ZM319.8 516.377H321.703V526.79C321.703 527.444 321.585 527.995 321.347 528.445C321.114 528.895 320.766 529.237 320.303 529.47C319.845 529.703 319.278 529.82 318.604 529.82C318.536 529.82 318.472 529.82 318.413 529.82C318.349 529.82 318.283 529.818 318.215 529.814V528.178C318.275 528.178 318.328 528.178 318.374 528.178C318.417 528.178 318.466 528.178 318.521 528.178C318.971 528.178 319.295 528.057 319.495 527.815C319.698 527.578 319.8 527.232 319.8 526.778V516.377ZM320.742 514.868C320.411 514.868 320.127 514.758 319.889 514.537C319.656 514.312 319.539 514.045 319.539 513.735C319.539 513.421 319.656 513.154 319.889 512.933C320.127 512.708 320.411 512.596 320.742 512.596C321.073 512.596 321.355 512.708 321.589 512.933C321.826 513.154 321.945 513.421 321.945 513.735C321.945 514.045 321.826 514.312 321.589 514.537C321.355 514.758 321.073 514.868 320.742 514.868ZM327.109 526.37C326.49 526.37 325.929 526.256 325.429 526.027C324.928 525.793 324.531 525.456 324.238 525.014C323.95 524.573 323.806 524.032 323.806 523.391C323.806 522.84 323.912 522.386 324.124 522.029C324.336 521.673 324.622 521.39 324.983 521.183C325.344 520.975 325.747 520.818 326.193 520.712C326.638 520.605 327.092 520.525 327.555 520.47C328.14 520.402 328.616 520.347 328.981 520.304C329.345 520.257 329.611 520.183 329.776 520.081C329.942 519.98 330.024 519.814 330.024 519.585V519.54C330.024 518.984 329.867 518.554 329.553 518.248C329.244 517.943 328.781 517.79 328.166 517.79C327.525 517.79 327.02 517.932 326.651 518.216C326.286 518.496 326.033 518.808 325.893 519.152L324.105 518.745C324.317 518.151 324.627 517.671 325.034 517.306C325.446 516.937 325.919 516.67 326.454 516.504C326.988 516.334 327.55 516.249 328.14 516.249C328.531 516.249 328.944 516.296 329.382 516.39C329.823 516.479 330.235 516.644 330.616 516.886C331.003 517.128 331.319 517.474 331.565 517.924C331.811 518.369 331.934 518.948 331.934 519.661V526.154H330.075V524.817H329.999C329.876 525.063 329.691 525.305 329.445 525.543C329.199 525.78 328.883 525.978 328.497 526.135C328.111 526.292 327.648 526.37 327.109 526.37ZM327.523 524.843C328.049 524.843 328.499 524.739 328.872 524.531C329.25 524.323 329.536 524.051 329.732 523.716C329.931 523.376 330.031 523.014 330.031 522.627V521.367C329.963 521.435 329.831 521.499 329.636 521.558C329.445 521.613 329.227 521.662 328.981 521.705C328.734 521.743 328.495 521.779 328.261 521.813C328.028 521.842 327.833 521.868 327.676 521.889C327.306 521.936 326.969 522.014 326.664 522.125C326.362 522.235 326.12 522.394 325.938 522.602C325.76 522.806 325.671 523.077 325.671 523.417C325.671 523.888 325.845 524.244 326.193 524.486C326.541 524.724 326.984 524.843 327.523 524.843ZM66.8486 548.351C65.9023 548.351 65.0876 548.137 64.4044 547.708C63.7254 547.275 63.2035 546.679 62.8385 545.92C62.4736 545.16 62.2911 544.29 62.2911 543.31C62.2911 542.317 62.4778 541.441 62.8513 540.681C63.2247 539.917 63.7509 539.321 64.4298 538.892C65.1088 538.464 65.9087 538.249 66.8295 538.249C67.5721 538.249 68.2341 538.387 68.8155 538.663C69.3968 538.935 69.8658 539.317 70.2222 539.809C70.5829 540.301 70.7972 540.876 70.8651 541.534H69.0128C68.911 541.076 68.6776 540.681 68.3126 540.35C67.9519 540.019 67.4682 539.854 66.8614 539.854C66.3309 539.854 65.8663 539.994 65.4674 540.274C65.0727 540.549 64.7651 540.944 64.5444 541.458C64.3237 541.967 64.2134 542.569 64.2134 543.265C64.2134 543.978 64.3216 544.594 64.538 545.111C64.7545 545.629 65.06 546.03 65.4546 546.314C65.8535 546.599 66.3224 546.741 66.8614 546.741C67.2221 546.741 67.5488 546.675 67.8416 546.543C68.1386 546.408 68.3869 546.215 68.5863 545.964C68.79 545.714 68.9322 545.413 69.0128 545.06H70.8651C70.7972 545.693 70.5914 546.257 70.2477 546.753C69.9039 547.25 69.4435 547.64 68.8664 547.925C68.2935 548.209 67.6209 548.351 66.8486 548.351ZM72.9004 548.154V538.377H74.7399V539.93H74.8418C75.02 539.404 75.334 538.99 75.7838 538.689C76.2379 538.383 76.7514 538.23 77.3242 538.23C77.443 538.23 77.5831 538.235 77.7443 538.243C77.9098 538.252 78.0393 538.262 78.1326 538.275V540.095C78.0562 540.074 77.9204 540.051 77.7252 540.025C77.53 539.996 77.3348 539.981 77.1396 539.981C76.6898 539.981 76.2888 540.076 75.9366 540.267C75.5886 540.454 75.3128 540.715 75.1091 541.05C74.9054 541.381 74.8036 541.759 74.8036 542.183V548.154H72.9004ZM79.7796 548.154V538.377H81.6828V548.154H79.7796ZM80.7408 536.868C80.4098 536.868 80.1255 536.758 79.8878 536.537C79.6544 536.312 79.5377 536.045 79.5377 535.735C79.5377 535.421 79.6544 535.154 79.8878 534.933C80.1255 534.708 80.4098 534.596 80.7408 534.596C81.0718 534.596 81.354 534.708 81.5873 534.933C81.825 535.154 81.9438 535.421 81.9438 535.735C81.9438 536.045 81.825 536.312 81.5873 536.537C81.354 536.758 81.0718 536.868 80.7408 536.868ZM84.2432 551.82V538.377H86.1019V539.962H86.261C86.3714 539.758 86.5305 539.523 86.7384 539.255C86.9464 538.988 87.2349 538.754 87.6041 538.555C87.9733 538.351 88.4613 538.249 89.0681 538.249C89.8574 538.249 90.5618 538.449 91.1814 538.848C91.8009 539.247 92.2868 539.822 92.639 540.573C92.9955 541.324 93.1737 542.228 93.1737 543.284C93.1737 544.341 92.9976 545.247 92.6454 546.002C92.2932 546.753 91.8094 547.333 91.1941 547.74C90.5788 548.143 89.8765 548.345 89.0872 548.345C88.4931 548.345 88.0072 548.245 87.6296 548.046C87.2561 547.846 86.9633 547.613 86.7512 547.345C86.539 547.078 86.3756 546.84 86.261 546.633H86.1465V551.82H84.2432ZM86.1083 543.265C86.1083 543.953 86.208 544.555 86.4074 545.073C86.6069 545.591 86.8954 545.996 87.2731 546.289C87.6508 546.577 88.1133 546.722 88.6607 546.722C89.2294 546.722 89.7046 546.571 90.0865 546.27C90.4685 545.964 90.757 545.55 90.9522 545.028C91.1517 544.507 91.2514 543.919 91.2514 543.265C91.2514 542.62 91.1538 542.041 90.9586 541.528C90.7676 541.014 90.4791 540.609 90.0929 540.312C89.711 540.015 89.2336 539.866 88.6607 539.866C88.1091 539.866 87.6423 540.008 87.2604 540.293C86.8827 540.577 86.5963 540.974 86.4011 541.483C86.2059 541.992 86.1083 542.586 86.1083 543.265ZM99.8699 538.377V539.904H94.5295V538.377H99.8699ZM95.9617 536.034H97.8649V545.283C97.8649 545.652 97.92 545.93 98.0304 546.117C98.1407 546.299 98.2829 546.425 98.4568 546.492C98.6351 546.556 98.8281 546.588 99.0361 546.588C99.1888 546.588 99.3225 546.577 99.4371 546.556C99.5517 546.535 99.6408 546.518 99.7044 546.505L100.048 548.077C99.9378 548.12 99.7808 548.162 99.5771 548.205C99.3734 548.251 99.1188 548.277 98.8133 548.281C98.3126 548.29 97.8458 548.2 97.4129 548.014C96.9801 547.827 96.63 547.539 96.3627 547.148C96.0953 546.758 95.9617 546.268 95.9617 545.678V536.034ZM105.989 548.351C105.072 548.351 104.272 548.141 103.589 547.721C102.906 547.301 102.375 546.713 101.998 545.958C101.62 545.202 101.431 544.32 101.431 543.31C101.431 542.296 101.62 541.409 101.998 540.649C102.375 539.89 102.906 539.3 103.589 538.88C104.272 538.46 105.072 538.249 105.989 538.249C106.905 538.249 107.705 538.46 108.388 538.88C109.071 539.3 109.602 539.89 109.98 540.649C110.357 541.409 110.546 542.296 110.546 543.31C110.546 544.32 110.357 545.202 109.98 545.958C109.602 546.713 109.071 547.301 108.388 547.721C107.705 548.141 106.905 548.351 105.989 548.351ZM105.995 546.753C106.589 546.753 107.081 546.596 107.472 546.282C107.862 545.968 108.151 545.55 108.337 545.028C108.528 544.507 108.624 543.932 108.624 543.303C108.624 542.68 108.528 542.107 108.337 541.585C108.151 541.059 107.862 540.636 107.472 540.318C107.081 540 106.589 539.841 105.995 539.841C105.397 539.841 104.9 540 104.505 540.318C104.115 540.636 103.824 541.059 103.633 541.585C103.447 542.107 103.353 542.68 103.353 543.303C103.353 543.932 103.447 544.507 103.633 545.028C103.824 545.55 104.115 545.968 104.505 546.282C104.9 546.596 105.397 546.753 105.995 546.753ZM116.77 552.024C115.993 552.024 115.325 551.922 114.765 551.718C114.209 551.515 113.755 551.245 113.402 550.91C113.05 550.575 112.787 550.208 112.613 549.809L114.249 549.134C114.364 549.321 114.516 549.518 114.707 549.726C114.903 549.938 115.166 550.119 115.497 550.267C115.832 550.416 116.263 550.49 116.789 550.49C117.51 550.49 118.106 550.314 118.577 549.962C119.048 549.614 119.284 549.058 119.284 548.294V546.372H119.163C119.048 546.579 118.883 546.811 118.666 547.065C118.454 547.32 118.162 547.541 117.788 547.727C117.415 547.914 116.929 548.007 116.33 548.007C115.558 548.007 114.862 547.827 114.243 547.466C113.627 547.101 113.139 546.565 112.779 545.856C112.422 545.143 112.244 544.267 112.244 543.227C112.244 542.187 112.42 541.296 112.772 540.554C113.129 539.811 113.617 539.242 114.236 538.848C114.856 538.449 115.558 538.249 116.343 538.249C116.95 538.249 117.44 538.351 117.814 538.555C118.187 538.754 118.478 538.988 118.686 539.255C118.898 539.523 119.061 539.758 119.176 539.962H119.316V538.377H121.181V548.37C121.181 549.21 120.986 549.9 120.595 550.439C120.205 550.978 119.676 551.377 119.01 551.636C118.348 551.894 117.601 552.024 116.77 552.024ZM116.751 546.429C117.298 546.429 117.761 546.302 118.138 546.047C118.52 545.788 118.809 545.419 119.004 544.939C119.203 544.456 119.303 543.876 119.303 543.202C119.303 542.544 119.205 541.965 119.01 541.464C118.815 540.963 118.529 540.573 118.151 540.293C117.773 540.008 117.306 539.866 116.751 539.866C116.178 539.866 115.7 540.015 115.318 540.312C114.936 540.605 114.648 541.004 114.453 541.508C114.262 542.013 114.166 542.578 114.166 543.202C114.166 543.842 114.264 544.405 114.459 544.888C114.654 545.372 114.943 545.75 115.325 546.021C115.711 546.293 116.186 546.429 116.751 546.429ZM123.733 548.154V538.377H125.573V539.93H125.675C125.853 539.404 126.167 538.99 126.617 538.689C127.071 538.383 127.584 538.23 128.157 538.23C128.276 538.23 128.416 538.235 128.577 538.243C128.743 538.252 128.872 538.262 128.965 538.275V540.095C128.889 540.074 128.753 540.051 128.558 540.025C128.363 539.996 128.168 539.981 127.972 539.981C127.523 539.981 127.122 540.076 126.769 540.267C126.421 540.454 126.146 540.715 125.942 541.05C125.738 541.381 125.636 541.759 125.636 542.183V548.154H123.733ZM133.37 548.37C132.751 548.37 132.191 548.256 131.69 548.027C131.189 547.793 130.792 547.456 130.499 547.014C130.211 546.573 130.067 546.032 130.067 545.391C130.067 544.84 130.173 544.386 130.385 544.029C130.597 543.673 130.884 543.39 131.244 543.183C131.605 542.975 132.008 542.818 132.454 542.712C132.899 542.605 133.353 542.525 133.816 542.47C134.401 542.402 134.877 542.347 135.242 542.304C135.607 542.257 135.872 542.183 136.037 542.081C136.203 541.98 136.285 541.814 136.285 541.585V541.54C136.285 540.984 136.128 540.554 135.814 540.248C135.505 539.943 135.042 539.79 134.427 539.79C133.786 539.79 133.281 539.932 132.912 540.216C132.547 540.496 132.294 540.808 132.154 541.152L130.366 540.745C130.578 540.151 130.888 539.671 131.295 539.306C131.707 538.937 132.18 538.67 132.715 538.504C133.249 538.334 133.812 538.249 134.401 538.249C134.792 538.249 135.206 538.296 135.643 538.39C136.084 538.479 136.496 538.644 136.877 538.886C137.264 539.128 137.58 539.474 137.826 539.924C138.072 540.369 138.195 540.948 138.195 541.661V548.154H136.336V546.817H136.26C136.137 547.063 135.952 547.305 135.706 547.543C135.46 547.78 135.144 547.978 134.758 548.135C134.372 548.292 133.909 548.37 133.37 548.37ZM133.784 546.843C134.31 546.843 134.76 546.739 135.133 546.531C135.511 546.323 135.797 546.051 135.993 545.716C136.192 545.376 136.292 545.014 136.292 544.627V543.367C136.224 543.435 136.092 543.499 135.897 543.558C135.706 543.613 135.488 543.662 135.242 543.705C134.995 543.743 134.756 543.779 134.522 543.813C134.289 543.842 134.094 543.868 133.937 543.889C133.568 543.936 133.23 544.014 132.925 544.125C132.623 544.235 132.381 544.394 132.199 544.602C132.021 544.806 131.932 545.077 131.932 545.417C131.932 545.888 132.106 546.244 132.454 546.486C132.802 546.724 133.245 546.843 133.784 546.843ZM145.383 538.377V539.904H139.858V538.377H145.383ZM141.373 548.154V537.244C141.373 536.633 141.507 536.126 141.774 535.722C142.041 535.315 142.396 535.012 142.837 534.812C143.278 534.609 143.758 534.507 144.275 534.507C144.657 534.507 144.984 534.539 145.256 534.602C145.527 534.662 145.729 534.717 145.86 534.768L145.415 536.308C145.326 536.283 145.211 536.253 145.071 536.219C144.931 536.181 144.761 536.162 144.562 536.162C144.099 536.162 143.768 536.276 143.569 536.505C143.374 536.735 143.276 537.066 143.276 537.498V548.154H141.373ZM149.894 548.37C149.275 548.37 148.715 548.256 148.214 548.027C147.713 547.793 147.316 547.456 147.024 547.014C146.735 546.573 146.591 546.032 146.591 545.391C146.591 544.84 146.697 544.386 146.909 544.029C147.121 543.673 147.408 543.39 147.768 543.183C148.129 542.975 148.532 542.818 148.978 542.712C149.423 542.605 149.877 542.525 150.34 542.47C150.926 542.402 151.401 542.347 151.766 542.304C152.131 542.257 152.396 542.183 152.561 542.081C152.727 541.98 152.81 541.814 152.81 541.585V541.54C152.81 540.984 152.653 540.554 152.339 540.248C152.029 539.943 151.566 539.79 150.951 539.79C150.31 539.79 149.805 539.932 149.436 540.216C149.071 540.496 148.819 540.808 148.679 541.152L146.89 540.745C147.102 540.151 147.412 539.671 147.819 539.306C148.231 538.937 148.704 538.67 149.239 538.504C149.773 538.334 150.336 538.249 150.926 538.249C151.316 538.249 151.73 538.296 152.167 538.39C152.608 538.479 153.02 538.644 153.402 538.886C153.788 539.128 154.104 539.474 154.35 539.924C154.596 540.369 154.719 540.948 154.719 541.661V548.154H152.861V546.817H152.784C152.661 547.063 152.477 547.305 152.23 547.543C151.984 547.78 151.668 547.978 151.282 548.135C150.896 548.292 150.433 548.37 149.894 548.37ZM150.308 546.843C150.834 546.843 151.284 546.739 151.658 546.531C152.035 546.323 152.322 546.051 152.517 545.716C152.716 545.376 152.816 545.014 152.816 544.627V543.367C152.748 543.435 152.617 543.499 152.421 543.558C152.23 543.613 152.012 543.662 151.766 543.705C151.52 543.743 151.28 543.779 151.046 543.813C150.813 543.842 150.618 543.868 150.461 543.889C150.092 543.936 149.754 544.014 149.449 544.125C149.148 544.235 148.906 544.394 148.723 544.602C148.545 544.806 148.456 545.077 148.456 545.417C148.456 545.888 148.63 546.244 148.978 546.486C149.326 546.724 149.769 546.843 150.308 546.843ZM157.254 548.154V538.377H159.094V539.93H159.196C159.374 539.404 159.688 538.99 160.138 538.689C160.592 538.383 161.105 538.23 161.678 538.23C161.797 538.23 161.937 538.235 162.098 538.243C162.264 538.252 162.393 538.262 162.486 538.275V540.095C162.41 540.074 162.274 540.051 162.079 540.025C161.884 539.996 161.689 539.981 161.493 539.981C161.044 539.981 160.643 540.076 160.29 540.267C159.942 540.454 159.667 540.715 159.463 541.05C159.259 541.381 159.157 541.759 159.157 542.183V548.154H157.254ZM172.995 548.351C172.079 548.351 171.279 548.141 170.596 547.721C169.913 547.301 169.382 546.713 169.004 545.958C168.627 545.202 168.438 544.32 168.438 543.31C168.438 542.296 168.627 541.409 169.004 540.649C169.382 539.89 169.913 539.3 170.596 538.88C171.279 538.46 172.079 538.249 172.995 538.249C173.912 538.249 174.712 538.46 175.395 538.88C176.078 539.3 176.609 539.89 176.986 540.649C177.364 541.409 177.553 542.296 177.553 543.31C177.553 544.32 177.364 545.202 176.986 545.958C176.609 546.713 176.078 547.301 175.395 547.721C174.712 548.141 173.912 548.351 172.995 548.351ZM173.002 546.753C173.596 546.753 174.088 546.596 174.479 546.282C174.869 545.968 175.157 545.55 175.344 545.028C175.535 544.507 175.631 543.932 175.631 543.303C175.631 542.68 175.535 542.107 175.344 541.585C175.157 541.059 174.869 540.636 174.479 540.318C174.088 540 173.596 539.841 173.002 539.841C172.403 539.841 171.907 540 171.512 540.318C171.122 540.636 170.831 541.059 170.64 541.585C170.454 542.107 170.36 542.68 170.36 543.303C170.36 543.932 170.454 544.507 170.64 545.028C170.831 545.55 171.122 545.968 171.512 546.282C171.907 546.596 172.403 546.753 173.002 546.753ZM185.871 544.099V538.377H187.78V548.154H185.909V546.461H185.807C185.582 546.983 185.221 547.418 184.725 547.766C184.233 548.109 183.62 548.281 182.885 548.281C182.257 548.281 181.702 548.143 181.218 547.867C180.738 547.587 180.361 547.174 180.085 546.626C179.813 546.079 179.677 545.402 179.677 544.596V538.377H181.581V544.366C181.581 545.033 181.765 545.563 182.134 545.958C182.504 546.352 182.983 546.55 183.573 546.55C183.929 546.55 184.284 546.461 184.636 546.282C184.992 546.104 185.287 545.835 185.521 545.474C185.758 545.113 185.875 544.655 185.871 544.099ZM198.741 548.345C197.952 548.345 197.248 548.143 196.628 547.74C196.013 547.333 195.529 546.753 195.177 546.002C194.829 545.247 194.655 544.341 194.655 543.284C194.655 542.228 194.831 541.324 195.183 540.573C195.54 539.822 196.028 539.247 196.647 538.848C197.267 538.449 197.969 538.249 198.754 538.249C199.361 538.249 199.849 538.351 200.218 538.555C200.591 538.754 200.88 538.988 201.084 539.255C201.292 539.523 201.453 539.758 201.567 539.962H201.682V535.118H203.585V548.154H201.727V546.633H201.567C201.453 546.84 201.287 547.078 201.071 547.345C200.859 547.613 200.566 547.846 200.193 548.046C199.819 548.245 199.335 548.345 198.741 548.345ZM199.161 546.722C199.709 546.722 200.171 546.577 200.549 546.289C200.931 545.996 201.219 545.591 201.415 545.073C201.614 544.555 201.714 543.953 201.714 543.265C201.714 542.586 201.616 541.992 201.421 541.483C201.226 540.974 200.939 540.577 200.562 540.293C200.184 540.008 199.717 539.866 199.161 539.866C198.588 539.866 198.111 540.015 197.729 540.312C197.347 540.609 197.059 541.014 196.864 541.528C196.673 542.041 196.577 542.62 196.577 543.265C196.577 543.919 196.675 544.507 196.87 545.028C197.065 545.55 197.354 545.964 197.736 546.27C198.122 546.571 198.597 546.722 199.161 546.722ZM210.515 548.351C209.552 548.351 208.722 548.145 208.027 547.734C207.335 547.318 206.8 546.734 206.423 545.983C206.049 545.228 205.862 544.343 205.862 543.329C205.862 542.327 206.049 541.445 206.423 540.681C206.8 539.917 207.326 539.321 208.001 538.892C208.68 538.464 209.474 538.249 210.382 538.249C210.933 538.249 211.468 538.341 211.986 538.523C212.503 538.706 212.968 538.992 213.38 539.383C213.791 539.773 214.116 540.28 214.354 540.904C214.591 541.523 214.71 542.277 214.71 543.163V543.838H206.938V542.412H212.845C212.845 541.912 212.743 541.468 212.54 541.082C212.336 540.692 212.049 540.384 211.68 540.159C211.315 539.934 210.887 539.822 210.394 539.822C209.86 539.822 209.393 539.953 208.994 540.216C208.599 540.475 208.294 540.815 208.077 541.235C207.865 541.651 207.759 542.103 207.759 542.591V543.705C207.759 544.358 207.874 544.914 208.103 545.372C208.336 545.83 208.661 546.181 209.077 546.422C209.493 546.66 209.979 546.779 210.534 546.779C210.895 546.779 211.224 546.728 211.521 546.626C211.818 546.52 212.075 546.363 212.291 546.155C212.508 545.947 212.673 545.69 212.788 545.385L214.589 545.71C214.445 546.24 214.186 546.705 213.813 547.104C213.443 547.498 212.979 547.806 212.419 548.027C211.863 548.243 211.228 548.351 210.515 548.351ZM224.148 540.764L222.423 541.069C222.351 540.849 222.236 540.639 222.079 540.439C221.927 540.24 221.719 540.076 221.456 539.949C221.193 539.822 220.864 539.758 220.469 539.758C219.93 539.758 219.48 539.879 219.12 540.121C218.759 540.359 218.579 540.666 218.579 541.044C218.579 541.371 218.699 541.634 218.941 541.833C219.183 542.033 219.574 542.196 220.113 542.323L221.666 542.68C222.565 542.888 223.236 543.208 223.677 543.641C224.118 544.074 224.339 544.636 224.339 545.328C224.339 545.913 224.169 546.435 223.83 546.893C223.495 547.348 223.026 547.704 222.423 547.963C221.825 548.222 221.131 548.351 220.342 548.351C219.247 548.351 218.354 548.118 217.662 547.651C216.97 547.18 216.546 546.512 216.389 545.646L218.228 545.366C218.343 545.845 218.579 546.208 218.935 546.454C219.291 546.696 219.756 546.817 220.329 546.817C220.953 546.817 221.451 546.688 221.825 546.429C222.198 546.166 222.385 545.845 222.385 545.468C222.385 545.162 222.27 544.905 222.041 544.697C221.816 544.49 221.47 544.333 221.004 544.226L219.349 543.864C218.436 543.656 217.762 543.325 217.325 542.871C216.892 542.417 216.675 541.842 216.675 541.146C216.675 540.569 216.837 540.064 217.159 539.631C217.482 539.198 217.927 538.861 218.496 538.619C219.064 538.373 219.716 538.249 220.45 538.249C221.507 538.249 222.338 538.479 222.945 538.937C223.552 539.391 223.953 540 224.148 540.764ZM230.55 548.351C229.604 548.351 228.789 548.137 228.106 547.708C227.427 547.275 226.905 546.679 226.54 545.92C226.175 545.16 225.992 544.29 225.992 543.31C225.992 542.317 226.179 541.441 226.553 540.681C226.926 539.917 227.452 539.321 228.131 538.892C228.81 538.464 229.61 538.249 230.531 538.249C231.273 538.249 231.935 538.387 232.517 538.663C233.098 538.935 233.567 539.317 233.924 539.809C234.284 540.301 234.499 540.876 234.566 541.534H232.714C232.612 541.076 232.379 540.681 232.014 540.35C231.653 540.019 231.17 539.854 230.563 539.854C230.032 539.854 229.568 539.994 229.169 540.274C228.774 540.549 228.466 540.944 228.246 541.458C228.025 541.967 227.915 542.569 227.915 543.265C227.915 543.978 228.023 544.594 228.239 545.111C228.456 545.629 228.761 546.03 229.156 546.314C229.555 546.599 230.024 546.741 230.563 546.741C230.923 546.741 231.25 546.675 231.543 546.543C231.84 546.408 232.088 546.215 232.288 545.964C232.491 545.714 232.634 545.413 232.714 545.06H234.566C234.499 545.693 234.293 546.257 233.949 546.753C233.605 547.25 233.145 547.64 232.568 547.925C231.995 548.209 231.322 548.351 230.55 548.351ZM236.602 548.154V538.377H238.441V539.93H238.543C238.721 539.404 239.035 538.99 239.485 538.689C239.939 538.383 240.453 538.23 241.026 538.23C241.144 538.23 241.284 538.235 241.446 538.243C241.611 538.252 241.741 538.262 241.834 538.275V540.095C241.758 540.074 241.622 540.051 241.427 540.025C241.231 539.996 241.036 539.981 240.841 539.981C240.391 539.981 239.99 540.076 239.638 540.267C239.29 540.454 239.014 540.715 238.81 541.05C238.607 541.381 238.505 541.759 238.505 542.183V548.154H236.602ZM243.481 548.154V538.377H245.384V548.154H243.481ZM244.442 536.868C244.111 536.868 243.827 536.758 243.589 536.537C243.356 536.312 243.239 536.045 243.239 535.735C243.239 535.421 243.356 535.154 243.589 534.933C243.827 534.708 244.111 534.596 244.442 534.596C244.773 534.596 245.055 534.708 245.289 534.933C245.526 535.154 245.645 535.421 245.645 535.735C245.645 536.045 245.526 536.312 245.289 536.537C245.055 536.758 244.773 536.868 244.442 536.868ZM247.945 551.82V538.377H249.803V539.962H249.962C250.073 539.758 250.232 539.523 250.44 539.255C250.648 538.988 250.936 538.754 251.305 538.555C251.675 538.351 252.163 538.249 252.769 538.249C253.559 538.249 254.263 538.449 254.883 538.848C255.502 539.247 255.988 539.822 256.34 540.573C256.697 541.324 256.875 542.228 256.875 543.284C256.875 544.341 256.699 545.247 256.347 546.002C255.995 546.753 255.511 547.333 254.895 547.74C254.28 548.143 253.578 548.345 252.789 548.345C252.194 548.345 251.709 548.245 251.331 548.046C250.957 547.846 250.665 547.613 250.453 547.345C250.24 547.078 250.077 546.84 249.962 546.633H249.848V551.82H247.945ZM249.81 543.265C249.81 543.953 249.909 544.555 250.109 545.073C250.308 545.591 250.597 545.996 250.974 546.289C251.352 546.577 251.815 546.722 252.362 546.722C252.931 546.722 253.406 546.571 253.788 546.27C254.17 545.964 254.458 545.55 254.654 545.028C254.853 544.507 254.953 543.919 254.953 543.265C254.953 542.62 254.855 542.041 254.66 541.528C254.469 541.014 254.18 540.609 253.794 540.312C253.412 540.015 252.935 539.866 252.362 539.866C251.81 539.866 251.344 540.008 250.962 540.293C250.584 540.577 250.298 540.974 250.102 541.483C249.907 541.992 249.81 542.586 249.81 543.265ZM263.571 538.377V539.904H258.231V538.377H263.571ZM259.663 536.034H261.566V545.283C261.566 545.652 261.621 545.93 261.732 546.117C261.842 546.299 261.984 546.425 262.158 546.492C262.336 546.556 262.529 546.588 262.737 546.588C262.89 546.588 263.024 546.577 263.138 546.556C263.253 546.535 263.342 546.518 263.406 546.505L263.75 548.077C263.639 548.12 263.482 548.162 263.278 548.205C263.075 548.251 262.82 548.277 262.515 548.281C262.014 548.29 261.547 548.2 261.114 548.014C260.681 547.827 260.331 547.539 260.064 547.148C259.797 546.758 259.663 546.268 259.663 545.678V536.034ZM269.69 548.351C268.773 548.351 267.973 548.141 267.29 547.721C266.607 547.301 266.077 546.713 265.699 545.958C265.321 545.202 265.132 544.32 265.132 543.31C265.132 542.296 265.321 541.409 265.699 540.649C266.077 539.89 266.607 539.3 267.29 538.88C267.973 538.46 268.773 538.249 269.69 538.249C270.606 538.249 271.406 538.46 272.09 538.88C272.773 539.3 273.303 539.89 273.681 540.649C274.059 541.409 274.247 542.296 274.247 543.31C274.247 544.32 274.059 545.202 273.681 545.958C273.303 546.713 272.773 547.301 272.09 547.721C271.406 548.141 270.606 548.351 269.69 548.351ZM269.696 546.753C270.29 546.753 270.783 546.596 271.173 546.282C271.563 545.968 271.852 545.55 272.039 545.028C272.23 544.507 272.325 543.932 272.325 543.303C272.325 542.68 272.23 542.107 272.039 541.585C271.852 541.059 271.563 540.636 271.173 540.318C270.783 540 270.29 539.841 269.696 539.841C269.098 539.841 268.601 540 268.207 540.318C267.816 540.636 267.526 541.059 267.335 541.585C267.148 542.107 267.055 542.68 267.055 543.303C267.055 543.932 267.148 544.507 267.335 545.028C267.526 545.55 267.816 545.968 268.207 546.282C268.601 546.596 269.098 546.753 269.696 546.753ZM280.471 552.024C279.694 552.024 279.026 551.922 278.466 551.718C277.91 551.515 277.456 551.245 277.104 550.91C276.752 550.575 276.488 550.208 276.314 549.809L277.95 549.134C278.065 549.321 278.218 549.518 278.409 549.726C278.604 549.938 278.867 550.119 279.198 550.267C279.533 550.416 279.964 550.49 280.49 550.49C281.211 550.49 281.808 550.314 282.279 549.962C282.75 549.614 282.985 549.058 282.985 548.294V546.372H282.864C282.75 546.579 282.584 546.811 282.368 547.065C282.156 547.32 281.863 547.541 281.489 547.727C281.116 547.914 280.63 548.007 280.032 548.007C279.259 548.007 278.564 547.827 277.944 547.466C277.329 547.101 276.841 546.565 276.48 545.856C276.124 545.143 275.945 544.267 275.945 543.227C275.945 542.187 276.121 541.296 276.474 540.554C276.83 539.811 277.318 539.242 277.938 538.848C278.557 538.449 279.259 538.249 280.045 538.249C280.651 538.249 281.141 538.351 281.515 538.555C281.888 538.754 282.179 538.988 282.387 539.255C282.599 539.523 282.762 539.758 282.877 539.962H283.017V538.377H284.882V548.37C284.882 549.21 284.687 549.9 284.297 550.439C283.906 550.978 283.378 551.377 282.712 551.636C282.05 551.894 281.303 552.024 280.471 552.024ZM280.452 546.429C280.999 546.429 281.462 546.302 281.84 546.047C282.221 545.788 282.51 545.419 282.705 544.939C282.905 544.456 283.004 543.876 283.004 543.202C283.004 542.544 282.907 541.965 282.712 541.464C282.516 540.963 282.23 540.573 281.852 540.293C281.475 540.008 281.008 539.866 280.452 539.866C279.879 539.866 279.402 540.015 279.02 540.312C278.638 540.605 278.349 541.004 278.154 541.508C277.963 542.013 277.868 542.578 277.868 543.202C277.868 543.842 277.965 544.405 278.16 544.888C278.356 545.372 278.644 545.75 279.026 546.021C279.412 546.293 279.888 546.429 280.452 546.429ZM287.435 548.154V538.377H289.274V539.93H289.376C289.554 539.404 289.868 538.99 290.318 538.689C290.772 538.383 291.286 538.23 291.858 538.23C291.977 538.23 292.117 538.235 292.279 538.243C292.444 538.252 292.573 538.262 292.667 538.275V540.095C292.59 540.074 292.455 540.051 292.259 540.025C292.064 539.996 291.869 539.981 291.674 539.981C291.224 539.981 290.823 540.076 290.471 540.267C290.123 540.454 289.847 540.715 289.643 541.05C289.44 541.381 289.338 541.759 289.338 542.183V548.154H287.435ZM297.072 548.37C296.452 548.37 295.892 548.256 295.391 548.027C294.89 547.793 294.494 547.456 294.201 547.014C293.912 546.573 293.768 546.032 293.768 545.391C293.768 544.84 293.874 544.386 294.086 544.029C294.298 543.673 294.585 543.39 294.946 543.183C295.306 542.975 295.709 542.818 296.155 542.712C296.601 542.605 297.055 542.525 297.517 542.47C298.103 542.402 298.578 542.347 298.943 542.304C299.308 542.257 299.573 542.183 299.739 542.081C299.904 541.98 299.987 541.814 299.987 541.585V541.54C299.987 540.984 299.83 540.554 299.516 540.248C299.206 539.943 298.744 539.79 298.128 539.79C297.487 539.79 296.982 539.932 296.613 540.216C296.248 540.496 295.996 540.808 295.856 541.152L294.067 540.745C294.279 540.151 294.589 539.671 294.996 539.306C295.408 538.937 295.881 538.67 296.416 538.504C296.951 538.334 297.513 538.249 298.103 538.249C298.493 538.249 298.907 538.296 299.344 538.39C299.785 538.479 300.197 538.644 300.579 538.886C300.965 539.128 301.281 539.474 301.527 539.924C301.773 540.369 301.896 540.948 301.896 541.661V548.154H300.038V546.817H299.961C299.838 547.063 299.654 547.305 299.408 547.543C299.161 547.78 298.845 547.978 298.459 548.135C298.073 548.292 297.61 548.37 297.072 548.37ZM297.485 546.843C298.011 546.843 298.461 546.739 298.835 546.531C299.212 546.323 299.499 546.051 299.694 545.716C299.893 545.376 299.993 545.014 299.993 544.627V543.367C299.925 543.435 299.794 543.499 299.599 543.558C299.408 543.613 299.189 543.662 298.943 543.705C298.697 543.743 298.457 543.779 298.224 543.813C297.99 543.842 297.795 543.868 297.638 543.889C297.269 543.936 296.932 544.014 296.626 544.125C296.325 544.235 296.083 544.394 295.9 544.602C295.722 544.806 295.633 545.077 295.633 545.417C295.633 545.888 295.807 546.244 296.155 546.486C296.503 546.724 296.946 546.843 297.485 546.843ZM309.084 538.377V539.904H303.559V538.377H309.084ZM305.074 548.154V537.244C305.074 536.633 305.208 536.126 305.475 535.722C305.743 535.315 306.097 535.012 306.538 534.812C306.98 534.609 307.459 534.507 307.977 534.507C308.359 534.507 308.685 534.539 308.957 534.602C309.229 534.662 309.43 534.717 309.562 534.768L309.116 536.308C309.027 536.283 308.913 536.253 308.772 536.219C308.632 536.181 308.463 536.162 308.263 536.162C307.801 536.162 307.47 536.276 307.27 536.505C307.075 536.735 306.977 537.066 306.977 537.498V548.154H305.074ZM313.596 548.37C312.976 548.37 312.416 548.256 311.915 548.027C311.415 547.793 311.018 547.456 310.725 547.014C310.436 546.573 310.292 546.032 310.292 545.391C310.292 544.84 310.398 544.386 310.61 544.029C310.823 543.673 311.109 543.39 311.47 543.183C311.83 542.975 312.234 542.818 312.679 542.712C313.125 542.605 313.579 542.525 314.041 542.47C314.627 542.402 315.102 542.347 315.467 542.304C315.832 542.257 316.097 542.183 316.263 542.081C316.428 541.98 316.511 541.814 316.511 541.585V541.54C316.511 540.984 316.354 540.554 316.04 540.248C315.73 539.943 315.268 539.79 314.652 539.79C314.012 539.79 313.507 539.932 313.137 540.216C312.772 540.496 312.52 540.808 312.38 541.152L310.591 540.745C310.804 540.151 311.113 539.671 311.521 539.306C311.932 538.937 312.405 538.67 312.94 538.504C313.475 538.334 314.037 538.249 314.627 538.249C315.017 538.249 315.431 538.296 315.868 538.39C316.309 538.479 316.721 538.644 317.103 538.886C317.489 539.128 317.805 539.474 318.051 539.924C318.298 540.369 318.421 540.948 318.421 541.661V548.154H316.562V546.817H316.486C316.362 547.063 316.178 547.305 315.932 547.543C315.686 547.78 315.37 547.978 314.983 548.135C314.597 548.292 314.135 548.37 313.596 548.37ZM314.009 546.843C314.536 546.843 314.985 546.739 315.359 546.531C315.737 546.323 316.023 546.051 316.218 545.716C316.418 545.376 316.517 545.014 316.517 544.627V543.367C316.449 543.435 316.318 543.499 316.123 543.558C315.932 543.613 315.713 543.662 315.467 543.705C315.221 543.743 314.981 543.779 314.748 543.813C314.514 543.842 314.319 543.868 314.162 543.889C313.793 543.936 313.456 544.014 313.15 544.125C312.849 544.235 312.607 544.394 312.425 544.602C312.246 544.806 312.157 545.077 312.157 545.417C312.157 545.888 312.331 546.244 312.679 546.486C313.027 546.724 313.471 546.843 314.009 546.843ZM320.956 548.154V538.377H322.795V539.93H322.897C323.075 539.404 323.389 538.99 323.839 538.689C324.293 538.383 324.807 538.23 325.379 538.23C325.498 538.23 325.638 538.235 325.799 538.243C325.965 538.252 326.094 538.262 326.188 538.275V540.095C326.111 540.074 325.976 540.051 325.78 540.025C325.585 539.996 325.39 539.981 325.195 539.981C324.745 539.981 324.344 540.076 323.992 540.267C323.644 540.454 323.368 540.715 323.164 541.05C322.961 541.381 322.859 541.759 322.859 542.183V548.154H320.956ZM327.968 548.275C327.62 548.275 327.321 548.152 327.071 547.906C326.821 547.655 326.695 547.354 326.695 547.002C326.695 546.654 326.821 546.357 327.071 546.111C327.321 545.86 327.62 545.735 327.968 545.735C328.316 545.735 328.616 545.86 328.866 546.111C329.116 546.357 329.242 546.654 329.242 547.002C329.242 547.235 329.182 547.449 329.063 547.645C328.949 547.836 328.796 547.988 328.605 548.103C328.414 548.217 328.202 548.275 327.968 548.275Z" fill="#310055"/>
<path d="M197.133 114.577C197.133 110.945 194.189 108 190.556 108H117.977C115.97 108 114.073 108.917 112.825 110.489L57.4031 180.344C55.4313 182.829 55.5147 186.368 57.6014 188.758L185.602 335.346C189.599 339.923 197.133 337.096 197.133 331.02V176.875V133.333V114.577ZM197.133 133.333V171.333V136.5V133.333Z" fill="#4A0A77"/>
<path d="M197.133 285.333V196.667M197.133 133.333V171.333V136.5V133.333ZM197.133 133.333V176.875V331.02C197.133 337.096 189.599 339.923 185.602 335.346L57.6014 188.758C55.5147 186.368 55.4313 182.829 57.4031 180.344L112.825 110.489C114.073 108.917 115.97 108 117.977 108H190.556C194.189 108 197.133 110.945 197.133 114.577V133.333Z" stroke="black" stroke-width="0.00304"/>
<path d="M212.157 170.326H330.468C335.179 170.326 339 173.596 339 177.63C339 181.664 335.18 184.934 330.468 184.934H212.157C207.446 184.934 203.625 181.664 203.625 177.63C203.625 173.596 207.446 170.326 212.157 170.326Z" fill="#4A0A77"/>
<path d="M211.109 201.812H314.891C319.023 201.812 322.375 205.082 322.375 209.117C322.375 213.151 319.024 216.421 314.891 216.421H211.109C206.977 216.421 203.625 213.151 203.625 209.117C203.625 205.082 206.977 201.812 211.109 201.812Z" fill="#4A0A77"/>
<path d="M212.344 139.164H305.343C310.158 139.164 314.062 142.433 314.062 146.468C314.062 150.502 310.159 153.772 305.343 153.772H212.344C207.529 153.772 203.625 150.502 203.625 146.468C203.625 142.433 207.529 139.164 212.344 139.164Z" fill="#4A0A77"/>
<path d="M210.844 232.688H287.843C291.83 232.688 295.062 235.957 295.062 239.992C295.062 244.026 291.831 247.296 287.843 247.296H210.844C206.858 247.296 203.625 244.026 203.625 239.992C203.625 235.957 206.858 232.688 210.844 232.688Z" fill="#4A0A77"/>
<path d="M210.375 108H282.375C286.102 108 289.125 111.19 289.125 115.125C289.125 119.06 286.103 122.25 282.375 122.25H210.375C206.648 122.25 203.625 119.06 203.625 115.125C203.625 111.19 206.648 108 210.375 108Z" fill="#4A0A77"/>
<path d="M212.532 295.625H231.531C236.449 295.625 240.438 298.895 240.438 302.929C240.438 306.963 236.45 310.233 231.531 310.233H212.532C207.613 310.233 203.625 306.963 203.625 302.929C203.625 298.895 207.613 295.625 212.532 295.625Z" fill="#4A0A77"/>
<path d="M209.824 322.665H216.061C218.697 322.665 222.808 325.935 222.808 329.97C222.808 334.004 218.698 337.274 216.061 337.274H209.824C207.188 337.274 203.077 334.004 203.077 329.97C203.077 325.935 207.188 322.665 209.824 322.665Z" fill="#4A0A77"/>
<path d="M209.875 263.816H261.5C264.295 263.816 267.75 267.086 267.75 271.12C267.75 275.154 264.296 278.424 261.5 278.424H209.875C207.08 278.424 203.625 275.154 203.625 271.12C203.625 267.086 207.08 263.816 209.875 263.816Z" fill="#4A0A77"/>
</svg>
