<svg width="696" height="245" viewBox="0 0 696 245" fill="none" xmlns="http://www.w3.org/2000/svg">
<rect width="696" height="245" rx="29" fill="white"/>
<path d="M147.874 86.446V106H144.303L135.796 93.6928H135.653V106H131.519V86.446H135.147L143.587 98.7436H143.759V86.446H147.874ZM157.897 106.286C156.389 106.286 155.09 105.981 154.002 105.37C152.92 104.752 152.086 103.88 151.5 102.754C150.915 101.621 150.622 100.281 150.622 98.7341C150.622 97.2255 150.915 95.9015 151.5 94.7622C152.086 93.6228 152.91 92.7348 153.973 92.0983C155.042 91.4618 156.296 91.1435 157.735 91.1435C158.702 91.1435 159.603 91.2995 160.437 91.6114C161.277 91.9169 162.009 92.3784 162.633 92.9958C163.263 93.6132 163.753 94.3898 164.103 95.3255C164.453 96.2548 164.629 97.3433 164.629 98.5909V99.708H152.245V97.1873H160.8C160.8 96.6017 160.673 96.0829 160.418 95.631C160.163 95.1791 159.81 94.8258 159.358 94.5712C158.913 94.3102 158.394 94.1797 157.802 94.1797C157.184 94.1797 156.637 94.323 156.16 94.6094C155.689 94.8895 155.319 95.2682 155.052 95.7456C154.785 96.2166 154.648 96.7418 154.641 97.321V99.7175C154.641 100.443 154.775 101.07 155.042 101.598C155.316 102.127 155.701 102.534 156.198 102.821C156.694 103.107 157.283 103.25 157.964 103.25C158.416 103.25 158.83 103.187 159.205 103.059C159.581 102.932 159.902 102.741 160.17 102.486C160.437 102.232 160.641 101.92 160.781 101.551L164.543 101.799C164.352 102.703 163.96 103.492 163.368 104.167C162.783 104.835 162.025 105.357 161.096 105.733C160.173 106.102 159.107 106.286 157.897 106.286ZM171.35 97.5215V106H167.283V91.3345H171.159V93.9219H171.331C171.656 93.069 172.2 92.3943 172.964 91.8978C173.728 91.3949 174.654 91.1435 175.742 91.1435C176.761 91.1435 177.649 91.3663 178.406 91.8119C179.164 92.2574 179.752 92.894 180.172 93.7214C180.593 94.5426 180.803 95.5228 180.803 96.6622V106H176.735V97.3878C176.742 96.4903 176.512 95.7901 176.048 95.2873C175.583 94.7781 174.943 94.5235 174.129 94.5235C173.581 94.5235 173.097 94.6412 172.677 94.8767C172.264 95.1122 171.939 95.456 171.703 95.9079C171.474 96.3535 171.357 96.8913 171.35 97.5215ZM188.076 97.5215V106H184.008V86.446H187.961V93.9219H188.133C188.464 93.0563 188.999 92.3784 189.737 91.8883C190.475 91.3918 191.402 91.1435 192.515 91.1435C193.534 91.1435 194.422 91.3663 195.179 91.8119C195.943 92.2511 196.535 92.8844 196.955 93.7119C197.382 94.533 197.592 95.5164 197.585 96.6622V106H193.518V97.3878C193.524 96.484 193.295 95.7806 192.831 95.2777C192.372 94.7749 191.729 94.5235 190.902 94.5235C190.348 94.5235 189.858 94.6412 189.431 94.8767C189.011 95.1122 188.68 95.456 188.438 95.9079C188.203 96.3535 188.082 96.8913 188.076 97.5215ZM210.191 99.7557V91.3345H214.258V106H210.353V103.336H210.2C209.869 104.195 209.319 104.886 208.549 105.408C207.785 105.93 206.852 106.191 205.751 106.191C204.771 106.191 203.908 105.968 203.164 105.523C202.419 105.077 201.837 104.444 201.416 103.623C201.003 102.801 200.793 101.818 200.786 100.672V91.3345H204.854V99.9467C204.86 100.812 205.092 101.497 205.551 101.999C206.009 102.502 206.623 102.754 207.393 102.754C207.884 102.754 208.342 102.642 208.768 102.42C209.195 102.19 209.538 101.853 209.799 101.407C210.067 100.962 210.197 100.411 210.191 99.7557ZM217.512 106V91.3345H221.388V93.9219H221.56C221.866 93.0626 222.375 92.3847 223.088 91.8883C223.801 91.3918 224.654 91.1435 225.647 91.1435C226.652 91.1435 227.508 91.3949 228.215 91.8978C228.921 92.3943 229.392 93.069 229.628 93.9219H229.781C230.08 93.0817 230.621 92.4102 231.404 91.9073C232.193 91.3981 233.126 91.1435 234.201 91.1435C235.57 91.1435 236.681 91.5795 237.534 92.4516C238.393 93.3172 238.823 94.5457 238.823 96.1371V106H234.765V96.9391C234.765 96.1243 234.548 95.5133 234.115 95.1059C233.683 94.6985 233.142 94.4948 232.492 94.4948C231.754 94.4948 231.178 94.7303 230.764 95.2014C230.35 95.666 230.144 96.2803 230.144 97.0441V106H226.2V96.8531C226.2 96.1339 225.993 95.561 225.58 95.1345C225.172 94.7081 224.634 94.4948 223.966 94.4948C223.514 94.4948 223.107 94.6094 222.744 94.8385C222.388 95.0613 222.104 95.3764 221.894 95.7838C221.684 96.1848 221.579 96.6558 221.579 97.1969V106H217.512ZM246.217 106.277C245.282 106.277 244.448 106.115 243.716 105.79C242.984 105.459 242.405 104.972 241.978 104.329C241.558 103.68 241.348 102.871 241.348 101.904C241.348 101.089 241.498 100.405 241.797 99.8512C242.096 99.2974 242.503 98.8518 243.019 98.5145C243.534 98.1771 244.12 97.9225 244.776 97.7506C245.438 97.5788 246.131 97.4578 246.857 97.3878C247.71 97.2987 248.398 97.216 248.919 97.1396C249.441 97.0568 249.82 96.9359 250.056 96.7768C250.291 96.6176 250.409 96.3821 250.409 96.0702V96.0129C250.409 95.4082 250.218 94.9404 249.836 94.6094C249.461 94.2784 248.926 94.1129 248.232 94.1129C247.5 94.1129 246.918 94.2752 246.485 94.5998C246.052 94.9181 245.765 95.3191 245.625 95.8029L241.864 95.4973C242.055 94.6062 242.43 93.836 242.99 93.1868C243.55 92.5311 244.273 92.0283 245.158 91.6782C246.049 91.3217 247.08 91.1435 248.251 91.1435C249.066 91.1435 249.846 91.239 250.59 91.43C251.341 91.6209 252.007 91.9169 252.586 92.3179C253.171 92.7189 253.633 93.2345 253.97 93.8647C254.308 94.4885 254.476 95.2364 254.476 96.1084V106H250.619V103.966H250.504C250.269 104.425 249.954 104.829 249.559 105.179C249.165 105.523 248.69 105.793 248.137 105.99C247.583 106.181 246.943 106.277 246.217 106.277ZM247.382 103.47C247.981 103.47 248.509 103.352 248.967 103.117C249.426 102.875 249.785 102.55 250.046 102.143C250.307 101.735 250.438 101.274 250.438 100.758V99.2019C250.31 99.2847 250.135 99.361 249.912 99.4311C249.696 99.4947 249.451 99.5552 249.177 99.6125C248.904 99.6634 248.63 99.7111 248.356 99.7557C248.082 99.7939 247.834 99.8289 247.611 99.8607C247.134 99.9307 246.717 100.042 246.361 100.195C246.004 100.348 245.727 100.555 245.53 100.816C245.333 101.07 245.234 101.388 245.234 101.77C245.234 102.324 245.434 102.747 245.836 103.04C246.243 103.327 246.758 103.47 247.382 103.47ZM263.855 106V91.3345H267.731V93.9219H267.903C268.209 93.0626 268.718 92.3847 269.431 91.8883C270.144 91.3918 270.997 91.1435 271.99 91.1435C272.995 91.1435 273.851 91.3949 274.558 91.8978C275.264 92.3943 275.735 93.069 275.971 93.9219H276.124C276.423 93.0817 276.964 92.4102 277.747 91.9073C278.536 91.3981 279.469 91.1435 280.544 91.1435C281.913 91.1435 283.024 91.5795 283.877 92.4516C284.736 93.3172 285.166 94.5457 285.166 96.1371V106H281.108V96.9391C281.108 96.1243 280.891 95.5133 280.458 95.1059C280.026 94.6985 279.485 94.4948 278.835 94.4948C278.097 94.4948 277.521 94.7303 277.107 95.2014C276.693 95.666 276.487 96.2803 276.487 97.0441V106H272.543V96.8531C272.543 96.1339 272.336 95.561 271.923 95.1345C271.515 94.7081 270.977 94.4948 270.309 94.4948C269.857 94.4948 269.45 94.6094 269.087 94.8385C268.73 95.0613 268.447 95.3764 268.237 95.7838C268.027 96.1848 267.922 96.6558 267.922 97.1969V106H263.855ZM295.062 106.286C293.553 106.286 292.255 105.981 291.166 105.37C290.084 104.752 289.25 103.88 288.665 102.754C288.079 101.621 287.786 100.281 287.786 98.7341C287.786 97.2255 288.079 95.9015 288.665 94.7622C289.25 93.6228 290.075 92.7348 291.138 92.0983C292.207 91.4618 293.461 91.1435 294.9 91.1435C295.867 91.1435 296.768 91.2995 297.602 91.6114C298.442 91.9169 299.174 92.3784 299.798 92.9958C300.428 93.6132 300.918 94.3898 301.268 95.3255C301.618 96.2548 301.793 97.3433 301.793 98.5909V99.708H289.41V97.1873H297.964C297.964 96.6017 297.837 96.0829 297.583 95.631C297.328 95.1791 296.975 94.8258 296.523 94.5712C296.077 94.3102 295.558 94.1797 294.966 94.1797C294.349 94.1797 293.802 94.323 293.324 94.6094C292.853 94.8895 292.484 95.2682 292.217 95.7456C291.949 96.2166 291.812 96.7418 291.806 97.321V99.7175C291.806 100.443 291.94 101.07 292.207 101.598C292.481 102.127 292.866 102.534 293.362 102.821C293.859 103.107 294.448 103.25 295.129 103.25C295.581 103.25 295.994 103.187 296.37 103.059C296.746 102.932 297.067 102.741 297.334 102.486C297.602 102.232 297.805 101.92 297.945 101.551L301.707 101.799C301.516 102.703 301.125 103.492 300.533 104.167C299.947 104.835 299.19 105.357 298.26 105.733C297.337 106.102 296.271 106.286 295.062 106.286ZM308.515 97.5215V106H304.447V91.3345H308.324V93.9219H308.496C308.82 93.069 309.365 92.3943 310.128 91.8978C310.892 91.3949 311.818 91.1435 312.907 91.1435C313.925 91.1435 314.813 91.3663 315.571 91.8119C316.328 92.2574 316.917 92.894 317.337 93.7214C317.757 94.5426 317.967 95.5228 317.967 96.6622V106H313.9V97.3878C313.906 96.4903 313.677 95.7901 313.212 95.2873C312.748 94.7781 312.108 94.5235 311.293 94.5235C310.746 94.5235 310.262 94.6412 309.842 94.8767C309.428 95.1122 309.104 95.456 308.868 95.9079C308.639 96.3535 308.521 96.8913 308.515 97.5215ZM333.375 95.5164L329.651 95.7456C329.588 95.4273 329.451 95.1409 329.241 94.8863C329.031 94.6253 328.754 94.4184 328.41 94.2657C328.073 94.1065 327.669 94.027 327.198 94.027C326.568 94.027 326.036 94.1606 325.603 94.428C325.17 94.689 324.954 95.039 324.954 95.4782C324.954 95.8283 325.094 96.1243 325.374 96.3662C325.654 96.6081 326.135 96.8022 326.816 96.9486L329.47 97.4833C330.896 97.7761 331.959 98.2471 332.659 98.8964C333.359 99.5456 333.709 100.399 333.709 101.455C333.709 102.416 333.426 103.26 332.86 103.985C332.299 104.711 331.529 105.278 330.549 105.685C329.575 106.086 328.452 106.286 327.179 106.286C325.237 106.286 323.69 105.882 322.538 105.074C321.393 104.259 320.721 103.152 320.524 101.751L324.524 101.541C324.645 102.133 324.938 102.585 325.403 102.897C325.867 103.202 326.462 103.355 327.188 103.355C327.901 103.355 328.474 103.218 328.907 102.945C329.346 102.665 329.569 102.305 329.575 101.866C329.569 101.497 329.413 101.194 329.107 100.959C328.802 100.717 328.331 100.532 327.694 100.405L325.154 99.8989C323.722 99.6125 322.656 99.116 321.956 98.4094C321.262 97.7029 320.915 96.8022 320.915 95.7074C320.915 94.7653 321.17 93.9538 321.679 93.2727C322.195 92.5916 322.917 92.0665 323.846 91.6973C324.782 91.3281 325.877 91.1435 327.131 91.1435C328.983 91.1435 330.441 91.535 331.504 92.3179C332.573 93.1008 333.197 94.167 333.375 95.5164ZM340.452 106.277C339.517 106.277 338.683 106.115 337.951 105.79C337.219 105.459 336.64 104.972 336.213 104.329C335.793 103.68 335.583 102.871 335.583 101.904C335.583 101.089 335.733 100.405 336.032 99.8512C336.331 99.2974 336.738 98.8518 337.254 98.5145C337.77 98.1771 338.355 97.9225 339.011 97.7506C339.673 97.5788 340.367 97.4578 341.092 97.3878C341.945 97.2987 342.633 97.216 343.155 97.1396C343.676 97.0568 344.055 96.9359 344.291 96.7768C344.526 96.6176 344.644 96.3821 344.644 96.0702V96.0129C344.644 95.4082 344.453 94.9404 344.071 94.6094C343.696 94.2784 343.161 94.1129 342.467 94.1129C341.735 94.1129 341.153 94.2752 340.72 94.5998C340.287 94.9181 340.001 95.3191 339.861 95.8029L336.099 95.4973C336.29 94.6062 336.665 93.836 337.225 93.1868C337.785 92.5311 338.508 92.0283 339.393 91.6782C340.284 91.3217 341.315 91.1435 342.486 91.1435C343.301 91.1435 344.081 91.239 344.825 91.43C345.577 91.6209 346.242 91.9169 346.821 92.3179C347.407 92.7189 347.868 93.2345 348.205 93.8647C348.543 94.4885 348.711 95.2364 348.711 96.1084V106H344.854V103.966H344.739C344.504 104.425 344.189 104.829 343.794 105.179C343.4 105.523 342.925 105.793 342.372 105.99C341.818 106.181 341.178 106.277 340.452 106.277ZM341.617 103.47C342.216 103.47 342.744 103.352 343.202 103.117C343.661 102.875 344.02 102.55 344.281 102.143C344.542 101.735 344.673 101.274 344.673 100.758V99.2019C344.545 99.2847 344.37 99.361 344.148 99.4311C343.931 99.4947 343.686 99.5552 343.412 99.6125C343.139 99.6634 342.865 99.7111 342.591 99.7557C342.318 99.7939 342.069 99.8289 341.846 99.8607C341.369 99.9307 340.952 100.042 340.596 100.195C340.239 100.348 339.962 100.555 339.765 100.816C339.568 101.07 339.469 101.388 339.469 101.77C339.469 102.324 339.67 102.747 340.071 103.04C340.478 103.327 340.994 103.47 341.617 103.47ZM358.474 111.805C357.156 111.805 356.027 111.624 355.085 111.261C354.149 110.904 353.404 110.417 352.85 109.8C352.297 109.183 351.937 108.489 351.771 107.719L355.533 107.213C355.648 107.505 355.829 107.779 356.078 108.034C356.326 108.288 356.654 108.492 357.061 108.645C357.475 108.804 357.978 108.883 358.57 108.883C359.454 108.883 360.183 108.667 360.756 108.234C361.335 107.808 361.625 107.092 361.625 106.086V103.403H361.453C361.275 103.81 361.007 104.195 360.651 104.558C360.295 104.921 359.836 105.217 359.276 105.446C358.716 105.675 358.048 105.79 357.271 105.79C356.17 105.79 355.167 105.535 354.263 105.026C353.366 104.511 352.65 103.724 352.115 102.668C351.587 101.605 351.323 100.262 351.323 98.6386C351.323 96.9773 351.593 95.5896 352.134 94.4757C352.675 93.3618 353.395 92.528 354.292 91.9742C355.196 91.4204 356.186 91.1435 357.262 91.1435C358.083 91.1435 358.77 91.2836 359.324 91.5636C359.878 91.8373 360.323 92.1811 360.661 92.5948C361.004 93.0022 361.268 93.4032 361.453 93.7978H361.606V91.3345H365.645V106.143C365.645 107.391 365.339 108.435 364.728 109.275C364.117 110.115 363.27 110.745 362.188 111.165C361.112 111.592 359.874 111.805 358.474 111.805ZM358.56 102.735C359.216 102.735 359.769 102.572 360.221 102.248C360.68 101.917 361.03 101.446 361.272 100.835C361.52 100.217 361.644 99.4788 361.644 98.6195C361.644 97.7602 361.523 97.0155 361.281 96.3853C361.039 95.7488 360.689 95.2555 360.231 94.9054C359.773 94.5553 359.216 94.3802 358.56 94.3802C357.892 94.3802 357.328 94.5617 356.87 94.9245C356.412 95.2809 356.065 95.7774 355.829 96.4139C355.594 97.0505 355.476 97.7857 355.476 98.6195C355.476 99.4661 355.594 100.198 355.829 100.816C356.071 101.427 356.418 101.901 356.87 102.238C357.328 102.569 357.892 102.735 358.56 102.735ZM375.565 106.286C374.056 106.286 372.758 105.981 371.669 105.37C370.587 104.752 369.753 103.88 369.168 102.754C368.582 101.621 368.289 100.281 368.289 98.7341C368.289 97.2255 368.582 95.9015 369.168 94.7622C369.753 93.6228 370.578 92.7348 371.641 92.0983C372.71 91.4618 373.964 91.1435 375.402 91.1435C376.37 91.1435 377.271 91.2995 378.104 91.6114C378.945 91.9169 379.677 92.3784 380.301 92.9958C380.931 93.6132 381.421 94.3898 381.771 95.3255C382.121 96.2548 382.296 97.3433 382.296 98.5909V99.708H369.912V97.1873H378.467C378.467 96.6017 378.34 96.0829 378.085 95.631C377.831 95.1791 377.478 94.8258 377.026 94.5712C376.58 94.3102 376.061 94.1797 375.469 94.1797C374.852 94.1797 374.304 94.323 373.827 94.6094C373.356 94.8895 372.987 95.2682 372.719 95.7456C372.452 96.2166 372.315 96.7418 372.309 97.321V99.7175C372.309 100.443 372.443 101.07 372.71 101.598C372.984 102.127 373.369 102.534 373.865 102.821C374.362 103.107 374.951 103.25 375.632 103.25C376.084 103.25 376.497 103.187 376.873 103.059C377.248 102.932 377.57 102.741 377.837 102.486C378.104 102.232 378.308 101.92 378.448 101.551L382.21 101.799C382.019 102.703 381.628 103.492 381.036 104.167C380.45 104.835 379.693 105.357 378.763 105.733C377.84 106.102 376.774 106.286 375.565 106.286ZM384.95 106V91.3345H388.827V93.9219H388.999C389.304 93.0626 389.813 92.3847 390.526 91.8883C391.239 91.3918 392.092 91.1435 393.085 91.1435C394.091 91.1435 394.947 91.3949 395.653 91.8978C396.36 92.3943 396.831 93.069 397.067 93.9219H397.219C397.518 93.0817 398.06 92.4102 398.842 91.9073C399.632 91.3981 400.564 91.1435 401.64 91.1435C403.009 91.1435 404.119 91.5795 404.972 92.4516C405.832 93.3172 406.261 94.5457 406.261 96.1371V106H402.203V96.9391C402.203 96.1243 401.987 95.5133 401.554 95.1059C401.121 94.6985 400.58 94.4948 399.931 94.4948C399.193 94.4948 398.616 94.7303 398.203 95.2014C397.789 95.666 397.582 96.2803 397.582 97.0441V106H393.639V96.8531C393.639 96.1339 393.432 95.561 393.018 95.1345C392.611 94.7081 392.073 94.4948 391.405 94.4948C390.953 94.4948 390.545 94.6094 390.183 94.8385C389.826 95.0613 389.543 95.3764 389.333 95.7838C389.123 96.1848 389.018 96.6558 389.018 97.1969V106H384.95ZM422.38 106.286C420.872 106.286 419.573 105.981 418.485 105.37C417.403 104.752 416.569 103.88 415.983 102.754C415.398 101.621 415.105 100.281 415.105 98.7341C415.105 97.2255 415.398 95.9015 415.983 94.7622C416.569 93.6228 417.393 92.7348 418.456 92.0983C419.526 91.4618 420.779 91.1435 422.218 91.1435C423.186 91.1435 424.086 91.2995 424.92 91.6114C425.76 91.9169 426.492 92.3784 427.116 92.9958C427.746 93.6132 428.236 94.3898 428.586 95.3255C428.937 96.2548 429.112 97.3433 429.112 98.5909V99.708H416.728V97.1873H425.283C425.283 96.6017 425.156 96.0829 424.901 95.631C424.646 95.1791 424.293 94.8258 423.841 94.5712C423.396 94.3102 422.877 94.1797 422.285 94.1797C421.667 94.1797 421.12 94.323 420.643 94.6094C420.172 94.8895 419.802 95.2682 419.535 95.7456C419.268 96.2166 419.131 96.7418 419.125 97.321V99.7175C419.125 100.443 419.258 101.07 419.526 101.598C419.799 102.127 420.184 102.534 420.681 102.821C421.177 103.107 421.766 103.25 422.447 103.25C422.899 103.25 423.313 103.187 423.688 103.059C424.064 102.932 424.385 102.741 424.653 102.486C424.92 102.232 425.124 101.92 425.264 101.551L429.026 101.799C428.835 102.703 428.443 103.492 427.851 104.167C427.266 104.835 426.508 105.357 425.579 105.733C424.656 106.102 423.59 106.286 422.38 106.286ZM435.833 97.5215V106H431.766V91.3345H435.642V93.9219H435.814C436.139 93.069 436.683 92.3943 437.447 91.8978C438.211 91.3949 439.137 91.1435 440.225 91.1435C441.244 91.1435 442.132 91.3663 442.889 91.8119C443.647 92.2574 444.235 92.894 444.656 93.7214C445.076 94.5426 445.286 95.5228 445.286 96.6622V106H441.218V97.3878C441.225 96.4903 440.996 95.7901 440.531 95.2873C440.066 94.7781 439.426 94.5235 438.612 94.5235C438.064 94.5235 437.581 94.6412 437.16 94.8767C436.747 95.1122 436.422 95.456 436.187 95.9079C435.957 96.3535 435.84 96.8913 435.833 97.5215ZM455.118 106.286C453.615 106.286 452.323 105.968 451.241 105.332C450.165 104.689 449.338 103.798 448.759 102.658C448.186 101.519 447.899 100.208 447.899 98.7245C447.899 97.2223 448.189 95.9047 448.768 94.7717C449.354 93.6323 450.185 92.7444 451.26 92.1079C452.336 91.465 453.615 91.1435 455.099 91.1435C456.378 91.1435 457.498 91.3758 458.459 91.8405C459.421 92.3052 460.181 92.9576 460.741 93.7978C461.301 94.638 461.61 95.6247 461.667 96.7577H457.829C457.721 96.0257 457.435 95.4369 456.97 94.9913C456.512 94.5394 455.91 94.3134 455.165 94.3134C454.535 94.3134 453.985 94.4853 453.514 94.829C453.049 95.1664 452.686 95.6597 452.425 96.3089C452.164 96.9582 452.034 97.7443 452.034 98.6672C452.034 99.6029 452.161 100.399 452.416 101.054C452.677 101.71 453.043 102.209 453.514 102.553C453.985 102.897 454.535 103.069 455.165 103.069C455.63 103.069 456.047 102.973 456.416 102.782C456.792 102.591 457.1 102.315 457.342 101.952C457.591 101.583 457.753 101.14 457.829 100.625H461.667C461.604 101.745 461.298 102.731 460.751 103.584C460.21 104.431 459.462 105.093 458.507 105.57C457.552 106.048 456.422 106.286 455.118 106.286ZM470.898 106.286C469.415 106.286 468.132 105.971 467.05 105.341C465.974 104.705 465.144 103.82 464.558 102.687C463.972 101.548 463.68 100.227 463.68 98.7245C463.68 97.2096 463.972 95.8856 464.558 94.7526C465.144 93.6132 465.974 92.7285 467.05 92.0983C468.132 91.4618 469.415 91.1435 470.898 91.1435C472.381 91.1435 473.66 91.4618 474.736 92.0983C475.818 92.7285 476.652 93.6132 477.238 94.7526C477.823 95.8856 478.116 97.2096 478.116 98.7245C478.116 100.227 477.823 101.548 477.238 102.687C476.652 103.82 475.818 104.705 474.736 105.341C473.66 105.971 472.381 106.286 470.898 106.286ZM470.917 103.136C471.592 103.136 472.155 102.945 472.607 102.563C473.059 102.174 473.399 101.646 473.629 100.978C473.864 100.309 473.982 99.5488 473.982 98.6959C473.982 97.8429 473.864 97.0823 473.629 96.4139C473.399 95.7456 473.059 95.2173 472.607 94.829C472.155 94.4407 471.592 94.2466 470.917 94.2466C470.236 94.2466 469.663 94.4407 469.198 94.829C468.74 95.2173 468.393 95.7456 468.158 96.4139C467.928 97.0823 467.814 97.8429 467.814 98.6959C467.814 99.5488 467.928 100.309 468.158 100.978C468.393 101.646 468.74 102.174 469.198 102.563C469.663 102.945 470.236 103.136 470.917 103.136ZM484.828 97.5215V106H480.761V91.3345H484.637V93.9219H484.809C485.134 93.069 485.678 92.3943 486.442 91.8978C487.206 91.3949 488.132 91.1435 489.22 91.1435C490.239 91.1435 491.127 91.3663 491.884 91.8119C492.642 92.2574 493.23 92.894 493.65 93.7214C494.07 94.5426 494.281 95.5228 494.281 96.6622V106H490.213V97.3878C490.22 96.4903 489.99 95.7901 489.526 95.2873C489.061 94.7781 488.421 94.5235 487.607 94.5235C487.059 94.5235 486.575 94.6412 486.155 94.8767C485.742 95.1122 485.417 95.456 485.181 95.9079C484.952 96.3535 484.835 96.8913 484.828 97.5215ZM505.287 91.3345V94.3898H496.455V91.3345H505.287ZM498.46 87.8209H502.528V101.493C502.528 101.869 502.585 102.162 502.699 102.372C502.814 102.575 502.973 102.719 503.177 102.801C503.387 102.884 503.629 102.926 503.902 102.926C504.093 102.926 504.284 102.91 504.475 102.878C504.666 102.84 504.813 102.811 504.915 102.792L505.554 105.819C505.351 105.882 505.064 105.955 504.695 106.038C504.326 106.127 503.877 106.181 503.349 106.201C502.368 106.239 501.509 106.108 500.771 105.809C500.039 105.51 499.469 105.045 499.062 104.415C498.654 103.785 498.454 102.989 498.46 102.028V87.8209ZM507.936 106V91.3345H511.88V93.8933H512.032C512.3 92.9831 512.749 92.2956 513.379 91.831C514.009 91.3599 514.734 91.1244 515.556 91.1244C515.759 91.1244 515.979 91.1372 516.214 91.1626C516.45 91.1881 516.657 91.2231 516.835 91.2676V94.8767C516.644 94.8194 516.38 94.7685 516.043 94.724C515.705 94.6794 515.396 94.6571 515.116 94.6571C514.518 94.6571 513.983 94.7876 513.512 95.0486C513.048 95.3032 512.679 95.6597 512.405 96.118C512.137 96.5763 512.004 97.1046 512.004 97.7029V106H507.936ZM522.7 106.277C521.764 106.277 520.93 106.115 520.198 105.79C519.466 105.459 518.887 104.972 518.461 104.329C518.04 103.68 517.83 102.871 517.83 101.904C517.83 101.089 517.98 100.405 518.279 99.8512C518.578 99.2974 518.986 98.8518 519.501 98.5145C520.017 98.1771 520.602 97.9225 521.258 97.7506C521.92 97.5788 522.614 97.4578 523.339 97.3878C524.192 97.2987 524.88 97.216 525.402 97.1396C525.924 97.0568 526.303 96.9359 526.538 96.7768C526.774 96.6176 526.891 96.3821 526.891 96.0702V96.0129C526.891 95.4082 526.7 94.9404 526.318 94.6094C525.943 94.2784 525.408 94.1129 524.714 94.1129C523.982 94.1129 523.4 94.2752 522.967 94.5998C522.534 94.9181 522.248 95.3191 522.108 95.8029L518.346 95.4973C518.537 94.6062 518.912 93.836 519.473 93.1868C520.033 92.5311 520.755 92.0283 521.64 91.6782C522.531 91.3217 523.562 91.1435 524.733 91.1435C525.548 91.1435 526.328 91.239 527.073 91.43C527.824 91.6209 528.489 91.9169 529.068 92.3179C529.654 92.7189 530.115 93.2345 530.453 93.8647C530.79 94.4885 530.959 95.2364 530.959 96.1084V106H527.101V103.966H526.987C526.751 104.425 526.436 104.829 526.042 105.179C525.647 105.523 525.173 105.793 524.619 105.99C524.065 106.181 523.425 106.277 522.7 106.277ZM523.865 103.47C524.463 103.47 524.991 103.352 525.45 103.117C525.908 102.875 526.268 102.55 526.528 102.143C526.789 101.735 526.92 101.274 526.92 100.758V99.2019C526.793 99.2847 526.618 99.361 526.395 99.4311C526.178 99.4947 525.933 99.5552 525.66 99.6125C525.386 99.6634 525.112 99.7111 524.839 99.7557C524.565 99.7939 524.317 99.8289 524.094 99.8607C523.616 99.9307 523.199 100.042 522.843 100.195C522.487 100.348 522.21 100.555 522.012 100.816C521.815 101.07 521.716 101.388 521.716 101.77C521.716 102.324 521.917 102.747 522.318 103.04C522.725 103.327 523.241 103.47 523.865 103.47ZM539.518 106.239C538.404 106.239 537.396 105.952 536.492 105.379C535.594 104.8 534.881 103.95 534.353 102.83C533.831 101.703 533.57 100.322 533.57 98.6863C533.57 97.0059 533.841 95.6087 534.382 94.4948C534.923 93.3745 535.642 92.5375 536.539 91.9837C537.443 91.4236 538.433 91.1435 539.509 91.1435C540.33 91.1435 541.014 91.2836 541.562 91.5636C542.115 91.8373 542.561 92.1811 542.898 92.5948C543.242 93.0022 543.503 93.4032 543.681 93.7978H543.805V86.446H547.863V106H543.853V103.651H543.681C543.49 104.059 543.22 104.463 542.87 104.864C542.526 105.258 542.077 105.586 541.523 105.847C540.976 106.108 540.308 106.239 539.518 106.239ZM540.807 103.002C541.463 103.002 542.017 102.824 542.469 102.467C542.927 102.104 543.277 101.598 543.519 100.949C543.767 100.3 543.891 99.5393 543.891 98.6672C543.891 97.7952 543.77 97.0377 543.528 96.3948C543.287 95.752 542.936 95.2555 542.478 94.9054C542.02 94.5553 541.463 94.3802 540.807 94.3802C540.139 94.3802 539.576 94.5617 539.117 94.9245C538.659 95.2873 538.312 95.7901 538.077 96.433C537.841 97.0759 537.723 97.8207 537.723 98.6672C537.723 99.5202 537.841 100.274 538.077 100.93C538.319 101.579 538.665 102.089 539.117 102.458C539.576 102.821 540.139 103.002 540.807 103.002ZM555.389 106.277C554.454 106.277 553.62 106.115 552.888 105.79C552.156 105.459 551.577 104.972 551.15 104.329C550.73 103.68 550.52 102.871 550.52 101.904C550.52 101.089 550.669 100.405 550.969 99.8512C551.268 99.2974 551.675 98.8518 552.191 98.5145C552.706 98.1771 553.292 97.9225 553.948 97.7506C554.61 97.5788 555.303 97.4578 556.029 97.3878C556.882 97.2987 557.569 97.216 558.091 97.1396C558.613 97.0568 558.992 96.9359 559.228 96.7768C559.463 96.6176 559.581 96.3821 559.581 96.0702V96.0129C559.581 95.4082 559.39 94.9404 559.008 94.6094C558.632 94.2784 558.098 94.1129 557.404 94.1129C556.672 94.1129 556.089 94.2752 555.657 94.5998C555.224 94.9181 554.937 95.3191 554.797 95.8029L551.035 95.4973C551.226 94.6062 551.602 93.836 552.162 93.1868C552.722 92.5311 553.445 92.0283 554.329 91.6782C555.221 91.3217 556.252 91.1435 557.423 91.1435C558.238 91.1435 559.017 91.239 559.762 91.43C560.513 91.6209 561.178 91.9169 561.758 92.3179C562.343 92.7189 562.805 93.2345 563.142 93.8647C563.48 94.4885 563.648 95.2364 563.648 96.1084V106H559.791V103.966H559.676C559.441 104.425 559.126 104.829 558.731 105.179C558.336 105.523 557.862 105.793 557.308 105.99C556.755 106.181 556.115 106.277 555.389 106.277ZM556.554 103.47C557.152 103.47 557.681 103.352 558.139 103.117C558.597 102.875 558.957 102.55 559.218 102.143C559.479 101.735 559.609 101.274 559.609 100.758V99.2019C559.482 99.2847 559.307 99.361 559.084 99.4311C558.868 99.4947 558.623 99.5552 558.349 99.6125C558.075 99.6634 557.802 99.7111 557.528 99.7557C557.254 99.7939 557.006 99.8289 556.783 99.8607C556.306 99.9307 555.889 100.042 555.533 100.195C555.176 100.348 554.899 100.555 554.702 100.816C554.505 101.07 554.406 101.388 554.406 101.77C554.406 102.324 554.606 102.747 555.007 103.04C555.415 103.327 555.93 103.47 556.554 103.47Z" fill="#310055"/>
<path d="M79.0418 148H74.8217V134.964H79.1755C80.4528 134.964 81.5497 135.225 82.4663 135.747C83.3829 136.265 84.0852 137.009 84.5732 137.981C85.0655 138.949 85.3116 140.109 85.3116 141.463C85.3116 142.821 85.0634 143.988 84.5669 144.964C84.0746 145.94 83.3617 146.691 82.4281 147.217C81.4946 147.739 80.3658 148 79.0418 148ZM76.7885 146.281H78.9336C79.9266 146.281 80.752 146.095 81.4097 145.721C82.0674 145.344 82.5597 144.798 82.8864 144.085C83.2132 143.368 83.3766 142.494 83.3766 141.463C83.3766 140.44 83.2132 139.572 82.8864 138.86C82.5639 138.147 82.0823 137.606 81.4415 137.236C80.8008 136.867 80.0051 136.683 79.0546 136.683H76.7885V146.281ZM87.6047 148V138.223H89.5079V148H87.6047ZM88.5658 136.714C88.2348 136.714 87.9505 136.604 87.7129 136.383C87.4795 136.159 87.3628 135.891 87.3628 135.581C87.3628 135.267 87.4795 135 87.7129 134.779C87.9505 134.554 88.2348 134.442 88.5658 134.442C88.8968 134.442 89.179 134.554 89.4124 134.779C89.65 135 89.7689 135.267 89.7689 135.581C89.7689 135.891 89.65 136.159 89.4124 136.383C89.179 136.604 88.8968 136.714 88.5658 136.714ZM96.1675 151.87C95.391 151.87 94.7226 151.768 94.1625 151.565C93.6066 151.361 93.1525 151.091 92.8003 150.756C92.4481 150.421 92.185 150.054 92.011 149.655L93.6469 148.98C93.7615 149.167 93.9142 149.364 94.1052 149.572C94.3004 149.784 94.5635 149.965 94.8945 150.113C95.2297 150.262 95.6604 150.336 96.1866 150.336C96.908 150.336 97.5042 150.16 97.9753 149.808C98.4463 149.46 98.6818 148.904 98.6818 148.14V146.218H98.5609C98.4463 146.426 98.2808 146.657 98.0644 146.912C97.8522 147.166 97.5594 147.387 97.186 147.574C96.8125 147.76 96.3267 147.854 95.7283 147.854C94.956 147.854 94.2601 147.673 93.6405 147.313C93.0252 146.948 92.5372 146.411 92.1765 145.702C91.8201 144.989 91.6418 144.113 91.6418 143.073C91.6418 142.034 91.8179 141.143 92.1701 140.4C92.5266 139.657 93.0146 139.089 93.6342 138.694C94.2537 138.295 94.956 138.096 95.7411 138.096C96.3479 138.096 96.838 138.198 97.2114 138.401C97.5849 138.601 97.8755 138.834 98.0835 139.101C98.2956 139.369 98.459 139.604 98.5736 139.808H98.7136V138.223H100.579V148.216C100.579 149.057 100.383 149.746 99.993 150.285C99.6026 150.824 99.0743 151.223 98.4081 151.482C97.7461 151.741 96.9992 151.87 96.1675 151.87ZM96.1484 146.275C96.6958 146.275 97.1584 146.148 97.5361 145.893C97.918 145.634 98.2065 145.265 98.4017 144.786C98.6012 144.302 98.7009 143.723 98.7009 143.048C98.7009 142.39 98.6033 141.811 98.4081 141.31C98.2129 140.809 97.9265 140.419 97.5488 140.139C97.1711 139.855 96.7043 139.712 96.1484 139.712C95.5756 139.712 95.0982 139.861 94.7162 140.158C94.3343 140.451 94.0458 140.85 93.8506 141.355C93.6596 141.86 93.5641 142.424 93.5641 143.048C93.5641 143.689 93.6617 144.251 93.8569 144.735C94.0521 145.218 94.3407 145.596 94.7226 145.868C95.1088 146.139 95.584 146.275 96.1484 146.275ZM103.131 148V138.223H105.034V148H103.131ZM104.092 136.714C103.761 136.714 103.477 136.604 103.239 136.383C103.006 136.159 102.889 135.891 102.889 135.581C102.889 135.267 103.006 135 103.239 134.779C103.477 134.554 103.761 134.442 104.092 134.442C104.423 134.442 104.705 134.554 104.939 134.779C105.176 135 105.295 135.267 105.295 135.581C105.295 135.891 105.176 136.159 104.939 136.383C104.705 136.604 104.423 136.714 104.092 136.714ZM112.159 138.223V139.751H106.818V138.223H112.159ZM108.25 135.881H110.154V145.129C110.154 145.498 110.209 145.776 110.319 145.963C110.429 146.146 110.572 146.271 110.746 146.339C110.924 146.402 111.117 146.434 111.325 146.434C111.478 146.434 111.611 146.424 111.726 146.402C111.84 146.381 111.929 146.364 111.993 146.351L112.337 147.924C112.227 147.966 112.069 148.008 111.866 148.051C111.662 148.098 111.408 148.123 111.102 148.127C110.601 148.136 110.134 148.047 109.702 147.86C109.269 147.673 108.919 147.385 108.651 146.994C108.384 146.604 108.25 146.114 108.25 145.524V135.881ZM118.373 148.197C117.409 148.197 116.58 147.992 115.884 147.58C115.192 147.164 114.657 146.581 114.28 145.829C113.906 145.074 113.72 144.189 113.72 143.175C113.72 142.174 113.906 141.291 114.28 140.527C114.657 139.763 115.184 139.167 115.858 138.739C116.537 138.31 117.331 138.096 118.239 138.096C118.791 138.096 119.325 138.187 119.843 138.369C120.361 138.552 120.825 138.838 121.237 139.229C121.649 139.619 121.973 140.126 122.211 140.75C122.449 141.37 122.567 142.123 122.567 143.01V143.684H114.795V142.259H120.702C120.702 141.758 120.601 141.314 120.397 140.928C120.193 140.538 119.907 140.23 119.538 140.005C119.173 139.78 118.744 139.668 118.252 139.668C117.717 139.668 117.25 139.799 116.851 140.063C116.457 140.321 116.151 140.661 115.935 141.081C115.723 141.497 115.617 141.949 115.617 142.437V143.551C115.617 144.204 115.731 144.76 115.96 145.218C116.194 145.677 116.518 146.027 116.934 146.269C117.35 146.506 117.836 146.625 118.392 146.625C118.752 146.625 119.081 146.574 119.378 146.472C119.675 146.366 119.932 146.209 120.149 146.001C120.365 145.793 120.53 145.537 120.645 145.231L122.446 145.556C122.302 146.086 122.043 146.551 121.67 146.95C121.301 147.344 120.836 147.652 120.276 147.873C119.72 148.089 119.086 148.197 118.373 148.197ZM135.616 143.945V138.223H137.526V148H135.654V146.307H135.552C135.328 146.829 134.967 147.264 134.47 147.612C133.978 147.955 133.365 148.127 132.631 148.127C132.003 148.127 131.447 147.989 130.963 147.714C130.484 147.433 130.106 147.02 129.83 146.472C129.559 145.925 129.423 145.248 129.423 144.442V138.223H131.326V144.213C131.326 144.879 131.511 145.409 131.88 145.804C132.249 146.199 132.728 146.396 133.318 146.396C133.675 146.396 134.029 146.307 134.381 146.129C134.738 145.95 135.033 145.681 135.266 145.32C135.504 144.96 135.62 144.501 135.616 143.945ZM140.083 148V138.223H141.91V139.814H142.031C142.234 139.275 142.568 138.855 143.03 138.554C143.493 138.248 144.046 138.096 144.691 138.096C145.345 138.096 145.892 138.248 146.334 138.554C146.779 138.86 147.108 139.28 147.32 139.814H147.422C147.655 139.292 148.027 138.876 148.536 138.567C149.045 138.253 149.652 138.096 150.356 138.096C151.243 138.096 151.967 138.374 152.527 138.93C153.091 139.485 153.374 140.324 153.374 141.444V148H151.47V141.622C151.47 140.96 151.29 140.481 150.929 140.183C150.569 139.886 150.138 139.738 149.637 139.738C149.018 139.738 148.536 139.929 148.192 140.311C147.849 140.688 147.677 141.174 147.677 141.768V148H145.78V141.501C145.78 140.971 145.614 140.544 145.283 140.222C144.952 139.899 144.522 139.738 143.991 139.738C143.63 139.738 143.297 139.833 142.992 140.024C142.691 140.211 142.447 140.472 142.26 140.807C142.077 141.143 141.986 141.531 141.986 141.972V148H140.083ZM165.232 138.223V139.751H159.892V138.223H165.232ZM161.324 135.881H163.227V145.129C163.227 145.498 163.282 145.776 163.392 145.963C163.503 146.146 163.645 146.271 163.819 146.339C163.997 146.402 164.19 146.434 164.398 146.434C164.551 146.434 164.685 146.424 164.799 146.402C164.914 146.381 165.003 146.364 165.067 146.351L165.41 147.924C165.3 147.966 165.143 148.008 164.939 148.051C164.736 148.098 164.481 148.123 164.175 148.127C163.675 148.136 163.208 148.047 162.775 147.86C162.342 147.673 161.992 147.385 161.725 146.994C161.457 146.604 161.324 146.114 161.324 145.524V135.881ZM171.446 148.197C170.483 148.197 169.653 147.992 168.957 147.58C168.266 147.164 167.731 146.581 167.353 145.829C166.98 145.074 166.793 144.189 166.793 143.175C166.793 142.174 166.98 141.291 167.353 140.527C167.731 139.763 168.257 139.167 168.932 138.739C169.611 138.31 170.404 138.096 171.312 138.096C171.864 138.096 172.399 138.187 172.916 138.369C173.434 138.552 173.899 138.838 174.31 139.229C174.722 139.619 175.047 140.126 175.284 140.75C175.522 141.37 175.641 142.123 175.641 143.01V143.684H167.869V142.259H173.776C173.776 141.758 173.674 141.314 173.47 140.928C173.267 140.538 172.98 140.23 172.611 140.005C172.246 139.78 171.817 139.668 171.325 139.668C170.79 139.668 170.324 139.799 169.925 140.063C169.53 140.321 169.225 140.661 169.008 141.081C168.796 141.497 168.69 141.949 168.69 142.437V143.551C168.69 144.204 168.805 144.76 169.034 145.218C169.267 145.677 169.592 146.027 170.008 146.269C170.423 146.506 170.909 146.625 171.465 146.625C171.826 146.625 172.155 146.574 172.452 146.472C172.749 146.366 173.006 146.209 173.222 146.001C173.438 145.793 173.604 145.537 173.718 145.231L175.52 145.556C175.376 146.086 175.117 146.551 174.743 146.95C174.374 147.344 173.909 147.652 173.349 147.873C172.793 148.089 172.159 148.197 171.446 148.197ZM179.027 138.223L181.185 142.029L183.362 138.223H185.443L182.394 143.111L185.469 148H183.387L181.185 144.346L178.989 148H176.901L179.944 143.111L176.939 138.223H179.027ZM191.961 138.223V139.751H186.621V138.223H191.961ZM188.053 135.881H189.956V145.129C189.956 145.498 190.011 145.776 190.122 145.963C190.232 146.146 190.374 146.271 190.548 146.339C190.726 146.402 190.919 146.434 191.127 146.434C191.28 146.434 191.414 146.424 191.528 146.402C191.643 146.381 191.732 146.364 191.796 146.351L192.14 147.924C192.029 147.966 191.872 148.008 191.668 148.051C191.465 148.098 191.21 148.123 190.905 148.127C190.404 148.136 189.937 148.047 189.504 147.86C189.071 147.673 188.721 147.385 188.454 146.994C188.187 146.604 188.053 146.114 188.053 145.524V135.881ZM198.08 148.197C197.163 148.197 196.363 147.987 195.68 147.567C194.997 147.147 194.467 146.559 194.089 145.804C193.711 145.049 193.522 144.166 193.522 143.156C193.522 142.142 193.711 141.255 194.089 140.495C194.467 139.736 194.997 139.146 195.68 138.726C196.363 138.306 197.163 138.096 198.08 138.096C198.996 138.096 199.796 138.306 200.48 138.726C201.163 139.146 201.693 139.736 202.071 140.495C202.449 141.255 202.637 142.142 202.637 143.156C202.637 144.166 202.449 145.049 202.071 145.804C201.693 146.559 201.163 147.147 200.48 147.567C199.796 147.987 198.996 148.197 198.08 148.197ZM198.086 146.6C198.68 146.6 199.173 146.443 199.563 146.129C199.953 145.815 200.242 145.397 200.429 144.875C200.62 144.353 200.715 143.778 200.715 143.15C200.715 142.526 200.62 141.953 200.429 141.431C200.242 140.905 199.953 140.483 199.563 140.164C199.173 139.846 198.68 139.687 198.086 139.687C197.488 139.687 196.991 139.846 196.597 140.164C196.206 140.483 195.916 140.905 195.725 141.431C195.538 141.953 195.445 142.526 195.445 143.15C195.445 143.778 195.538 144.353 195.725 144.875C195.916 145.397 196.206 145.815 196.597 146.129C196.991 146.443 197.488 146.6 198.086 146.6ZM216.106 151.666V146.479H215.992C215.877 146.687 215.712 146.924 215.495 147.192C215.283 147.459 214.99 147.692 214.617 147.892C214.243 148.091 213.76 148.191 213.165 148.191C212.376 148.191 211.672 147.989 211.052 147.586C210.437 147.179 209.953 146.6 209.601 145.849C209.253 145.093 209.079 144.187 209.079 143.131C209.079 142.074 209.255 141.17 209.607 140.419C209.964 139.668 210.452 139.093 211.071 138.694C211.691 138.295 212.393 138.096 213.178 138.096C213.785 138.096 214.273 138.198 214.642 138.401C215.016 138.601 215.304 138.834 215.508 139.101C215.716 139.369 215.877 139.604 215.992 139.808H216.151V138.223H218.009V151.666H216.106ZM213.586 146.568C214.133 146.568 214.596 146.424 214.973 146.135C215.355 145.842 215.644 145.437 215.839 144.919C216.038 144.402 216.138 143.799 216.138 143.111C216.138 142.433 216.04 141.838 215.845 141.329C215.65 140.82 215.364 140.423 214.986 140.139C214.608 139.855 214.141 139.712 213.586 139.712C213.013 139.712 212.535 139.861 212.153 140.158C211.772 140.455 211.483 140.86 211.288 141.374C211.097 141.887 211.001 142.466 211.001 143.111C211.001 143.765 211.099 144.353 211.294 144.875C211.489 145.397 211.778 145.81 212.16 146.116C212.546 146.417 213.021 146.568 213.586 146.568ZM226.762 143.945V138.223H228.671V148H226.8V146.307H226.698C226.473 146.829 226.112 147.264 225.616 147.612C225.124 147.955 224.51 148.127 223.776 148.127C223.148 148.127 222.592 147.989 222.109 147.714C221.629 147.433 221.251 147.02 220.976 146.472C220.704 145.925 220.568 145.248 220.568 144.442V138.223H222.471V144.213C222.471 144.879 222.656 145.409 223.025 145.804C223.394 146.199 223.874 146.396 224.464 146.396C224.82 146.396 225.175 146.307 225.527 146.129C225.883 145.95 226.178 145.681 226.412 145.32C226.649 144.96 226.766 144.501 226.762 143.945ZM235.442 148.197C234.479 148.197 233.649 147.992 232.953 147.58C232.262 147.164 231.727 146.581 231.349 145.829C230.976 145.074 230.789 144.189 230.789 143.175C230.789 142.174 230.976 141.291 231.349 140.527C231.727 139.763 232.253 139.167 232.928 138.739C233.607 138.31 234.4 138.096 235.309 138.096C235.86 138.096 236.395 138.187 236.913 138.369C237.43 138.552 237.895 138.838 238.307 139.229C238.718 139.619 239.043 140.126 239.28 140.75C239.518 141.37 239.637 142.123 239.637 143.01V143.684H231.865V142.259H237.772C237.772 141.758 237.67 141.314 237.466 140.928C237.263 140.538 236.976 140.23 236.607 140.005C236.242 139.78 235.814 139.668 235.321 139.668C234.787 139.668 234.32 139.799 233.921 140.063C233.526 140.321 233.221 140.661 233.004 141.081C232.792 141.497 232.686 141.949 232.686 142.437V143.551C232.686 144.204 232.801 144.76 233.03 145.218C233.263 145.677 233.588 146.027 234.004 146.269C234.42 146.506 234.905 146.625 235.461 146.625C235.822 146.625 236.151 146.574 236.448 146.472C236.745 146.366 237.002 146.209 237.218 146.001C237.435 145.793 237.6 145.537 237.715 145.231L239.516 145.556C239.372 146.086 239.113 146.551 238.739 146.95C238.37 147.344 237.906 147.652 237.345 147.873C236.79 148.089 236.155 148.197 235.442 148.197ZM254.856 138.223L251.311 148H249.274L245.722 138.223H247.765L250.241 145.747H250.343L252.813 138.223H254.856ZM260.431 148.197C259.514 148.197 258.714 147.987 258.031 147.567C257.348 147.147 256.817 146.559 256.44 145.804C256.062 145.049 255.873 144.166 255.873 143.156C255.873 142.142 256.062 141.255 256.44 140.495C256.817 139.736 257.348 139.146 258.031 138.726C258.714 138.306 259.514 138.096 260.431 138.096C261.347 138.096 262.147 138.306 262.83 138.726C263.514 139.146 264.044 139.736 264.422 140.495C264.799 141.255 264.988 142.142 264.988 143.156C264.988 144.166 264.799 145.049 264.422 145.804C264.044 146.559 263.514 147.147 262.83 147.567C262.147 147.987 261.347 148.197 260.431 148.197ZM260.437 146.6C261.031 146.6 261.523 146.443 261.914 146.129C262.304 145.815 262.593 145.397 262.779 144.875C262.97 144.353 263.066 143.778 263.066 143.15C263.066 142.526 262.97 141.953 262.779 141.431C262.593 140.905 262.304 140.483 261.914 140.164C261.523 139.846 261.031 139.687 260.437 139.687C259.839 139.687 259.342 139.846 258.948 140.164C258.557 140.483 258.266 140.905 258.075 141.431C257.889 141.953 257.795 142.526 257.795 143.15C257.795 143.778 257.889 144.353 258.075 144.875C258.266 145.397 258.557 145.815 258.948 146.129C259.342 146.443 259.839 146.6 260.437 146.6ZM271.231 148.197C270.285 148.197 269.47 147.983 268.787 147.554C268.108 147.122 267.586 146.525 267.221 145.766C266.856 145.006 266.673 144.136 266.673 143.156C266.673 142.163 266.86 141.287 267.233 140.527C267.607 139.763 268.133 139.167 268.812 138.739C269.491 138.31 270.291 138.096 271.212 138.096C271.954 138.096 272.616 138.234 273.198 138.509C273.779 138.781 274.248 139.163 274.604 139.655C274.965 140.147 275.179 140.722 275.247 141.38H273.395C273.293 140.922 273.06 140.527 272.695 140.196C272.334 139.865 271.85 139.7 271.244 139.7C270.713 139.7 270.248 139.84 269.85 140.12C269.455 140.396 269.147 140.79 268.927 141.304C268.706 141.813 268.596 142.416 268.596 143.111C268.596 143.824 268.704 144.44 268.92 144.957C269.137 145.475 269.442 145.876 269.837 146.16C270.236 146.445 270.705 146.587 271.244 146.587C271.604 146.587 271.931 146.521 272.224 146.39C272.521 146.254 272.769 146.061 272.969 145.81C273.172 145.56 273.314 145.259 273.395 144.906H275.247C275.179 145.539 274.974 146.103 274.63 146.6C274.286 147.096 273.826 147.487 273.249 147.771C272.676 148.055 272.003 148.197 271.231 148.197ZM281.496 148.197C280.533 148.197 279.704 147.992 279.008 147.58C278.316 147.164 277.781 146.581 277.404 145.829C277.03 145.074 276.843 144.189 276.843 143.175C276.843 142.174 277.03 141.291 277.404 140.527C277.781 139.763 278.307 139.167 278.982 138.739C279.661 138.31 280.455 138.096 281.363 138.096C281.914 138.096 282.449 138.187 282.967 138.369C283.484 138.552 283.949 138.838 284.361 139.229C284.772 139.619 285.097 140.126 285.335 140.75C285.572 141.37 285.691 142.123 285.691 143.01V143.684H277.919V142.259H283.826C283.826 141.758 283.724 141.314 283.521 140.928C283.317 140.538 283.03 140.23 282.661 140.005C282.296 139.78 281.868 139.668 281.375 139.668C280.841 139.668 280.374 139.799 279.975 140.063C279.58 140.321 279.275 140.661 279.059 141.081C278.846 141.497 278.74 141.949 278.74 142.437V143.551C278.74 144.204 278.855 144.76 279.084 145.218C279.317 145.677 279.642 146.027 280.058 146.269C280.474 146.506 280.96 146.625 281.515 146.625C281.876 146.625 282.205 146.574 282.502 146.472C282.799 146.366 283.056 146.209 283.272 146.001C283.489 145.793 283.654 145.537 283.769 145.231L285.57 145.556C285.426 146.086 285.167 146.551 284.794 146.95C284.424 147.344 283.96 147.652 283.4 147.873C282.844 148.089 282.209 148.197 281.496 148.197ZM282.598 137.052L281.293 135.346L279.981 137.052H278.263V136.956L280.497 134.257H282.082L284.323 136.956V137.052H282.598ZM296.206 148.191C295.417 148.191 294.713 147.989 294.093 147.586C293.478 147.179 292.994 146.6 292.642 145.849C292.294 145.093 292.12 144.187 292.12 143.131C292.12 142.074 292.296 141.17 292.648 140.419C293.005 139.668 293.493 139.093 294.112 138.694C294.732 138.295 295.434 138.096 296.219 138.096C296.826 138.096 297.314 138.198 297.683 138.401C298.057 138.601 298.345 138.834 298.549 139.101C298.757 139.369 298.918 139.604 299.033 139.808H299.147V134.964H301.05V148H299.192V146.479H299.033C298.918 146.687 298.753 146.924 298.536 147.192C298.324 147.459 298.031 147.692 297.658 147.892C297.284 148.091 296.801 148.191 296.206 148.191ZM296.627 146.568C297.174 146.568 297.637 146.424 298.014 146.135C298.396 145.842 298.685 145.437 298.88 144.919C299.079 144.402 299.179 143.799 299.179 143.111C299.179 142.433 299.081 141.838 298.886 141.329C298.691 140.82 298.405 140.423 298.027 140.139C297.649 139.855 297.182 139.712 296.627 139.712C296.054 139.712 295.576 139.861 295.194 140.158C294.812 140.455 294.524 140.86 294.329 141.374C294.138 141.887 294.042 142.466 294.042 143.111C294.042 143.765 294.14 144.353 294.335 144.875C294.53 145.397 294.819 145.81 295.201 146.116C295.587 146.417 296.062 146.568 296.627 146.568ZM307.981 148.197C307.017 148.197 306.188 147.992 305.492 147.58C304.8 147.164 304.265 146.581 303.888 145.829C303.514 145.074 303.328 144.189 303.328 143.175C303.328 142.174 303.514 141.291 303.888 140.527C304.265 139.763 304.792 139.167 305.466 138.739C306.145 138.31 306.939 138.096 307.847 138.096C308.399 138.096 308.933 138.187 309.451 138.369C309.969 138.552 310.433 138.838 310.845 139.229C311.257 139.619 311.581 140.126 311.819 140.75C312.056 141.37 312.175 142.123 312.175 143.01V143.684H304.403V142.259H310.31C310.31 141.758 310.208 141.314 310.005 140.928C309.801 140.538 309.515 140.23 309.145 140.005C308.78 139.78 308.352 139.668 307.86 139.668C307.325 139.668 306.858 139.799 306.459 140.063C306.065 140.321 305.759 140.661 305.543 141.081C305.331 141.497 305.224 141.949 305.224 142.437V143.551C305.224 144.204 305.339 144.76 305.568 145.218C305.802 145.677 306.126 146.027 306.542 146.269C306.958 146.506 307.444 146.625 308 146.625C308.36 146.625 308.689 146.574 308.986 146.472C309.283 146.366 309.54 146.209 309.756 146.001C309.973 145.793 310.138 145.537 310.253 145.231L312.054 145.556C311.91 146.086 311.651 146.551 311.278 146.95C310.909 147.344 310.444 147.652 309.884 147.873C309.328 148.089 308.693 148.197 307.981 148.197ZM321.613 140.61L319.888 140.915C319.816 140.695 319.702 140.485 319.545 140.285C319.392 140.086 319.184 139.923 318.921 139.795C318.658 139.668 318.329 139.604 317.934 139.604C317.395 139.604 316.946 139.725 316.585 139.967C316.224 140.205 316.044 140.512 316.044 140.89C316.044 141.217 316.165 141.48 316.407 141.679C316.648 141.879 317.039 142.042 317.578 142.169L319.131 142.526C320.031 142.734 320.701 143.054 321.142 143.487C321.584 143.92 321.804 144.482 321.804 145.174C321.804 145.759 321.635 146.281 321.295 146.74C320.96 147.194 320.491 147.55 319.888 147.809C319.29 148.068 318.596 148.197 317.807 148.197C316.712 148.197 315.819 147.964 315.127 147.497C314.435 147.026 314.011 146.358 313.854 145.492L315.694 145.212C315.808 145.692 316.044 146.054 316.4 146.3C316.757 146.542 317.221 146.663 317.794 146.663C318.418 146.663 318.917 146.534 319.29 146.275C319.663 146.012 319.85 145.692 319.85 145.314C319.85 145.008 319.736 144.752 319.506 144.544C319.282 144.336 318.936 144.179 318.469 144.073L316.814 143.71C315.902 143.502 315.227 143.171 314.79 142.717C314.357 142.263 314.141 141.688 314.141 140.992C314.141 140.415 314.302 139.91 314.624 139.477C314.947 139.044 315.392 138.707 315.961 138.465C316.53 138.219 317.181 138.096 317.915 138.096C318.972 138.096 319.803 138.325 320.41 138.783C321.017 139.237 321.418 139.846 321.613 140.61ZM328.111 148.197C327.147 148.197 326.318 147.992 325.622 147.58C324.93 147.164 324.395 146.581 324.018 145.829C323.644 145.074 323.458 144.189 323.458 143.175C323.458 142.174 323.644 141.291 324.018 140.527C324.395 139.763 324.922 139.167 325.596 138.739C326.275 138.31 327.069 138.096 327.977 138.096C328.529 138.096 329.063 138.187 329.581 138.369C330.099 138.552 330.563 138.838 330.975 139.229C331.387 139.619 331.711 140.126 331.949 140.75C332.187 141.37 332.305 142.123 332.305 143.01V143.684H324.533V142.259H330.44C330.44 141.758 330.339 141.314 330.135 140.928C329.931 140.538 329.645 140.23 329.276 140.005C328.911 139.78 328.482 139.668 327.99 139.668C327.455 139.668 326.988 139.799 326.589 140.063C326.195 140.321 325.889 140.661 325.673 141.081C325.461 141.497 325.355 141.949 325.355 142.437V143.551C325.355 144.204 325.469 144.76 325.698 145.218C325.932 145.677 326.256 146.027 326.672 146.269C327.088 146.506 327.574 146.625 328.13 146.625C328.49 146.625 328.819 146.574 329.116 146.472C329.413 146.366 329.67 146.209 329.887 146.001C330.103 145.793 330.268 145.537 330.383 145.231L332.184 145.556C332.04 146.086 331.781 146.551 331.408 146.95C331.039 147.344 330.574 147.652 330.014 147.873C329.458 148.089 328.824 148.197 328.111 148.197ZM334.417 138.223H336.32V148.637C336.32 149.29 336.201 149.842 335.964 150.291C335.73 150.741 335.382 151.083 334.92 151.316C334.462 151.55 333.895 151.666 333.22 151.666C333.152 151.666 333.089 151.666 333.029 151.666C332.966 151.666 332.9 151.664 332.832 151.66V150.024C332.891 150.024 332.945 150.024 332.991 150.024C333.034 150.024 333.082 150.024 333.138 150.024C333.587 150.024 333.912 149.903 334.111 149.661C334.315 149.424 334.417 149.078 334.417 148.624V138.223ZM335.359 136.714C335.028 136.714 334.744 136.604 334.506 136.383C334.273 136.159 334.156 135.891 334.156 135.581C334.156 135.267 334.273 135 334.506 134.779C334.744 134.554 335.028 134.442 335.359 134.442C335.69 134.442 335.972 134.554 336.206 134.779C336.443 135 336.562 135.267 336.562 135.581C336.562 135.891 336.443 136.159 336.206 136.383C335.972 136.604 335.69 136.714 335.359 136.714ZM341.726 148.216C341.106 148.216 340.546 148.102 340.046 147.873C339.545 147.639 339.148 147.302 338.855 146.861C338.567 146.419 338.422 145.878 338.422 145.237C338.422 144.686 338.528 144.232 338.741 143.875C338.953 143.519 339.239 143.237 339.6 143.029C339.961 142.821 340.364 142.664 340.809 142.558C341.255 142.452 341.709 142.371 342.172 142.316C342.757 142.248 343.232 142.193 343.597 142.15C343.962 142.104 344.227 142.029 344.393 141.928C344.558 141.826 344.641 141.66 344.641 141.431V141.387C344.641 140.831 344.484 140.4 344.17 140.094C343.86 139.789 343.398 139.636 342.783 139.636C342.142 139.636 341.637 139.778 341.268 140.063C340.903 140.343 340.65 140.655 340.51 140.998L338.722 140.591C338.934 139.997 339.243 139.517 339.651 139.152C340.062 138.783 340.536 138.516 341.07 138.35C341.605 138.181 342.167 138.096 342.757 138.096C343.148 138.096 343.561 138.142 343.998 138.236C344.44 138.325 344.851 138.49 345.233 138.732C345.619 138.974 345.935 139.32 346.182 139.77C346.428 140.215 346.551 140.795 346.551 141.507V148H344.692V146.663H344.616C344.493 146.909 344.308 147.151 344.062 147.389C343.816 147.627 343.5 147.824 343.114 147.981C342.727 148.138 342.265 148.216 341.726 148.216ZM342.14 146.689C342.666 146.689 343.116 146.585 343.489 146.377C343.867 146.169 344.153 145.897 344.348 145.562C344.548 145.223 344.648 144.86 344.648 144.474V143.213C344.58 143.281 344.448 143.345 344.253 143.404C344.062 143.459 343.843 143.508 343.597 143.551C343.351 143.589 343.111 143.625 342.878 143.659C342.645 143.689 342.449 143.714 342.292 143.735C341.923 143.782 341.586 143.86 341.28 143.971C340.979 144.081 340.737 144.24 340.555 144.448C340.377 144.652 340.287 144.923 340.287 145.263C340.287 145.734 340.461 146.09 340.809 146.332C341.157 146.57 341.601 146.689 342.14 146.689ZM357.948 148.197C357.001 148.197 356.187 147.983 355.503 147.554C354.825 147.122 354.303 146.525 353.938 145.766C353.573 145.006 353.39 144.136 353.39 143.156C353.39 142.163 353.577 141.287 353.95 140.527C354.324 139.763 354.85 139.167 355.529 138.739C356.208 138.31 357.008 138.096 357.929 138.096C358.671 138.096 359.333 138.234 359.915 138.509C360.496 138.781 360.965 139.163 361.321 139.655C361.682 140.147 361.896 140.722 361.964 141.38H360.112C360.01 140.922 359.777 140.527 359.412 140.196C359.051 139.865 358.567 139.7 357.96 139.7C357.43 139.7 356.965 139.84 356.566 140.12C356.172 140.396 355.864 140.79 355.644 141.304C355.423 141.813 355.313 142.416 355.313 143.111C355.313 143.824 355.421 144.44 355.637 144.957C355.854 145.475 356.159 145.876 356.554 146.16C356.953 146.445 357.422 146.587 357.96 146.587C358.321 146.587 358.648 146.521 358.941 146.39C359.238 146.254 359.486 146.061 359.685 145.81C359.889 145.56 360.031 145.259 360.112 144.906H361.964C361.896 145.539 361.691 146.103 361.347 146.6C361.003 147.096 360.543 147.487 359.966 147.771C359.393 148.055 358.72 148.197 357.948 148.197ZM364 148V138.223H365.839V139.776H365.941C366.119 139.25 366.433 138.836 366.883 138.535C367.337 138.229 367.85 138.077 368.423 138.077C368.542 138.077 368.682 138.081 368.843 138.089C369.009 138.098 369.138 138.108 369.232 138.121V139.942C369.155 139.92 369.02 139.897 368.824 139.872C368.629 139.842 368.434 139.827 368.239 139.827C367.789 139.827 367.388 139.923 367.036 140.113C366.688 140.3 366.412 140.561 366.208 140.896C366.005 141.227 365.903 141.605 365.903 142.029V148H364ZM370.879 148V138.223H372.782V148H370.879ZM371.84 136.714C371.509 136.714 371.225 136.604 370.987 136.383C370.754 136.159 370.637 135.891 370.637 135.581C370.637 135.267 370.754 135 370.987 134.779C371.225 134.554 371.509 134.442 371.84 134.442C372.171 134.442 372.453 134.554 372.686 134.779C372.924 135 373.043 135.267 373.043 135.581C373.043 135.891 372.924 136.159 372.686 136.383C372.453 136.604 372.171 136.714 371.84 136.714ZM375.342 151.666V138.223H377.201V139.808H377.36C377.47 139.604 377.63 139.369 377.838 139.101C378.045 138.834 378.334 138.601 378.703 138.401C379.072 138.198 379.56 138.096 380.167 138.096C380.957 138.096 381.661 138.295 382.28 138.694C382.9 139.093 383.386 139.668 383.738 140.419C384.095 141.17 384.273 142.074 384.273 143.131C384.273 144.187 384.097 145.093 383.744 145.849C383.392 146.6 382.909 147.179 382.293 147.586C381.678 147.989 380.976 148.191 380.186 148.191C379.592 148.191 379.106 148.091 378.729 147.892C378.355 147.692 378.062 147.459 377.85 147.192C377.638 146.924 377.475 146.687 377.36 146.479H377.246V151.666H375.342ZM377.207 143.111C377.207 143.799 377.307 144.402 377.507 144.919C377.706 145.437 377.995 145.842 378.372 146.135C378.75 146.424 379.212 146.568 379.76 146.568C380.328 146.568 380.804 146.417 381.186 146.116C381.568 145.81 381.856 145.397 382.051 144.875C382.251 144.353 382.351 143.765 382.351 143.111C382.351 142.466 382.253 141.887 382.058 141.374C381.867 140.86 381.578 140.455 381.192 140.158C380.81 139.861 380.333 139.712 379.76 139.712C379.208 139.712 378.741 139.855 378.359 140.139C377.982 140.423 377.695 140.82 377.5 141.329C377.305 141.838 377.207 142.433 377.207 143.111ZM390.969 138.223V139.751H385.629V138.223H390.969ZM387.061 135.881H388.964V145.129C388.964 145.498 389.019 145.776 389.13 145.963C389.24 146.146 389.382 146.271 389.556 146.339C389.734 146.402 389.927 146.434 390.135 146.434C390.288 146.434 390.422 146.424 390.536 146.402C390.651 146.381 390.74 146.364 390.804 146.351L391.147 147.924C391.037 147.966 390.88 148.008 390.676 148.051C390.473 148.098 390.218 148.123 389.912 148.127C389.412 148.136 388.945 148.047 388.512 147.86C388.079 147.673 387.729 147.385 387.462 146.994C387.194 146.604 387.061 146.114 387.061 145.524V135.881ZM397.088 148.197C396.171 148.197 395.371 147.987 394.688 147.567C394.005 147.147 393.474 146.559 393.097 145.804C392.719 145.049 392.53 144.166 392.53 143.156C392.53 142.142 392.719 141.255 393.097 140.495C393.474 139.736 394.005 139.146 394.688 138.726C395.371 138.306 396.171 138.096 397.088 138.096C398.004 138.096 398.804 138.306 399.487 138.726C400.171 139.146 400.701 139.736 401.079 140.495C401.456 141.255 401.645 142.142 401.645 143.156C401.645 144.166 401.456 145.049 401.079 145.804C400.701 146.559 400.171 147.147 399.487 147.567C398.804 147.987 398.004 148.197 397.088 148.197ZM397.094 146.6C397.688 146.6 398.18 146.443 398.571 146.129C398.961 145.815 399.25 145.397 399.436 144.875C399.627 144.353 399.723 143.778 399.723 143.15C399.723 142.526 399.627 141.953 399.436 141.431C399.25 140.905 398.961 140.483 398.571 140.164C398.18 139.846 397.688 139.687 397.094 139.687C396.496 139.687 395.999 139.846 395.605 140.164C395.214 140.483 394.923 140.905 394.732 141.431C394.546 141.953 394.452 142.526 394.452 143.15C394.452 143.778 394.546 144.353 394.732 144.875C394.923 145.397 395.214 145.815 395.605 146.129C395.999 146.443 396.496 146.6 397.094 146.6ZM407.869 151.87C407.092 151.87 406.424 151.768 405.864 151.565C405.308 151.361 404.854 151.091 404.502 150.756C404.149 150.421 403.886 150.054 403.712 149.655L405.348 148.98C405.463 149.167 405.615 149.364 405.806 149.572C406.002 149.784 406.265 149.965 406.596 150.113C406.931 150.262 407.362 150.336 407.888 150.336C408.609 150.336 409.205 150.16 409.677 149.808C410.148 149.46 410.383 148.904 410.383 148.14V146.218H410.262C410.148 146.426 409.982 146.657 409.766 146.912C409.553 147.166 409.261 147.387 408.887 147.574C408.514 147.76 408.028 147.854 407.43 147.854C406.657 147.854 405.961 147.673 405.342 147.313C404.726 146.948 404.238 146.411 403.878 145.702C403.521 144.989 403.343 144.113 403.343 143.073C403.343 142.034 403.519 141.143 403.871 140.4C404.228 139.657 404.716 139.089 405.335 138.694C405.955 138.295 406.657 138.096 407.442 138.096C408.049 138.096 408.539 138.198 408.913 138.401C409.286 138.601 409.577 138.834 409.785 139.101C409.997 139.369 410.16 139.604 410.275 139.808H410.415V138.223H412.28V148.216C412.28 149.057 412.085 149.746 411.694 150.285C411.304 150.824 410.776 151.223 410.109 151.482C409.447 151.741 408.7 151.87 407.869 151.87ZM407.85 146.275C408.397 146.275 408.86 146.148 409.237 145.893C409.619 145.634 409.908 145.265 410.103 144.786C410.302 144.302 410.402 143.723 410.402 143.048C410.402 142.39 410.305 141.811 410.109 141.31C409.914 140.809 409.628 140.419 409.25 140.139C408.872 139.855 408.406 139.712 407.85 139.712C407.277 139.712 406.799 139.861 406.417 140.158C406.036 140.451 405.747 140.85 405.552 141.355C405.361 141.86 405.265 142.424 405.265 143.048C405.265 143.689 405.363 144.251 405.558 144.735C405.753 145.218 406.042 145.596 406.424 145.868C406.81 146.139 407.285 146.275 407.85 146.275ZM414.832 148V138.223H416.672V139.776H416.774C416.952 139.25 417.266 138.836 417.716 138.535C418.17 138.229 418.683 138.077 419.256 138.077C419.375 138.077 419.515 138.081 419.676 138.089C419.842 138.098 419.971 138.108 420.065 138.121V139.942C419.988 139.92 419.852 139.897 419.657 139.872C419.462 139.842 419.267 139.827 419.072 139.827C418.622 139.827 418.221 139.923 417.869 140.113C417.521 140.3 417.245 140.561 417.041 140.896C416.837 141.227 416.736 141.605 416.736 142.029V148H414.832ZM424.469 148.216C423.85 148.216 423.29 148.102 422.789 147.873C422.288 147.639 421.891 147.302 421.599 146.861C421.31 146.419 421.166 145.878 421.166 145.237C421.166 144.686 421.272 144.232 421.484 143.875C421.696 143.519 421.983 143.237 422.343 143.029C422.704 142.821 423.107 142.664 423.553 142.558C423.998 142.452 424.452 142.371 424.915 142.316C425.5 142.248 425.976 142.193 426.341 142.15C426.706 142.104 426.971 142.029 427.136 141.928C427.302 141.826 427.385 141.66 427.385 141.431V141.387C427.385 140.831 427.228 140.4 426.914 140.094C426.604 139.789 426.141 139.636 425.526 139.636C424.885 139.636 424.38 139.778 424.011 140.063C423.646 140.343 423.394 140.655 423.254 140.998L421.465 140.591C421.677 139.997 421.987 139.517 422.394 139.152C422.806 138.783 423.279 138.516 423.814 138.35C424.348 138.181 424.911 138.096 425.5 138.096C425.891 138.096 426.305 138.142 426.742 138.236C427.183 138.325 427.595 138.49 427.977 138.732C428.363 138.974 428.679 139.32 428.925 139.77C429.171 140.215 429.294 140.795 429.294 141.507V148H427.436V146.663H427.359C427.236 146.909 427.051 147.151 426.805 147.389C426.559 147.627 426.243 147.824 425.857 147.981C425.471 148.138 425.008 148.216 424.469 148.216ZM424.883 146.689C425.409 146.689 425.859 146.585 426.232 146.377C426.61 146.169 426.897 145.897 427.092 145.562C427.291 145.223 427.391 144.86 427.391 144.474V143.213C427.323 143.281 427.192 143.345 426.996 143.404C426.805 143.459 426.587 143.508 426.341 143.551C426.095 143.589 425.855 143.625 425.621 143.659C425.388 143.689 425.193 143.714 425.036 143.735C424.667 143.782 424.329 143.86 424.024 143.971C423.722 144.081 423.481 144.24 423.298 144.448C423.12 144.652 423.031 144.923 423.031 145.263C423.031 145.734 423.205 146.09 423.553 146.332C423.901 146.57 424.344 146.689 424.883 146.689ZM436.482 138.223V139.751H430.957V138.223H436.482ZM432.472 148V137.09C432.472 136.479 432.606 135.972 432.873 135.569C433.14 135.161 433.495 134.858 433.936 134.658C434.377 134.455 434.857 134.353 435.375 134.353C435.756 134.353 436.083 134.385 436.355 134.448C436.626 134.508 436.828 134.563 436.96 134.614L436.514 136.154C436.425 136.129 436.31 136.099 436.17 136.065C436.03 136.027 435.86 136.008 435.661 136.008C435.198 136.008 434.867 136.122 434.668 136.352C434.473 136.581 434.375 136.912 434.375 137.345V148H432.472ZM440.994 148.216C440.374 148.216 439.814 148.102 439.313 147.873C438.812 147.639 438.416 147.302 438.123 146.861C437.834 146.419 437.69 145.878 437.69 145.237C437.69 144.686 437.796 144.232 438.008 143.875C438.22 143.519 438.507 143.237 438.868 143.029C439.228 142.821 439.631 142.664 440.077 142.558C440.522 142.452 440.977 142.371 441.439 142.316C442.025 142.248 442.5 142.193 442.865 142.15C443.23 142.104 443.495 142.029 443.661 141.928C443.826 141.826 443.909 141.66 443.909 141.431V141.387C443.909 140.831 443.752 140.4 443.438 140.094C443.128 139.789 442.665 139.636 442.05 139.636C441.409 139.636 440.904 139.778 440.535 140.063C440.17 140.343 439.918 140.655 439.778 140.998L437.989 140.591C438.201 139.997 438.511 139.517 438.918 139.152C439.33 138.783 439.803 138.516 440.338 138.35C440.873 138.181 441.435 138.096 442.025 138.096C442.415 138.096 442.829 138.142 443.266 138.236C443.707 138.325 444.119 138.49 444.501 138.732C444.887 138.974 445.203 139.32 445.449 139.77C445.695 140.215 445.818 140.795 445.818 141.507V148H443.96V146.663H443.883C443.76 146.909 443.576 147.151 443.33 147.389C443.083 147.627 442.767 147.824 442.381 147.981C441.995 148.138 441.532 148.216 440.994 148.216ZM441.407 146.689C441.933 146.689 442.383 146.585 442.757 146.377C443.134 146.169 443.421 145.897 443.616 145.562C443.815 145.223 443.915 144.86 443.915 144.474V143.213C443.847 143.281 443.716 143.345 443.521 143.404C443.33 143.459 443.111 143.508 442.865 143.551C442.619 143.589 442.379 143.625 442.146 143.659C441.912 143.689 441.717 143.714 441.56 143.735C441.191 143.782 440.853 143.86 440.548 143.971C440.247 144.081 440.005 144.24 439.822 144.448C439.644 144.652 439.555 144.923 439.555 145.263C439.555 145.734 439.729 146.09 440.077 146.332C440.425 146.57 440.868 146.689 441.407 146.689ZM448.353 148V138.223H450.193V139.776H450.295C450.473 139.25 450.787 138.836 451.237 138.535C451.691 138.229 452.204 138.077 452.777 138.077C452.896 138.077 453.036 138.081 453.197 138.089C453.363 138.098 453.492 138.108 453.586 138.121V139.942C453.509 139.92 453.373 139.897 453.178 139.872C452.983 139.842 452.788 139.827 452.593 139.827C452.143 139.827 451.742 139.923 451.39 140.113C451.042 140.3 450.766 140.561 450.562 140.896C450.358 141.227 450.257 141.605 450.257 142.029V148H448.353ZM464.095 148.197C463.178 148.197 462.378 147.987 461.695 147.567C461.012 147.147 460.481 146.559 460.104 145.804C459.726 145.049 459.537 144.166 459.537 143.156C459.537 142.142 459.726 141.255 460.104 140.495C460.481 139.736 461.012 139.146 461.695 138.726C462.378 138.306 463.178 138.096 464.095 138.096C465.011 138.096 465.811 138.306 466.494 138.726C467.177 139.146 467.708 139.736 468.086 140.495C468.463 141.255 468.652 142.142 468.652 143.156C468.652 144.166 468.463 145.049 468.086 145.804C467.708 146.559 467.177 147.147 466.494 147.567C465.811 147.987 465.011 148.197 464.095 148.197ZM464.101 146.6C464.695 146.6 465.187 146.443 465.578 146.129C465.968 145.815 466.257 145.397 466.443 144.875C466.634 144.353 466.73 143.778 466.73 143.15C466.73 142.526 466.634 141.953 466.443 141.431C466.257 140.905 465.968 140.483 465.578 140.164C465.187 139.846 464.695 139.687 464.101 139.687C463.503 139.687 463.006 139.846 462.611 140.164C462.221 140.483 461.93 140.905 461.739 141.431C461.553 141.953 461.459 142.526 461.459 143.15C461.459 143.778 461.553 144.353 461.739 144.875C461.93 145.397 462.221 145.815 462.611 146.129C463.006 146.443 463.503 146.6 464.101 146.6ZM476.97 143.945V138.223H478.879V148H477.008V146.307H476.906C476.681 146.829 476.321 147.264 475.824 147.612C475.332 147.955 474.719 148.127 473.985 148.127C473.357 148.127 472.801 147.989 472.317 147.714C471.837 147.433 471.46 147.02 471.184 146.472C470.912 145.925 470.776 145.248 470.776 144.442V138.223H472.68V144.213C472.68 144.879 472.864 145.409 473.233 145.804C473.603 146.199 474.082 146.396 474.672 146.396C475.028 146.396 475.383 146.307 475.735 146.129C476.091 145.95 476.386 145.681 476.62 145.32C476.857 144.96 476.974 144.501 476.97 143.945ZM489.84 148.191C489.051 148.191 488.347 147.989 487.727 147.586C487.112 147.179 486.628 146.6 486.276 145.849C485.928 145.093 485.754 144.187 485.754 143.131C485.754 142.074 485.93 141.17 486.282 140.419C486.639 139.668 487.127 139.093 487.746 138.694C488.366 138.295 489.068 138.096 489.853 138.096C490.46 138.096 490.948 138.198 491.317 138.401C491.691 138.601 491.979 138.834 492.183 139.101C492.391 139.369 492.552 139.604 492.667 139.808H492.781V134.964H494.684V148H492.826V146.479H492.667C492.552 146.687 492.386 146.924 492.17 147.192C491.958 147.459 491.665 147.692 491.292 147.892C490.918 148.091 490.434 148.191 489.84 148.191ZM490.261 146.568C490.808 146.568 491.27 146.424 491.648 146.135C492.03 145.842 492.319 145.437 492.514 144.919C492.713 144.402 492.813 143.799 492.813 143.111C492.813 142.433 492.715 141.838 492.52 141.329C492.325 140.82 492.039 140.423 491.661 140.139C491.283 139.855 490.816 139.712 490.261 139.712C489.688 139.712 489.21 139.861 488.828 140.158C488.446 140.455 488.158 140.86 487.963 141.374C487.772 141.887 487.676 142.466 487.676 143.111C487.676 143.765 487.774 144.353 487.969 144.875C488.164 145.397 488.453 145.81 488.835 146.116C489.221 146.417 489.696 146.568 490.261 146.568ZM501.614 148.197C500.651 148.197 499.822 147.992 499.126 147.58C498.434 147.164 497.899 146.581 497.522 145.829C497.148 145.074 496.961 144.189 496.961 143.175C496.961 142.174 497.148 141.291 497.522 140.527C497.899 139.763 498.425 139.167 499.1 138.739C499.779 138.31 500.573 138.096 501.481 138.096C502.032 138.096 502.567 138.187 503.085 138.369C503.603 138.552 504.067 138.838 504.479 139.229C504.89 139.619 505.215 140.126 505.453 140.75C505.69 141.37 505.809 142.123 505.809 143.01V143.684H498.037V142.259H503.944C503.944 141.758 503.842 141.314 503.639 140.928C503.435 140.538 503.149 140.23 502.779 140.005C502.414 139.78 501.986 139.668 501.494 139.668C500.959 139.668 500.492 139.799 500.093 140.063C499.699 140.321 499.393 140.661 499.177 141.081C498.964 141.497 498.858 141.949 498.858 142.437V143.551C498.858 144.204 498.973 144.76 499.202 145.218C499.435 145.677 499.76 146.027 500.176 146.269C500.592 146.506 501.078 146.625 501.634 146.625C501.994 146.625 502.323 146.574 502.62 146.472C502.917 146.366 503.174 146.209 503.39 146.001C503.607 145.793 503.772 145.537 503.887 145.231L505.688 145.556C505.544 146.086 505.285 146.551 504.912 146.95C504.542 147.344 504.078 147.652 503.518 147.873C502.962 148.089 502.327 148.197 501.614 148.197ZM515.247 140.61L513.522 140.915C513.45 140.695 513.336 140.485 513.179 140.285C513.026 140.086 512.818 139.923 512.555 139.795C512.292 139.668 511.963 139.604 511.568 139.604C511.029 139.604 510.579 139.725 510.219 139.967C509.858 140.205 509.678 140.512 509.678 140.89C509.678 141.217 509.799 141.48 510.04 141.679C510.282 141.879 510.673 142.042 511.212 142.169L512.765 142.526C513.664 142.734 514.335 143.054 514.776 143.487C515.218 143.92 515.438 144.482 515.438 145.174C515.438 145.759 515.268 146.281 514.929 146.74C514.594 147.194 514.125 147.55 513.522 147.809C512.924 148.068 512.23 148.197 511.441 148.197C510.346 148.197 509.453 147.964 508.761 147.497C508.069 147.026 507.645 146.358 507.488 145.492L509.328 145.212C509.442 145.692 509.678 146.054 510.034 146.3C510.391 146.542 510.855 146.663 511.428 146.663C512.052 146.663 512.551 146.534 512.924 146.275C513.297 146.012 513.484 145.692 513.484 145.314C513.484 145.008 513.37 144.752 513.14 144.544C512.915 144.336 512.57 144.179 512.103 144.073L510.448 143.71C509.536 143.502 508.861 143.171 508.424 142.717C507.991 142.263 507.774 141.688 507.774 140.992C507.774 140.415 507.936 139.91 508.258 139.477C508.581 139.044 509.026 138.707 509.595 138.465C510.164 138.219 510.815 138.096 511.549 138.096C512.606 138.096 513.437 138.325 514.044 138.783C514.651 139.237 515.052 139.846 515.247 140.61ZM521.649 148.197C520.703 148.197 519.888 147.983 519.205 147.554C518.526 147.122 518.004 146.525 517.639 145.766C517.274 145.006 517.092 144.136 517.092 143.156C517.092 142.163 517.278 141.287 517.652 140.527C518.025 139.763 518.551 139.167 519.23 138.739C519.909 138.31 520.709 138.096 521.63 138.096C522.373 138.096 523.035 138.234 523.616 138.509C524.197 138.781 524.666 139.163 525.023 139.655C525.383 140.147 525.598 140.722 525.666 141.38H523.813C523.711 140.922 523.478 140.527 523.113 140.196C522.752 139.865 522.269 139.7 521.662 139.7C521.131 139.7 520.667 139.84 520.268 140.12C519.873 140.396 519.566 140.79 519.345 141.304C519.124 141.813 519.014 142.416 519.014 143.111C519.014 143.824 519.122 144.44 519.339 144.957C519.555 145.475 519.86 145.876 520.255 146.16C520.654 146.445 521.123 146.587 521.662 146.587C522.023 146.587 522.349 146.521 522.642 146.39C522.939 146.254 523.187 146.061 523.387 145.81C523.591 145.56 523.733 145.259 523.813 144.906H525.666C525.598 145.539 525.392 146.103 525.048 146.6C524.704 147.096 524.244 147.487 523.667 147.771C523.094 148.055 522.421 148.197 521.649 148.197ZM527.701 148V138.223H529.54V139.776H529.642C529.82 139.25 530.135 138.836 530.584 138.535C531.038 138.229 531.552 138.077 532.125 138.077C532.244 138.077 532.384 138.081 532.545 138.089C532.71 138.098 532.84 138.108 532.933 138.121V139.942C532.857 139.92 532.721 139.897 532.526 139.872C532.331 139.842 532.135 139.827 531.94 139.827C531.49 139.827 531.089 139.923 530.737 140.113C530.389 140.3 530.113 140.561 529.91 140.896C529.706 141.227 529.604 141.605 529.604 142.029V148H527.701ZM534.58 148V138.223H536.483V148H534.58ZM535.541 136.714C535.21 136.714 534.926 136.604 534.688 136.383C534.455 136.159 534.338 135.891 534.338 135.581C534.338 135.267 534.455 135 534.688 134.779C534.926 134.554 535.21 134.442 535.541 134.442C535.872 134.442 536.154 134.554 536.388 134.779C536.625 135 536.744 135.267 536.744 135.581C536.744 135.891 536.625 136.159 536.388 136.383C536.154 136.604 535.872 136.714 535.541 136.714ZM539.044 151.666V138.223H540.902V139.808H541.062C541.172 139.604 541.331 139.369 541.539 139.101C541.747 138.834 542.035 138.601 542.405 138.401C542.774 138.198 543.262 138.096 543.869 138.096C544.658 138.096 545.362 138.295 545.982 138.694C546.601 139.093 547.087 139.668 547.439 140.419C547.796 141.17 547.974 142.074 547.974 143.131C547.974 144.187 547.798 145.093 547.446 145.849C547.094 146.6 546.61 147.179 545.995 147.586C545.379 147.989 544.677 148.191 543.888 148.191C543.294 148.191 542.808 148.091 542.43 147.892C542.057 147.692 541.764 147.459 541.552 147.192C541.339 146.924 541.176 146.687 541.062 146.479H540.947V151.666H539.044ZM540.909 143.111C540.909 143.799 541.008 144.402 541.208 144.919C541.407 145.437 541.696 145.842 542.074 146.135C542.451 146.424 542.914 146.568 543.461 146.568C544.03 146.568 544.505 146.417 544.887 146.116C545.269 145.81 545.557 145.397 545.753 144.875C545.952 144.353 546.052 143.765 546.052 143.111C546.052 142.466 545.954 141.887 545.759 141.374C545.568 140.86 545.28 140.455 544.893 140.158C544.511 139.861 544.034 139.712 543.461 139.712C542.91 139.712 542.443 139.855 542.061 140.139C541.683 140.423 541.397 140.82 541.202 141.329C541.006 141.838 540.909 142.433 540.909 143.111ZM554.67 138.223V139.751H549.33V138.223H554.67ZM550.762 135.881H552.665V145.129C552.665 145.498 552.721 145.776 552.831 145.963C552.941 146.146 553.083 146.271 553.257 146.339C553.436 146.402 553.629 146.434 553.837 146.434C553.989 146.434 554.123 146.424 554.238 146.402C554.352 146.381 554.441 146.364 554.505 146.351L554.849 147.924C554.738 147.966 554.581 148.008 554.378 148.051C554.174 148.098 553.919 148.123 553.614 148.127C553.113 148.136 552.646 148.047 552.213 147.86C551.781 147.673 551.431 147.385 551.163 146.994C550.896 146.604 550.762 146.114 550.762 145.524V135.881ZM560.789 148.197C559.872 148.197 559.072 147.987 558.389 147.567C557.706 147.147 557.176 146.559 556.798 145.804C556.42 145.049 556.231 144.166 556.231 143.156C556.231 142.142 556.42 141.255 556.798 140.495C557.176 139.736 557.706 139.146 558.389 138.726C559.072 138.306 559.872 138.096 560.789 138.096C561.706 138.096 562.505 138.306 563.189 138.726C563.872 139.146 564.402 139.736 564.78 140.495C565.158 141.255 565.347 142.142 565.347 143.156C565.347 144.166 565.158 145.049 564.78 145.804C564.402 146.559 563.872 147.147 563.189 147.567C562.505 147.987 561.706 148.197 560.789 148.197ZM560.795 146.6C561.389 146.6 561.882 146.443 562.272 146.129C562.662 145.815 562.951 145.397 563.138 144.875C563.329 144.353 563.424 143.778 563.424 143.15C563.424 142.526 563.329 141.953 563.138 141.431C562.951 140.905 562.662 140.483 562.272 140.164C561.882 139.846 561.389 139.687 560.795 139.687C560.197 139.687 559.701 139.846 559.306 140.164C558.915 140.483 558.625 140.905 558.434 141.431C558.247 141.953 558.154 142.526 558.154 143.15C558.154 143.778 558.247 144.353 558.434 144.875C558.625 145.397 558.915 145.815 559.306 146.129C559.701 146.443 560.197 146.6 560.795 146.6ZM571.57 151.87C570.794 151.87 570.125 151.768 569.565 151.565C569.009 151.361 568.555 151.091 568.203 150.756C567.851 150.421 567.588 150.054 567.414 149.655L569.049 148.98C569.164 149.167 569.317 149.364 569.508 149.572C569.703 149.784 569.966 149.965 570.297 150.113C570.632 150.262 571.063 150.336 571.589 150.336C572.311 150.336 572.907 150.16 573.378 149.808C573.849 149.46 574.084 148.904 574.084 148.14V146.218H573.963C573.849 146.426 573.683 146.657 573.467 146.912C573.255 147.166 572.962 147.387 572.589 147.574C572.215 147.76 571.729 147.854 571.131 147.854C570.359 147.854 569.663 147.673 569.043 147.313C568.428 146.948 567.94 146.411 567.579 145.702C567.223 144.989 567.044 144.113 567.044 143.073C567.044 142.034 567.221 141.143 567.573 140.4C567.929 139.657 568.417 139.089 569.037 138.694C569.656 138.295 570.359 138.096 571.144 138.096C571.75 138.096 572.241 138.198 572.614 138.401C572.987 138.601 573.278 138.834 573.486 139.101C573.698 139.369 573.862 139.604 573.976 139.808H574.116V138.223H575.981V148.216C575.981 149.057 575.786 149.746 575.396 150.285C575.005 150.824 574.477 151.223 573.811 151.482C573.149 151.741 572.402 151.87 571.57 151.87ZM571.551 146.275C572.098 146.275 572.561 146.148 572.939 145.893C573.321 145.634 573.609 145.265 573.804 144.786C574.004 144.302 574.103 143.723 574.103 143.048C574.103 142.39 574.006 141.811 573.811 141.31C573.615 140.809 573.329 140.419 572.951 140.139C572.574 139.855 572.107 139.712 571.551 139.712C570.978 139.712 570.501 139.861 570.119 140.158C569.737 140.451 569.448 140.85 569.253 141.355C569.062 141.86 568.967 142.424 568.967 143.048C568.967 143.689 569.064 144.251 569.26 144.735C569.455 145.218 569.743 145.596 570.125 145.868C570.511 146.139 570.987 146.275 571.551 146.275ZM578.534 148V138.223H580.373V139.776H580.475C580.653 139.25 580.967 138.836 581.417 138.535C581.871 138.229 582.385 138.077 582.958 138.077C583.076 138.077 583.216 138.081 583.378 138.089C583.543 138.098 583.673 138.108 583.766 138.121V139.942C583.69 139.92 583.554 139.897 583.359 139.872C583.163 139.842 582.968 139.827 582.773 139.827C582.323 139.827 581.922 139.923 581.57 140.113C581.222 140.3 580.946 140.561 580.742 140.896C580.539 141.227 580.437 141.605 580.437 142.029V148H578.534ZM588.171 148.216C587.551 148.216 586.991 148.102 586.49 147.873C585.99 147.639 585.593 147.302 585.3 146.861C585.011 146.419 584.867 145.878 584.867 145.237C584.867 144.686 584.973 144.232 585.185 143.875C585.398 143.519 585.684 143.237 586.045 143.029C586.405 142.821 586.809 142.664 587.254 142.558C587.7 142.452 588.154 142.371 588.616 142.316C589.202 142.248 589.677 142.193 590.042 142.15C590.407 142.104 590.672 142.029 590.838 141.928C591.003 141.826 591.086 141.66 591.086 141.431V141.387C591.086 140.831 590.929 140.4 590.615 140.094C590.305 139.789 589.843 139.636 589.227 139.636C588.587 139.636 588.082 139.778 587.712 140.063C587.347 140.343 587.095 140.655 586.955 140.998L585.166 140.591C585.378 139.997 585.688 139.517 586.096 139.152C586.507 138.783 586.98 138.516 587.515 138.35C588.05 138.181 588.612 138.096 589.202 138.096C589.592 138.096 590.006 138.142 590.443 138.236C590.884 138.325 591.296 138.49 591.678 138.732C592.064 138.974 592.38 139.32 592.626 139.77C592.872 140.215 592.996 140.795 592.996 141.507V148H591.137V146.663H591.061C590.937 146.909 590.753 147.151 590.507 147.389C590.261 147.627 589.944 147.824 589.558 147.981C589.172 148.138 588.71 148.216 588.171 148.216ZM588.584 146.689C589.111 146.689 589.56 146.585 589.934 146.377C590.312 146.169 590.598 145.897 590.793 145.562C590.993 145.223 591.092 144.86 591.092 144.474V143.213C591.024 143.281 590.893 143.345 590.698 143.404C590.507 143.459 590.288 143.508 590.042 143.551C589.796 143.589 589.556 143.625 589.323 143.659C589.089 143.689 588.894 143.714 588.737 143.735C588.368 143.782 588.031 143.86 587.725 143.971C587.424 144.081 587.182 144.24 586.999 144.448C586.821 144.652 586.732 144.923 586.732 145.263C586.732 145.734 586.906 146.09 587.254 146.332C587.602 146.57 588.046 146.689 588.584 146.689ZM600.184 138.223V139.751H594.658V138.223H600.184ZM596.173 148V137.09C596.173 136.479 596.307 135.972 596.574 135.569C596.842 135.161 597.196 134.858 597.637 134.658C598.079 134.455 598.558 134.353 599.076 134.353C599.458 134.353 599.785 134.385 600.056 134.448C600.328 134.508 600.529 134.563 600.661 134.614L600.215 136.154C600.126 136.129 600.012 136.099 599.872 136.065C599.732 136.027 599.562 136.008 599.362 136.008C598.9 136.008 598.569 136.122 598.369 136.352C598.174 136.581 598.077 136.912 598.077 137.345V148H596.173ZM604.695 148.216C604.075 148.216 603.515 148.102 603.014 147.873C602.514 147.639 602.117 147.302 601.824 146.861C601.536 146.419 601.391 145.878 601.391 145.237C601.391 144.686 601.497 144.232 601.71 143.875C601.922 143.519 602.208 143.237 602.569 143.029C602.93 142.821 603.333 142.664 603.778 142.558C604.224 142.452 604.678 142.371 605.14 142.316C605.726 142.248 606.201 142.193 606.566 142.15C606.931 142.104 607.196 142.029 607.362 141.928C607.527 141.826 607.61 141.66 607.61 141.431V141.387C607.61 140.831 607.453 140.4 607.139 140.094C606.829 139.789 606.367 139.636 605.751 139.636C605.111 139.636 604.606 139.778 604.237 140.063C603.872 140.343 603.619 140.655 603.479 140.998L601.69 140.591C601.903 139.997 602.212 139.517 602.62 139.152C603.031 138.783 603.505 138.516 604.039 138.35C604.574 138.181 605.136 138.096 605.726 138.096C606.116 138.096 606.53 138.142 606.967 138.236C607.409 138.325 607.82 138.49 608.202 138.732C608.588 138.974 608.904 139.32 609.151 139.77C609.397 140.215 609.52 140.795 609.52 141.507V148H607.661V146.663H607.585C607.462 146.909 607.277 147.151 607.031 147.389C606.785 147.627 606.469 147.824 606.082 147.981C605.696 148.138 605.234 148.216 604.695 148.216ZM605.109 146.689C605.635 146.689 606.085 146.585 606.458 146.377C606.836 146.169 607.122 145.897 607.317 145.562C607.517 145.223 607.617 144.86 607.617 144.474V143.213C607.549 143.281 607.417 143.345 607.222 143.404C607.031 143.459 606.812 143.508 606.566 143.551C606.32 143.589 606.08 143.625 605.847 143.659C605.614 143.689 605.418 143.714 605.261 143.735C604.892 143.782 604.555 143.86 604.249 143.971C603.948 144.081 603.706 144.24 603.524 144.448C603.345 144.652 603.256 144.923 603.256 145.263C603.256 145.734 603.43 146.09 603.778 146.332C604.126 146.57 604.57 146.689 605.109 146.689ZM612.055 148V138.223H613.894V139.776H613.996C614.174 139.25 614.488 138.836 614.938 138.535C615.392 138.229 615.906 138.077 616.479 138.077C616.597 138.077 616.737 138.081 616.899 138.089C617.064 138.098 617.194 138.108 617.287 138.121V139.942C617.211 139.92 617.075 139.897 616.88 139.872C616.684 139.842 616.489 139.827 616.294 139.827C615.844 139.827 615.443 139.923 615.091 140.113C614.743 140.3 614.467 140.561 614.263 140.896C614.06 141.227 613.958 141.605 613.958 142.029V148H612.055ZM619.068 148.121C618.72 148.121 618.42 147.998 618.17 147.752C617.92 147.501 617.794 147.2 617.794 146.848C617.794 146.5 617.92 146.203 618.17 145.957C618.42 145.706 618.72 145.581 619.068 145.581C619.416 145.581 619.715 145.706 619.965 145.957C620.215 146.203 620.341 146.5 620.341 146.848C620.341 147.081 620.281 147.296 620.162 147.491C620.048 147.682 619.895 147.835 619.704 147.949C619.513 148.064 619.301 148.121 619.068 148.121Z" fill="#310055"/>
</svg>
