<svg width="557" height="444" viewBox="0 0 557 444" fill="none" xmlns="http://www.w3.org/2000/svg">
<rect width="557" height="444" fill="white"/>
<path d="M99.6 193H95.927V203.977H95.773L88.239 193H85V210.454H88.691V199.469H88.819L96.412 210.454H99.6V193ZM108.547 210.71C111.785 210.71 113.967 209.133 114.478 206.704L111.12 206.483C110.754 207.48 109.817 208 108.606 208C106.791 208 105.64 206.798 105.64 204.846V204.838H114.555V203.841C114.555 199.392 111.862 197.193 108.402 197.193C104.549 197.193 102.052 199.929 102.052 203.969C102.052 208.119 104.515 210.71 108.547 210.71ZM105.64 202.588C105.717 201.096 106.851 199.903 108.461 199.903C110.038 199.903 111.129 201.028 111.138 202.588H105.64ZM120.555 202.886C120.564 201.199 121.569 200.21 123.035 200.21C124.493 200.21 125.37 201.165 125.362 202.767V210.454H128.993V202.119C128.993 199.068 127.203 197.193 124.476 197.193C122.532 197.193 121.126 198.148 120.538 199.673H120.385V197.364H116.924V210.454H120.555V202.886ZM135.485 202.886C135.493 201.199 136.525 200.21 138.008 200.21C139.482 200.21 140.351 201.156 140.343 202.767V210.454H143.973V202.119C143.982 199.051 142.175 197.193 139.448 197.193C137.462 197.193 136.133 198.131 135.536 199.673H135.383V193H131.854V210.454H135.485V202.886ZM155.226 204.881C155.234 206.636 154.032 207.557 152.728 207.557C151.356 207.557 150.47 206.594 150.461 205.051V197.364H146.831V205.699C146.839 208.758 148.629 210.625 151.263 210.625C153.231 210.625 154.646 209.611 155.234 208.077H155.37V210.454H158.856V197.364H155.226V204.881ZM161.76 210.454H165.391V202.596C165.391 201.148 166.312 200.185 167.522 200.185C168.715 200.185 169.516 201.003 169.516 202.29V210.454H173.036V202.46C173.036 201.105 173.812 200.185 175.133 200.185C176.292 200.185 177.161 200.909 177.161 202.366V210.454H180.783V201.65C180.783 198.812 179.096 197.193 176.658 197.193C174.741 197.193 173.249 198.173 172.712 199.673H172.576C172.158 198.156 170.82 197.193 169.022 197.193C167.258 197.193 165.919 198.131 165.374 199.673H165.221V197.364H161.76V210.454ZM187.384 210.702C189.319 210.702 190.571 209.858 191.211 208.639H191.313V210.454H194.756V201.625C194.756 198.506 192.114 197.193 189.199 197.193C186.063 197.193 184 198.693 183.498 201.079L186.856 201.352C187.103 200.483 187.878 199.844 189.182 199.844C190.418 199.844 191.125 200.466 191.125 201.54V201.591C191.125 202.435 190.231 202.545 187.955 202.767C185.364 203.006 183.037 203.875 183.037 206.798C183.037 209.389 184.887 210.702 187.384 210.702ZM188.424 208.196C187.307 208.196 186.506 207.676 186.506 206.679C186.506 205.656 187.35 205.153 188.628 204.974C189.421 204.864 190.716 204.676 191.151 204.386V205.775C191.151 207.148 190.017 208.196 188.424 208.196ZM203.128 210.454H206.758V202.596C206.758 201.148 207.679 200.185 208.889 200.185C210.082 200.185 210.883 201.003 210.883 202.29V210.454H214.403V202.46C214.403 201.105 215.179 200.185 216.5 200.185C217.659 200.185 218.528 200.909 218.528 202.366V210.454H222.15V201.65C222.15 198.812 220.463 197.193 218.025 197.193C216.108 197.193 214.616 198.173 214.079 199.673H213.943C213.525 198.156 212.187 197.193 210.389 197.193C208.625 197.193 207.287 198.131 206.741 199.673H206.588V197.364H203.128V210.454ZM230.984 210.71C234.223 210.71 236.405 209.133 236.916 206.704L233.558 206.483C233.192 207.48 232.254 208 231.044 208C229.228 208 228.078 206.798 228.078 204.846V204.838H236.993V203.841C236.993 199.392 234.299 197.193 230.839 197.193C226.987 197.193 224.49 199.929 224.49 203.969C224.49 208.119 226.953 210.71 230.984 210.71ZM228.078 202.588C228.155 201.096 229.288 199.903 230.899 199.903C232.476 199.903 233.567 201.028 233.575 202.588H228.078ZM242.993 202.886C243.001 201.199 244.007 200.21 245.473 200.21C246.93 200.21 247.808 201.165 247.799 202.767V210.454H251.43V202.119C251.43 199.068 249.64 197.193 246.913 197.193C244.97 197.193 243.564 198.148 242.976 199.673H242.822V197.364H239.362V210.454H242.993V202.886ZM265.184 201.096C264.86 198.685 262.917 197.193 259.61 197.193C256.26 197.193 254.053 198.744 254.062 201.267C254.053 203.227 255.289 204.497 257.846 205.008L260.113 205.46C261.255 205.69 261.775 206.108 261.792 206.764C261.775 207.54 260.931 208.094 259.661 208.094C258.366 208.094 257.505 207.54 257.283 206.474L253.712 206.662C254.053 209.168 256.184 210.71 259.652 210.71C263.044 210.71 265.473 208.98 265.482 206.398C265.473 204.506 264.238 203.372 261.698 202.852L259.329 202.375C258.11 202.111 257.658 201.693 257.667 201.062C257.658 200.278 258.544 199.767 259.669 199.767C260.931 199.767 261.681 200.457 261.86 201.301L265.184 201.096ZM271.501 210.702C273.436 210.702 274.689 209.858 275.328 208.639H275.43V210.454H278.873V201.625C278.873 198.506 276.231 197.193 273.317 197.193C270.18 197.193 268.118 198.693 267.615 201.079L270.973 201.352C271.22 200.483 271.995 199.844 273.299 199.844C274.535 199.844 275.243 200.466 275.243 201.54V201.591C275.243 202.435 274.348 202.545 272.072 202.767C269.481 203.006 267.155 203.875 267.155 206.798C267.155 209.389 269.004 210.702 271.501 210.702ZM272.541 208.196C271.424 208.196 270.623 207.676 270.623 206.679C270.623 205.656 271.467 205.153 272.745 204.974C273.538 204.864 274.834 204.676 275.268 204.386V205.775C275.268 207.148 274.135 208.196 272.541 208.196ZM287.588 215.636C291.329 215.636 293.988 213.932 293.988 210.582V197.364H290.383V199.562H290.247C289.761 198.497 288.696 197.193 286.505 197.193C283.633 197.193 281.204 199.426 281.204 203.883C281.204 208.239 283.565 210.267 286.514 210.267C288.602 210.267 289.77 209.219 290.247 208.136H290.4V210.531C290.4 212.329 289.25 213.028 287.673 213.028C286.071 213.028 285.261 212.329 284.963 211.537L281.605 211.989C282.04 214.051 284.059 215.636 287.588 215.636ZM287.665 207.54C285.883 207.54 284.912 206.125 284.912 203.866C284.912 201.642 285.866 200.082 287.665 200.082C289.429 200.082 290.417 201.574 290.417 203.866C290.417 206.176 289.412 207.54 287.665 207.54ZM302.843 210.71C306.082 210.71 308.264 209.133 308.775 206.704L305.417 206.483C305.051 207.48 304.113 208 302.903 208C301.088 208 299.937 206.798 299.937 204.846V204.838H308.852V203.841C308.852 199.392 306.159 197.193 302.699 197.193C298.846 197.193 296.349 199.929 296.349 203.969C296.349 208.119 298.812 210.71 302.843 210.71ZM299.937 202.588C300.014 201.096 301.147 199.903 302.758 199.903C304.335 199.903 305.426 201.028 305.434 202.588H299.937ZM311.221 210.454H314.852V202.596C314.852 201.148 315.772 200.185 316.983 200.185C318.176 200.185 318.977 201.003 318.977 202.29V210.454H322.497V202.46C322.497 201.105 323.272 200.185 324.593 200.185C325.753 200.185 326.622 200.909 326.622 202.366V210.454H330.244V201.65C330.244 198.812 328.557 197.193 326.119 197.193C324.201 197.193 322.71 198.173 322.173 199.673H322.037C321.619 198.156 320.281 197.193 318.483 197.193C316.718 197.193 315.38 198.131 314.835 199.673H314.682V197.364H311.221V210.454ZM344.633 210.71C347.871 210.71 350.053 209.133 350.564 206.704L347.206 206.483C346.84 207.48 345.902 208 344.692 208C342.877 208 341.726 206.798 341.726 204.846V204.838H350.641V203.841C350.641 199.392 347.948 197.193 344.488 197.193C340.635 197.193 338.138 199.929 338.138 203.969C338.138 208.119 340.601 210.71 344.633 210.71ZM341.726 202.588C341.803 201.096 342.937 199.903 344.547 199.903C346.124 199.903 347.215 201.028 347.223 202.588H341.726ZM356.641 202.886C356.65 201.199 357.655 200.21 359.121 200.21C360.579 200.21 361.456 201.165 361.448 202.767V210.454H365.079V202.119C365.079 199.068 363.289 197.193 360.562 197.193C358.618 197.193 357.212 198.148 356.624 199.673H356.471V197.364H353.01V210.454H356.641V202.886ZM373.855 210.71C377.341 210.71 379.531 208.665 379.701 205.656H376.275C376.062 207.054 375.142 207.838 373.897 207.838C372.201 207.838 371.102 206.415 371.102 203.909C371.102 201.437 372.21 200.023 373.897 200.023C375.227 200.023 376.079 200.9 376.275 202.204H379.701C379.548 199.179 377.255 197.193 373.838 197.193C369.866 197.193 367.412 199.946 367.412 203.96C367.412 207.94 369.824 210.71 373.855 210.71ZM387.941 210.71C391.912 210.71 394.384 207.991 394.384 203.96C394.384 199.903 391.912 197.193 387.941 197.193C383.969 197.193 381.498 199.903 381.498 203.96C381.498 207.991 383.969 210.71 387.941 210.71ZM387.958 207.898C386.125 207.898 385.188 206.219 385.188 203.935C385.188 201.65 386.125 199.963 387.958 199.963C389.756 199.963 390.694 201.65 390.694 203.935C390.694 206.219 389.756 207.898 387.958 207.898ZM400.375 202.886C400.384 201.199 401.39 200.21 402.856 200.21C404.313 200.21 405.191 201.165 405.182 202.767V210.454H408.813V202.119C408.813 199.068 407.023 197.193 404.296 197.193C402.353 197.193 400.946 198.148 400.358 199.673H400.205V197.364H396.745V210.454H400.375V202.886ZM418.638 197.364H416.174V194.227H412.544V197.364H410.754V200.091H412.544V206.909C412.527 209.474 414.274 210.744 416.907 210.633C417.845 210.599 418.51 210.412 418.876 210.293L418.305 207.591C418.126 207.625 417.743 207.71 417.402 207.71C416.677 207.71 416.174 207.437 416.174 206.432V200.091H418.638V197.364ZM421.003 210.454H424.633V203.048C424.633 201.437 425.809 200.329 427.412 200.329C427.915 200.329 428.605 200.415 428.946 200.525V197.304C428.622 197.227 428.17 197.176 427.804 197.176C426.338 197.176 425.136 198.028 424.659 199.648H424.522V197.364H421.003V210.454ZM434.181 210.702C436.116 210.702 437.368 209.858 438.008 208.639H438.11V210.454H441.553V201.625C441.553 198.506 438.911 197.193 435.996 197.193C432.86 197.193 430.797 198.693 430.294 201.079L433.652 201.352C433.9 200.483 434.675 199.844 435.979 199.844C437.215 199.844 437.922 200.466 437.922 201.54V201.591C437.922 202.435 437.027 202.545 434.752 202.767C432.161 203.006 429.834 203.875 429.834 206.798C429.834 209.389 431.684 210.702 434.181 210.702ZM435.221 208.196C434.104 208.196 433.303 207.676 433.303 206.679C433.303 205.656 434.147 205.153 435.425 204.974C436.218 204.864 437.513 204.676 437.948 204.386V205.775C437.948 207.148 436.814 208.196 435.221 208.196ZM449.194 210.668C451.307 210.668 452.407 209.449 452.91 208.358H453.063V210.454H456.642V193H453.02V199.562H452.91C452.424 198.497 451.375 197.193 449.185 197.193C446.313 197.193 443.884 199.426 443.884 203.926C443.884 208.307 446.211 210.668 449.194 210.668ZM450.344 207.778C448.563 207.778 447.591 206.193 447.591 203.909C447.591 201.642 448.546 200.082 450.344 200.082C452.108 200.082 453.097 201.574 453.097 203.909C453.097 206.244 452.091 207.778 450.344 207.778ZM463.361 210.702C465.295 210.702 466.548 209.858 467.187 208.639H467.29V210.454H470.733V201.625C470.733 198.506 468.091 197.193 465.176 197.193C462.04 197.193 459.977 198.693 459.474 201.079L462.832 201.352C463.079 200.483 463.855 199.844 465.159 199.844C466.395 199.844 467.102 200.466 467.102 201.54V201.591C467.102 202.435 466.207 202.545 463.932 202.767C461.341 203.006 459.014 203.875 459.014 206.798C459.014 209.389 460.863 210.702 463.361 210.702ZM464.4 208.196C463.284 208.196 462.483 207.676 462.483 206.679C462.483 205.656 463.326 205.153 464.605 204.974C465.397 204.864 466.693 204.676 467.128 204.386V205.775C467.128 207.148 465.994 208.196 464.4 208.196Z" fill="#343A40"/>
<path d="M40.591 247.227C44.137 247.227 46.137 245.023 46.137 241.386C46.137 237.773 44.137 235.591 40.75 235.591H37V247.227H40.591ZM38.409 245.977V236.841H40.659C43.387 236.841 44.773 238.568 44.773 241.386C44.773 244.227 43.387 245.977 40.5 245.977H38.409ZM48.319 247.227H49.659V238.5H48.319V247.227ZM49 237.046C49.523 237.046 49.955 236.636 49.955 236.136C49.955 235.636 49.523 235.227 49 235.227C48.478 235.227 48.046 235.636 48.046 236.136C48.046 236.636 48.478 237.046 49 237.046ZM55.638 250.682C57.729 250.682 59.411 249.727 59.411 247.477V238.5H58.115V239.886H57.979C57.684 239.432 57.138 238.386 55.434 238.386C53.229 238.386 51.706 240.136 51.706 242.818C51.706 245.545 53.297 247.091 55.411 247.091C57.115 247.091 57.661 246.091 57.956 245.614H58.07V247.386C58.07 248.841 57.047 249.5 55.638 249.5C54.053 249.5 53.496 248.665 53.138 248.182L52.07 248.932C52.615 249.847 53.689 250.682 55.638 250.682ZM55.593 245.886C53.911 245.886 53.047 244.614 53.047 242.796C53.047 241.023 53.888 239.591 55.593 239.591C57.229 239.591 58.093 240.909 58.093 242.796C58.093 244.727 57.206 245.886 55.593 245.886ZM61.865 247.227H63.206V238.5H61.865V247.227ZM62.547 237.046C63.07 237.046 63.502 236.636 63.502 236.136C63.502 235.636 63.07 235.227 62.547 235.227C62.024 235.227 61.593 235.636 61.593 236.136C61.593 236.636 62.024 237.046 62.547 237.046ZM69.458 238.5H67.594V236.409H66.253V238.5H64.935V239.636H66.253V245.091C66.253 246.614 67.48 247.341 68.617 247.341C69.117 247.341 69.435 247.25 69.617 247.182L69.344 245.977C69.23 246 69.049 246.046 68.753 246.046C68.162 246.046 67.594 245.864 67.594 244.727V239.636H69.458V238.5ZM75.04 247.409C76.813 247.409 78.108 246.523 78.517 245.205L77.222 244.841C76.881 245.75 76.091 246.205 75.04 246.205C73.466 246.205 72.381 245.187 72.319 243.318H78.654V242.75C78.654 239.5 76.722 238.386 74.904 238.386C72.54 238.386 70.972 240.25 70.972 242.932C70.972 245.614 72.517 247.409 75.04 247.409ZM72.319 242.159C72.409 240.801 73.37 239.591 74.904 239.591C76.358 239.591 77.29 240.682 77.29 242.159H72.319ZM90.694 243.659C90.694 245.296 89.444 246.046 88.444 246.046C87.33 246.046 86.534 245.227 86.534 243.955V238.5H85.194V244.046C85.194 246.273 86.375 247.341 88.012 247.341C89.33 247.341 90.194 246.636 90.603 245.75H90.694V247.227H92.034V238.5H90.694V243.659ZM94.49 247.227H95.831V241.773C95.831 240.494 96.763 239.591 97.809 239.591C98.826 239.591 99.536 240.256 99.536 241.25V247.227H100.899V241.546C100.899 240.421 101.604 239.591 102.831 239.591C103.786 239.591 104.604 240.097 104.604 241.386V247.227H105.945V241.386C105.945 239.335 104.843 238.386 103.286 238.386C102.036 238.386 101.121 238.96 100.672 239.864H100.581C100.149 238.932 99.388 238.386 98.24 238.386C97.104 238.386 96.263 238.932 95.899 239.864H95.786V238.5H94.49V247.227ZM116.692 238.5H114.828V236.409H113.488V238.5H112.169V239.636H113.488V245.091C113.488 246.614 114.715 247.341 115.851 247.341C116.351 247.341 116.669 247.25 116.851 247.182L116.578 245.977C116.465 246 116.283 246.046 115.988 246.046C115.397 246.046 114.828 245.864 114.828 244.727V239.636H116.692V238.5ZM122.274 247.409C124.047 247.409 125.343 246.523 125.752 245.205L124.456 244.841C124.115 245.75 123.326 246.205 122.274 246.205C120.701 246.205 119.615 245.187 119.553 243.318H125.888V242.75C125.888 239.5 123.956 238.386 122.138 238.386C119.774 238.386 118.206 240.25 118.206 242.932C118.206 245.614 119.752 247.409 122.274 247.409ZM119.553 242.159C119.644 240.801 120.604 239.591 122.138 239.591C123.593 239.591 124.524 240.682 124.524 242.159H119.553ZM128.694 238.5H127.148L129.921 242.864L127.148 247.227H128.694L130.784 243.841L132.875 247.227H134.421L131.603 242.864L134.421 238.5H132.875L130.784 242.068L128.694 238.5ZM140.13 238.5H138.266V236.409H136.925V238.5H135.607V239.636H136.925V245.091C136.925 246.614 138.152 247.341 139.289 247.341C139.789 247.341 140.107 247.25 140.289 247.182L140.016 245.977C139.902 246 139.721 246.046 139.425 246.046C138.834 246.046 138.266 245.864 138.266 244.727V239.636H140.13V238.5ZM145.598 247.409C147.962 247.409 149.553 245.614 149.553 242.909C149.553 240.182 147.962 238.386 145.598 238.386C143.235 238.386 141.644 240.182 141.644 242.909C141.644 245.614 143.235 247.409 145.598 247.409ZM145.598 246.205C143.803 246.205 142.985 244.659 142.985 242.909C142.985 241.159 143.803 239.591 145.598 239.591C147.394 239.591 148.212 241.159 148.212 242.909C148.212 244.659 147.394 246.205 145.598 246.205ZM163.395 250.5V238.5H162.1V239.886H161.941C161.645 239.432 161.122 238.386 159.418 238.386C157.213 238.386 155.691 240.136 155.691 242.886C155.691 245.659 157.213 247.409 159.395 247.409C161.077 247.409 161.645 246.364 161.941 245.886H162.054V250.5H163.395ZM162.077 242.864C162.077 244.841 161.191 246.205 159.577 246.205C157.895 246.205 157.032 244.727 157.032 242.864C157.032 241.023 157.872 239.591 159.577 239.591C161.213 239.591 162.077 240.909 162.077 242.864ZM171.35 243.659C171.35 245.296 170.1 246.046 169.1 246.046C167.986 246.046 167.191 245.227 167.191 243.955V238.5H165.85V244.046C165.85 246.273 167.032 247.341 168.668 247.341C169.986 247.341 170.85 246.636 171.259 245.75H171.35V247.227H172.691V238.5H171.35V243.659ZM178.806 247.409C180.578 247.409 181.874 246.523 182.283 245.205L180.988 244.841C180.647 245.75 179.857 246.205 178.806 246.205C177.232 246.205 176.147 245.187 176.084 243.318H182.419V242.75C182.419 239.5 180.488 238.386 178.669 238.386C176.306 238.386 174.738 240.25 174.738 242.932C174.738 245.614 176.283 247.409 178.806 247.409ZM176.084 242.159C176.175 240.801 177.135 239.591 178.669 239.591C180.124 239.591 181.056 240.682 181.056 242.159H176.084ZM196.096 238.5H194.641L192.232 245.455H192.141L189.732 238.5H188.277L191.505 247.227H192.868L196.096 238.5ZM201.098 247.409C203.462 247.409 205.053 245.614 205.053 242.909C205.053 240.182 203.462 238.386 201.098 238.386C198.735 238.386 197.144 240.182 197.144 242.909C197.144 245.614 198.735 247.409 201.098 247.409ZM201.098 246.205C199.303 246.205 198.485 244.659 198.485 242.909C198.485 241.159 199.303 239.591 201.098 239.591C202.894 239.591 203.712 241.159 203.712 242.909C203.712 244.659 202.894 246.205 201.098 246.205ZM210.645 247.409C212.577 247.409 213.85 246.227 214.077 244.682H212.736C212.486 245.636 211.691 246.205 210.645 246.205C209.054 246.205 208.032 244.886 208.032 242.864C208.032 240.886 209.077 239.591 210.645 239.591C211.827 239.591 212.532 240.318 212.736 241.114H214.077C213.85 239.477 212.463 238.386 210.622 238.386C208.259 238.386 206.691 240.25 206.691 242.909C206.691 245.523 208.191 247.409 210.645 247.409ZM219.696 247.409C221.469 247.409 222.765 246.523 223.174 245.205L221.878 244.841C221.537 245.75 220.748 246.205 219.696 246.205C218.122 246.205 217.037 245.187 216.975 243.318H223.31V242.75C223.31 239.5 221.378 238.386 219.56 238.386C217.196 238.386 215.628 240.25 215.628 242.932C215.628 245.614 217.174 247.409 219.696 247.409ZM216.975 242.159C217.066 240.801 218.026 239.591 219.56 239.591C221.015 239.591 221.946 240.682 221.946 242.159H216.975ZM218.31 237.455L219.492 235.864L220.674 237.455H221.946V237.364L220.105 235H218.878L217.037 237.364V237.455H218.31ZM233.145 247.409C234.827 247.409 235.395 246.364 235.691 245.886H235.85V247.227H237.145V235.591H235.804V239.886H235.691C235.395 239.432 234.872 238.386 233.168 238.386C230.963 238.386 229.441 240.136 229.441 242.886C229.441 245.659 230.963 247.409 233.145 247.409ZM233.327 246.205C231.645 246.205 230.782 244.727 230.782 242.864C230.782 241.023 231.622 239.591 233.327 239.591C234.963 239.591 235.827 240.909 235.827 242.864C235.827 244.841 234.941 246.205 233.327 246.205ZM243.446 247.409C245.219 247.409 246.515 246.523 246.924 245.205L245.628 244.841C245.287 245.75 244.498 246.205 243.446 246.205C241.872 246.205 240.787 245.187 240.725 243.318H247.06V242.75C247.06 239.5 245.128 238.386 243.31 238.386C240.946 238.386 239.378 240.25 239.378 242.932C239.378 245.614 240.924 247.409 243.446 247.409ZM240.725 242.159C240.816 240.801 241.776 239.591 243.31 239.591C244.765 239.591 245.696 240.682 245.696 242.159H240.725ZM255.282 240.455C254.861 239.216 253.918 238.386 252.191 238.386C250.35 238.386 248.986 239.432 248.986 240.909C248.986 242.114 249.702 242.921 251.304 243.296L252.759 243.636C253.64 243.841 254.054 244.261 254.054 244.864C254.054 245.614 253.259 246.227 252.009 246.227C250.912 246.227 250.225 245.756 249.986 244.818L248.713 245.136C249.026 246.619 250.248 247.409 252.032 247.409C254.06 247.409 255.441 246.301 255.441 244.796C255.441 243.58 254.679 242.813 253.122 242.432L251.827 242.114C250.793 241.858 250.327 241.511 250.327 240.841C250.327 240.091 251.122 239.546 252.191 239.546C253.361 239.546 253.844 240.193 254.077 240.796L255.282 240.455ZM261.118 247.409C262.891 247.409 264.186 246.523 264.596 245.205L263.3 244.841C262.959 245.75 262.169 246.205 261.118 246.205C259.544 246.205 258.459 245.187 258.397 243.318H264.732V242.75C264.732 239.5 262.8 238.386 260.982 238.386C258.618 238.386 257.05 240.25 257.05 242.932C257.05 245.614 258.596 247.409 261.118 247.409ZM258.397 242.159C258.488 240.801 259.448 239.591 260.982 239.591C262.436 239.591 263.368 240.682 263.368 242.159H258.397ZM266.772 238.5V247.864C266.772 248.75 266.408 249.25 265.59 249.25H265.34V250.5H265.613C267.294 250.5 268.113 249.477 268.113 247.864V238.5H266.772ZM267.431 237.046C267.953 237.046 268.385 236.636 268.385 236.136C268.385 235.636 267.953 235.227 267.431 235.227C266.908 235.227 266.476 235.636 266.476 236.136C266.476 236.636 266.908 237.046 267.431 237.046ZM273.137 247.432C274.659 247.432 275.455 246.614 275.728 246.046H275.796V247.227H277.137V241.477C277.137 238.705 275.023 238.386 273.909 238.386C272.591 238.386 271.091 238.841 270.409 240.432L271.682 240.886C271.978 240.25 272.676 239.568 273.955 239.568C275.188 239.568 275.796 240.222 275.796 241.341V241.386C275.796 242.034 275.137 241.977 273.546 242.182C271.926 242.392 270.159 242.75 270.159 244.75C270.159 246.455 271.478 247.432 273.137 247.432ZM273.341 246.227C272.273 246.227 271.5 245.75 271.5 244.818C271.5 243.795 272.432 243.477 273.478 243.341C274.046 243.273 275.569 243.114 275.796 242.841V244.068C275.796 245.159 274.932 246.227 273.341 246.227ZM287.63 247.409C289.561 247.409 290.834 246.227 291.061 244.682H289.721C289.471 245.636 288.675 246.205 287.63 246.205C286.039 246.205 285.016 244.886 285.016 242.864C285.016 240.886 286.061 239.591 287.63 239.591C288.811 239.591 289.516 240.318 289.721 241.114H291.061C290.834 239.477 289.448 238.386 287.607 238.386C285.243 238.386 283.675 240.25 283.675 242.909C283.675 245.523 285.175 247.409 287.63 247.409ZM293.022 247.227H294.363V241.705C294.363 240.523 295.294 239.659 296.567 239.659C296.925 239.659 297.294 239.727 297.385 239.75V238.386C297.232 238.375 296.88 238.364 296.681 238.364C295.635 238.364 294.726 238.955 294.408 239.818H294.317V238.5H293.022V247.227ZM298.975 247.227H300.316V238.5H298.975V247.227ZM299.657 237.046C300.179 237.046 300.611 236.636 300.611 236.136C300.611 235.636 300.179 235.227 299.657 235.227C299.134 235.227 298.702 235.636 298.702 236.136C298.702 236.636 299.134 237.046 299.657 237.046ZM302.772 250.5H304.113V245.886H304.226C304.522 246.364 305.09 247.409 306.772 247.409C308.953 247.409 310.476 245.659 310.476 242.886C310.476 240.136 308.953 238.386 306.749 238.386C305.044 238.386 304.522 239.432 304.226 239.886H304.067V238.5H302.772V250.5ZM304.09 242.864C304.09 240.909 304.953 239.591 306.59 239.591C308.294 239.591 309.135 241.023 309.135 242.864C309.135 244.727 308.272 246.205 306.59 246.205C304.976 246.205 304.09 244.841 304.09 242.864ZM316.317 238.5H314.453V236.409H313.113V238.5H311.794V239.636H313.113V245.091C313.113 246.614 314.34 247.341 315.476 247.341C315.976 247.341 316.294 247.25 316.476 247.182L316.203 245.977C316.09 246 315.908 246.046 315.613 246.046C315.022 246.046 314.453 245.864 314.453 244.727V239.636H316.317V238.5ZM321.786 247.409C324.149 247.409 325.74 245.614 325.74 242.909C325.74 240.182 324.149 238.386 321.786 238.386C319.422 238.386 317.831 240.182 317.831 242.909C317.831 245.614 319.422 247.409 321.786 247.409ZM321.786 246.205C319.99 246.205 319.172 244.659 319.172 242.909C319.172 241.159 319.99 239.591 321.786 239.591C323.581 239.591 324.399 241.159 324.399 242.909C324.399 244.659 323.581 246.205 321.786 246.205ZM331.31 250.682C333.401 250.682 335.083 249.727 335.083 247.477V238.5H333.787V239.886H333.651C333.355 239.432 332.81 238.386 331.105 238.386C328.901 238.386 327.378 240.136 327.378 242.818C327.378 245.545 328.969 247.091 331.083 247.091C332.787 247.091 333.333 246.091 333.628 245.614H333.742V247.386C333.742 248.841 332.719 249.5 331.31 249.5C329.725 249.5 329.168 248.665 328.81 248.182L327.742 248.932C328.287 249.847 329.361 250.682 331.31 250.682ZM331.265 245.886C329.583 245.886 328.719 244.614 328.719 242.796C328.719 241.023 329.56 239.591 331.265 239.591C332.901 239.591 333.765 240.909 333.765 242.796C333.765 244.727 332.878 245.886 331.265 245.886ZM337.537 247.227H338.878V241.705C338.878 240.523 339.81 239.659 341.083 239.659C341.441 239.659 341.81 239.727 341.901 239.75V238.386C341.748 238.375 341.395 238.364 341.196 238.364C340.151 238.364 339.242 238.955 338.924 239.818H338.833V238.5H337.537V247.227ZM346.059 247.432C347.581 247.432 348.377 246.614 348.649 246.046H348.718V247.227H350.059V241.477C350.059 238.705 347.945 238.386 346.831 238.386C345.513 238.386 344.013 238.841 343.331 240.432L344.604 240.886C344.899 240.25 345.598 239.568 346.877 239.568C348.11 239.568 348.718 240.222 348.718 241.341V241.386C348.718 242.034 348.059 241.977 346.468 242.182C344.848 242.392 343.081 242.75 343.081 244.75C343.081 246.455 344.399 247.432 346.059 247.432ZM346.263 246.227C345.195 246.227 344.422 245.75 344.422 244.818C344.422 243.795 345.354 243.477 346.399 243.341C346.968 243.273 348.49 243.114 348.718 242.841V244.068C348.718 245.159 347.854 246.227 346.263 246.227ZM356.392 238.5H354.438V237.614C354.438 236.75 354.801 236.296 355.688 236.296C356.074 236.296 356.301 236.386 356.438 236.432L356.824 235.273C356.62 235.182 356.211 235.046 355.551 235.046C354.301 235.046 353.097 235.796 353.097 237.296V238.5H351.688V239.636H353.097V247.227H354.438V239.636H356.392V238.5ZM360.59 247.432C362.113 247.432 362.908 246.614 363.181 246.046H363.249V247.227H364.59V241.477C364.59 238.705 362.476 238.386 361.363 238.386C360.044 238.386 358.544 238.841 357.863 240.432L359.135 240.886C359.431 240.25 360.13 239.568 361.408 239.568C362.641 239.568 363.249 240.222 363.249 241.341V241.386C363.249 242.034 362.59 241.977 360.999 242.182C359.38 242.392 357.613 242.75 357.613 244.75C357.613 246.455 358.931 247.432 360.59 247.432ZM360.794 246.227C359.726 246.227 358.953 245.75 358.953 244.818C358.953 243.795 359.885 243.477 360.931 243.341C361.499 243.273 363.022 243.114 363.249 242.841V244.068C363.249 245.159 362.385 246.227 360.794 246.227ZM367.037 247.227H368.378V241.705C368.378 240.523 369.31 239.659 370.583 239.659C370.941 239.659 371.31 239.727 371.401 239.75V238.386C371.248 238.375 370.895 238.364 370.696 238.364C369.651 238.364 368.742 238.955 368.424 239.818H368.333V238.5H367.037V247.227ZM381.036 247.409C383.399 247.409 384.99 245.614 384.99 242.909C384.99 240.182 383.399 238.386 381.036 238.386C378.672 238.386 377.081 240.182 377.081 242.909C377.081 245.614 378.672 247.409 381.036 247.409ZM381.036 246.205C379.24 246.205 378.422 244.659 378.422 242.909C378.422 241.159 379.24 239.591 381.036 239.591C382.831 239.591 383.649 241.159 383.649 242.909C383.649 244.659 382.831 246.205 381.036 246.205ZM392.537 243.659C392.537 245.296 391.287 246.046 390.287 246.046C389.174 246.046 388.378 245.227 388.378 243.955V238.5H387.037V244.046C387.037 246.273 388.219 247.341 389.855 247.341C391.174 247.341 392.037 246.636 392.446 245.75H392.537V247.227H393.878V238.5H392.537V243.659ZM404.13 247.409C405.811 247.409 406.38 246.364 406.675 245.886H406.834V247.227H408.13V235.591H406.789V239.886H406.675C406.38 239.432 405.857 238.386 404.152 238.386C401.948 238.386 400.425 240.136 400.425 242.886C400.425 245.659 401.948 247.409 404.13 247.409ZM404.311 246.205C402.63 246.205 401.766 244.727 401.766 242.864C401.766 241.023 402.607 239.591 404.311 239.591C405.948 239.591 406.811 240.909 406.811 242.864C406.811 244.841 405.925 246.205 404.311 246.205ZM414.431 247.409C416.203 247.409 417.499 246.523 417.908 245.205L416.613 244.841C416.272 245.75 415.482 246.205 414.431 246.205C412.857 246.205 411.772 245.187 411.709 243.318H418.044V242.75C418.044 239.5 416.113 238.386 414.294 238.386C411.931 238.386 410.363 240.25 410.363 242.932C410.363 245.614 411.908 247.409 414.431 247.409ZM411.709 242.159C411.8 240.801 412.76 239.591 414.294 239.591C415.749 239.591 416.681 240.682 416.681 242.159H411.709ZM426.266 240.455C425.846 239.216 424.902 238.386 423.175 238.386C421.334 238.386 419.971 239.432 419.971 240.909C419.971 242.114 420.686 242.921 422.289 243.296L423.743 243.636C424.624 243.841 425.039 244.261 425.039 244.864C425.039 245.614 424.243 246.227 422.993 246.227C421.897 246.227 421.209 245.756 420.971 244.818L419.698 245.136C420.01 246.619 421.232 247.409 423.016 247.409C425.044 247.409 426.425 246.301 426.425 244.796C426.425 243.58 425.664 242.813 424.107 242.432L422.811 242.114C421.777 241.858 421.311 241.511 421.311 240.841C421.311 240.091 422.107 239.546 423.175 239.546C424.346 239.546 424.828 240.193 425.061 240.796L426.266 240.455ZM431.989 247.409C433.921 247.409 435.194 246.227 435.421 244.682H434.08C433.83 245.636 433.034 246.205 431.989 246.205C430.398 246.205 429.375 244.886 429.375 242.864C429.375 240.886 430.421 239.591 431.989 239.591C433.171 239.591 433.875 240.318 434.08 241.114H435.421C435.194 239.477 433.807 238.386 431.966 238.386C429.603 238.386 428.034 240.25 428.034 242.909C428.034 245.523 429.534 247.409 431.989 247.409ZM437.381 247.227H438.722V241.705C438.722 240.523 439.654 239.659 440.926 239.659C441.284 239.659 441.654 239.727 441.745 239.75V238.386C441.591 238.375 441.239 238.364 441.04 238.364C439.995 238.364 439.086 238.955 438.767 239.818H438.676V238.5H437.381V247.227ZM443.334 247.227H444.675V238.5H443.334V247.227ZM444.016 237.046C444.539 237.046 444.971 236.636 444.971 236.136C444.971 235.636 444.539 235.227 444.016 235.227C443.493 235.227 443.061 235.636 443.061 236.136C443.061 236.636 443.493 237.046 444.016 237.046ZM447.131 250.5H448.472V245.886H448.586C448.881 246.364 449.449 247.409 451.131 247.409C453.313 247.409 454.836 245.659 454.836 242.886C454.836 240.136 453.313 238.386 451.108 238.386C449.404 238.386 448.881 239.432 448.586 239.886H448.426V238.5H447.131V250.5ZM448.449 242.864C448.449 240.909 449.313 239.591 450.949 239.591C452.654 239.591 453.495 241.023 453.495 242.864C453.495 244.727 452.631 246.205 450.949 246.205C449.336 246.205 448.449 244.841 448.449 242.864ZM460.676 238.5H458.813V236.409H457.472V238.5H456.154V239.636H457.472V245.091C457.472 246.614 458.699 247.341 459.836 247.341C460.336 247.341 460.654 247.25 460.836 247.182L460.563 245.977C460.449 246 460.267 246.046 459.972 246.046C459.381 246.046 458.813 245.864 458.813 244.727V239.636H460.676V238.5ZM466.145 247.409C468.509 247.409 470.1 245.614 470.1 242.909C470.1 240.182 468.509 238.386 466.145 238.386C463.782 238.386 462.191 240.182 462.191 242.909C462.191 245.614 463.782 247.409 466.145 247.409ZM466.145 246.205C464.35 246.205 463.532 244.659 463.532 242.909C463.532 241.159 464.35 239.591 466.145 239.591C467.941 239.591 468.759 241.159 468.759 242.909C468.759 244.659 467.941 246.205 466.145 246.205ZM475.669 250.682C477.76 250.682 479.442 249.727 479.442 247.477V238.5H478.147V239.886H478.01C477.715 239.432 477.169 238.386 475.465 238.386C473.26 238.386 471.738 240.136 471.738 242.818C471.738 245.545 473.328 247.091 475.442 247.091C477.147 247.091 477.692 246.091 477.988 245.614H478.101V247.386C478.101 248.841 477.078 249.5 475.669 249.5C474.084 249.5 473.527 248.665 473.169 248.182L472.101 248.932C472.647 249.847 473.721 250.682 475.669 250.682ZM475.624 245.886C473.942 245.886 473.078 244.614 473.078 242.796C473.078 241.023 473.919 239.591 475.624 239.591C477.26 239.591 478.124 240.909 478.124 242.796C478.124 244.727 477.238 245.886 475.624 245.886ZM481.897 247.227H483.238V241.705C483.238 240.523 484.169 239.659 485.442 239.659C485.8 239.659 486.169 239.727 486.26 239.75V238.386C486.107 238.375 485.755 238.364 485.556 238.364C484.51 238.364 483.601 238.955 483.283 239.818H483.192V238.5H481.897V247.227ZM490.418 247.432C491.941 247.432 492.736 246.614 493.009 246.046H493.077V247.227H494.418V241.477C494.418 238.705 492.304 238.386 491.191 238.386C489.872 238.386 488.372 238.841 487.691 240.432L488.963 240.886C489.259 240.25 489.958 239.568 491.236 239.568C492.469 239.568 493.077 240.222 493.077 241.341V241.386C493.077 242.034 492.418 241.977 490.827 242.182C489.208 242.392 487.441 242.75 487.441 244.75C487.441 246.455 488.759 247.432 490.418 247.432ZM490.622 246.227C489.554 246.227 488.782 245.75 488.782 244.818C488.782 243.795 489.713 243.477 490.759 243.341C491.327 243.273 492.85 243.114 493.077 242.841V244.068C493.077 245.159 492.213 246.227 490.622 246.227ZM500.752 238.5H498.797V237.614C498.797 236.75 499.161 236.296 500.047 236.296C500.434 236.296 500.661 236.386 500.797 236.432L501.184 235.273C500.979 235.182 500.57 235.046 499.911 235.046C498.661 235.046 497.456 235.796 497.456 237.296V238.5H496.047V239.636H497.456V247.227H498.797V239.636H500.752V238.5ZM504.949 247.432C506.472 247.432 507.267 246.614 507.54 246.046H507.608V247.227H508.949V241.477C508.949 238.705 506.836 238.386 505.722 238.386C504.404 238.386 502.904 238.841 502.222 240.432L503.495 240.886C503.79 240.25 504.489 239.568 505.767 239.568C507 239.568 507.608 240.222 507.608 241.341V241.386C507.608 242.034 506.949 241.977 505.358 242.182C503.739 242.392 501.972 242.75 501.972 244.75C501.972 246.455 503.29 247.432 504.949 247.432ZM505.154 246.227C504.086 246.227 503.313 245.75 503.313 244.818C503.313 243.795 504.245 243.477 505.29 243.341C505.858 243.273 507.381 243.114 507.608 242.841V244.068C507.608 245.159 506.745 246.227 505.154 246.227ZM511.397 247.227H512.738V241.705C512.738 240.523 513.669 239.659 514.942 239.659C515.3 239.659 515.669 239.727 515.76 239.75V238.386C515.607 238.375 515.255 238.364 515.056 238.364C514.01 238.364 513.101 238.955 512.783 239.818H512.692V238.5H511.397V247.227ZM517.327 247.318C517.89 247.318 518.35 246.858 518.35 246.296C518.35 245.733 517.89 245.273 517.327 245.273C516.765 245.273 516.304 245.733 516.304 246.296C516.304 246.858 516.765 247.318 517.327 247.318Z" fill="#495057"/>
</svg>
