<svg width="696" height="245" viewBox="0 0 696 245" fill="none" xmlns="http://www.w3.org/2000/svg">
<rect width="696" height="245" rx="27" fill="white"/>
<path d="M110.591 144.283C114.137 144.283 116.137 142.122 116.137 138.559C116.137 135.017 114.137 132.879 110.75 132.879H107V144.283H110.591ZM108.409 143.058V134.104H110.659C113.387 134.104 114.773 135.797 114.773 138.559C114.773 141.343 113.387 143.058 110.5 143.058H108.409ZM118.319 144.283H119.659V135.73H118.319V144.283ZM119 134.305C119.523 134.305 119.955 133.904 119.955 133.414C119.955 132.924 119.523 132.523 119 132.523C118.478 132.523 118.046 132.924 118.046 133.414C118.046 133.904 118.478 134.305 119 134.305ZM125.638 147.668C127.729 147.668 129.411 146.733 129.411 144.528V135.73H128.115V137.089H127.979C127.684 136.643 127.138 135.619 125.434 135.619C123.229 135.619 121.706 137.334 121.706 139.962C121.706 142.635 123.297 144.149 125.411 144.149C127.115 144.149 127.661 143.169 127.956 142.701H128.07V144.439C128.07 145.864 127.047 146.51 125.638 146.51C124.053 146.51 123.496 145.692 123.138 145.218L122.07 145.953C122.615 146.85 123.689 147.668 125.638 147.668ZM125.593 142.969C123.911 142.969 123.047 141.721 123.047 139.94C123.047 138.202 123.888 136.799 125.593 136.799C127.229 136.799 128.093 138.091 128.093 139.94C128.093 141.833 127.206 142.969 125.593 142.969ZM131.865 144.283H133.206V135.73H131.865V144.283ZM132.547 134.305C133.07 134.305 133.502 133.904 133.502 133.414C133.502 132.924 133.07 132.523 132.547 132.523C132.024 132.523 131.593 132.924 131.593 133.414C131.593 133.904 132.024 134.305 132.547 134.305ZM139.458 135.73H137.594V133.681H136.253V135.73H134.935V136.844H136.253V142.189C136.253 143.681 137.48 144.394 138.617 144.394C139.117 144.394 139.435 144.305 139.617 144.238L139.344 143.058C139.23 143.08 139.049 143.125 138.753 143.125C138.162 143.125 137.594 142.946 137.594 141.833V136.844H139.458V135.73ZM145.04 144.461C146.813 144.461 148.108 143.592 148.517 142.301L147.222 141.944C146.881 142.835 146.091 143.281 145.04 143.281C143.466 143.281 142.381 142.284 142.319 140.452H148.654V139.895C148.654 136.71 146.722 135.619 144.904 135.619C142.54 135.619 140.972 137.445 140.972 140.073C140.972 142.701 142.517 144.461 145.04 144.461ZM142.319 139.316C142.409 137.985 143.37 136.799 144.904 136.799C146.358 136.799 147.29 137.868 147.29 139.316H142.319ZM160.694 140.786C160.694 142.39 159.444 143.125 158.444 143.125C157.33 143.125 156.534 142.323 156.534 141.076V135.73H155.194V141.165C155.194 143.347 156.375 144.394 158.012 144.394C159.33 144.394 160.194 143.704 160.603 142.835H160.694V144.283H162.034V135.73H160.694V140.786ZM164.49 144.283H165.831V138.937C165.831 137.684 166.763 136.799 167.809 136.799C168.826 136.799 169.536 137.451 169.536 138.425V144.283H170.899V138.715C170.899 137.612 171.604 136.799 172.831 136.799C173.786 136.799 174.604 137.295 174.604 138.559V144.283H175.945V138.559C175.945 136.549 174.843 135.619 173.286 135.619C172.036 135.619 171.121 136.181 170.672 137.066H170.581C170.149 136.153 169.388 135.619 168.24 135.619C167.104 135.619 166.263 136.153 165.899 137.066H165.786V135.73H164.49V144.283ZM186.692 135.73H184.828V133.681H183.488V135.73H182.169V136.844H183.488V142.189C183.488 143.681 184.715 144.394 185.851 144.394C186.351 144.394 186.669 144.305 186.851 144.238L186.578 143.058C186.465 143.08 186.283 143.125 185.988 143.125C185.397 143.125 184.828 142.946 184.828 141.833V136.844H186.692V135.73ZM192.274 144.461C194.047 144.461 195.343 143.592 195.752 142.301L194.456 141.944C194.115 142.835 193.326 143.281 192.274 143.281C190.701 143.281 189.615 142.284 189.553 140.452H195.888V139.895C195.888 136.71 193.956 135.619 192.138 135.619C189.774 135.619 188.206 137.445 188.206 140.073C188.206 142.701 189.752 144.461 192.274 144.461ZM189.553 139.316C189.644 137.985 190.604 136.799 192.138 136.799C193.593 136.799 194.524 137.868 194.524 139.316H189.553ZM198.694 135.73H197.148L199.921 140.006L197.148 144.283H198.694L200.784 140.964L202.875 144.283H204.421L201.603 140.006L204.421 135.73H202.875L200.784 139.227L198.694 135.73ZM210.13 135.73H208.266V133.681H206.925V135.73H205.607V136.844H206.925V142.189C206.925 143.681 208.152 144.394 209.289 144.394C209.789 144.394 210.107 144.305 210.289 144.238L210.016 143.058C209.902 143.08 209.721 143.125 209.425 143.125C208.834 143.125 208.266 142.946 208.266 141.833V136.844H210.13V135.73ZM215.598 144.461C217.962 144.461 219.553 142.701 219.553 140.051C219.553 137.378 217.962 135.619 215.598 135.619C213.235 135.619 211.644 137.378 211.644 140.051C211.644 142.701 213.235 144.461 215.598 144.461ZM215.598 143.281C213.803 143.281 212.985 141.766 212.985 140.051C212.985 138.336 213.803 136.799 215.598 136.799C217.394 136.799 218.212 138.336 218.212 140.051C218.212 141.766 217.394 143.281 215.598 143.281ZM233.395 147.49V135.73H232.1V137.089H231.941C231.645 136.643 231.122 135.619 229.418 135.619C227.213 135.619 225.691 137.334 225.691 140.029C225.691 142.746 227.213 144.461 229.395 144.461C231.077 144.461 231.645 143.436 231.941 142.969H232.054V147.49H233.395ZM232.077 140.006C232.077 141.944 231.191 143.281 229.577 143.281C227.895 143.281 227.032 141.833 227.032 140.006C227.032 138.202 227.872 136.799 229.577 136.799C231.213 136.799 232.077 138.091 232.077 140.006ZM241.35 140.786C241.35 142.39 240.1 143.125 239.1 143.125C237.986 143.125 237.191 142.323 237.191 141.076V135.73H235.85V141.165C235.85 143.347 237.032 144.394 238.668 144.394C239.986 144.394 240.85 143.704 241.259 142.835H241.35V144.283H242.691V135.73H241.35V140.786ZM248.806 144.461C250.578 144.461 251.874 143.592 252.283 142.301L250.988 141.944C250.647 142.835 249.857 143.281 248.806 143.281C247.232 143.281 246.147 142.284 246.084 140.452H252.419V139.895C252.419 136.71 250.488 135.619 248.669 135.619C246.306 135.619 244.738 137.445 244.738 140.073C244.738 142.701 246.283 144.461 248.806 144.461ZM246.084 139.316C246.175 137.985 247.135 136.799 248.669 136.799C250.124 136.799 251.056 137.868 251.056 139.316H246.084ZM266.096 135.73H264.641L262.232 142.546H262.141L259.732 135.73H258.277L261.505 144.283H262.868L266.096 135.73ZM271.098 144.461C273.462 144.461 275.053 142.701 275.053 140.051C275.053 137.378 273.462 135.619 271.098 135.619C268.735 135.619 267.144 137.378 267.144 140.051C267.144 142.701 268.735 144.461 271.098 144.461ZM271.098 143.281C269.303 143.281 268.485 141.766 268.485 140.051C268.485 138.336 269.303 136.799 271.098 136.799C272.894 136.799 273.712 138.336 273.712 140.051C273.712 141.766 272.894 143.281 271.098 143.281ZM280.645 144.461C282.577 144.461 283.85 143.303 284.077 141.788H282.736C282.486 142.724 281.691 143.281 280.645 143.281C279.054 143.281 278.032 141.989 278.032 140.006C278.032 138.069 279.077 136.799 280.645 136.799C281.827 136.799 282.532 137.512 282.736 138.291H284.077C283.85 136.688 282.463 135.619 280.622 135.619C278.259 135.619 276.691 137.445 276.691 140.051C276.691 142.612 278.191 144.461 280.645 144.461ZM289.696 144.461C291.469 144.461 292.765 143.592 293.174 142.301L291.878 141.944C291.537 142.835 290.748 143.281 289.696 143.281C288.122 143.281 287.037 142.284 286.975 140.452H293.31V139.895C293.31 136.71 291.378 135.619 289.56 135.619C287.196 135.619 285.628 137.445 285.628 140.073C285.628 142.701 287.174 144.461 289.696 144.461ZM286.975 139.316C287.066 137.985 288.026 136.799 289.56 136.799C291.015 136.799 291.946 137.868 291.946 139.316H286.975ZM288.31 134.706L289.492 133.146L290.674 134.706H291.946V134.616L290.105 132.3H288.878L287.037 134.616V134.706H288.31ZM303.145 144.461C304.827 144.461 305.395 143.436 305.691 142.969H305.85V144.283H307.145V132.879H305.804V137.089H305.691C305.395 136.643 304.872 135.619 303.168 135.619C300.963 135.619 299.441 137.334 299.441 140.029C299.441 142.746 300.963 144.461 303.145 144.461ZM303.327 143.281C301.645 143.281 300.782 141.833 300.782 140.006C300.782 138.202 301.622 136.799 303.327 136.799C304.963 136.799 305.827 138.091 305.827 140.006C305.827 141.944 304.941 143.281 303.327 143.281ZM313.446 144.461C315.219 144.461 316.515 143.592 316.924 142.301L315.628 141.944C315.287 142.835 314.498 143.281 313.446 143.281C311.872 143.281 310.787 142.284 310.725 140.452H317.06V139.895C317.06 136.71 315.128 135.619 313.31 135.619C310.946 135.619 309.378 137.445 309.378 140.073C309.378 142.701 310.924 144.461 313.446 144.461ZM310.725 139.316C310.816 137.985 311.776 136.799 313.31 136.799C314.765 136.799 315.696 137.868 315.696 139.316H310.725ZM325.282 137.646C324.861 136.432 323.918 135.619 322.191 135.619C320.35 135.619 318.986 136.643 318.986 138.091C318.986 139.271 319.702 140.062 321.304 140.43L322.759 140.764C323.64 140.964 324.054 141.376 324.054 141.966C324.054 142.701 323.259 143.303 322.009 143.303C320.912 143.303 320.225 142.841 319.986 141.922L318.713 142.234C319.026 143.687 320.248 144.461 322.032 144.461C324.06 144.461 325.441 143.375 325.441 141.9C325.441 140.708 324.679 139.956 323.122 139.583L321.827 139.271C320.793 139.021 320.327 138.681 320.327 138.024C320.327 137.289 321.122 136.755 322.191 136.755C323.361 136.755 323.844 137.389 324.077 137.98L325.282 137.646ZM331.118 144.461C332.891 144.461 334.186 143.592 334.596 142.301L333.3 141.944C332.959 142.835 332.169 143.281 331.118 143.281C329.544 143.281 328.459 142.284 328.397 140.452H334.732V139.895C334.732 136.71 332.8 135.619 330.982 135.619C328.618 135.619 327.05 137.445 327.05 140.073C327.05 142.701 328.596 144.461 331.118 144.461ZM328.397 139.316C328.488 137.985 329.448 136.799 330.982 136.799C332.436 136.799 333.368 137.868 333.368 139.316H328.397ZM336.772 135.73V144.906C336.772 145.775 336.408 146.265 335.59 146.265H335.34V147.49H335.613C337.294 147.49 338.113 146.488 338.113 144.906V135.73H336.772ZM337.431 134.305C337.953 134.305 338.385 133.904 338.385 133.414C338.385 132.924 337.953 132.523 337.431 132.523C336.908 132.523 336.476 132.924 336.476 133.414C336.476 133.904 336.908 134.305 337.431 134.305ZM343.137 144.483C344.659 144.483 345.455 143.681 345.728 143.125H345.796V144.283H347.137V138.648C347.137 135.931 345.023 135.619 343.909 135.619C342.591 135.619 341.091 136.064 340.409 137.623L341.682 138.069C341.978 137.445 342.676 136.777 343.955 136.777C345.188 136.777 345.796 137.417 345.796 138.514V138.559C345.796 139.193 345.137 139.138 343.546 139.338C341.926 139.544 340.159 139.895 340.159 141.855C340.159 143.526 341.478 144.483 343.137 144.483ZM343.341 143.303C342.273 143.303 341.5 142.835 341.5 141.922C341.5 140.92 342.432 140.608 343.478 140.474C344.046 140.407 345.569 140.251 345.796 139.984V141.187C345.796 142.256 344.932 143.303 343.341 143.303ZM357.63 144.461C359.561 144.461 360.834 143.303 361.061 141.788H359.721C359.471 142.724 358.675 143.281 357.63 143.281C356.039 143.281 355.016 141.989 355.016 140.006C355.016 138.069 356.061 136.799 357.63 136.799C358.811 136.799 359.516 137.512 359.721 138.291H361.061C360.834 136.688 359.448 135.619 357.607 135.619C355.243 135.619 353.675 137.445 353.675 140.051C353.675 142.612 355.175 144.461 357.63 144.461ZM363.022 144.283H364.363V138.871C364.363 137.712 365.294 136.866 366.567 136.866C366.925 136.866 367.294 136.933 367.385 136.955V135.619C367.232 135.608 366.88 135.596 366.681 135.596C365.635 135.596 364.726 136.176 364.408 137.022H364.317V135.73H363.022V144.283ZM368.975 144.283H370.316V135.73H368.975V144.283ZM369.657 134.305C370.179 134.305 370.611 133.904 370.611 133.414C370.611 132.924 370.179 132.523 369.657 132.523C369.134 132.523 368.702 132.924 368.702 133.414C368.702 133.904 369.134 134.305 369.657 134.305ZM372.772 147.49H374.113V142.969H374.226C374.522 143.436 375.09 144.461 376.772 144.461C378.953 144.461 380.476 142.746 380.476 140.029C380.476 137.334 378.953 135.619 376.749 135.619C375.044 135.619 374.522 136.643 374.226 137.089H374.067V135.73H372.772V147.49ZM374.09 140.006C374.09 138.091 374.953 136.799 376.59 136.799C378.294 136.799 379.135 138.202 379.135 140.006C379.135 141.833 378.272 143.281 376.59 143.281C374.976 143.281 374.09 141.944 374.09 140.006ZM386.317 135.73H384.453V133.681H383.113V135.73H381.794V136.844H383.113V142.189C383.113 143.681 384.34 144.394 385.476 144.394C385.976 144.394 386.294 144.305 386.476 144.238L386.203 143.058C386.09 143.08 385.908 143.125 385.613 143.125C385.022 143.125 384.453 142.946 384.453 141.833V136.844H386.317V135.73ZM391.786 144.461C394.149 144.461 395.74 142.701 395.74 140.051C395.74 137.378 394.149 135.619 391.786 135.619C389.422 135.619 387.831 137.378 387.831 140.051C387.831 142.701 389.422 144.461 391.786 144.461ZM391.786 143.281C389.99 143.281 389.172 141.766 389.172 140.051C389.172 138.336 389.99 136.799 391.786 136.799C393.581 136.799 394.399 138.336 394.399 140.051C394.399 141.766 393.581 143.281 391.786 143.281ZM401.31 147.668C403.401 147.668 405.083 146.733 405.083 144.528V135.73H403.787V137.089H403.651C403.355 136.643 402.81 135.619 401.105 135.619C398.901 135.619 397.378 137.334 397.378 139.962C397.378 142.635 398.969 144.149 401.083 144.149C402.787 144.149 403.333 143.169 403.628 142.701H403.742V144.439C403.742 145.864 402.719 146.51 401.31 146.51C399.725 146.51 399.168 145.692 398.81 145.218L397.742 145.953C398.287 146.85 399.361 147.668 401.31 147.668ZM401.265 142.969C399.583 142.969 398.719 141.721 398.719 139.94C398.719 138.202 399.56 136.799 401.265 136.799C402.901 136.799 403.765 138.091 403.765 139.94C403.765 141.833 402.878 142.969 401.265 142.969ZM407.537 144.283H408.878V138.871C408.878 137.712 409.81 136.866 411.083 136.866C411.441 136.866 411.81 136.933 411.901 136.955V135.619C411.748 135.608 411.395 135.596 411.196 135.596C410.151 135.596 409.242 136.176 408.924 137.022H408.833V135.73H407.537V144.283ZM416.059 144.483C417.581 144.483 418.377 143.681 418.649 143.125H418.718V144.283H420.059V138.648C420.059 135.931 417.945 135.619 416.831 135.619C415.513 135.619 414.013 136.064 413.331 137.623L414.604 138.069C414.899 137.445 415.598 136.777 416.877 136.777C418.11 136.777 418.718 137.417 418.718 138.514V138.559C418.718 139.193 418.059 139.138 416.468 139.338C414.848 139.544 413.081 139.895 413.081 141.855C413.081 143.526 414.399 144.483 416.059 144.483ZM416.263 143.303C415.195 143.303 414.422 142.835 414.422 141.922C414.422 140.92 415.354 140.608 416.399 140.474C416.968 140.407 418.49 140.251 418.718 139.984V141.187C418.718 142.256 417.854 143.303 416.263 143.303ZM426.392 135.73H424.438V134.861C424.438 134.015 424.801 133.57 425.688 133.57C426.074 133.57 426.301 133.659 426.438 133.703L426.824 132.567C426.62 132.478 426.211 132.345 425.551 132.345C424.301 132.345 423.097 133.08 423.097 134.55V135.73H421.688V136.844H423.097V144.283H424.438V136.844H426.392V135.73ZM430.59 144.483C432.113 144.483 432.908 143.681 433.181 143.125H433.249V144.283H434.59V138.648C434.59 135.931 432.476 135.619 431.363 135.619C430.044 135.619 428.544 136.064 427.863 137.623L429.135 138.069C429.431 137.445 430.13 136.777 431.408 136.777C432.641 136.777 433.249 137.417 433.249 138.514V138.559C433.249 139.193 432.59 139.138 430.999 139.338C429.38 139.544 427.613 139.895 427.613 141.855C427.613 143.526 428.931 144.483 430.59 144.483ZM430.794 143.303C429.726 143.303 428.953 142.835 428.953 141.922C428.953 140.92 429.885 140.608 430.931 140.474C431.499 140.407 433.022 140.251 433.249 139.984V141.187C433.249 142.256 432.385 143.303 430.794 143.303ZM437.037 144.283H438.378V138.871C438.378 137.712 439.31 136.866 440.583 136.866C440.941 136.866 441.31 136.933 441.401 136.955V135.619C441.248 135.608 440.895 135.596 440.696 135.596C439.651 135.596 438.742 136.176 438.424 137.022H438.333V135.73H437.037V144.283ZM451.036 144.461C453.399 144.461 454.99 142.701 454.99 140.051C454.99 137.378 453.399 135.619 451.036 135.619C448.672 135.619 447.081 137.378 447.081 140.051C447.081 142.701 448.672 144.461 451.036 144.461ZM451.036 143.281C449.24 143.281 448.422 141.766 448.422 140.051C448.422 138.336 449.24 136.799 451.036 136.799C452.831 136.799 453.649 138.336 453.649 140.051C453.649 141.766 452.831 143.281 451.036 143.281ZM462.537 140.786C462.537 142.39 461.287 143.125 460.287 143.125C459.174 143.125 458.378 142.323 458.378 141.076V135.73H457.037V141.165C457.037 143.347 458.219 144.394 459.855 144.394C461.174 144.394 462.037 143.704 462.446 142.835H462.537V144.283H463.878V135.73H462.537V140.786ZM474.13 144.461C475.811 144.461 476.38 143.436 476.675 142.969H476.834V144.283H478.13V132.879H476.789V137.089H476.675C476.38 136.643 475.857 135.619 474.152 135.619C471.948 135.619 470.425 137.334 470.425 140.029C470.425 142.746 471.948 144.461 474.13 144.461ZM474.311 143.281C472.63 143.281 471.766 141.833 471.766 140.006C471.766 138.202 472.607 136.799 474.311 136.799C475.948 136.799 476.811 138.091 476.811 140.006C476.811 141.944 475.925 143.281 474.311 143.281ZM484.431 144.461C486.203 144.461 487.499 143.592 487.908 142.301L486.613 141.944C486.272 142.835 485.482 143.281 484.431 143.281C482.857 143.281 481.772 142.284 481.709 140.452H488.044V139.895C488.044 136.71 486.113 135.619 484.294 135.619C481.931 135.619 480.363 137.445 480.363 140.073C480.363 142.701 481.908 144.461 484.431 144.461ZM481.709 139.316C481.8 137.985 482.76 136.799 484.294 136.799C485.749 136.799 486.681 137.868 486.681 139.316H481.709ZM496.266 137.646C495.846 136.432 494.902 135.619 493.175 135.619C491.334 135.619 489.971 136.643 489.971 138.091C489.971 139.271 490.686 140.062 492.289 140.43L493.743 140.764C494.624 140.964 495.039 141.376 495.039 141.966C495.039 142.701 494.243 143.303 492.993 143.303C491.897 143.303 491.209 142.841 490.971 141.922L489.698 142.234C490.01 143.687 491.232 144.461 493.016 144.461C495.044 144.461 496.425 143.375 496.425 141.9C496.425 140.708 495.664 139.956 494.107 139.583L492.811 139.271C491.777 139.021 491.311 138.681 491.311 138.024C491.311 137.289 492.107 136.755 493.175 136.755C494.346 136.755 494.828 137.389 495.061 137.98L496.266 137.646ZM501.989 144.461C503.921 144.461 505.194 143.303 505.421 141.788H504.08C503.83 142.724 503.034 143.281 501.989 143.281C500.398 143.281 499.375 141.989 499.375 140.006C499.375 138.069 500.421 136.799 501.989 136.799C503.171 136.799 503.875 137.512 504.08 138.291H505.421C505.194 136.688 503.807 135.619 501.966 135.619C499.603 135.619 498.034 137.445 498.034 140.051C498.034 142.612 499.534 144.461 501.989 144.461ZM507.381 144.283H508.722V138.871C508.722 137.712 509.654 136.866 510.926 136.866C511.284 136.866 511.654 136.933 511.745 136.955V135.619C511.591 135.608 511.239 135.596 511.04 135.596C509.995 135.596 509.086 136.176 508.767 137.022H508.676V135.73H507.381V144.283ZM513.334 144.283H514.675V135.73H513.334V144.283ZM514.016 134.305C514.539 134.305 514.971 133.904 514.971 133.414C514.971 132.924 514.539 132.523 514.016 132.523C513.493 132.523 513.061 132.924 513.061 133.414C513.061 133.904 513.493 134.305 514.016 134.305ZM517.131 147.49H518.472V142.969H518.586C518.881 143.436 519.449 144.461 521.131 144.461C523.313 144.461 524.836 142.746 524.836 140.029C524.836 137.334 523.313 135.619 521.108 135.619C519.404 135.619 518.881 136.643 518.586 137.089H518.426V135.73H517.131V147.49ZM518.449 140.006C518.449 138.091 519.313 136.799 520.949 136.799C522.654 136.799 523.495 138.202 523.495 140.006C523.495 141.833 522.631 143.281 520.949 143.281C519.336 143.281 518.449 141.944 518.449 140.006ZM530.676 135.73H528.813V133.681H527.472V135.73H526.154V136.844H527.472V142.189C527.472 143.681 528.699 144.394 529.836 144.394C530.336 144.394 530.654 144.305 530.836 144.238L530.563 143.058C530.449 143.08 530.267 143.125 529.972 143.125C529.381 143.125 528.813 142.946 528.813 141.833V136.844H530.676V135.73ZM536.145 144.461C538.509 144.461 540.1 142.701 540.1 140.051C540.1 137.378 538.509 135.619 536.145 135.619C533.782 135.619 532.191 137.378 532.191 140.051C532.191 142.701 533.782 144.461 536.145 144.461ZM536.145 143.281C534.35 143.281 533.532 141.766 533.532 140.051C533.532 138.336 534.35 136.799 536.145 136.799C537.941 136.799 538.759 138.336 538.759 140.051C538.759 141.766 537.941 143.281 536.145 143.281ZM545.669 147.668C547.76 147.668 549.442 146.733 549.442 144.528V135.73H548.147V137.089H548.01C547.715 136.643 547.169 135.619 545.465 135.619C543.26 135.619 541.738 137.334 541.738 139.962C541.738 142.635 543.328 144.149 545.442 144.149C547.147 144.149 547.692 143.169 547.988 142.701H548.101V144.439C548.101 145.864 547.078 146.51 545.669 146.51C544.084 146.51 543.527 145.692 543.169 145.218L542.101 145.953C542.647 146.85 543.721 147.668 545.669 147.668ZM545.624 142.969C543.942 142.969 543.078 141.721 543.078 139.94C543.078 138.202 543.919 136.799 545.624 136.799C547.26 136.799 548.124 138.091 548.124 139.94C548.124 141.833 547.238 142.969 545.624 142.969ZM551.897 144.283H553.238V138.871C553.238 137.712 554.169 136.866 555.442 136.866C555.8 136.866 556.169 136.933 556.26 136.955V135.619C556.107 135.608 555.755 135.596 555.556 135.596C554.51 135.596 553.601 136.176 553.283 137.022H553.192V135.73H551.897V144.283ZM560.418 144.483C561.941 144.483 562.736 143.681 563.009 143.125H563.077V144.283H564.418V138.648C564.418 135.931 562.304 135.619 561.191 135.619C559.872 135.619 558.372 136.064 557.691 137.623L558.963 138.069C559.259 137.445 559.958 136.777 561.236 136.777C562.469 136.777 563.077 137.417 563.077 138.514V138.559C563.077 139.193 562.418 139.138 560.827 139.338C559.208 139.544 557.441 139.895 557.441 141.855C557.441 143.526 558.759 144.483 560.418 144.483ZM560.622 143.303C559.554 143.303 558.782 142.835 558.782 141.922C558.782 140.92 559.713 140.608 560.759 140.474C561.327 140.407 562.85 140.251 563.077 139.984V141.187C563.077 142.256 562.213 143.303 560.622 143.303ZM570.752 135.73H568.797V134.861C568.797 134.015 569.161 133.57 570.047 133.57C570.434 133.57 570.661 133.659 570.797 133.703L571.184 132.567C570.979 132.478 570.57 132.345 569.911 132.345C568.661 132.345 567.456 133.08 567.456 134.55V135.73H566.047V136.844H567.456V144.283H568.797V136.844H570.752V135.73ZM574.949 144.483C576.472 144.483 577.267 143.681 577.54 143.125H577.608V144.283H578.949V138.648C578.949 135.931 576.836 135.619 575.722 135.619C574.404 135.619 572.904 136.064 572.222 137.623L573.495 138.069C573.79 137.445 574.489 136.777 575.767 136.777C577 136.777 577.608 137.417 577.608 138.514V138.559C577.608 139.193 576.949 139.138 575.358 139.338C573.739 139.544 571.972 139.895 571.972 141.855C571.972 143.526 573.29 144.483 574.949 144.483ZM575.154 143.303C574.086 143.303 573.313 142.835 573.313 141.922C573.313 140.92 574.245 140.608 575.29 140.474C575.858 140.407 577.381 140.251 577.608 139.984V141.187C577.608 142.256 576.745 143.303 575.154 143.303ZM581.397 144.283H582.738V138.871C582.738 137.712 583.669 136.866 584.942 136.866C585.3 136.866 585.669 136.933 585.76 136.955V135.619C585.607 135.608 585.255 135.596 585.056 135.596C584.01 135.596 583.101 136.176 582.783 137.022H582.692V135.73H581.397V144.283ZM587.327 144.372C587.89 144.372 588.35 143.921 588.35 143.37C588.35 142.818 587.89 142.367 587.327 142.367C586.765 142.367 586.304 142.818 586.304 143.37C586.304 143.921 586.765 144.372 587.327 144.372Z" fill="#495057"/>
<path d="M169.6 90.16H165.927V100.918H165.773L158.239 90.16H155V107.265H158.691V96.4993H158.819L166.412 107.265H169.6V90.16ZM178.547 107.516C181.785 107.516 183.967 105.971 184.478 103.59L181.12 103.373C180.754 104.35 179.817 104.86 178.606 104.86C176.791 104.86 175.64 103.682 175.64 101.77V101.761H184.555V100.784C184.555 96.4242 181.862 94.2692 178.402 94.2692C174.549 94.2692 172.052 96.9503 172.052 100.909C172.052 104.977 174.515 107.516 178.547 107.516ZM175.64 99.5562C175.717 98.0946 176.851 96.9253 178.461 96.9253C180.038 96.9253 181.129 98.0278 181.138 99.5562H175.64ZM190.555 99.8486C190.564 98.1948 191.569 97.226 193.035 97.226C194.493 97.226 195.37 98.1614 195.362 99.7317V107.265H198.993V99.0969C198.993 96.1067 197.203 94.2692 194.476 94.2692C192.532 94.2692 191.126 95.2047 190.538 96.6998H190.385V94.4363H186.924V107.265H190.555V99.8486ZM205.485 99.8486C205.493 98.1948 206.525 97.226 208.008 97.226C209.482 97.226 210.351 98.1531 210.343 99.7317V107.265H213.973V99.0969C213.982 96.0901 212.175 94.2692 209.448 94.2692C207.462 94.2692 206.133 95.188 205.536 96.6998H205.383V90.16H201.854V107.265H205.485V99.8486ZM225.226 101.803C225.234 103.524 224.032 104.426 222.728 104.426C221.356 104.426 220.47 103.482 220.461 101.97V94.4363H216.831V102.605C216.839 105.603 218.629 107.433 221.263 107.433C223.231 107.433 224.646 106.438 225.234 104.935H225.37V107.265H228.856V94.4363H225.226V101.803ZM231.76 107.265H235.391V99.5646C235.391 98.1447 236.312 97.2009 237.522 97.2009C238.715 97.2009 239.516 98.0027 239.516 99.2639V107.265H243.036V99.431C243.036 98.103 243.812 97.2009 245.133 97.2009C246.292 97.2009 247.161 97.9108 247.161 99.3391V107.265H250.783V98.6375C250.783 95.8563 249.096 94.2692 246.658 94.2692C244.741 94.2692 243.249 95.2298 242.712 96.6998H242.576C242.158 95.2131 240.82 94.2692 239.022 94.2692C237.258 94.2692 235.919 95.188 235.374 96.6998H235.221V94.4363H231.76V107.265ZM257.384 107.508C259.319 107.508 260.571 106.681 261.211 105.486H261.313V107.265H264.756V98.6125C264.756 95.5555 262.114 94.2692 259.199 94.2692C256.063 94.2692 254 95.7392 253.498 98.0779L256.856 98.3452C257.103 97.4932 257.878 96.8668 259.182 96.8668C260.418 96.8668 261.125 97.4766 261.125 98.5289V98.5791C261.125 99.4059 260.231 99.5145 257.955 99.7317C255.364 99.9655 253.037 100.818 253.037 103.682C253.037 106.221 254.887 107.508 257.384 107.508ZM258.424 105.052C257.307 105.052 256.506 104.543 256.506 103.565C256.506 102.563 257.35 102.07 258.628 101.895C259.421 101.786 260.716 101.603 261.151 101.319V102.68C261.151 104.025 260.017 105.052 258.424 105.052ZM273.128 107.265H276.758V99.5646C276.758 98.1447 277.679 97.2009 278.889 97.2009C280.082 97.2009 280.883 98.0027 280.883 99.2639V107.265H284.403V99.431C284.403 98.103 285.179 97.2009 286.5 97.2009C287.659 97.2009 288.528 97.9108 288.528 99.3391V107.265H292.15V98.6375C292.15 95.8563 290.463 94.2692 288.025 94.2692C286.108 94.2692 284.616 95.2298 284.079 96.6998H283.943C283.525 95.2131 282.187 94.2692 280.389 94.2692C278.625 94.2692 277.287 95.188 276.741 96.6998H276.588V94.4363H273.128V107.265ZM300.984 107.516C304.223 107.516 306.405 105.971 306.916 103.59L303.558 103.373C303.192 104.35 302.254 104.86 301.044 104.86C299.228 104.86 298.078 103.682 298.078 101.77V101.761H306.993V100.784C306.993 96.4242 304.299 94.2692 300.839 94.2692C296.987 94.2692 294.49 96.9503 294.49 100.909C294.49 104.977 296.953 107.516 300.984 107.516ZM298.078 99.5562C298.155 98.0946 299.288 96.9253 300.899 96.9253C302.476 96.9253 303.567 98.0278 303.575 99.5562H298.078ZM312.993 99.8486C313.001 98.1948 314.007 97.226 315.473 97.226C316.93 97.226 317.808 98.1614 317.799 99.7317V107.265H321.43V99.0969C321.43 96.1067 319.64 94.2692 316.913 94.2692C314.97 94.2692 313.564 95.2047 312.976 96.6998H312.822V94.4363H309.362V107.265H312.993V99.8486ZM335.184 98.0946C334.86 95.7309 332.917 94.2692 329.61 94.2692C326.26 94.2692 324.053 95.7894 324.062 98.2617C324.053 100.183 325.289 101.427 327.846 101.928L330.113 102.371C331.255 102.596 331.775 103.006 331.792 103.649C331.775 104.409 330.931 104.952 329.661 104.952C328.366 104.952 327.505 104.409 327.283 103.365L323.712 103.549C324.053 106.004 326.184 107.516 329.652 107.516C333.044 107.516 335.473 105.82 335.482 103.29C335.473 101.435 334.238 100.325 331.698 99.8152L329.329 99.3475C328.11 99.0885 327.658 98.6792 327.667 98.0613C327.658 97.2928 328.544 96.7917 329.669 96.7917C330.931 96.7917 331.681 97.4682 331.86 98.2951L335.184 98.0946ZM341.501 107.508C343.436 107.508 344.689 106.681 345.328 105.486H345.43V107.265H348.873V98.6125C348.873 95.5555 346.231 94.2692 343.317 94.2692C340.18 94.2692 338.118 95.7392 337.615 98.0779L340.973 98.3452C341.22 97.4932 341.995 96.8668 343.299 96.8668C344.535 96.8668 345.243 97.4766 345.243 98.5289V98.5791C345.243 99.4059 344.348 99.5145 342.072 99.7317C339.481 99.9655 337.155 100.818 337.155 103.682C337.155 106.221 339.004 107.508 341.501 107.508ZM342.541 105.052C341.424 105.052 340.623 104.543 340.623 103.565C340.623 102.563 341.467 102.07 342.745 101.895C343.538 101.786 344.834 101.603 345.268 101.319V102.68C345.268 104.025 344.135 105.052 342.541 105.052ZM357.588 112.344C361.329 112.344 363.988 110.673 363.988 107.391V94.4363H360.383V96.5913H360.247C359.761 95.5472 358.696 94.2692 356.505 94.2692C353.633 94.2692 351.204 96.4576 351.204 100.826C351.204 105.094 353.565 107.082 356.514 107.082C358.602 107.082 359.77 106.054 360.247 104.994H360.4V107.341C360.4 109.103 359.25 109.788 357.673 109.788C356.071 109.788 355.261 109.103 354.963 108.326L351.605 108.769C352.04 110.79 354.059 112.344 357.588 112.344ZM357.665 104.409C355.883 104.409 354.912 103.023 354.912 100.809C354.912 98.6292 355.866 97.1007 357.665 97.1007C359.429 97.1007 360.417 98.5623 360.417 100.809C360.417 103.073 359.412 104.409 357.665 104.409ZM372.843 107.516C376.082 107.516 378.264 105.971 378.775 103.59L375.417 103.373C375.051 104.35 374.113 104.86 372.903 104.86C371.088 104.86 369.937 103.682 369.937 101.77V101.761H378.852V100.784C378.852 96.4242 376.159 94.2692 372.699 94.2692C368.846 94.2692 366.349 96.9503 366.349 100.909C366.349 104.977 368.812 107.516 372.843 107.516ZM369.937 99.5562C370.014 98.0946 371.147 96.9253 372.758 96.9253C374.335 96.9253 375.426 98.0278 375.434 99.5562H369.937ZM381.221 107.265H384.852V99.5646C384.852 98.1447 385.772 97.2009 386.983 97.2009C388.176 97.2009 388.977 98.0027 388.977 99.2639V107.265H392.497V99.431C392.497 98.103 393.272 97.2009 394.593 97.2009C395.753 97.2009 396.622 97.9108 396.622 99.3391V107.265H400.244V98.6375C400.244 95.8563 398.557 94.2692 396.119 94.2692C394.201 94.2692 392.71 95.2298 392.173 96.6998H392.037C391.619 95.2131 390.281 94.2692 388.483 94.2692C386.718 94.2692 385.38 95.188 384.835 96.6998H384.682V94.4363H381.221V107.265ZM414.633 107.516C417.871 107.516 420.053 105.971 420.564 103.59L417.206 103.373C416.84 104.35 415.902 104.86 414.692 104.86C412.877 104.86 411.726 103.682 411.726 101.77V101.761H420.641V100.784C420.641 96.4242 417.948 94.2692 414.488 94.2692C410.635 94.2692 408.138 96.9503 408.138 100.909C408.138 104.977 410.601 107.516 414.633 107.516ZM411.726 99.5562C411.803 98.0946 412.937 96.9253 414.547 96.9253C416.124 96.9253 417.215 98.0278 417.223 99.5562H411.726ZM426.641 99.8486C426.65 98.1948 427.655 97.226 429.121 97.226C430.579 97.226 431.456 98.1614 431.448 99.7317V107.265H435.079V99.0969C435.079 96.1067 433.289 94.2692 430.562 94.2692C428.618 94.2692 427.212 95.2047 426.624 96.6998H426.471V94.4363H423.01V107.265H426.641V99.8486ZM443.855 107.516C447.341 107.516 449.531 105.511 449.701 102.563H446.275C446.062 103.933 445.142 104.701 443.897 104.701C442.201 104.701 441.102 103.306 441.102 100.851C441.102 98.4288 442.21 97.0422 443.897 97.0422C445.227 97.0422 446.079 97.9025 446.275 99.1804H449.701C449.548 96.2153 447.255 94.2692 443.838 94.2692C439.866 94.2692 437.412 96.9671 437.412 100.901C437.412 104.801 439.824 107.516 443.855 107.516ZM457.941 107.516C461.912 107.516 464.384 104.852 464.384 100.901C464.384 96.9253 461.912 94.2692 457.941 94.2692C453.969 94.2692 451.498 96.9253 451.498 100.901C451.498 104.852 453.969 107.516 457.941 107.516ZM457.958 104.76C456.125 104.76 455.188 103.114 455.188 100.876C455.188 98.6375 456.125 96.9837 457.958 96.9837C459.756 96.9837 460.694 98.6375 460.694 100.876C460.694 103.114 459.756 104.76 457.958 104.76ZM470.375 99.8486C470.384 98.1948 471.39 97.226 472.856 97.226C474.313 97.226 475.191 98.1614 475.182 99.7317V107.265H478.813V99.0969C478.813 96.1067 477.023 94.2692 474.296 94.2692C472.353 94.2692 470.946 95.2047 470.358 96.6998H470.205V94.4363H466.745V107.265H470.375V99.8486ZM488.638 94.4363H486.174V91.3627H482.544V94.4363H480.754V97.1091H482.544V103.791C482.527 106.305 484.274 107.549 486.907 107.441C487.845 107.407 488.51 107.224 488.876 107.107L488.305 104.459C488.126 104.492 487.743 104.576 487.402 104.576C486.677 104.576 486.174 104.309 486.174 103.323V97.1091H488.638V94.4363ZM491.003 107.265H494.633V100.007C494.633 98.4288 495.809 97.3429 497.412 97.3429C497.915 97.3429 498.605 97.4264 498.946 97.535V94.3778C498.622 94.3027 498.17 94.2526 497.804 94.2526C496.338 94.2526 495.136 95.0878 494.659 96.6747H494.522V94.4363H491.003V107.265ZM504.181 107.508C506.116 107.508 507.368 106.681 508.008 105.486H508.11V107.265H511.553V98.6125C511.553 95.5555 508.911 94.2692 505.996 94.2692C502.86 94.2692 500.797 95.7392 500.294 98.0779L503.652 98.3452C503.9 97.4932 504.675 96.8668 505.979 96.8668C507.215 96.8668 507.922 97.4766 507.922 98.5289V98.5791C507.922 99.4059 507.027 99.5145 504.752 99.7317C502.161 99.9655 499.834 100.818 499.834 103.682C499.834 106.221 501.684 107.508 504.181 107.508ZM505.221 105.052C504.104 105.052 503.303 104.543 503.303 103.565C503.303 102.563 504.147 102.07 505.425 101.895C506.218 101.786 507.513 101.603 507.948 101.319V102.68C507.948 104.025 506.814 105.052 505.221 105.052ZM519.194 107.474C521.307 107.474 522.407 106.28 522.91 105.211H523.063V107.265H526.642V90.16H523.02V96.5913H522.91C522.424 95.5472 521.375 94.2692 519.185 94.2692C516.313 94.2692 513.884 96.4576 513.884 100.868C513.884 105.161 516.211 107.474 519.194 107.474ZM520.344 104.643C518.563 104.643 517.591 103.089 517.591 100.851C517.591 98.6292 518.546 97.1007 520.344 97.1007C522.108 97.1007 523.097 98.5623 523.097 100.851C523.097 103.139 522.091 104.643 520.344 104.643ZM533.361 107.508C535.295 107.508 536.548 106.681 537.187 105.486H537.29V107.265H540.733V98.6125C540.733 95.5555 538.091 94.2692 535.176 94.2692C532.04 94.2692 529.977 95.7392 529.474 98.0779L532.832 98.3452C533.079 97.4932 533.855 96.8668 535.159 96.8668C536.395 96.8668 537.102 97.4766 537.102 98.5289V98.5791C537.102 99.4059 536.207 99.5145 533.932 99.7317C531.341 99.9655 529.014 100.818 529.014 103.682C529.014 106.221 530.863 107.508 533.361 107.508ZM534.4 105.052C533.284 105.052 532.483 104.543 532.483 103.565C532.483 102.563 533.326 102.07 534.605 101.895C535.397 101.786 536.693 101.603 537.128 101.319V102.68C537.128 104.025 535.994 105.052 534.4 105.052Z" fill="#343A40"/>
</svg>
